<svg xmlns="http://www.w3.org/2000/svg" width="96" height="96" viewBox="0 0 96 96"><g transform="translate(-1172 -2550)"><circle cx="48" cy="48" r="48" transform="translate(1172 2550)" fill="#ffeb8d"/><g transform="translate(1187.345 2565.844)"><g transform="translate(0.573 10.373)"><g transform="translate(0)"><path d="M52.7,125.643l-2.4-7.205a7.262,7.262,0,0,0-5.59-4.847l-6.932-1.261v-.537a10.44,10.44,0,0,0,3.092-2.746h2.094a3.116,3.116,0,0,0,3.112-3.112V93.485a13.485,13.485,0,0,0-26.971,0v7.261a4.156,4.156,0,0,0,3.308,4.063,10.393,10.393,0,0,0,4.991,6.981v.537l-6.934,1.261a7.26,7.26,0,0,0-5.589,4.847l-.415,1.246-3.533-3.533a1.039,1.039,0,0,1,0-1.468l4.1-4.1-7.691-7.691-4.631,4.631a7.261,7.261,0,0,0,0,10.269l14.02,14.02a7.258,7.258,0,0,0,10.236.031l5.053-4.63-1.576-1.573ZM44,105.933a1.038,1.038,0,0,1-1.037,1.037h-.872a10.3,10.3,0,0,0,.676-2.161A4.109,4.109,0,0,0,44,104.319Zm-1.037-3.4V98.96a2.057,2.057,0,0,1,0,3.573Zm-20.747,0a2.057,2.057,0,0,1,0-3.573Zm0-6.973v1.185a4.114,4.114,0,0,0-1.037.429V93.485a11.411,11.411,0,1,1,22.821,0v3.689a4.077,4.077,0,0,0-1.037-.429V95.56H41.924A11.413,11.413,0,0,1,33.8,92.2l-1.215-1.215L31.373,92.2a11.413,11.413,0,0,1-8.121,3.364Zm2.075,7.261V97.6a13.449,13.449,0,0,0,8.3-3.687,13.443,13.443,0,0,0,8.3,3.687v5.226a8.236,8.236,0,0,1-1.122,4.149H32.588v2.075h5.471a8.285,8.285,0,0,1-13.77-6.224Zm11.411,9.9v.049l-3.112,3.112-3.112-3.112v-.049a10.365,10.365,0,0,0,6.224,0Zm-18.855,6.376a5.188,5.188,0,0,1,3.993-3.464l7.251-1.317,4.5,4.5,4.5-4.5,7.25,1.317a5.187,5.187,0,0,1,3.993,3.464l1.493,4.474H28.365l-4.04-4.04-4.49,4.061a1.059,1.059,0,0,1-1.467,0L16.1,121.323ZM7.336,105.829l4.757,4.757-1.127,1.127L6.21,106.955Zm18.19,24.52a5.188,5.188,0,0,1-7.335,0L4.171,116.328a5.188,5.188,0,0,1,0-7.335l.571-.571L9.5,113.18l-.037.037a3.117,3.117,0,0,0,0,4.4l7.439,7.439a3.1,3.1,0,0,0,2.2.912,3.054,3.054,0,0,0,2.163-.876l.078-.07,4.779,4.779Zm2.127-1.95-4.769-4.769,1.37-1.239,4.76,4.76Z" transform="translate(-0.58 -80)" fill="#dbbe36"/></g></g><g transform="translate(43.992)"><path d="M353.063,0H338.54a3.116,3.116,0,0,0-3.112,3.112v8.3a3.116,3.116,0,0,0,3.112,3.112h2.771l-1.073,6.256,10.01-6.256h2.814a3.116,3.116,0,0,0,3.112-3.112v-8.3A3.116,3.116,0,0,0,353.063,0ZM354.1,11.411a1.039,1.039,0,0,1-1.037,1.037h-3.41l-6.588,4.117.706-4.117H338.54a1.039,1.039,0,0,1-1.037-1.037v-8.3a1.039,1.039,0,0,1,1.037-1.037h14.523A1.039,1.039,0,0,1,354.1,3.112Z" transform="translate(-335.428)" fill="#dbbe36"/></g><g transform="translate(48.141 4.149)"><rect width="12.448" height="2.075" fill="#dbbe36"/></g><g transform="translate(48.141 8.299)"><rect width="8.299" height="2.075" fill="#dbbe36"/></g><g transform="translate(58.514 8.299)"><rect width="2.075" height="2.075" fill="#dbbe36"/></g><g transform="translate(0.572 3.112)"><path d="M32.581,24A29.027,29.027,0,0,0,4.317,46.453L2.351,43.176.572,44.244l3.646,6.076,6.076-3.646L9.226,44.894,6.415,46.581a26.978,26.978,0,0,1,34.157-19.3l.614-1.981A29.026,29.026,0,0,0,32.581,24Z" transform="translate(-0.572 -24)" fill="#dbbe36"/></g><g transform="translate(53.536 19.322)"><path d="M419.734,152.662l-6.076-3.646-3.645,6.077,1.779,1.067,1.815-3.026a26.993,26.993,0,0,1-4.572,25.7l1.611,1.307a29.049,29.049,0,0,0,4.971-27.527l3.049,1.829Z" transform="translate(-409.036 -149.016)" fill="#dbbe36"/></g></g></g></svg>