<svg xmlns="http://www.w3.org/2000/svg" width="606.75" height="433.5" viewBox="0 0 606.75 433.5"><g transform="translate(-482.945 -2934.5)"><text transform="translate(715 3227)" fill="#12263f" font-size="18" font-family="Roboto-Black, Roboto" font-weight="800"><tspan x="0" y="19">Clientes y mercados</tspan></text><g transform="translate(648.5 3036)" fill="none" stroke="#bae4f8" stroke-width="12"><circle cx="152" cy="152" r="152" stroke="none"/><circle cx="152" cy="152" r="146" fill="none"/></g><circle cx="57.5" cy="57.5" r="57.5" transform="translate(743 2989)" fill="#53bced"/><circle cx="51.5" cy="51.5" r="51.5" transform="translate(749 2995)" fill="#0d66bf"/><circle cx="48.5" cy="48.5" r="48.5" transform="translate(752 2998)" fill="#81d7ff"/><g transform="translate(139 107)"><circle cx="57.5" cy="57.5" r="57.5" transform="translate(743 2989)" fill="#53bced"/><circle cx="51.5" cy="51.5" r="51.5" transform="translate(749 2995)" fill="#0d66bf"/><circle cx="48.5" cy="48.5" r="48.5" transform="translate(752 2998)" fill="#81d7ff"/></g><g transform="translate(-139 107)"><circle cx="57.5" cy="57.5" r="57.5" transform="translate(743 2989)" fill="#53bced"/><circle cx="51.5" cy="51.5" r="51.5" transform="translate(749 2995)" fill="#0d66bf"/><circle cx="48.5" cy="48.5" r="48.5" transform="translate(752 2998)" fill="#81d7ff"/></g><g transform="translate(-81 264)"><circle cx="57.5" cy="57.5" r="57.5" transform="translate(743 2989)" fill="#53bced"/><circle cx="51.5" cy="51.5" r="51.5" transform="translate(749 2995)" fill="#0d66bf"/><circle cx="48.5" cy="48.5" r="48.5" transform="translate(752 2998)" fill="#81d7ff"/></g><g transform="translate(82 264)"><circle cx="57.5" cy="57.5" r="57.5" transform="translate(743 2989)" fill="#53bced"/><circle cx="51.5" cy="51.5" r="51.5" transform="translate(749 2995)" fill="#0d66bf"/><circle cx="48.5" cy="48.5" r="48.5" transform="translate(752 2998)" fill="#81d7ff"/></g><g transform="translate(908.947 3122.891)"><path d="M9.3,256A1.792,1.792,0,0,0,7.5,257.9a29.691,29.691,0,0,0,13.182,22.832,1.79,1.79,0,0,0,2.538-.6L37.156,256Zm0,0" transform="translate(-6.603 -225.391)" fill="#ffa000"/><path d="M165.085,280.133,151.152,256l-13.933,24.133a1.789,1.789,0,0,0,.743,2.5,29.765,29.765,0,0,0,26.38,0,1.789,1.789,0,0,0,.743-2.5Zm0,0" transform="translate(-120.599 -225.391)" fill="#ffa000"/><path d="M23.225,47.558a1.79,1.79,0,0,0-2.538-.6A29.691,29.691,0,0,0,7.5,69.788a1.792,1.792,0,0,0,1.791,1.9H37.156Zm0,0" transform="translate(-6.603 -41.079)" fill="#ffa000"/><path d="M164.342,10.582a29.769,29.769,0,0,0-26.38,0,1.789,1.789,0,0,0-.743,2.5l13.933,24.133,13.933-24.133a1.789,1.789,0,0,0-.743-2.5Zm0,0" transform="translate(-120.599 -6.603)" fill="#ffa000"/><path d="M285.182,69.787A29.691,29.691,0,0,0,272,46.955a1.79,1.79,0,0,0-2.538.6L255.53,71.687h12.076v5.986a2.216,2.216,0,0,0,2.216,2.216h.057a2.286,2.286,0,0,0,2.3-2.284v-.822a1.423,1.423,0,0,1,2.846,0v6.391a1.742,1.742,0,1,0,3.484,0V71.687h4.887a1.792,1.792,0,0,0,1.792-1.9Zm0,0" transform="translate(-224.978 -41.078)" fill="#ffa000"/><path d="M46.861,256a26.2,26.2,0,0,0-.1,4.387,24.99,24.99,0,0,0,1.587,4.091,25.551,25.551,0,0,0,1.414,4.154,25.474,25.474,0,0,0,2.9,3.3,25.634,25.634,0,0,0,2.748,3.422,25.659,25.659,0,0,0,3.844,2.115L71.645,256Zm0,0" transform="translate(-41.092 -225.391)" fill="#ffe082"/><path d="M124.652,256l-10.773,18.659c1.368,1.563,2.877,1.844,4.542,2.808L130.815,256Zm0,0" transform="translate(-100.262 -225.391)" fill="#ffb300"/><path d="M151.867,277.467a25.2,25.2,0,0,0,3.752,2.278,25.687,25.687,0,0,0,4.337.666,25.109,25.109,0,0,0,4.305.85,25.1,25.1,0,0,0,4.3-.85,25.689,25.689,0,0,0,4.337-.666,25.112,25.112,0,0,0,3.751-2.278h0L164.261,256Zm0,0" transform="translate(-133.709 -225.391)" fill="#ffe082"/><path d="M166.916,256l-1.7,2.946,9.312,16.13h0a25.121,25.121,0,0,1-3.751,2.278,25.646,25.646,0,0,1-4.337.666,25.1,25.1,0,0,1-4.3.85,25.11,25.11,0,0,1-4.305-.85c-.972-.17-1.98-.191-2.946-.333a18.55,18.55,0,0,0,3.391,2.058,25.607,25.607,0,0,0,4.337.666,25.119,25.119,0,0,0,4.305.851,25.105,25.105,0,0,0,4.3-.851,25.592,25.592,0,0,0,4.337-.666,25.145,25.145,0,0,0,3.751-2.277h0Zm0,0" transform="translate(-136.364 -225.391)" fill="#ffb300"/><path d="M59.251,76.453a25.653,25.653,0,0,0-3.844,2.115,25.613,25.613,0,0,0-2.748,3.422,25.411,25.411,0,0,0-2.9,3.3,25.548,25.548,0,0,0-1.414,4.154,24.947,24.947,0,0,0-1.587,4.091,26.2,26.2,0,0,0,.1,4.387H71.645Zm0,0" transform="translate(-41.092 -67.311)" fill="#ffe082"/><path d="M59.5,76.453c-.845.489-1.781.852-2.641,1.318L65.04,91.942a2.391,2.391,0,0,1-2.071,3.587H46.957c.054.791.154,1.593.154,2.391H71.894Zm0,0" transform="translate(-41.342 -67.311)" fill="#ffb300"/><path d="M172.9,46.232a25.694,25.694,0,0,0-4.337-.666,25.109,25.109,0,0,0-4.305-.85,25.1,25.1,0,0,0-4.3.85,25.7,25.7,0,0,0-4.337.666,23.021,23.021,0,0,0-3.752,2.278l12.394,21.467L176.656,48.51a25.2,25.2,0,0,0-3.752-2.278Zm0,0" transform="translate(-133.709 -39.368)" fill="#ffe082"/><path d="M241.479,54.954a7.036,7.036,0,0,0-1.391-.333c.116.074.24.149.36.22L229.754,73.361l3.082,5.337L245.23,57.231a25.2,25.2,0,0,0-3.752-2.278Zm0,0" transform="translate(-202.284 -48.09)" fill="#ffb300"/><path d="M278.5,97.92h1.811a26.2,26.2,0,0,0,.1-4.387,24.988,24.988,0,0,0-1.587-4.091,25.554,25.554,0,0,0-1.414-4.154,25.476,25.476,0,0,0-2.9-3.3,25.638,25.638,0,0,0-2.748-3.422,25.658,25.658,0,0,0-3.844-2.115L255.532,97.92h12.076v5.986a2.216,2.216,0,0,0,2.216,2.216h.057a2.286,2.286,0,0,0,2.3-2.284v-.822a1.423,1.423,0,1,1,2.845,0v6.391a1.742,1.742,0,0,0,3.485,0Zm0,0" transform="translate(-224.979 -67.311)" fill="#ffe082"/><path d="M280.414,93.533a24.993,24.993,0,0,0-1.587-4.091,25.557,25.557,0,0,0-1.414-4.154,25.478,25.478,0,0,0-2.9-3.3,25.633,25.633,0,0,0-2.748-3.422,25.655,25.655,0,0,0-3.844-2.115l-.241.417c.743.85,1.325,1.865,2.05,2.728a25.481,25.481,0,0,1,2.9,3.3,25.554,25.554,0,0,1,1.414,4.154,24.932,24.932,0,0,1,1.587,4.091l.007.042a3.759,3.759,0,0,1-3.727,4.345h-15l-1.381,2.391h18.19V101.6a1.423,1.423,0,0,1,1.3,1.417v6.391a1.742,1.742,0,1,0,3.484,0V97.921h1.811a26.2,26.2,0,0,0,.1-4.387Zm0,0" transform="translate(-224.979 -67.312)" fill="#ffb300"/><path d="M210.6,373.953a3.555,3.555,0,1,1-3.555-3.555A3.555,3.555,0,0,1,210.6,373.953Zm0,0" transform="translate(-179.158 -326.112)" fill="#ef5350"/><path d="M117.91,326.812a3.554,3.554,0,1,1-3.555-3.554A3.555,3.555,0,0,1,117.91,326.812Zm0,0" transform="translate(-97.553 -284.607)" fill="#ef5350"/><path d="M142.371,173.679a3.555,3.555,0,1,1-3.555-3.555A3.555,3.555,0,0,1,142.371,173.679Zm0,0" transform="translate(-119.089 -149.783)" fill="#ef5350"/><path d="M204.793,72.941a3.554,3.554,0,1,1-3.555-3.555A3.555,3.555,0,0,1,204.793,72.941Zm0,0" transform="translate(-174.048 -61.09)" fill="#ef5350"/><g transform="translate(8.86 9.142)"><path d="M361.554,122.828a1.777,1.777,0,1,1-1.777-1.777A1.777,1.777,0,0,1,361.554,122.828Zm0,0" transform="translate(-324.055 -115.718)" fill="#ffa000"/><path d="M313.719,200.027a1.777,1.777,0,1,1-1.778-1.777A1.778,1.778,0,0,1,313.719,200.027Zm0,0" transform="translate(-281.939 -183.687)" fill="#ffa000"/><path d="M296.277,78.231a1.777,1.777,0,1,1-1.777-1.778A1.777,1.777,0,0,1,296.277,78.231Zm0,0" transform="translate(-266.583 -76.453)" fill="#ffa000"/><path d="M244.219,160.477a1.777,1.777,0,1,1-1.778-1.777A1.778,1.778,0,0,1,244.219,160.477Zm0,0" transform="translate(-220.749 -148.866)" fill="#ffa000"/><path d="M77.648,206.027a1.777,1.777,0,1,1-1.777-1.777A1.777,1.777,0,0,1,77.648,206.027Zm0,0" transform="translate(-74.093 -188.97)" fill="#ffa000"/><path d="M163.019,276.539a1.777,1.777,0,1,1-1.777-1.778A1.777,1.777,0,0,1,163.019,276.539Zm0,0" transform="translate(-149.257 -251.052)" fill="#ffa000"/><path d="M129.133,115.256a1.777,1.777,0,1,0-1.207,2.2A1.777,1.777,0,0,0,129.133,115.256Zm0,0" transform="translate(-119.486 -109.491)" fill="#ffa000"/><path d="M83,287.508a1.777,1.777,0,1,1-1.778-1.777A1.778,1.778,0,0,1,83,287.508Zm0,0" transform="translate(-78.809 -260.709)" fill="#ffa000"/><path d="M292.363,401.906a1.777,1.777,0,1,1-1.777-1.777A1.777,1.777,0,0,1,292.363,401.906Zm0,0" transform="translate(-263.137 -361.429)" fill="#ffa000"/><path d="M244.219,317.234a1.777,1.777,0,1,1-1.778-1.778A1.778,1.778,0,0,1,244.219,317.234Zm0,0" transform="translate(-220.749 -286.881)" fill="#ffa000"/></g><path d="M375.511,175.679a3.554,3.554,0,1,1-3.555-3.555A3.555,3.555,0,0,1,375.511,175.679Zm0,0" transform="translate(-324.354 -151.544)" fill="#ef5350"/><path d="M210.9,371.047a3.558,3.558,0,0,1-3.871,5.16,3.555,3.555,0,1,0,3.871-5.16Zm0,0" transform="translate(-182.277 -326.683)" fill="#d32f2f"/><path d="M118.211,323.906a3.558,3.558,0,0,1-3.871,5.16,3.555,3.555,0,1,0,3.871-5.16Zm0,0" transform="translate(-100.668 -285.178)" fill="#d32f2f"/><path d="M142.676,170.773a3.558,3.558,0,0,1-3.871,5.16,3.555,3.555,0,1,0,3.871-5.16Zm0,0" transform="translate(-122.208 -150.354)" fill="#d32f2f"/><path d="M205.094,70.035a3.558,3.558,0,0,1-3.871,5.16,3.555,3.555,0,1,0,3.871-5.16Zm0,0" transform="translate(-177.164 -61.661)" fill="#d32f2f"/><path d="M375.812,172.777a3.558,3.558,0,0,1-3.871,5.16,3.555,3.555,0,1,0,3.871-5.16Zm0,0" transform="translate(-327.47 -152.119)" fill="#d32f2f"/><path d="M204.891,367.35a4.451,4.451,0,1,0-4.451,4.451A4.457,4.457,0,0,0,204.891,367.35Zm-7.109,0a2.658,2.658,0,1,1,2.658,2.658A2.661,2.661,0,0,1,197.781,367.35Zm0,0" transform="translate(-172.554 -319.509)"/><path d="M107.751,315.758a4.451,4.451,0,1,0,4.451,4.451A4.456,4.456,0,0,0,107.751,315.758Zm0,7.109a2.658,2.658,0,1,1,2.658-2.658A2.661,2.661,0,0,1,107.751,322.867Zm0,0" transform="translate(-90.949 -278.004)"/><path d="M132.213,162.625a4.451,4.451,0,1,0,4.451,4.451A4.456,4.456,0,0,0,132.213,162.625Zm0,7.109a2.658,2.658,0,1,1,2.657-2.658A2.661,2.661,0,0,1,132.213,169.734Zm0,0" transform="translate(-112.485 -143.18)"/><path d="M199.086,66.338a4.451,4.451,0,1,0-4.451,4.451A4.457,4.457,0,0,0,199.086,66.338Zm-7.109,0A2.658,2.658,0,1,1,194.635,69,2.661,2.661,0,0,1,191.977,66.338Zm0,0" transform="translate(-167.444 -54.487)"/><path d="M355.848,116.225a2.674,2.674,0,1,0-2.674,2.674A2.677,2.677,0,0,0,355.848,116.225Zm-3.555,0a.881.881,0,1,1,.881.88A.881.881,0,0,1,352.293,116.225Zm0,0" transform="translate(-308.592 -99.974)"/><path d="M305.338,190.75a2.674,2.674,0,1,0,2.674,2.674A2.677,2.677,0,0,0,305.338,190.75Zm0,3.555a.881.881,0,1,1,.881-.881A.882.882,0,0,1,305.338,194.3Zm0,0" transform="translate(-266.476 -167.943)"/><path d="M287.9,74.3a2.674,2.674,0,1,0-2.674-2.674A2.677,2.677,0,0,0,287.9,74.3Zm0-3.555a.881.881,0,1,1-.88.881A.882.882,0,0,1,287.9,70.747Zm0,0" transform="translate(-251.124 -60.709)"/><path d="M233.164,153.874a2.674,2.674,0,1,0,2.674-2.674A2.678,2.678,0,0,0,233.164,153.874Zm3.555,0a.881.881,0,1,1-.881-.88A.882.882,0,0,1,236.719,153.874Zm0,0" transform="translate(-205.286 -133.121)"/><path d="M69.271,196.75a2.674,2.674,0,1,0,2.674,2.674A2.677,2.677,0,0,0,69.271,196.75Zm0,3.555a.881.881,0,1,1,.88-.881A.881.881,0,0,1,69.271,200.3Zm0,0" transform="translate(-58.634 -173.225)"/><path d="M154.639,272.61a2.674,2.674,0,1,0-2.674-2.674A2.677,2.677,0,0,0,154.639,272.61Zm0-3.555a.881.881,0,1,1-.881.881A.882.882,0,0,1,154.639,269.055Zm0,0" transform="translate(-133.795 -235.306)"/><path d="M120.832,111.821a2.678,2.678,0,1,0-1.281-.33,2.677,2.677,0,0,0,1.281.33Zm-.243-3.521a.887.887,0,0,1,.248-.036.882.882,0,1,1-.248.036Zm0,0" transform="translate(-104.033 -93.74)"/><path d="M77.3,280.9a2.674,2.674,0,1,0-2.674,2.674A2.677,2.677,0,0,0,77.3,280.9Zm-2.674.88a.881.881,0,1,1,.881-.88A.882.882,0,0,1,74.623,281.785Zm0,0" transform="translate(-63.346 -244.964)"/><path d="M283.982,397.976a2.674,2.674,0,1,0-2.674-2.674A2.677,2.677,0,0,0,283.982,397.976Zm0-3.554a.88.88,0,1,1-.88.88A.881.881,0,0,1,283.982,394.422Zm0,0" transform="translate(-247.674 -345.684)"/><path d="M235.838,313.309a2.674,2.674,0,1,0-2.674-2.674A2.677,2.677,0,0,0,235.838,313.309Zm0-3.555a.881.881,0,1,1-.88.881A.882.882,0,0,1,235.838,309.754Zm0,0" transform="translate(-205.285 -271.14)"/><path d="M365.353,164.625a4.451,4.451,0,1,0,4.451,4.451A4.456,4.456,0,0,0,365.353,164.625Zm0,7.109a2.658,2.658,0,1,1,2.658-2.658A2.661,2.661,0,0,1,365.353,171.734Zm0,0" transform="translate(-317.751 -144.941)"/><path d="M61.1,28.652A30.615,30.615,0,0,0,47.519,5.131a2.681,2.681,0,0,0-2.031-.39,2.675,2.675,0,0,0-1.347-1.565,30.662,30.662,0,0,0-27.177,0,2.677,2.677,0,0,0-1.347,1.565,2.682,2.682,0,0,0-2.031.39A30.616,30.616,0,0,0,.006,28.652a2.692,2.692,0,0,0,.68,1.956,2.69,2.69,0,0,0-.68,1.956,30.615,30.615,0,0,0,13.58,23.522,2.673,2.673,0,0,0,2.031.39,2.677,2.677,0,0,0,1.347,1.566,30.663,30.663,0,0,0,27.177,0,2.688,2.688,0,0,0,1.121-3.748L32.106,31.505h9.626v5.089A3.11,3.11,0,0,0,44.9,39.707a3.19,3.19,0,0,0,3.192-3.181V35.7a.526.526,0,1,1,1.052,0V42.1a2.639,2.639,0,0,0,5.278,0V31.505h3.99A2.691,2.691,0,0,0,61.1,28.652ZM14.891,49.275a27.212,27.212,0,0,1-2.638-3.312,26.954,26.954,0,0,1-2.806-3.17A27.039,27.039,0,0,1,8.1,38.781a26.28,26.28,0,0,1-1.546-3.939,14.815,14.815,0,0,1,.079-3.336H29L17.814,50.879a14.548,14.548,0,0,1-2.923-1.6Zm-8.337-22.9A26.279,26.279,0,0,1,8.1,22.437a27.057,27.057,0,0,1,1.348-4.012,26.918,26.918,0,0,1,2.806-3.17,27.148,27.148,0,0,1,2.638-3.312,14.554,14.554,0,0,1,2.923-1.6l4.719,8.173a.9.9,0,1,0,1.553-.9L19.366,9.44a14.335,14.335,0,0,1,2.851-1.733A27.172,27.172,0,0,1,26.4,7.081a26.473,26.473,0,0,1,4.15-.837,26.467,26.467,0,0,1,4.151.837,27.163,27.163,0,0,1,4.185.625A14.353,14.353,0,0,1,41.739,9.44L30.552,28.815l-4.374-7.576a.9.9,0,0,0-1.553.9L29,29.712H6.633a14.789,14.789,0,0,1-.079-3.336ZM17.761,4.782a28.871,28.871,0,0,1,25.582,0,.892.892,0,0,1,.365,1.246L42.638,7.882A14.4,14.4,0,0,0,39.5,6.021a24.651,24.651,0,0,0-4.489-.707,24.149,24.149,0,0,0-4.46-.864,24.144,24.144,0,0,0-4.459.864,24.628,24.628,0,0,0-4.49.707,14.384,14.384,0,0,0-3.136,1.861L17.4,6.029h0a.892.892,0,0,1,.365-1.246ZM1.8,28.765A28.979,28.979,0,0,1,14.581,6.622a.892.892,0,0,1,1.263.3l1.07,1.854a14.571,14.571,0,0,0-3.178,1.788A24.6,24.6,0,0,0,10.88,14.1,24.4,24.4,0,0,0,7.9,17.527a24.5,24.5,0,0,0-1.481,4.3,23.98,23.98,0,0,0-1.628,4.244,14.746,14.746,0,0,0,.048,3.645H2.692a.894.894,0,0,1-.9-.947Zm12.785,25.83A28.978,28.978,0,0,1,1.8,32.452a.894.894,0,0,1,.9-.947H4.835a14.747,14.747,0,0,0-.048,3.645,23.965,23.965,0,0,0,1.628,4.244,24.553,24.553,0,0,0,1.481,4.3,24.457,24.457,0,0,0,2.985,3.426,24.575,24.575,0,0,0,2.858,3.531,14.544,14.544,0,0,0,3.177,1.788l-1.07,1.854a.891.891,0,0,1-1.263.3Zm28.762,1.841a28.871,28.871,0,0,1-25.582,0A.892.892,0,0,1,17.4,55.19l1.071-1.855A14.4,14.4,0,0,0,21.6,55.2a.9.9,0,0,0,.614-1.685,14.321,14.321,0,0,1-2.851-1.734L30.552,32.4,41.739,51.777a14.334,14.334,0,0,1-2.851,1.734,27.229,27.229,0,0,1-4.185.625,26.521,26.521,0,0,1-4.151.837c-1.422,0-2.818-.65-4.49-.892a.9.9,0,1,0-.256,1.775c1.545.223,3.019.91,4.746.91a24.118,24.118,0,0,0,4.46-.864A24.6,24.6,0,0,0,39.5,55.2a14.366,14.366,0,0,0,3.136-1.861l1.071,1.855a.892.892,0,0,1-.365,1.246ZM53.526,29.712a.9.9,0,0,0-.9.9V42.1a.845.845,0,1,1-1.691,0V35.7a2.32,2.32,0,0,0-4.639,0v.822a1.4,1.4,0,0,1-1.455,1.387,1.318,1.318,0,0,1-1.319-1.319V31.505h6.781a.9.9,0,1,0,0-1.793h-18.2L43.291,10.339a14.535,14.535,0,0,1,2.923,1.6,27.177,27.177,0,0,1,2.638,3.312,26.916,26.916,0,0,1,2.806,3.17,27.092,27.092,0,0,1,1.348,4.012,26.329,26.329,0,0,1,1.546,3.939,14.79,14.79,0,0,1-.079,3.336Zm4.887,0H56.27a14.747,14.747,0,0,0,.048-3.645,23.965,23.965,0,0,0-1.628-4.244,24.515,24.515,0,0,0-1.481-4.3A24.408,24.408,0,0,0,50.225,14.1a24.564,24.564,0,0,0-2.857-3.531A14.575,14.575,0,0,0,44.19,8.781l1.07-1.854a.892.892,0,0,1,1.263-.3A28.98,28.98,0,0,1,59.309,28.765a.894.894,0,0,1-.9.947Zm0,0" transform="translate(0)"/></g><g transform="translate(690.947 3277.78)"><g transform="translate(1.321 0.823)"><path d="M463.284,179.468h0Z" transform="translate(-413.292 -160.585)" fill="#ffd15b"/><path d="M153.256,59.058l-2.712-41.5a1.163,1.163,0,0,0-.5-.908L143.11,12.17a.84.84,0,0,0-.93,0l-6.938,4.481a1.164,1.164,0,0,0-.5.908l-2.712,41.5A1.029,1.029,0,0,1,131,60.1l-1.443-.13a1.092,1.092,0,0,1-.888-1.218l2.851-43.64a1.163,1.163,0,0,1,.5-.908L142.18,7.639a.84.84,0,0,1,.93,0l8.789,5.677.279.889a1.163,1.163,0,0,1,.5.908l2.851,43.64a1.092,1.092,0,0,1-.888,1.218l-.345.13A1.029,1.029,0,0,1,153.256,59.058Z" transform="translate(-115.413 -7.499)" fill="#f3f0f3"/><path d="M344.1,107.136l-1.443.13a.84.84,0,0,1-.485-.1l.281-.025a1.093,1.093,0,0,0,.888-1.219L340.26,60.48l1.378.889a1.162,1.162,0,0,1,.5.907l2.852,43.64A1.093,1.093,0,0,1,344.1,107.136Z" transform="translate(-303.776 -54.662)" fill="#e2dee2"/><path d="M110.588,434.2h-4.636a1.1,1.1,0,0,1-1.1-1.1v-3.546a1.1,1.1,0,0,1,1.1-1.1h4.636a1.1,1.1,0,0,1,1.1,1.1V433.1A1.1,1.1,0,0,1,110.588,434.2Z" transform="translate(-94.219 -382.237)" fill="#7a6d79"/><path d="M330.66,434.2h-4.636a1.1,1.1,0,0,1-1.1-1.1v-3.546a1.1,1.1,0,0,1,1.1-1.1h4.636a1.1,1.1,0,0,1,1.1,1.1V433.1A1.1,1.1,0,0,1,330.66,434.2Z" transform="translate(-290.126 -382.237)" fill="#7a6d79"/><path d="M151.462,429.558V433.1a1.1,1.1,0,0,1-1.1,1.1H147.07a1.1,1.1,0,0,0,1.1-1.1v-3.546a1.1,1.1,0,0,0-1.1-1.1h3.294A1.1,1.1,0,0,1,151.462,429.558Z" transform="translate(-131.799 -382.237)" fill="#685e68"/><path d="M371.542,429.558V433.1a1.1,1.1,0,0,1-1.1,1.1H367.15a1.1,1.1,0,0,0,1.1-1.1v-3.546a1.1,1.1,0,0,0-1.1-1.1h3.294A1.1,1.1,0,0,1,371.542,429.558Z" transform="translate(-327.714 -382.237)" fill="#685e68"/><path d="M59.584,471.511H8.677a.68.68,0,0,1-.68-.68,3.389,3.389,0,0,1,3.389-3.389h45.49a3.389,3.389,0,0,1,3.389,3.389.68.68,0,0,1-.68.68Z" transform="translate(-7.997 -416.938)" fill="#bbec6c"/><path d="M440.921,470.828a.679.679,0,0,1-.68.681h-4.392a.679.679,0,0,0,.68-.681,3.388,3.388,0,0,0-3.389-3.389h4.392A3.388,3.388,0,0,1,440.921,470.828Z" transform="translate(-386.458 -416.937)" fill="#a2e62e"/></g><g transform="translate(0.498 0)"><path d="M36.288,20.874h3.166v2.534H37.8a.824.824,0,0,0,0,1.647h1.657v1.325H37.8a.824.824,0,1,0,0,1.647h1.657v1.325H37.8A.824.824,0,0,0,37.8,31h4.961a.824.824,0,1,0,0-1.647H41.1V28.026h1.657a.824.824,0,1,0,0-1.647H41.1V25.055h1.657a.824.824,0,1,0,0-1.647H41.1V20.874h5.307l-.977,14.958a.824.824,0,0,0,.768.875l.055,0a.824.824,0,0,0,.821-.77L48.868,8.492a.359.359,0,0,1,.123-.27L59.156,1.656c.022-.014.017-.012.036,0L69.357,8.222a.359.359,0,0,1,.123.269L71.2,34.752a.824.824,0,0,0,1.644-.107l-.9-13.771h5.307v2.534H75.589a.824.824,0,0,0,0,1.647h1.657v1.325H75.589a.824.824,0,0,0,0,1.647h1.657v1.325H75.589a.824.824,0,0,0,0,1.647H80.55a.824.824,0,0,0,0-1.647H78.893V28.026H80.55a.824.824,0,0,0,0-1.647H78.893V25.054H80.55a.824.824,0,0,0,0-1.647H78.893V20.874h3.166a1.391,1.391,0,0,0,.678-2.6L71.353,11.908l-.23-3.523a1.985,1.985,0,0,0-.872-1.545L60.085.272a1.661,1.661,0,0,0-1.823,0L48.1,6.839a1.985,1.985,0,0,0-.872,1.546l-.23,3.523L35.609,18.269a1.391,1.391,0,0,0,.679,2.6Zm44.787-1.647H71.831l-.35-5.361ZM46.866,13.866l-.35,5.361H37.272Z" transform="translate(-31.118 0)"/><path d="M52.4,87.239H45.973V84.88a1.924,1.924,0,0,0-1.922-1.922H42.975l-.522-8a.824.824,0,0,0-1.644.107l.515,7.89H39.587L37.275,47.566a1.985,1.985,0,0,0-.873-1.545l-6.937-4.481a1.661,1.661,0,0,0-1.823,0L20.7,46.021a1.985,1.985,0,0,0-.873,1.546L17.519,82.959H15.782l.438-6.7a.824.824,0,0,0-1.644-.107l-.445,6.809H13.055a1.924,1.924,0,0,0-1.922,1.922v2.359H4.71A4.217,4.217,0,0,0,.5,91.451a1.506,1.506,0,0,0,1.5,1.5H42.274a.824.824,0,1,0,0-1.647H2.149A2.568,2.568,0,0,1,4.71,88.886H52.4a2.568,2.568,0,0,1,2.561,2.422H45.863a.824.824,0,1,0,0,1.647H55.1a1.506,1.506,0,0,0,1.5-1.5A4.217,4.217,0,0,0,52.4,87.239Zm-8.07-2.359v2.359H36.945V84.88a.275.275,0,0,1,.275-.275h6.832A.275.275,0,0,1,44.326,84.88Zm-22.884-36.7,5.354,2.84-5.738,3.044Zm14.222,0,.384,5.885L30.31,51.024ZM36.827,65.97,30.31,62.513l6.08-3.225ZM36.175,56l.1,1.486-7.719,4.095-7.719-4.1.1-1.486,7.622-4.043ZM20.716,59.288l6.08,3.225L20.28,65.97Zm-.725,11.1L26.8,74,19.5,77.872Zm.118-1.8.045-.689,8.4-4.456,8.4,4.456L37,68.59l-8.445,4.48Zm17.007,1.8.489,7.479L30.31,74Zm-8.58-27.469c.022-.014.017-.012.036,0l6.086,3.931-6.1,3.238-6.1-3.238ZM19.376,79.8l9.177-4.869L37.73,79.8l.206,3.156h-.717A1.924,1.924,0,0,0,35.3,84.88v2.359H21.808V84.88a1.924,1.924,0,0,0-1.922-1.922H19.17Zm-6.6,5.078a.275.275,0,0,1,.275-.275h6.832a.275.275,0,0,1,.275.275v2.359H12.78Z" transform="translate(-0.498 -36.736)"/></g></g><path d="M3.258,5.625l3.719,9.281L10.7,5.625h1.945V17h-1.5V12.57l.141-4.781L7.547,17H6.4L2.672,7.813,2.82,12.57V17H1.32V5.625ZM18.57,17.156a3.693,3.693,0,0,1-2.8-1.129,4.19,4.19,0,0,1-1.078-3.02v-.266a5.073,5.073,0,0,1,.48-2.246A3.748,3.748,0,0,1,16.52,8.949a3.378,3.378,0,0,1,1.871-.559,3.166,3.166,0,0,1,2.563,1.086,4.7,4.7,0,0,1,.914,3.109v.6H16.141a3,3,0,0,0,.73,2.02,2.3,2.3,0,0,0,1.777.77,2.517,2.517,0,0,0,1.3-.312,3.259,3.259,0,0,0,.93-.828l.883.688A3.55,3.55,0,0,1,18.57,17.156Zm-.18-7.578a1.928,1.928,0,0,0-1.469.637A3.1,3.1,0,0,0,16.188,12h4.234v-.109a2.753,2.753,0,0,0-.594-1.707A1.815,1.815,0,0,0,18.391,9.578Zm9.234.266a4.331,4.331,0,0,0-.711-.055A1.9,1.9,0,0,0,24.984,11v6H23.539V8.547h1.406l.023.977a2.251,2.251,0,0,1,2.016-1.133,1.477,1.477,0,0,1,.641.109Zm4.57,6.133a2.082,2.082,0,0,0,1.352-.469,1.649,1.649,0,0,0,.641-1.172h1.367a2.621,2.621,0,0,1-.5,1.383,3.293,3.293,0,0,1-1.23,1.047,3.55,3.55,0,0,1-1.629.391A3.482,3.482,0,0,1,29.449,16a4.59,4.59,0,0,1-1.02-3.152v-.242a5.089,5.089,0,0,1,.453-2.2,3.451,3.451,0,0,1,1.3-1.492,3.7,3.7,0,0,1,2-.531,3.39,3.39,0,0,1,2.363.852,3.043,3.043,0,0,1,1,2.211H34.188a1.992,1.992,0,0,0-.621-1.348,1.932,1.932,0,0,0-1.379-.527,2.023,2.023,0,0,0-1.707.793,3.724,3.724,0,0,0-.605,2.293v.273a3.65,3.65,0,0,0,.6,2.25A2.033,2.033,0,0,0,32.2,15.977ZM42.4,17a3.036,3.036,0,0,1-.2-.891,3.225,3.225,0,0,1-2.406,1.047,2.984,2.984,0,0,1-2.051-.707,2.287,2.287,0,0,1-.8-1.793,2.39,2.39,0,0,1,1-2.051,4.733,4.733,0,0,1,2.824-.73h1.406v-.664A1.623,1.623,0,0,0,41.719,10a1.821,1.821,0,0,0-1.336-.449,2.107,2.107,0,0,0-1.3.391,1.151,1.151,0,0,0-.523.945H37.109a2,2,0,0,1,.449-1.223,3.066,3.066,0,0,1,1.219-.934,4.1,4.1,0,0,1,1.691-.344,3.342,3.342,0,0,1,2.289.73,2.635,2.635,0,0,1,.859,2.012v3.891a4.757,4.757,0,0,0,.3,1.852V17ZM40,15.9a2.54,2.54,0,0,0,1.289-.352,2.127,2.127,0,0,0,.883-.914V12.9H41.039q-2.656,0-2.656,1.555a1.316,1.316,0,0,0,.453,1.063A1.742,1.742,0,0,0,40,15.9Zm5.531-3.2a4.952,4.952,0,0,1,.922-3.129,3.137,3.137,0,0,1,4.766-.168V5h1.445V17H51.336l-.07-.906a2.943,2.943,0,0,1-2.414,1.063,2.887,2.887,0,0,1-2.395-1.2,5.008,5.008,0,0,1-.926-3.141Zm1.445.164a3.749,3.749,0,0,0,.594,2.25,1.92,1.92,0,0,0,1.641.813A2.108,2.108,0,0,0,51.219,14.7V10.813a2.125,2.125,0,0,0-1.992-1.2,1.929,1.929,0,0,0-1.656.82A4.128,4.128,0,0,0,46.977,12.867Zm7.547-.172a4.993,4.993,0,0,1,.488-2.234A3.643,3.643,0,0,1,56.371,8.93a3.7,3.7,0,0,1,1.988-.539,3.565,3.565,0,0,1,2.793,1.2,4.6,4.6,0,0,1,1.066,3.18v.1a5.036,5.036,0,0,1-.473,2.215,3.589,3.589,0,0,1-1.352,1.527,3.743,3.743,0,0,1-2.02.547,3.556,3.556,0,0,1-2.785-1.2A4.575,4.575,0,0,1,54.523,12.8Zm1.453.172a3.616,3.616,0,0,0,.652,2.258,2.211,2.211,0,0,0,3.5-.012,3.955,3.955,0,0,0,.648-2.418,3.61,3.61,0,0,0-.66-2.254,2.1,2.1,0,0,0-1.754-.863,2.075,2.075,0,0,0-1.727.852A3.925,3.925,0,0,0,55.977,12.867ZM67.641,12.7a4.952,4.952,0,0,1,.922-3.129,3.137,3.137,0,0,1,4.766-.168V5h1.445V17H73.445l-.07-.906a2.943,2.943,0,0,1-2.414,1.063,2.887,2.887,0,0,1-2.395-1.2,5.008,5.008,0,0,1-.926-3.141Zm1.445.164a3.749,3.749,0,0,0,.594,2.25,1.92,1.92,0,0,0,1.641.813A2.108,2.108,0,0,0,73.328,14.7V10.813a2.125,2.125,0,0,0-1.992-1.2,1.929,1.929,0,0,0-1.656.82A4.128,4.128,0,0,0,69.086,12.867Zm11.438,4.289a3.693,3.693,0,0,1-2.8-1.129,4.19,4.19,0,0,1-1.078-3.02v-.266a5.073,5.073,0,0,1,.48-2.246,3.748,3.748,0,0,1,1.344-1.547,3.378,3.378,0,0,1,1.871-.559,3.166,3.166,0,0,1,2.563,1.086,4.7,4.7,0,0,1,.914,3.109v.6H78.094a3,3,0,0,0,.73,2.02,2.3,2.3,0,0,0,1.777.77,2.517,2.517,0,0,0,1.3-.312,3.259,3.259,0,0,0,.93-.828l.883.688A3.55,3.55,0,0,1,80.523,17.156Zm-.18-7.578a1.928,1.928,0,0,0-1.469.637A3.1,3.1,0,0,0,78.141,12h4.234v-.109a2.753,2.753,0,0,0-.594-1.707A1.815,1.815,0,0,0,80.344,9.578ZM4.484,35.977a2.082,2.082,0,0,0,1.352-.469,1.649,1.649,0,0,0,.641-1.172H7.844a2.621,2.621,0,0,1-.5,1.383,3.293,3.293,0,0,1-1.23,1.047,3.55,3.55,0,0,1-1.629.391A3.482,3.482,0,0,1,1.738,36a4.59,4.59,0,0,1-1.02-3.152v-.242a5.089,5.089,0,0,1,.453-2.2,3.451,3.451,0,0,1,1.3-1.492,3.7,3.7,0,0,1,2-.531,3.39,3.39,0,0,1,2.363.852,3.043,3.043,0,0,1,1,2.211H6.477a1.992,1.992,0,0,0-.621-1.348,1.932,1.932,0,0,0-1.379-.527,2.023,2.023,0,0,0-1.707.793,3.724,3.724,0,0,0-.605,2.293v.273a3.65,3.65,0,0,0,.6,2.25A2.033,2.033,0,0,0,4.484,35.977Zm4.6-3.281a4.993,4.993,0,0,1,.488-2.234,3.643,3.643,0,0,1,1.359-1.531,3.7,3.7,0,0,1,1.988-.539,3.565,3.565,0,0,1,2.793,1.2,4.6,4.6,0,0,1,1.066,3.18v.1a5.036,5.036,0,0,1-.473,2.215,3.589,3.589,0,0,1-1.352,1.527,3.743,3.743,0,0,1-2.02.547,3.556,3.556,0,0,1-2.785-1.2A4.575,4.575,0,0,1,9.086,32.8Zm1.453.172a3.616,3.616,0,0,0,.652,2.258,2.211,2.211,0,0,0,3.5-.012,3.955,3.955,0,0,0,.648-2.418,3.61,3.61,0,0,0-.66-2.254,2.1,2.1,0,0,0-1.754-.863,2.075,2.075,0,0,0-1.727.852A3.925,3.925,0,0,0,10.539,32.867Zm9.422-4.32.047,1.063a3.08,3.08,0,0,1,2.531-1.219q2.68,0,2.7,3.023V37H23.8V31.406a1.946,1.946,0,0,0-.418-1.352,1.675,1.675,0,0,0-1.277-.437,2.086,2.086,0,0,0-1.234.375,2.546,2.546,0,0,0-.828.984V37H18.594V28.547Zm12.383,6.211a1.064,1.064,0,0,0-.441-.91,4.249,4.249,0,0,0-1.539-.559,7.277,7.277,0,0,1-1.742-.562,2.479,2.479,0,0,1-.953-.781,1.869,1.869,0,0,1-.309-1.078,2.193,2.193,0,0,1,.879-1.758,3.432,3.432,0,0,1,2.246-.719,3.532,3.532,0,0,1,2.332.742,2.357,2.357,0,0,1,.895,1.9H32.258a1.3,1.3,0,0,0-.5-1.023,1.888,1.888,0,0,0-1.27-.43,1.976,1.976,0,0,0-1.234.344,1.082,1.082,0,0,0-.445.9.877.877,0,0,0,.414.789,5.1,5.1,0,0,0,1.5.508,7.8,7.8,0,0,1,1.754.578,2.558,2.558,0,0,1,1,.809,1.988,1.988,0,0,1,.324,1.152,2.163,2.163,0,0,1-.906,1.816,3.8,3.8,0,0,1-2.352.684,4.257,4.257,0,0,1-1.8-.359,2.922,2.922,0,0,1-1.223-1A2.42,2.42,0,0,1,27.07,34.4h1.445a1.5,1.5,0,0,0,.582,1.152,2.258,2.258,0,0,0,1.434.426,2.331,2.331,0,0,0,1.316-.332A1.02,1.02,0,0,0,32.344,34.758Zm8.547,1.406a3.07,3.07,0,0,1-2.477.992,2.628,2.628,0,0,1-2.059-.785,3.4,3.4,0,0,1-.715-2.324v-5.5h1.445v5.461q0,1.922,1.563,1.922a2.163,2.163,0,0,0,2.2-1.234V28.547H42.3V37H40.922Zm4.961-7.617.039.938A3.122,3.122,0,0,1,48.4,28.391a2.417,2.417,0,0,1,2.414,1.359,3.2,3.2,0,0,1,1.1-.984,3.242,3.242,0,0,1,1.6-.375q2.781,0,2.828,2.945V37H54.891V31.422a1.941,1.941,0,0,0-.414-1.355,1.823,1.823,0,0,0-1.391-.449,1.916,1.916,0,0,0-1.336.48,1.949,1.949,0,0,0-.617,1.293V37H49.68V31.461a1.613,1.613,0,0,0-1.8-1.844,1.934,1.934,0,0,0-1.945,1.211V37H44.484V28.547ZM58.133,32.7a4.993,4.993,0,0,1,.488-2.234A3.643,3.643,0,0,1,59.98,28.93a3.7,3.7,0,0,1,1.988-.539,3.565,3.565,0,0,1,2.793,1.2,4.6,4.6,0,0,1,1.066,3.18v.1a5.036,5.036,0,0,1-.473,2.215A3.589,3.589,0,0,1,64,36.609a3.743,3.743,0,0,1-2.02.547,3.556,3.556,0,0,1-2.785-1.2A4.575,4.575,0,0,1,58.133,32.8Zm1.453.172a3.616,3.616,0,0,0,.652,2.258,2.211,2.211,0,0,0,3.5-.012,3.955,3.955,0,0,0,.648-2.418,3.61,3.61,0,0,0-.66-2.254,2.1,2.1,0,0,0-1.754-.863,2.075,2.075,0,0,0-1.727.852A3.925,3.925,0,0,0,59.586,32.867Z" transform="translate(787 2934.5)" fill="#12263f"/><rect width="4" height="25" transform="translate(773 2934.5)" fill="#db6e5f"/><g transform="translate(0 6)"><path d="M3.258,5.625l3.719,9.281L10.7,5.625h1.945V17h-1.5V12.57l.141-4.781L7.547,17H6.4L2.672,7.813,2.82,12.57V17H1.32V5.625ZM18.57,17.156a3.693,3.693,0,0,1-2.8-1.129,4.19,4.19,0,0,1-1.078-3.02v-.266a5.073,5.073,0,0,1,.48-2.246A3.748,3.748,0,0,1,16.52,8.949a3.378,3.378,0,0,1,1.871-.559,3.166,3.166,0,0,1,2.563,1.086,4.7,4.7,0,0,1,.914,3.109v.6H16.141a3,3,0,0,0,.73,2.02,2.3,2.3,0,0,0,1.777.77,2.517,2.517,0,0,0,1.3-.312,3.259,3.259,0,0,0,.93-.828l.883.688A3.55,3.55,0,0,1,18.57,17.156Zm-.18-7.578a1.928,1.928,0,0,0-1.469.637A3.1,3.1,0,0,0,16.188,12h4.234v-.109a2.753,2.753,0,0,0-.594-1.707A1.815,1.815,0,0,0,18.391,9.578Zm9.234.266a4.331,4.331,0,0,0-.711-.055A1.9,1.9,0,0,0,24.984,11v6H23.539V8.547h1.406l.023.977a2.251,2.251,0,0,1,2.016-1.133,1.477,1.477,0,0,1,.641.109Zm4.57,6.133a2.082,2.082,0,0,0,1.352-.469,1.649,1.649,0,0,0,.641-1.172h1.367a2.621,2.621,0,0,1-.5,1.383,3.293,3.293,0,0,1-1.23,1.047,3.55,3.55,0,0,1-1.629.391A3.482,3.482,0,0,1,29.449,16a4.59,4.59,0,0,1-1.02-3.152v-.242a5.089,5.089,0,0,1,.453-2.2,3.451,3.451,0,0,1,1.3-1.492,3.7,3.7,0,0,1,2-.531,3.39,3.39,0,0,1,2.363.852,3.043,3.043,0,0,1,1,2.211H34.188a1.992,1.992,0,0,0-.621-1.348,1.932,1.932,0,0,0-1.379-.527,2.023,2.023,0,0,0-1.707.793,3.724,3.724,0,0,0-.605,2.293v.273a3.65,3.65,0,0,0,.6,2.25A2.033,2.033,0,0,0,32.2,15.977ZM42.4,17a3.036,3.036,0,0,1-.2-.891,3.225,3.225,0,0,1-2.406,1.047,2.984,2.984,0,0,1-2.051-.707,2.287,2.287,0,0,1-.8-1.793,2.39,2.39,0,0,1,1-2.051,4.733,4.733,0,0,1,2.824-.73h1.406v-.664A1.623,1.623,0,0,0,41.719,10a1.821,1.821,0,0,0-1.336-.449,2.107,2.107,0,0,0-1.3.391,1.151,1.151,0,0,0-.523.945H37.109a2,2,0,0,1,.449-1.223,3.066,3.066,0,0,1,1.219-.934,4.1,4.1,0,0,1,1.691-.344,3.342,3.342,0,0,1,2.289.73,2.635,2.635,0,0,1,.859,2.012v3.891a4.757,4.757,0,0,0,.3,1.852V17ZM40,15.9a2.54,2.54,0,0,0,1.289-.352,2.127,2.127,0,0,0,.883-.914V12.9H41.039q-2.656,0-2.656,1.555a1.316,1.316,0,0,0,.453,1.063A1.742,1.742,0,0,0,40,15.9Zm5.531-3.2a4.952,4.952,0,0,1,.922-3.129,3.137,3.137,0,0,1,4.766-.168V5h1.445V17H51.336l-.07-.906a2.943,2.943,0,0,1-2.414,1.063,2.887,2.887,0,0,1-2.395-1.2,5.008,5.008,0,0,1-.926-3.141Zm1.445.164a3.749,3.749,0,0,0,.594,2.25,1.92,1.92,0,0,0,1.641.813A2.108,2.108,0,0,0,51.219,14.7V10.813a2.125,2.125,0,0,0-1.992-1.2,1.929,1.929,0,0,0-1.656.82A4.128,4.128,0,0,0,46.977,12.867Zm7.547-.172a4.993,4.993,0,0,1,.488-2.234A3.643,3.643,0,0,1,56.371,8.93a3.7,3.7,0,0,1,1.988-.539,3.565,3.565,0,0,1,2.793,1.2,4.6,4.6,0,0,1,1.066,3.18v.1a5.036,5.036,0,0,1-.473,2.215,3.589,3.589,0,0,1-1.352,1.527,3.743,3.743,0,0,1-2.02.547,3.556,3.556,0,0,1-2.785-1.2A4.575,4.575,0,0,1,54.523,12.8Zm1.453.172a3.616,3.616,0,0,0,.652,2.258,2.211,2.211,0,0,0,3.5-.012,3.955,3.955,0,0,0,.648-2.418,3.61,3.61,0,0,0-.66-2.254,2.1,2.1,0,0,0-1.754-.863,2.075,2.075,0,0,0-1.727.852A3.925,3.925,0,0,0,55.977,12.867ZM2.664,37H1.219V28.547H2.664ZM1.1,26.3a.863.863,0,0,1,.215-.594.807.807,0,0,1,.637-.242.819.819,0,0,1,.641.242.854.854,0,0,1,.219.594.826.826,0,0,1-.219.586.834.834,0,0,1-.641.234.821.821,0,0,1-.637-.234A.834.834,0,0,1,1.1,26.3Zm5.242,2.242.047,1.063a3.08,3.08,0,0,1,2.531-1.219q2.68,0,2.7,3.023V37H10.18V31.406a1.946,1.946,0,0,0-.418-1.352,1.675,1.675,0,0,0-1.277-.437,2.086,2.086,0,0,0-1.234.375,2.546,2.546,0,0,0-.828.984V37H4.977V28.547ZM13.453,32.7a4.952,4.952,0,0,1,.922-3.129,2.915,2.915,0,0,1,2.414-1.184,2.932,2.932,0,0,1,2.352,1.016V25h1.445V37H19.258l-.07-.906a2.943,2.943,0,0,1-2.414,1.063,2.887,2.887,0,0,1-2.395-1.2,5.008,5.008,0,0,1-.926-3.141Zm1.445.164a3.749,3.749,0,0,0,.594,2.25,1.92,1.92,0,0,0,1.641.813A2.108,2.108,0,0,0,19.141,34.7V30.813a2.125,2.125,0,0,0-1.992-1.2,1.929,1.929,0,0,0-1.656.82A4.128,4.128,0,0,0,14.9,32.867Zm13.148,3.3a3.07,3.07,0,0,1-2.477.992,2.628,2.628,0,0,1-2.059-.785,3.4,3.4,0,0,1-.715-2.324v-5.5h1.445v5.461q0,1.922,1.563,1.922a2.163,2.163,0,0,0,2.2-1.234V28.547h1.445V37H28.078Zm8.523-1.406a1.064,1.064,0,0,0-.441-.91,4.249,4.249,0,0,0-1.539-.559,7.277,7.277,0,0,1-1.742-.562,2.479,2.479,0,0,1-.953-.781,1.869,1.869,0,0,1-.309-1.078,2.193,2.193,0,0,1,.879-1.758,3.432,3.432,0,0,1,2.246-.719,3.532,3.532,0,0,1,2.332.742,2.357,2.357,0,0,1,.895,1.9H36.484a1.3,1.3,0,0,0-.5-1.023,1.888,1.888,0,0,0-1.27-.43,1.976,1.976,0,0,0-1.234.344,1.082,1.082,0,0,0-.445.9.877.877,0,0,0,.414.789,5.1,5.1,0,0,0,1.5.508A7.8,7.8,0,0,1,36.7,32.7a2.558,2.558,0,0,1,1,.809,1.988,1.988,0,0,1,.324,1.152,2.163,2.163,0,0,1-.906,1.816,3.8,3.8,0,0,1-2.352.684,4.257,4.257,0,0,1-1.8-.359,2.922,2.922,0,0,1-1.223-1A2.42,2.42,0,0,1,31.3,34.4h1.445a1.5,1.5,0,0,0,.582,1.152,2.258,2.258,0,0,0,1.434.426,2.331,2.331,0,0,0,1.316-.332A1.02,1.02,0,0,0,36.57,34.758ZM41.859,26.5v2.047h1.578v1.117H41.859v5.242a1.171,1.171,0,0,0,.211.762.888.888,0,0,0,.719.254,3.5,3.5,0,0,0,.688-.094V37a4.19,4.19,0,0,1-1.109.156,1.8,1.8,0,0,1-1.461-.586,2.517,2.517,0,0,1-.492-1.664V29.664H38.875V28.547h1.539V26.5Zm7.352,3.344a4.331,4.331,0,0,0-.711-.055A1.9,1.9,0,0,0,46.57,31v6H45.125V28.547h1.406l.023.977a2.251,2.251,0,0,1,2.016-1.133,1.477,1.477,0,0,1,.641.109ZM52.109,37H50.664V28.547h1.445ZM50.547,26.3a.863.863,0,0,1,.215-.594.807.807,0,0,1,.637-.242.819.819,0,0,1,.641.242.854.854,0,0,1,.219.594.826.826,0,0,1-.219.586.834.834,0,0,1-.641.234.821.821,0,0,1-.637-.234A.834.834,0,0,1,50.547,26.3ZM59.641,37a3.036,3.036,0,0,1-.2-.891,3.225,3.225,0,0,1-2.406,1.047,2.984,2.984,0,0,1-2.051-.707,2.287,2.287,0,0,1-.8-1.793,2.39,2.39,0,0,1,1-2.051,4.733,4.733,0,0,1,2.824-.73h1.406v-.664A1.623,1.623,0,0,0,58.961,30a1.821,1.821,0,0,0-1.336-.449,2.107,2.107,0,0,0-1.3.391,1.151,1.151,0,0,0-.523.945H54.352a2,2,0,0,1,.449-1.223,3.066,3.066,0,0,1,1.219-.934,4.1,4.1,0,0,1,1.691-.344,3.342,3.342,0,0,1,2.289.73,2.635,2.635,0,0,1,.859,2.012v3.891a4.757,4.757,0,0,0,.3,1.852V37Zm-2.4-1.1a2.54,2.54,0,0,0,1.289-.352,2.127,2.127,0,0,0,.883-.914V32.9H58.281q-2.656,0-2.656,1.555a1.316,1.316,0,0,0,.453,1.063A1.742,1.742,0,0,0,57.242,35.9ZM64.7,37H63.25V25H64.7Z" transform="translate(1025 3134)" fill="#12263f"/><rect width="4" height="25" transform="translate(1011 3134)" fill="#db6e5f"/></g><g transform="translate(-15 -15)"><path d="M3.258,5.625l3.719,9.281L10.7,5.625h1.945V17h-1.5V12.57l.141-4.781L7.547,17H6.4L2.672,7.813,2.82,12.57V17H1.32V5.625ZM18.57,17.156a3.693,3.693,0,0,1-2.8-1.129,4.19,4.19,0,0,1-1.078-3.02v-.266a5.073,5.073,0,0,1,.48-2.246A3.748,3.748,0,0,1,16.52,8.949a3.378,3.378,0,0,1,1.871-.559,3.166,3.166,0,0,1,2.563,1.086,4.7,4.7,0,0,1,.914,3.109v.6H16.141a3,3,0,0,0,.73,2.02,2.3,2.3,0,0,0,1.777.77,2.517,2.517,0,0,0,1.3-.312,3.259,3.259,0,0,0,.93-.828l.883.688A3.55,3.55,0,0,1,18.57,17.156Zm-.18-7.578a1.928,1.928,0,0,0-1.469.637A3.1,3.1,0,0,0,16.188,12h4.234v-.109a2.753,2.753,0,0,0-.594-1.707A1.815,1.815,0,0,0,18.391,9.578Zm9.234.266a4.331,4.331,0,0,0-.711-.055A1.9,1.9,0,0,0,24.984,11v6H23.539V8.547h1.406l.023.977a2.251,2.251,0,0,1,2.016-1.133,1.477,1.477,0,0,1,.641.109Zm4.57,6.133a2.082,2.082,0,0,0,1.352-.469,1.649,1.649,0,0,0,.641-1.172h1.367a2.621,2.621,0,0,1-.5,1.383,3.293,3.293,0,0,1-1.23,1.047,3.55,3.55,0,0,1-1.629.391A3.482,3.482,0,0,1,29.449,16a4.59,4.59,0,0,1-1.02-3.152v-.242a5.089,5.089,0,0,1,.453-2.2,3.451,3.451,0,0,1,1.3-1.492,3.7,3.7,0,0,1,2-.531,3.39,3.39,0,0,1,2.363.852,3.043,3.043,0,0,1,1,2.211H34.188a1.992,1.992,0,0,0-.621-1.348,1.932,1.932,0,0,0-1.379-.527,2.023,2.023,0,0,0-1.707.793,3.724,3.724,0,0,0-.605,2.293v.273a3.65,3.65,0,0,0,.6,2.25A2.033,2.033,0,0,0,32.2,15.977ZM42.4,17a3.036,3.036,0,0,1-.2-.891,3.225,3.225,0,0,1-2.406,1.047,2.984,2.984,0,0,1-2.051-.707,2.287,2.287,0,0,1-.8-1.793,2.39,2.39,0,0,1,1-2.051,4.733,4.733,0,0,1,2.824-.73h1.406v-.664A1.623,1.623,0,0,0,41.719,10a1.821,1.821,0,0,0-1.336-.449,2.107,2.107,0,0,0-1.3.391,1.151,1.151,0,0,0-.523.945H37.109a2,2,0,0,1,.449-1.223,3.066,3.066,0,0,1,1.219-.934,4.1,4.1,0,0,1,1.691-.344,3.342,3.342,0,0,1,2.289.73,2.635,2.635,0,0,1,.859,2.012v3.891a4.757,4.757,0,0,0,.3,1.852V17ZM40,15.9a2.54,2.54,0,0,0,1.289-.352,2.127,2.127,0,0,0,.883-.914V12.9H41.039q-2.656,0-2.656,1.555a1.316,1.316,0,0,0,.453,1.063A1.742,1.742,0,0,0,40,15.9Zm5.531-3.2a4.952,4.952,0,0,1,.922-3.129,3.137,3.137,0,0,1,4.766-.168V5h1.445V17H51.336l-.07-.906a2.943,2.943,0,0,1-2.414,1.063,2.887,2.887,0,0,1-2.395-1.2,5.008,5.008,0,0,1-.926-3.141Zm1.445.164a3.749,3.749,0,0,0,.594,2.25,1.92,1.92,0,0,0,1.641.813A2.108,2.108,0,0,0,51.219,14.7V10.813a2.125,2.125,0,0,0-1.992-1.2,1.929,1.929,0,0,0-1.656.82A4.128,4.128,0,0,0,46.977,12.867Zm7.547-.172a4.993,4.993,0,0,1,.488-2.234A3.643,3.643,0,0,1,56.371,8.93a3.7,3.7,0,0,1,1.988-.539,3.565,3.565,0,0,1,2.793,1.2,4.6,4.6,0,0,1,1.066,3.18v.1a5.036,5.036,0,0,1-.473,2.215,3.589,3.589,0,0,1-1.352,1.527,3.743,3.743,0,0,1-2.02.547,3.556,3.556,0,0,1-2.785-1.2A4.575,4.575,0,0,1,54.523,12.8Zm1.453.172a3.616,3.616,0,0,0,.652,2.258,2.211,2.211,0,0,0,3.5-.012,3.955,3.955,0,0,0,.648-2.418,3.61,3.61,0,0,0-.66-2.254,2.1,2.1,0,0,0-1.754-.863,2.075,2.075,0,0,0-1.727.852A3.925,3.925,0,0,0,55.977,12.867ZM67.641,12.7a4.952,4.952,0,0,1,.922-3.129,3.137,3.137,0,0,1,4.766-.168V5h1.445V17H73.445l-.07-.906a2.943,2.943,0,0,1-2.414,1.063,2.887,2.887,0,0,1-2.395-1.2,5.008,5.008,0,0,1-.926-3.141Zm1.445.164a3.749,3.749,0,0,0,.594,2.25,1.92,1.92,0,0,0,1.641.813A2.108,2.108,0,0,0,73.328,14.7V10.813a2.125,2.125,0,0,0-1.992-1.2,1.929,1.929,0,0,0-1.656.82A4.128,4.128,0,0,0,69.086,12.867Zm11.438,4.289a3.693,3.693,0,0,1-2.8-1.129,4.19,4.19,0,0,1-1.078-3.02v-.266a5.073,5.073,0,0,1,.48-2.246,3.748,3.748,0,0,1,1.344-1.547,3.378,3.378,0,0,1,1.871-.559,3.166,3.166,0,0,1,2.563,1.086,4.7,4.7,0,0,1,.914,3.109v.6H78.094a3,3,0,0,0,.73,2.02,2.3,2.3,0,0,0,1.777.77,2.517,2.517,0,0,0,1.3-.312,3.259,3.259,0,0,0,.93-.828l.883.688A3.55,3.55,0,0,1,80.523,17.156Zm-.18-7.578a1.928,1.928,0,0,0-1.469.637A3.1,3.1,0,0,0,78.141,12h4.234v-.109a2.753,2.753,0,0,0-.594-1.707A1.815,1.815,0,0,0,80.344,9.578ZM5.18,29.844a4.331,4.331,0,0,0-.711-.055A1.9,1.9,0,0,0,2.539,31v6H1.094V28.547H2.5l.023.977a2.251,2.251,0,0,1,2.016-1.133,1.477,1.477,0,0,1,.641.109Zm4.836,7.313a3.693,3.693,0,0,1-2.8-1.129,4.19,4.19,0,0,1-1.078-3.02v-.266a5.073,5.073,0,0,1,.48-2.246,3.748,3.748,0,0,1,1.344-1.547,3.378,3.378,0,0,1,1.871-.559A3.166,3.166,0,0,1,12.4,29.477a4.7,4.7,0,0,1,.914,3.109v.6H7.586a3,3,0,0,0,.73,2.02,2.3,2.3,0,0,0,1.777.77,2.517,2.517,0,0,0,1.3-.312,3.258,3.258,0,0,0,.93-.828l.883.688A3.55,3.55,0,0,1,10.016,37.156Zm-.18-7.578a1.928,1.928,0,0,0-1.469.637A3.1,3.1,0,0,0,7.633,32h4.234v-.109a2.753,2.753,0,0,0-.594-1.707A1.815,1.815,0,0,0,9.836,29.578Zm7.836,5.461,2.094-6.492h1.477L18.211,37h-1.1l-3.062-8.453h1.477Zm8.469,2.117a3.693,3.693,0,0,1-2.8-1.129,4.19,4.19,0,0,1-1.078-3.02v-.266a5.073,5.073,0,0,1,.48-2.246,3.748,3.748,0,0,1,1.344-1.547,3.378,3.378,0,0,1,1.871-.559,3.166,3.166,0,0,1,2.563,1.086,4.7,4.7,0,0,1,.914,3.109v.6H23.711a3,3,0,0,0,.73,2.02,2.3,2.3,0,0,0,1.777.77,2.517,2.517,0,0,0,1.3-.312,3.259,3.259,0,0,0,.93-.828l.883.688A3.55,3.55,0,0,1,26.141,37.156Zm-.18-7.578a1.928,1.928,0,0,0-1.469.637A3.1,3.1,0,0,0,23.758,32h4.234v-.109a2.753,2.753,0,0,0-.594-1.707A1.815,1.815,0,0,0,25.961,29.578Zm6.516-1.031.047,1.063a3.08,3.08,0,0,1,2.531-1.219q2.68,0,2.7,3.023V37H36.313V31.406a1.946,1.946,0,0,0-.418-1.352,1.675,1.675,0,0,0-1.277-.437,2.086,2.086,0,0,0-1.234.375,2.546,2.546,0,0,0-.828.984V37H31.109V28.547ZM39.586,32.7a4.952,4.952,0,0,1,.922-3.129,3.137,3.137,0,0,1,4.766-.168V25h1.445V37H45.391l-.07-.906a2.943,2.943,0,0,1-2.414,1.063,2.887,2.887,0,0,1-2.395-1.2,5.008,5.008,0,0,1-.926-3.141Zm1.445.164a3.749,3.749,0,0,0,.594,2.25,1.919,1.919,0,0,0,1.641.813A2.108,2.108,0,0,0,45.273,34.7V30.813a2.125,2.125,0,0,0-1.992-1.2,1.929,1.929,0,0,0-1.656.82A4.128,4.128,0,0,0,41.031,32.867Zm11.438,4.289a3.693,3.693,0,0,1-2.8-1.129,4.19,4.19,0,0,1-1.078-3.02v-.266a5.073,5.073,0,0,1,.48-2.246,3.748,3.748,0,0,1,1.344-1.547,3.378,3.378,0,0,1,1.871-.559,3.166,3.166,0,0,1,2.563,1.086,4.7,4.7,0,0,1,.914,3.109v.6H50.039a3,3,0,0,0,.73,2.02,2.3,2.3,0,0,0,1.777.77,2.517,2.517,0,0,0,1.3-.312,3.258,3.258,0,0,0,.93-.828l.883.688A3.55,3.55,0,0,1,52.469,37.156Zm-.18-7.578a1.928,1.928,0,0,0-1.469.637A3.1,3.1,0,0,0,50.086,32H54.32v-.109a2.753,2.753,0,0,0-.594-1.707A1.815,1.815,0,0,0,52.289,29.578Zm4.8,3.125a4.952,4.952,0,0,1,.922-3.129,3.137,3.137,0,0,1,4.766-.168V25h1.445V37H62.891l-.07-.906a2.943,2.943,0,0,1-2.414,1.063,2.887,2.887,0,0,1-2.395-1.2,5.008,5.008,0,0,1-.926-3.141Zm1.445.164a3.749,3.749,0,0,0,.594,2.25,1.919,1.919,0,0,0,1.641.813A2.108,2.108,0,0,0,62.773,34.7V30.813a2.125,2.125,0,0,0-1.992-1.2,1.929,1.929,0,0,0-1.656.82A4.128,4.128,0,0,0,58.531,32.867Zm7.547-.172a4.993,4.993,0,0,1,.488-2.234,3.643,3.643,0,0,1,1.359-1.531,3.7,3.7,0,0,1,1.988-.539,3.565,3.565,0,0,1,2.793,1.2,4.6,4.6,0,0,1,1.066,3.18v.1a5.036,5.036,0,0,1-.473,2.215,3.589,3.589,0,0,1-1.352,1.527,3.743,3.743,0,0,1-2.02.547,3.556,3.556,0,0,1-2.785-1.2A4.575,4.575,0,0,1,66.078,32.8Zm1.453.172a3.616,3.616,0,0,0,.652,2.258,2.211,2.211,0,0,0,3.5-.012,3.955,3.955,0,0,0,.648-2.418,3.61,3.61,0,0,0-.66-2.254,2.1,2.1,0,0,0-1.754-.863,2.075,2.075,0,0,0-1.727.852A3.925,3.925,0,0,0,67.531,32.867Zm12.141-3.023a4.331,4.331,0,0,0-.711-.055A1.9,1.9,0,0,0,77.031,31v6H75.586V28.547h1.406l.023.977a2.251,2.251,0,0,1,2.016-1.133,1.477,1.477,0,0,1,.641.109Zm4.836,7.313a3.693,3.693,0,0,1-2.8-1.129,4.19,4.19,0,0,1-1.078-3.02v-.266a5.073,5.073,0,0,1,.48-2.246,3.748,3.748,0,0,1,1.344-1.547,3.378,3.378,0,0,1,1.871-.559,3.166,3.166,0,0,1,2.563,1.086,4.7,4.7,0,0,1,.914,3.109v.6H82.078a3,3,0,0,0,.73,2.02,2.3,2.3,0,0,0,1.777.77,2.517,2.517,0,0,0,1.3-.312,3.259,3.259,0,0,0,.93-.828l.883.688A3.55,3.55,0,0,1,84.508,37.156Zm-.18-7.578a1.928,1.928,0,0,0-1.469.637A3.1,3.1,0,0,0,82.125,32h4.234v-.109a2.753,2.753,0,0,0-.594-1.707A1.815,1.815,0,0,0,84.328,29.578Zm10.07,5.18a1.064,1.064,0,0,0-.441-.91,4.249,4.249,0,0,0-1.539-.559,7.277,7.277,0,0,1-1.742-.562,2.479,2.479,0,0,1-.953-.781,1.869,1.869,0,0,1-.309-1.078,2.193,2.193,0,0,1,.879-1.758,3.432,3.432,0,0,1,2.246-.719,3.532,3.532,0,0,1,2.332.742,2.357,2.357,0,0,1,.895,1.9H94.313a1.3,1.3,0,0,0-.5-1.023,1.888,1.888,0,0,0-1.27-.43,1.976,1.976,0,0,0-1.234.344,1.082,1.082,0,0,0-.445.9.877.877,0,0,0,.414.789,5.1,5.1,0,0,0,1.5.508,7.8,7.8,0,0,1,1.754.578,2.558,2.558,0,0,1,1,.809,1.988,1.988,0,0,1,.324,1.152,2.163,2.163,0,0,1-.906,1.816,3.8,3.8,0,0,1-2.352.684,4.257,4.257,0,0,1-1.8-.359,2.922,2.922,0,0,1-1.223-1,2.42,2.42,0,0,1-.441-1.395H90.57a1.5,1.5,0,0,0,.582,1.152,2.258,2.258,0,0,0,1.434.426,2.331,2.331,0,0,0,1.316-.332A1.02,1.02,0,0,0,94.4,34.758Z" transform="translate(983 3310)" fill="#12263f"/><rect width="4" height="25" transform="translate(969 3310)" fill="#db6e5f"/></g><g transform="translate(12 -15)"><path d="M33.32,5.625l3.719,9.281,3.719-9.281H42.7V17H41.2V12.57l.141-4.781L37.609,17H36.461L32.734,7.813l.148,4.758V17h-1.5V5.625ZM48.633,17.156a3.693,3.693,0,0,1-2.8-1.129,4.19,4.19,0,0,1-1.078-3.02v-.266a5.073,5.073,0,0,1,.48-2.246,3.748,3.748,0,0,1,1.344-1.547,3.378,3.378,0,0,1,1.871-.559,3.166,3.166,0,0,1,2.563,1.086,4.7,4.7,0,0,1,.914,3.109v.6H46.2a3,3,0,0,0,.73,2.02,2.3,2.3,0,0,0,1.777.77,2.517,2.517,0,0,0,1.3-.312,3.259,3.259,0,0,0,.93-.828l.883.688A3.55,3.55,0,0,1,48.633,17.156Zm-.18-7.578a1.928,1.928,0,0,0-1.469.637A3.1,3.1,0,0,0,46.25,12h4.234v-.109a2.753,2.753,0,0,0-.594-1.707A1.815,1.815,0,0,0,48.453,9.578Zm9.234.266a4.331,4.331,0,0,0-.711-.055A1.9,1.9,0,0,0,55.047,11v6H53.6V8.547h1.406l.023.977a2.251,2.251,0,0,1,2.016-1.133,1.477,1.477,0,0,1,.641.109Zm4.57,6.133a2.082,2.082,0,0,0,1.352-.469,1.649,1.649,0,0,0,.641-1.172h1.367a2.621,2.621,0,0,1-.5,1.383,3.293,3.293,0,0,1-1.23,1.047,3.55,3.55,0,0,1-1.629.391A3.482,3.482,0,0,1,59.512,16a4.59,4.59,0,0,1-1.02-3.152v-.242a5.089,5.089,0,0,1,.453-2.2,3.451,3.451,0,0,1,1.3-1.492,3.7,3.7,0,0,1,2-.531,3.39,3.39,0,0,1,2.363.852,3.043,3.043,0,0,1,1,2.211H64.25a1.992,1.992,0,0,0-.621-1.348,1.932,1.932,0,0,0-1.379-.527,2.023,2.023,0,0,0-1.707.793,3.724,3.724,0,0,0-.605,2.293v.273a3.65,3.65,0,0,0,.6,2.25A2.033,2.033,0,0,0,62.258,15.977ZM72.461,17a3.036,3.036,0,0,1-.2-.891,3.225,3.225,0,0,1-2.406,1.047,2.984,2.984,0,0,1-2.051-.707,2.288,2.288,0,0,1-.8-1.793,2.39,2.39,0,0,1,1-2.051,4.733,4.733,0,0,1,2.824-.73h1.406v-.664A1.623,1.623,0,0,0,71.781,10a1.821,1.821,0,0,0-1.336-.449,2.108,2.108,0,0,0-1.3.391,1.151,1.151,0,0,0-.523.945H67.172a2,2,0,0,1,.449-1.223,3.066,3.066,0,0,1,1.219-.934,4.1,4.1,0,0,1,1.691-.344,3.342,3.342,0,0,1,2.289.73,2.635,2.635,0,0,1,.859,2.012v3.891a4.757,4.757,0,0,0,.3,1.852V17Zm-2.4-1.1a2.54,2.54,0,0,0,1.289-.352,2.127,2.127,0,0,0,.883-.914V12.9H71.1q-2.656,0-2.656,1.555a1.316,1.316,0,0,0,.453,1.063A1.742,1.742,0,0,0,70.063,15.9Zm5.531-3.2a4.952,4.952,0,0,1,.922-3.129,3.137,3.137,0,0,1,4.766-.168V5h1.445V17H81.4l-.07-.906a2.943,2.943,0,0,1-2.414,1.063,2.887,2.887,0,0,1-2.395-1.2,5.008,5.008,0,0,1-.926-3.141Zm1.445.164a3.749,3.749,0,0,0,.594,2.25,1.92,1.92,0,0,0,1.641.813A2.108,2.108,0,0,0,81.281,14.7V10.813a2.125,2.125,0,0,0-1.992-1.2,1.929,1.929,0,0,0-1.656.82A4.128,4.128,0,0,0,77.039,12.867Zm7.547-.172a4.993,4.993,0,0,1,.488-2.234A3.643,3.643,0,0,1,86.434,8.93a3.7,3.7,0,0,1,1.988-.539,3.565,3.565,0,0,1,2.793,1.2,4.6,4.6,0,0,1,1.066,3.18v.1a5.036,5.036,0,0,1-.473,2.215,3.589,3.589,0,0,1-1.352,1.527,3.743,3.743,0,0,1-2.02.547,3.556,3.556,0,0,1-2.785-1.2A4.575,4.575,0,0,1,84.586,12.8Zm1.453.172a3.616,3.616,0,0,0,.652,2.258,2.211,2.211,0,0,0,3.5-.012,3.955,3.955,0,0,0,.648-2.418,3.61,3.61,0,0,0-.66-2.254,2.1,2.1,0,0,0-1.754-.863,2.075,2.075,0,0,0-1.727.852A3.925,3.925,0,0,0,86.039,12.867ZM9.477,32.7a4.952,4.952,0,0,1,.922-3.129,2.915,2.915,0,0,1,2.414-1.184,2.932,2.932,0,0,1,2.352,1.016V25h1.445V37H15.281l-.07-.906A2.943,2.943,0,0,1,12.8,37.156a2.887,2.887,0,0,1-2.395-1.2,5.008,5.008,0,0,1-.926-3.141Zm1.445.164a3.749,3.749,0,0,0,.594,2.25,1.92,1.92,0,0,0,1.641.813A2.108,2.108,0,0,0,15.164,34.7V30.813a2.125,2.125,0,0,0-1.992-1.2,1.929,1.929,0,0,0-1.656.82A4.128,4.128,0,0,0,10.922,32.867Zm11.438,4.289a3.693,3.693,0,0,1-2.8-1.129,4.19,4.19,0,0,1-1.078-3.02v-.266a5.073,5.073,0,0,1,.48-2.246,3.748,3.748,0,0,1,1.344-1.547,3.378,3.378,0,0,1,1.871-.559,3.166,3.166,0,0,1,2.563,1.086,4.7,4.7,0,0,1,.914,3.109v.6H19.93a3,3,0,0,0,.73,2.02,2.3,2.3,0,0,0,1.777.77,2.517,2.517,0,0,0,1.3-.312,3.259,3.259,0,0,0,.93-.828l.883.688A3.55,3.55,0,0,1,22.359,37.156Zm-.18-7.578a1.928,1.928,0,0,0-1.469.637A3.1,3.1,0,0,0,19.977,32h4.234v-.109a2.753,2.753,0,0,0-.594-1.707A1.815,1.815,0,0,0,22.18,29.578ZM30.945,32.7a4.968,4.968,0,0,1,.914-3.145,3.151,3.151,0,0,1,4.836-.074l.07-.937h1.32V36.8a3.439,3.439,0,0,1-.973,2.586,3.589,3.589,0,0,1-2.613.945,4.348,4.348,0,0,1-1.789-.391,3.08,3.08,0,0,1-1.336-1.07l.75-.867A2.826,2.826,0,0,0,34.4,39.148a2.214,2.214,0,0,0,1.645-.594,2.269,2.269,0,0,0,.59-1.672v-.727a2.971,2.971,0,0,1-2.367,1,2.887,2.887,0,0,1-2.4-1.2A5.224,5.224,0,0,1,30.945,32.7Zm1.453.164a3.79,3.79,0,0,0,.586,2.246,1.9,1.9,0,0,0,1.641.816,2.117,2.117,0,0,0,2.008-1.242V30.828a2.142,2.142,0,0,0-1.992-1.211,1.921,1.921,0,0,0-1.648.82A4.128,4.128,0,0,0,32.4,32.867Zm7.484-.172a4.993,4.993,0,0,1,.488-2.234A3.643,3.643,0,0,1,41.73,28.93a3.7,3.7,0,0,1,1.988-.539,3.565,3.565,0,0,1,2.793,1.2,4.6,4.6,0,0,1,1.066,3.18v.1a5.036,5.036,0,0,1-.473,2.215,3.589,3.589,0,0,1-1.352,1.527,3.743,3.743,0,0,1-2.02.547,3.556,3.556,0,0,1-2.785-1.2A4.575,4.575,0,0,1,39.883,32.8Zm1.453.172a3.616,3.616,0,0,0,.652,2.258,2.211,2.211,0,0,0,3.5-.012,3.955,3.955,0,0,0,.648-2.418,3.61,3.61,0,0,0-.66-2.254,2.1,2.1,0,0,0-1.754-.863,2.075,2.075,0,0,0-1.727.852A3.925,3.925,0,0,0,41.336,32.867Zm15.211,0a5.026,5.026,0,0,1-.891,3.113,2.846,2.846,0,0,1-2.391,1.176,2.947,2.947,0,0,1-2.477-1.133l-.07.977H49.391V25h1.445v4.477a2.93,2.93,0,0,1,2.414-1.086,2.863,2.863,0,0,1,2.418,1.164,5.177,5.177,0,0,1,.879,3.188ZM55.1,32.7a3.906,3.906,0,0,0-.57-2.281,1.888,1.888,0,0,0-1.641-.8,2.122,2.122,0,0,0-2.055,1.328V34.6a2.181,2.181,0,0,0,2.07,1.328,1.878,1.878,0,0,0,1.617-.8A4.153,4.153,0,0,0,55.1,32.7ZM59.938,37H58.492V28.547h1.445ZM58.375,26.3a.863.863,0,0,1,.215-.594.807.807,0,0,1,.637-.242.819.819,0,0,1,.641.242.854.854,0,0,1,.219.594.826.826,0,0,1-.219.586.834.834,0,0,1-.641.234.821.821,0,0,1-.637-.234A.834.834,0,0,1,58.375,26.3Zm7.383,10.852a3.693,3.693,0,0,1-2.8-1.129,4.19,4.19,0,0,1-1.078-3.02v-.266a5.073,5.073,0,0,1,.48-2.246,3.748,3.748,0,0,1,1.344-1.547,3.378,3.378,0,0,1,1.871-.559,3.166,3.166,0,0,1,2.563,1.086,4.7,4.7,0,0,1,.914,3.109v.6H63.328a3,3,0,0,0,.73,2.02,2.3,2.3,0,0,0,1.777.77,2.517,2.517,0,0,0,1.3-.312,3.259,3.259,0,0,0,.93-.828l.883.688A3.55,3.55,0,0,1,65.758,37.156Zm-.18-7.578a1.928,1.928,0,0,0-1.469.637A3.1,3.1,0,0,0,63.375,32h4.234v-.109a2.753,2.753,0,0,0-.594-1.707A1.815,1.815,0,0,0,65.578,29.578Zm9.234.266a4.331,4.331,0,0,0-.711-.055A1.9,1.9,0,0,0,72.172,31v6H70.727V28.547h1.406l.023.977a2.251,2.251,0,0,1,2.016-1.133,1.477,1.477,0,0,1,.641.109Zm2.7-1.3.047,1.063a3.08,3.08,0,0,1,2.531-1.219q2.68,0,2.7,3.023V37H81.344V31.406a1.946,1.946,0,0,0-.418-1.352,1.675,1.675,0,0,0-1.277-.437,2.086,2.086,0,0,0-1.234.375,2.546,2.546,0,0,0-.828.984V37H76.141V28.547ZM84.586,32.7a4.993,4.993,0,0,1,.488-2.234,3.643,3.643,0,0,1,1.359-1.531,3.7,3.7,0,0,1,1.988-.539,3.565,3.565,0,0,1,2.793,1.2,4.6,4.6,0,0,1,1.066,3.18v.1a5.036,5.036,0,0,1-.473,2.215,3.589,3.589,0,0,1-1.352,1.527,3.743,3.743,0,0,1-2.02.547,3.556,3.556,0,0,1-2.785-1.2A4.575,4.575,0,0,1,84.586,32.8Zm1.453.172a3.616,3.616,0,0,0,.652,2.258,2.211,2.211,0,0,0,3.5-.012,3.955,3.955,0,0,0,.648-2.418,3.61,3.61,0,0,0-.66-2.254,2.1,2.1,0,0,0-1.754-.863,2.075,2.075,0,0,0-1.727.852A3.925,3.925,0,0,0,86.039,32.867Z" transform="translate(523 3310)" fill="#12263f"/><rect width="4" height="25" transform="translate(626 3310)" fill="#db6e5f"/></g><g transform="translate(0 6)"><path d="M37.32,5.625l3.719,9.281,3.719-9.281H46.7V17H45.2V12.57l.141-4.781L41.609,17H40.461L36.734,7.813l.148,4.758V17h-1.5V5.625ZM52.633,17.156a3.693,3.693,0,0,1-2.8-1.129,4.19,4.19,0,0,1-1.078-3.02v-.266a5.073,5.073,0,0,1,.48-2.246,3.748,3.748,0,0,1,1.344-1.547,3.378,3.378,0,0,1,1.871-.559,3.166,3.166,0,0,1,2.563,1.086,4.7,4.7,0,0,1,.914,3.109v.6H50.2a3,3,0,0,0,.73,2.02,2.3,2.3,0,0,0,1.777.77,2.517,2.517,0,0,0,1.3-.312,3.259,3.259,0,0,0,.93-.828l.883.688A3.55,3.55,0,0,1,52.633,17.156Zm-.18-7.578a1.928,1.928,0,0,0-1.469.637A3.1,3.1,0,0,0,50.25,12h4.234v-.109a2.753,2.753,0,0,0-.594-1.707A1.815,1.815,0,0,0,52.453,9.578Zm9.234.266a4.331,4.331,0,0,0-.711-.055A1.9,1.9,0,0,0,59.047,11v6H57.6V8.547h1.406l.023.977a2.251,2.251,0,0,1,2.016-1.133,1.477,1.477,0,0,1,.641.109Zm4.57,6.133a2.082,2.082,0,0,0,1.352-.469,1.649,1.649,0,0,0,.641-1.172h1.367a2.621,2.621,0,0,1-.5,1.383,3.293,3.293,0,0,1-1.23,1.047,3.55,3.55,0,0,1-1.629.391A3.482,3.482,0,0,1,63.512,16a4.59,4.59,0,0,1-1.02-3.152v-.242a5.089,5.089,0,0,1,.453-2.2,3.451,3.451,0,0,1,1.3-1.492,3.7,3.7,0,0,1,2-.531,3.39,3.39,0,0,1,2.363.852,3.043,3.043,0,0,1,1,2.211H68.25a1.992,1.992,0,0,0-.621-1.348,1.932,1.932,0,0,0-1.379-.527,2.023,2.023,0,0,0-1.707.793,3.724,3.724,0,0,0-.605,2.293v.273a3.65,3.65,0,0,0,.6,2.25A2.033,2.033,0,0,0,66.258,15.977ZM76.461,17a3.036,3.036,0,0,1-.2-.891,3.225,3.225,0,0,1-2.406,1.047,2.984,2.984,0,0,1-2.051-.707,2.288,2.288,0,0,1-.8-1.793,2.39,2.39,0,0,1,1-2.051,4.733,4.733,0,0,1,2.824-.73h1.406v-.664A1.623,1.623,0,0,0,75.781,10a1.821,1.821,0,0,0-1.336-.449,2.108,2.108,0,0,0-1.3.391,1.151,1.151,0,0,0-.523.945H71.172a2,2,0,0,1,.449-1.223,3.066,3.066,0,0,1,1.219-.934,4.1,4.1,0,0,1,1.691-.344,3.342,3.342,0,0,1,2.289.73,2.635,2.635,0,0,1,.859,2.012v3.891a4.757,4.757,0,0,0,.3,1.852V17Zm-2.4-1.1a2.54,2.54,0,0,0,1.289-.352,2.127,2.127,0,0,0,.883-.914V12.9H75.1q-2.656,0-2.656,1.555a1.316,1.316,0,0,0,.453,1.063A1.742,1.742,0,0,0,74.063,15.9Zm5.531-3.2a4.952,4.952,0,0,1,.922-3.129,3.137,3.137,0,0,1,4.766-.168V5h1.445V17H85.4l-.07-.906a2.943,2.943,0,0,1-2.414,1.063,2.887,2.887,0,0,1-2.395-1.2,5.008,5.008,0,0,1-.926-3.141Zm1.445.164a3.749,3.749,0,0,0,.594,2.25,1.92,1.92,0,0,0,1.641.813A2.108,2.108,0,0,0,85.281,14.7V10.813a2.125,2.125,0,0,0-1.992-1.2,1.929,1.929,0,0,0-1.656.82A4.128,4.128,0,0,0,81.039,12.867Zm7.547-.172a4.993,4.993,0,0,1,.488-2.234A3.643,3.643,0,0,1,90.434,8.93a3.7,3.7,0,0,1,1.988-.539,3.565,3.565,0,0,1,2.793,1.2,4.6,4.6,0,0,1,1.066,3.18v.1a5.036,5.036,0,0,1-.473,2.215,3.589,3.589,0,0,1-1.352,1.527,3.743,3.743,0,0,1-2.02.547,3.556,3.556,0,0,1-2.785-1.2A4.575,4.575,0,0,1,88.586,12.8Zm1.453.172a3.616,3.616,0,0,0,.652,2.258,2.211,2.211,0,0,0,3.5-.012,3.955,3.955,0,0,0,.648-2.418,3.61,3.61,0,0,0-.66-2.254,2.1,2.1,0,0,0-1.754-.863,2.075,2.075,0,0,0-1.727.852A3.925,3.925,0,0,0,90.039,12.867ZM7.508,37H6.063V28.547H7.508ZM5.945,26.3a.863.863,0,0,1,.215-.594.807.807,0,0,1,.637-.242.819.819,0,0,1,.641.242.854.854,0,0,1,.219.594.826.826,0,0,1-.219.586.834.834,0,0,1-.641.234.821.821,0,0,1-.637-.234A.834.834,0,0,1,5.945,26.3Zm5.242,2.242.047,1.063a3.08,3.08,0,0,1,2.531-1.219q2.68,0,2.7,3.023V37H15.023V31.406a1.946,1.946,0,0,0-.418-1.352,1.675,1.675,0,0,0-1.277-.437,2.086,2.086,0,0,0-1.234.375,2.546,2.546,0,0,0-.828.984V37H9.82V28.547ZM20.609,26.5v2.047h1.578v1.117H20.609v5.242a1.171,1.171,0,0,0,.211.762.888.888,0,0,0,.719.254,3.5,3.5,0,0,0,.688-.094V37a4.19,4.19,0,0,1-1.109.156,1.8,1.8,0,0,1-1.461-.586,2.517,2.517,0,0,1-.492-1.664V29.664H17.625V28.547h1.539V26.5Zm6.773,10.656a3.693,3.693,0,0,1-2.8-1.129,4.19,4.19,0,0,1-1.078-3.02v-.266a5.073,5.073,0,0,1,.48-2.246,3.748,3.748,0,0,1,1.344-1.547,3.378,3.378,0,0,1,1.871-.559,3.166,3.166,0,0,1,2.563,1.086,4.7,4.7,0,0,1,.914,3.109v.6H24.953a3,3,0,0,0,.73,2.02,2.3,2.3,0,0,0,1.777.77,2.517,2.517,0,0,0,1.3-.312,3.259,3.259,0,0,0,.93-.828l.883.688A3.55,3.55,0,0,1,27.383,37.156Zm-.18-7.578a1.928,1.928,0,0,0-1.469.637A3.1,3.1,0,0,0,25,32h4.234v-.109a2.753,2.753,0,0,0-.594-1.707A1.815,1.815,0,0,0,27.2,29.578Zm9.234.266a4.331,4.331,0,0,0-.711-.055A1.9,1.9,0,0,0,33.8,31v6H32.352V28.547h1.406l.023.977A2.251,2.251,0,0,1,35.8,28.391a1.477,1.477,0,0,1,.641.109Zm2.7-1.3.047,1.063a3.08,3.08,0,0,1,2.531-1.219q2.68,0,2.7,3.023V37H42.969V31.406a1.946,1.946,0,0,0-.418-1.352,1.675,1.675,0,0,0-1.277-.437,2.086,2.086,0,0,0-1.234.375,2.546,2.546,0,0,0-.828.984V37H37.766V28.547ZM51.813,37a3.036,3.036,0,0,1-.2-.891A3.225,3.225,0,0,1,49.2,37.156a2.984,2.984,0,0,1-2.051-.707,2.287,2.287,0,0,1-.8-1.793,2.39,2.39,0,0,1,1-2.051,4.733,4.733,0,0,1,2.824-.73h1.406v-.664A1.623,1.623,0,0,0,51.133,30a1.821,1.821,0,0,0-1.336-.449,2.107,2.107,0,0,0-1.3.391,1.151,1.151,0,0,0-.523.945H46.523a2,2,0,0,1,.449-1.223,3.066,3.066,0,0,1,1.219-.934,4.1,4.1,0,0,1,1.691-.344,3.342,3.342,0,0,1,2.289.73,2.635,2.635,0,0,1,.859,2.012v3.891a4.757,4.757,0,0,0,.3,1.852V37Zm-2.4-1.1a2.54,2.54,0,0,0,1.289-.352,2.127,2.127,0,0,0,.883-.914V32.9H50.453q-2.656,0-2.656,1.555a1.316,1.316,0,0,0,.453,1.063A1.742,1.742,0,0,0,49.414,35.9Zm9.273.078a2.082,2.082,0,0,0,1.352-.469,1.649,1.649,0,0,0,.641-1.172h1.367a2.621,2.621,0,0,1-.5,1.383,3.293,3.293,0,0,1-1.23,1.047,3.55,3.55,0,0,1-1.629.391A3.482,3.482,0,0,1,55.941,36a4.59,4.59,0,0,1-1.02-3.152v-.242a5.089,5.089,0,0,1,.453-2.2,3.451,3.451,0,0,1,1.3-1.492,3.7,3.7,0,0,1,2-.531,3.39,3.39,0,0,1,2.363.852,3.043,3.043,0,0,1,1,2.211H60.68a1.992,1.992,0,0,0-.621-1.348,1.932,1.932,0,0,0-1.379-.527,2.023,2.023,0,0,0-1.707.793,3.724,3.724,0,0,0-.605,2.293v.273a3.65,3.65,0,0,0,.6,2.25A2.033,2.033,0,0,0,58.688,35.977ZM65.242,37H63.8V28.547h1.445ZM63.68,26.3a.863.863,0,0,1,.215-.594.807.807,0,0,1,.637-.242.819.819,0,0,1,.641.242.854.854,0,0,1,.219.594.826.826,0,0,1-.219.586.834.834,0,0,1-.641.234.821.821,0,0,1-.637-.234A.834.834,0,0,1,63.68,26.3ZM67.172,32.7a4.993,4.993,0,0,1,.488-2.234A3.643,3.643,0,0,1,69.02,28.93a3.7,3.7,0,0,1,1.988-.539,3.565,3.565,0,0,1,2.793,1.2,4.6,4.6,0,0,1,1.066,3.18v.1a5.036,5.036,0,0,1-.473,2.215,3.589,3.589,0,0,1-1.352,1.527,3.743,3.743,0,0,1-2.02.547,3.556,3.556,0,0,1-2.785-1.2A4.575,4.575,0,0,1,67.172,32.8Zm1.453.172a3.616,3.616,0,0,0,.652,2.258,2.211,2.211,0,0,0,3.5-.012,3.955,3.955,0,0,0,.648-2.418,3.61,3.61,0,0,0-.66-2.254,2.1,2.1,0,0,0-1.754-.863,2.075,2.075,0,0,0-1.727.852A3.925,3.925,0,0,0,68.625,32.867Zm9.422-4.32.047,1.063a3.08,3.08,0,0,1,2.531-1.219q2.68,0,2.7,3.023V37H81.883V31.406a1.946,1.946,0,0,0-.418-1.352,1.675,1.675,0,0,0-1.277-.437,2.086,2.086,0,0,0-1.234.375,2.546,2.546,0,0,0-.828.984V37H76.68V28.547ZM90.727,37a3.036,3.036,0,0,1-.2-.891,3.225,3.225,0,0,1-2.406,1.047,2.984,2.984,0,0,1-2.051-.707,2.288,2.288,0,0,1-.8-1.793,2.39,2.39,0,0,1,1-2.051,4.733,4.733,0,0,1,2.824-.73H90.5v-.664A1.623,1.623,0,0,0,90.047,30a1.821,1.821,0,0,0-1.336-.449,2.108,2.108,0,0,0-1.3.391,1.151,1.151,0,0,0-.523.945H85.438a2,2,0,0,1,.449-1.223,3.066,3.066,0,0,1,1.219-.934,4.1,4.1,0,0,1,1.691-.344,3.342,3.342,0,0,1,2.289.73,2.635,2.635,0,0,1,.859,2.012v3.891a4.757,4.757,0,0,0,.3,1.852V37Zm-2.4-1.1a2.54,2.54,0,0,0,1.289-.352,2.127,2.127,0,0,0,.883-.914V32.9H89.367q-2.656,0-2.656,1.555a1.316,1.316,0,0,0,.453,1.063A1.742,1.742,0,0,0,88.328,35.9ZM95.781,37H94.336V25h1.445Z" transform="translate(477 3134)" fill="#12263f"/><rect width="4" height="25" transform="translate(584 3134)" fill="#db6e5f"/></g><g transform="translate(764.763 3016)"><path d="M266.46,198.652a2.278,2.278,0,0,0-2.278,2.278v2.629a.684.684,0,0,1-.683.684h-2.365a2.505,2.505,0,0,0-2.505,2.505v.849h8.212a.973.973,0,0,0,.973-.973v-7.972Zm0,0" transform="translate(-222.525 -170.921)" fill="#9c9c9c"/><path d="M299.105,198.652a2.267,2.267,0,0,0-1.561.622v7.35a.973.973,0,0,1-.973.973h2.915a.973.973,0,0,0,.973-.973v-7.972Zm0,0" transform="translate(-255.17 -170.921)" fill="#838383"/><path d="M262.628,118.092h-6.174a.954.954,0,0,1-.954-.954v-5.38a.954.954,0,0,1,.954-.954h6.174a.954.954,0,0,1,.954.954v5.38A.954.954,0,0,1,262.628,118.092Zm0,0" transform="translate(-219.833 -95.337)" fill="#ff6930"/><path d="M285.283,110.805h-3.447a.957.957,0,0,1,.958.958v5.372a.957.957,0,0,1-.958.958h3.447a.957.957,0,0,0,.958-.958v-5.372A.957.957,0,0,0,285.283,110.805Zm0,0" transform="translate(-242.492 -95.337)" fill="#ff5426"/><path d="M75.5,157.108H67.654l-17.711-5.464c-4.9-1.512-8.571-1.033-13.905,1.316s-8.605,4.148-8.605,4.148l-.882.074a16.126,16.126,0,0,0-6.182,1.812L8.254,165.4a1.4,1.4,0,0,0-.723,1.226v2.958A1.121,1.121,0,0,0,8.653,170.7H75.5a1.4,1.4,0,0,0,1.4-1.4V158.509a1.4,1.4,0,0,0-1.4-1.4Zm-24.216,7.825a.864.864,0,0,1-.864.864H40.491a2.23,2.23,0,0,1-1.411-.5L31.8,159.339a.7.7,0,0,1,.123-1.165c1.128-.58,3.11-1.561,5.717-2.709,4.2-1.851,7.093-2.228,10.953-1.037l2.2.677a.7.7,0,0,1,.495.67v9.157Zm0,0" transform="translate(-6.48 -129.728)" fill="#ff6930"/><path d="M177.7,72.707h20.181a.841.841,0,0,1,.841.841v7.1a.841.841,0,0,1-1.045.816L177.5,76.417a.841.841,0,0,1-.637-.816V73.548A.841.841,0,0,1,177.7,72.707Zm0,0" transform="translate(-152.17 -62.558)" fill="#ff6930"/><path d="M197.88,72.707h-2.746v5.6a.841.841,0,0,1-1.045.816l-17.23-4.31V75.6a.841.841,0,0,0,.637.816l20.181,5.048a.841.841,0,0,0,1.045-.816v-7.1a.841.841,0,0,0-.841-.841Zm0,0" transform="translate(-152.17 -62.558)" fill="#ff5426"/><path d="M195.705,13.025a2.769,2.769,0,0,0,.762-.088.922.922,0,0,0,.687-.892V8.51a.908.908,0,0,0-.654-.881,2.748,2.748,0,0,0-3.473,2.549,2.767,2.767,0,0,0,2.677,2.846Zm0,0" transform="translate(-166.08 -6.48)" fill="#ff6930"/><path d="M75.5,196.137h-3.83v9.737a1.4,1.4,0,0,1-1.4,1.4H7.527v1.334a1.121,1.121,0,0,0,1.121,1.121H75.5a1.4,1.4,0,0,0,1.4-1.4V197.538a1.4,1.4,0,0,0-1.4-1.4Zm0,0" transform="translate(-6.477 -168.757)" fill="#ff5426"/><path d="M481.151,215.211h-2.663a1.121,1.121,0,0,0-1.121,1.121v.491a3.433,3.433,0,0,0,3.433,3.433h.351Zm0,0" transform="translate(-410.728 -185.168)" fill="#ffd500"/><path d="M493.762,215.211v4.849a3.43,3.43,0,0,0,1.145.2h.351v-5.045Zm0,0" transform="translate(-424.834 -185.168)" fill="#fbc700"/><path d="M89.549,256.808a5.956,5.956,0,1,1-5.956-5.956A5.956,5.956,0,0,1,89.549,256.808Zm0,0" transform="translate(-66.799 -215.834)" fill="#9c9c9c"/><path d="M386.71,256.808a5.956,5.956,0,1,1-5.956-5.956A5.956,5.956,0,0,1,386.71,256.808Zm0,0" transform="translate(-322.476 -215.834)" fill="#9c9c9c"/><path d="M92.32,253.363a5.956,5.956,0,0,1-6.883,9.036,5.956,5.956,0,1,0,6.883-9.036Zm0,0" transform="translate(-73.51 -217.994)" fill="#838383"/><path d="M389.48,253.363A5.956,5.956,0,0,1,382.6,262.4a5.956,5.956,0,1,0,6.883-9.036Zm0,0" transform="translate(-329.187 -217.994)" fill="#838383"/><path d="M108.461,279.383a2.293,2.293,0,1,1-2.293-2.293A2.293,2.293,0,0,1,108.461,279.383Zm0,0" transform="translate(-89.374 -238.409)" fill="#e7e7e7"/><path d="M405.622,279.383a2.293,2.293,0,1,1-2.293-2.293A2.293,2.293,0,0,1,405.622,279.383Zm0,0" transform="translate(-345.052 -238.409)" fill="#e7e7e7"/><path d="M108.265,278.531a2.292,2.292,0,0,1-3.042,3,2.293,2.293,0,1,0,3.042-3Zm0,0" transform="translate(-90.534 -239.649)" fill="#cecece"/><path d="M405.425,278.531a2.292,2.292,0,0,1-3.042,3,2.293,2.293,0,1,0,3.042-3Zm0,0" transform="translate(-346.211 -239.649)" fill="#cecece"/><path d="M190.433,165.269c-3.958-1.221-7.126-.929-11.686,1.079-2.588,1.14-4.568,2.117-5.773,2.736a1.752,1.752,0,0,0-.308,2.914l3.982,3.258,0,0,3.291,2.692a3.287,3.287,0,0,0,2.077.742h9.93a1.918,1.918,0,0,0,1.916-1.916V167.62a1.744,1.744,0,0,0-1.236-1.674Zm-9.159,11.056-2.222-1.818,2.434-1.756.5.719a1.051,1.051,0,0,0,1.726-1.2l-2.163-3.11a1.051,1.051,0,0,0-1.726,1.2l.463.665-2.918,2.1-2.956-2.418c1.2-.6,2.959-1.459,5.182-2.439,4.141-1.824,6.719-2.074,10.22-.995l1.949.6v.379a3.333,3.333,0,0,0-3.148,3.324v2.262h-2a3.561,3.561,0,0,0-3.461,2.747h-1.137a1.179,1.179,0,0,1-.745-.266Zm4.137.266a1.453,1.453,0,0,1,1.207-.645h2.365a1.737,1.737,0,0,0,1.735-1.735v-2.629a1.227,1.227,0,0,1,1.046-1.212v6.221Zm0,0" transform="translate(-148.008 -141.573)"/><path d="M24.315,39.923h-.593a7.008,7.008,0,0,0-13.857,0H2.173a.07.07,0,0,1-.07-.07V36.895a.351.351,0,0,1,.174-.3l12.1-6.4a15,15,0,0,1,5.78-1.694l.882-.074a1.057,1.057,0,0,0,.418-.127c.032-.018,3.3-1.807,8.522-4.107a25.4,25.4,0,0,1,5.686-1.873A1.046,1.046,0,0,0,36,22.265a15.17,15.17,0,0,1,7.148.654l11.539,3.56a1.051,1.051,0,1,0,.62-2.008L44.8,21.228V19.814a3.817,3.817,0,0,0,.915.171A1.894,1.894,0,0,0,47.6,18.091v-7.1A1.894,1.894,0,0,0,45.711,9.1H44.427a1.051,1.051,0,1,0,0,2.1H45.5v6.622l-19.76-4.943V11.2H39.624a1.051,1.051,0,0,0,0-2.1H29.431V7.587a3.761,3.761,0,0,0,1.222-.113,1.974,1.974,0,0,0,1.473-1.909V2.03A1.961,1.961,0,0,0,30.7.135,3.8,3.8,0,0,0,25.9,3.66,3.769,3.769,0,0,0,26.935,6.4a3.865,3.865,0,0,0,.394.364V9.1h-1.8a1.9,1.9,0,0,0-1.892,1.892v2.053a1.89,1.89,0,0,0,1.433,1.835l9.545,2.388V20.39a29.151,29.151,0,0,0-5.482,1.881c-4.642,2.044-7.7,3.656-8.489,4.081l-.662.056a17.079,17.079,0,0,0-6.586,1.93L1.283,34.74l-.017.009A2.454,2.454,0,0,0,0,36.9v2.958a2.175,2.175,0,0,0,2.172,2.172H9.866a7.007,7.007,0,0,0,13.856,0h.593a1.051,1.051,0,1,0,0-2.1ZM29.693,2.1a1.7,1.7,0,0,1,.33.032V5.462a1.73,1.73,0,0,1-.372.032A1.7,1.7,0,0,1,29.693,2.1Zm7.025,15.691,5.979,1.5v1.317a16.824,16.824,0,0,0-5.979-.55ZM16.794,45.879A4.905,4.905,0,1,1,21.7,40.974,4.911,4.911,0,0,1,16.794,45.879Zm0,0" transform="translate(0 0)"/><path d="M241.344,184.9h-7.572a.789.789,0,0,1-.231-.035l-1.685-.52a1.051,1.051,0,1,0-.62,2.009l1.685.52a2.88,2.88,0,0,0,.851.128h7.572a.351.351,0,0,1,.351.351v.21h-1.612a2.175,2.175,0,0,0-2.172,2.172v.491a4.491,4.491,0,0,0,3.784,4.43v3.488a.351.351,0,0,1-.351.351h-3.816a7.008,7.008,0,0,0-13.857,0H201.332a1.051,1.051,0,1,0,0,2.1h22.339a7.007,7.007,0,0,0,13.856,0h3.817a2.456,2.456,0,0,0,2.452-2.453V187.35a2.455,2.455,0,0,0-2.453-2.452ZM230.6,204.448a4.905,4.905,0,1,1,4.9-4.906A4.911,4.911,0,0,1,230.6,204.448Zm9.413-14.225v-.491a.07.07,0,0,1,.07-.07h1.612V192.5A2.386,2.386,0,0,1,240.013,190.223Zm0,0" transform="translate(-172.322 -158.568)"/><path d="M99.692,269.563a3.344,3.344,0,1,0,3.344,3.344A3.348,3.348,0,0,0,99.692,269.563Zm0,4.586a1.242,1.242,0,1,1,1.242-1.242A1.244,1.244,0,0,1,99.692,274.149Zm0,0" transform="translate(-82.898 -231.933)"/><path d="M396.852,269.563a3.344,3.344,0,1,0,3.344,3.344A3.348,3.348,0,0,0,396.852,269.563Zm0,4.586a1.242,1.242,0,1,1,1.242-1.242A1.244,1.244,0,0,1,396.852,274.149Zm0,0" transform="translate(-338.575 -231.933)"/></g><g transform="translate(629.27 3125.135)"><circle cx="26.983" cy="26.983" r="26.983" transform="translate(5.295 0.871)" fill="#53bced"/><path d="M145.152,73.15a35.221,35.221,0,0,1-34.534,41.362A26.983,26.983,0,0,0,145.152,73.15Z" transform="translate(-94.496 -65.045)" fill="#3eaee2"/><g transform="translate(15.71 9.392)"><path d="M108.786,84.762l-1.893,1.893,8.876,3.965,2.722-2.9Z" transform="translate(-106.893 -84.762)" fill="#c4c4c4"/><path d="M210.252,132.023l-2.959,2.811,3.911,8.994,2.006-1.774Z" transform="translate(-196.169 -126.786)" fill="#c4c4c4"/></g><g transform="translate(5.308 0.871)"><path d="M303.421,247.112v7.574h3.787v11.361h4.734l3.787-3.787v-3.787l3.787-5.681h-3.787l-2.84-5.681Z" transform="translate(-271.244 -220.603)" fill="#88b337"/><path d="M132.527,289.835v6.627h4.734v10.414l3.787-2.84V301.2l4.734-3.787v-4.734H140.1l-2.84-2.84Z" transform="translate(-119.285 -258.592)" fill="#88b337"/><path d="M177.506,10.7l3.787-.947V7.97c-.78-.068-1.569-.11-2.367-.11a26.916,26.916,0,0,0-9.657,1.788l5.4,2.945Z" transform="translate(-151.956 -7.86)" fill="#88b337"/><path d="M326.191,105.638h-5.681v6.627H324.3l1.893-2.84h5.681l3.787,6.627h4.624a26.837,26.837,0,0,0-5.586-14.2h-4.719Z" transform="translate(-286.44 -91.437)" fill="#88b337"/><path d="M16.787,152.149l2.84-2.84-2.84-4.734H15.73a26.856,26.856,0,0,0-2.718,11.361h3.775Z" transform="translate(-13.012 -129.427)" fill="#88b337"/></g><path d="M120.98,69.681l-8.406,8.406-3.787-.947-1.893,1.893,4.734,2.84,2.84,4.734,1.893-1.893-.947-3.787,8.544-8.433a6.857,6.857,0,0,0,1.871-4.707v-.115A6.856,6.856,0,0,0,120.98,69.681Z" transform="translate(-91.183 -60.175)" fill="#cfcfcf"/><path d="M21.64,236.938c-6.273,2.773-11.172,3.035-13.522.684s-2.007-7.12.464-12.954A64.207,64.207,0,0,1,18.965,208.61l-1.438-1.231A68.646,68.646,0,0,0,7.51,222.338c-3.459,7.344-3.9,13.453-.731,16.622a8.16,8.16,0,0,0,6,2.157c2.948,0,6.566-.978,10.685-2.927.045-.023.269-.137.6-.316Q22.826,237.463,21.64,236.938Z" transform="translate(-0.26 -184.401)" fill="#fdb62f"/><path d="M7.42,35.617a26.011,26.011,0,0,1-1.16-7.29H9.082a.947.947,0,0,0,.947-.947v-3.4l2.563-2.563a.947.947,0,0,0,.142-1.157l-2.84-4.734a.954.954,0,0,0-.354-.34A26.2,26.2,0,0,1,22.3,3.806l5.29,2.651a.945.945,0,0,0,.947-.06l2.7-1.8,3.628-.907a.946.946,0,0,0,.719-.927V2.036a26,26,0,0,1,15.933,8.3H48.846a.944.944,0,0,0-.669.277l-3.51,3.51H39.379a.947.947,0,0,0-.947.947V21.7a.947.947,0,0,0,.947.947h3.787a.948.948,0,0,0,.788-.421l1.612-2.419h4.625L53.7,25.96a.946.946,0,0,0,.822.473h3.747c.025.473.04.947.04,1.42a26.036,26.036,0,0,1-47.889,14.16L8.837,43.045A27.92,27.92,0,0,0,20.2,53.038c-5.7,2.294-10.13,2.384-12.335.183-4.3-4.3.365-16.771,10.847-29.012l-1.438-1.231C5.769,36.4,1.35,49.39,6.519,54.559a8.166,8.166,0,0,0,6,2.158,25.269,25.269,0,0,0,10.09-2.661,27.879,27.879,0,1,0-17-17.87ZM55.076,24.54l-3.514-6.154a.946.946,0,0,0-.822-.473H45.059a.948.948,0,0,0-.788.421l-1.612,2.419H40.325V16.019h4.734a.944.944,0,0,0,.669-.277l3.51-3.51h3.854a25.907,25.907,0,0,1,5,12.308ZM33.7,1.858v.168l-3.07.768a.939.939,0,0,0-.3.131L27.949,4.512,24.775,2.925a25.924,25.924,0,0,1,7.5-1.107C32.751,1.818,33.225,1.833,33.7,1.858ZM10.731,20.606,8.413,22.924a.946.946,0,0,0-.277.669v2.84H6.282A25.848,25.848,0,0,1,8.6,17.052Z"/><path d="M119.174,60.188v-.115a.947.947,0,0,0-.947-.947,7.751,7.751,0,0,0-5.518,2.285l-2.326,2.325-8.926-2.677a.948.948,0,0,0-.941.238l-1.893,1.893a.947.947,0,0,0,.284,1.535l7.262,3.227-1.487,1.487-3.266-.817a.948.948,0,0,0-.9.249l-1.893,1.893a.947.947,0,0,0,.182,1.481l4.531,2.719,2.719,4.531a.946.946,0,0,0,1.481.182l1.893-1.893a.948.948,0,0,0,.249-.9l-.816-3.263,1.482-1.462,3.115,7.227a.946.946,0,0,0,1.244.494.967.967,0,0,0,.253-.16l2.007-1.774a.949.949,0,0,0,.284-.978l-2.666-8.99,2.462-2.433A7.776,7.776,0,0,0,119.174,60.188Zm-18.237,3.368.519-.52,7.407,2.223L107.6,66.518Zm14.318,13.37-.576.508-2.89-6.7,1.261-1.245Zm-8.1-4.272a.947.947,0,0,0-.253.9l.817,3.266-.657.657-2.217-3.692a.946.946,0,0,0-.324-.324l-3.692-2.217.657-.657,3.266.817a.948.948,0,0,0,.9-.249l8.406-8.406a5.869,5.869,0,0,1,3.161-1.644,5.845,5.845,0,0,1-1.515,3.114Z" transform="translate(-83.582 -52.575)"/><path d="M299.61,259.4h4.734a.944.944,0,0,0,.669-.277l3.787-3.787a.945.945,0,0,0,.277-.669v-3.5l3.628-5.442a.947.947,0,0,0-.788-1.469h-3.2l-2.573-5.157a.946.946,0,0,0-.852-.524h-9.468a.947.947,0,0,0-.947.947v7.574a.947.947,0,0,0,.947.947h2.84v10.414A.947.947,0,0,0,299.61,259.4Zm-2.84-13.255V240.46h7.936l2.578,5.157a.947.947,0,0,0,.847.524h2.018l-2.805,4.208a.955.955,0,0,0-.159.525v3.4l-3.232,3.232h-3.395V247.088a.947.947,0,0,0-.947-.947h-2.84Z" transform="translate(-258.338 -212.133)"/><path d="M129.238,300.131a.946.946,0,0,0,.991-.095l3.787-2.84a.946.946,0,0,0,.379-.757v-2.386l4.379-3.5a.947.947,0,0,0,.355-.739v-4.734a.947.947,0,0,0-.947-.947h-5.289l-2.563-2.563a.945.945,0,0,0-.669-.277h-4.734a.947.947,0,0,0-.947.947v6.627a.947.947,0,0,0,.947.947h3.787v9.468A.947.947,0,0,0,129.238,300.131Zm-3.364-12.213v-4.734h3.4l2.563,2.563a.945.945,0,0,0,.669.277h4.734v3.333l-4.379,3.5a.947.947,0,0,0-.355.738v2.367l-1.893,1.42v-8.521a.947.947,0,0,0-.947-.947Z" transform="translate(-106.377 -250.123)"/></g><g transform="translate(850 3285)"><path d="M130.469,60.437V91.832h33.1V60.437Q147.019,48.7,130.469,60.437Zm0,0" transform="translate(-113.269 -47.373)" fill="#5692d8"/><path d="M133.633,83.7q-1.582.908-3.164,2.03v31.395h3.164Zm0,0" transform="translate(-113.269 -72.668)" fill="#3165a3"/><path d="M130.469,60.437V75.92h33.1V60.437q-16.55-11.742-33.1,0Zm0,0" transform="translate(-113.269 -47.373)" fill="#c8e7f7"/><path d="M133.633,83.7c-.248.142-.5.289-.745.44l-.106.064q-.365.222-.729.456l0,0q-.358.229-.715.471l-.158.107c-.236.16-.472.323-.709.49v15.483h3.164Zm0,0" transform="translate(-113.269 -72.668)" fill="#8cbcd6"/><path d="M195.3,55.939V62.3a2.942,2.942,0,0,0,2.943,2.943h13.285a2.942,2.942,0,0,0,2.943-2.943v-5.06a24.466,24.466,0,0,0-19.17-1.3Zm0,0" transform="translate(-169.55 -47.373)" fill="#8cbcd6"/><path d="M177.984,10.657v8.913a3.158,3.158,0,0,0,3.157,3.158H195.4a3.158,3.158,0,0,0,3.158-3.158V10.657A3.158,3.158,0,0,0,195.4,7.5H181.141a3.157,3.157,0,0,0-3.157,3.157Zm0,0" transform="translate(-154.52 -6.511)" fill="#ffeb96"/><path d="M381.531,86.59v32.22h4.357V86.59a.949.949,0,0,0-.949-.949h-2.46A.949.949,0,0,0,381.531,86.59Zm0,0" transform="translate(-331.232 -74.35)" fill="#f9aa4b"/><path d="M97.418,86.59v32.22h4.357V86.59a.949.949,0,0,0-.949-.949h-2.46a.949.949,0,0,0-.949.949Zm0,0" transform="translate(-84.575 -74.35)" fill="#f9aa4b"/><path d="M414.582,119.073v28.761h10.25a1.6,1.6,0,0,0,1.6-1.6V120.619a1.545,1.545,0,0,0-1.545-1.545Zm0,0" transform="translate(-359.926 -103.375)" fill="#5692d8"/><path d="M414.582,119.074h3.164v28.761h-3.164Zm0,0" transform="translate(-359.926 -103.376)" fill="#3165a3"/><path d="M414.582,166.313h11.854v14.715H414.582Zm0,0" transform="translate(-359.926 -144.387)" fill="#c8e7f7"/><path d="M414.582,166.313h3.164v14.715h-3.164Zm0,0" transform="translate(-359.926 -144.387)" fill="#8cbcd6"/><path d="M7.5,120.62v25.611a1.6,1.6,0,0,0,1.6,1.6h10.25V119.075H9.045A1.545,1.545,0,0,0,7.5,120.62Zm0,0" transform="translate(-6.512 -103.377)" fill="#5692d8"/><path d="M7.5,166.313H19.354v14.715H7.5Zm0,0" transform="translate(-6.512 -144.387)" fill="#c8e7f7"/><path d="M202.453,254.65V264.8h14.119V254.65a.853.853,0,0,0-.853-.853H203.306a.853.853,0,0,0-.853.853Zm0,0" transform="translate(-175.763 -220.338)" fill="#c8e7f7"/><path d="M216.1,28.52l1.6-4.24a1.485,1.485,0,0,0-1.389-2.01h-5.927a.989.989,0,0,0,0,1.978H215.6l-1.35,3.574a.26.26,0,0,1-.243.168h-4.851a.26.26,0,0,1-.254-.207l-1.031-4.928a1.789,1.789,0,0,0-1.744-1.417h-1.02a.989.989,0,0,0,0,1.978h.861l1,4.773a2.247,2.247,0,0,0,2.189,1.779h4.851A2.249,2.249,0,0,0,216.1,28.52Zm0,0" transform="translate(-177.208 -18.612)"/><path d="M235.239,94.07a.989.989,0,0,0,0,1.978h.218a.989.989,0,0,0,0-1.978Zm0,0" transform="translate(-203.368 -81.669)"/><path d="M267.434,94.07a.989.989,0,0,0,0,1.978h.218a.989.989,0,0,0,0-1.978Zm0,0" transform="translate(-231.318 -81.669)"/><path d="M64.966,14.709H63.507a.989.989,0,1,0,0,1.978h1.459a.557.557,0,0,1,.556.557v3.693H55.645v-4.25h3.907a.989.989,0,0,0,0-1.978H55.645v-2.47A1.94,1.94,0,0,0,53.708,10.3h-2.46a1.939,1.939,0,0,0-1.718,1.043,36.316,36.316,0,0,0-4.506-2.52V4.146A4.151,4.151,0,0,0,40.877,0h-5.15a.989.989,0,1,0,0,1.978h5.15a2.171,2.171,0,0,1,2.169,2.169v8.913a2.171,2.171,0,0,1-2.169,2.169c-.013,0-13.343,0-14.256,0a2.172,2.172,0,0,1-2.169-2.169V4.146a2.172,2.172,0,0,1,2.169-2.169h5.15a.989.989,0,0,0,0-1.978h-5.15a4.151,4.151,0,0,0-4.146,4.147V8.824a36.321,36.321,0,0,0-4.506,2.52A1.938,1.938,0,0,0,16.251,10.3h-2.46a1.94,1.94,0,0,0-1.938,1.938v2.47H7.947a.989.989,0,1,0,0,1.978h3.907v4.25H1.977V17.244a.557.557,0,0,1,.556-.557H3.992a.989.989,0,1,0,0-1.978H2.533A2.537,2.537,0,0,0,0,17.244V42.855a2.6,2.6,0,0,0,2.593,2.592H64.907A2.6,2.6,0,0,0,67.5,42.855V17.244a2.537,2.537,0,0,0-2.534-2.534ZM55.645,35.652V32.758h3.949v2.894Zm3.949-4.872H55.645V27.786h3.949Zm1.978-2.994h3.95V30.78h-3.95Zm0,4.972h3.95v2.894h-3.95Zm3.95-6.949h-3.95V22.914h3.95Zm-5.927-2.894v2.894H55.645V22.914ZM39.956,32.471H27.543A1.844,1.844,0,0,0,25.7,34.312V43.47H18.189V29.537H49.31V43.47H41.8V34.312a1.844,1.844,0,0,0-1.842-1.842ZM28.178,17.206H39.321v2.679H28.178Zm11.143,4.656v5.7H28.178v-5.7ZM26.2,27.56H18.189v-5.7H26.2Zm18.823-14.5V11.021a36.1,36.1,0,0,1,4.287,2.558v6.306h-2.1a.989.989,0,1,0,0,1.978h2.1v5.7H41.3v-5.7h1.958a.989.989,0,1,0,0-1.978H41.3v-2.7a4.152,4.152,0,0,0,3.725-4.125ZM26.2,17.184v2.7H18.189V13.578a36.16,36.16,0,0,1,4.287-2.557v2.038A4.153,4.153,0,0,0,26.2,17.184ZM1.977,35.652V32.758h3.95v2.894Zm9.877-4.872H7.9V27.786h3.949Zm-5.927,0H1.977V27.786h3.95ZM7.9,32.758h3.949v2.894H7.9Zm3.949-6.949H7.9V22.915h3.949ZM5.927,22.915v2.894H1.977V22.915Zm-3.95,19.94V37.63h9.877v5.84H2.592a.616.616,0,0,1-.615-.615ZM13.831,12.279h2.38V43.47h-2.38ZM27.679,34.448h5.082V43.47H27.679Zm7.059,9.022V34.448H39.82V43.47Zm16.55-31.191h2.38V43.47h-2.38ZM64.907,43.47H55.645V37.63h9.877v5.225a.616.616,0,0,1-.615.615Zm0,0" transform="translate(0 0)"/><path d="M230.364,285.516a.989.989,0,0,0-.989.989v.272a.989.989,0,0,0,1.978,0V286.5A.989.989,0,0,0,230.364,285.516Zm0,0" transform="translate(-199.136 -247.875)"/><path d="M268.614,285.516a.989.989,0,0,0-.989.989v.272a.989.989,0,0,0,1.978,0V286.5A.989.989,0,0,0,268.614,285.516Zm0,0" transform="translate(-232.343 -247.875)"/></g><g transform="translate(-286.874 2790.6)"><g transform="translate(1020.668 332.112)"><ellipse cx="47.297" cy="9.642" rx="47.297" ry="9.642" transform="translate(20.246 91.341)" fill="#e8e8e8" style="mix-blend-mode:multiply;isolation:isolate"/><g transform="translate(0 0)"><g transform="translate(117.225 25.197)"><path d="M1255.183,451.688a3.634,3.634,0,0,1-3.035-1.854c-1.369-2.128-.623-4.955,1.066-7.038-4.509-1.161-9.05,3.446-9.273,3.677a.629.629,0,0,1-.9-.874c.064-.065,5.678-5.782,11.143-3.819a8.287,8.287,0,0,1,.791-.628,5.539,5.539,0,0,1,8.112,1.361.629.629,0,1,1-1,.759c-2.477-3.276-5.294-1.853-6.389-1.088q-.131.092-.259.191a8.109,8.109,0,0,1,.942.657c2.054,1.655,2.931,3.728,2.406,5.69a3.959,3.959,0,0,1-3.09,2.928A3.2,3.2,0,0,1,1255.183,451.688Zm-.715-8.411c-1.539,1.728-2.335,4.209-1.262,5.877a2.3,2.3,0,0,0,2.288,1.252,2.691,2.691,0,0,0,2.07-2.011c.39-1.459-.331-3.057-1.98-4.385A6.749,6.749,0,0,0,1254.468,443.277Z" transform="translate(-1242.86 -439.959)" fill="#f38ea6"/></g><g transform="translate(23.288 4.59)"><path d="M1070.434,418.585s-3.937-11.956-5.31-14.242,1.969-3.868,5.31-3.341,12.483,6.154,13.187,10.022S1073.6,421.047,1070.434,418.585Z" transform="translate(-1064.808 -400.9)" fill="#f38ea6"/><path d="M1071.133,412.325c1.218,3.434,2.289,6.683,2.289,6.683,3.164,2.462,13.89-3.693,13.187-7.561-.623-3.429-7.875-8.236-11.842-9.652h0s8.384,4.84,8.97,8.652S1074.822,419.412,1071.133,412.325Z" transform="translate(-1067.796 -401.323)" fill="#f281a0"/></g><path d="M1035.854,458.477s-13.65,4.477-14.623,4.686-.487,19.912,0,21.8,15.806,5.776,15.806,5.776Z" transform="translate(-1020.668 -423.51)" fill="#f38ba4"/><path d="M1036.358,458.477s-2.409.79-5.275,1.721c0,0,2.074.4,1.131,3.384s-2.3,12.419-.443,18.392-5.74,5.031-10.037,2.987c.487,1.887,15.806,5.776,15.806,5.776Z" transform="translate(-1021.172 -423.51)" fill="#f1759a"/><g transform="translate(11.986 4.559)"><path d="M1156.256,446.026c0-24.955-25.267-45.185-56.435-45.185s-56.435,20.23-56.435,45.185c0,14.246,8.238,26.951,21.105,35.233-2.085,6.075-4.772,15.5-1.8,16.554,3.952,1.4,11.137,2.294,17.62-9.375a69.994,69.994,0,0,0,39.013,0c6.484,11.669,13.668,10.779,17.62,9.375,2.975-1.056.288-10.479-1.8-16.554C1148.018,472.977,1156.256,460.272,1156.256,446.026Z" transform="translate(-1043.386 -400.841)" fill="#f38ba4"/><path d="M1153.92,427.133c-8.935-15.519-28.532-26.292-51.276-26.292-24.343,0-45.086,12.34-53,29.633-1.454,15.658,1.773,40.366,34.925,45.645C1130.63,483.454,1154.512,464.228,1153.92,427.133Z" transform="translate(-1046.21 -400.841)" fill="#f5a3b1"/><path d="M1107.793,461.657c23.615,0,42.758-13.936,42.758-31.125,0-11.683-8.847-21.857-21.926-27.18a69.128,69.128,0,0,0-18.577-2.51,65.416,65.416,0,0,0-35.3,9.94c-6.067,5.373-9.712,12.252-9.712,19.751C1065.034,447.721,1084.178,461.657,1107.793,461.657Z" transform="translate(-1053.613 -400.841)" fill="#f8bbbe"/><path d="M1088.376,568.75c-4.132,3.766-8.266,3.625-10.651,2.219a2.068,2.068,0,0,0,1.191,1.711c3.952,1.4,11.137,2.294,17.62-9.375l-8.161-3.987S1093.56,564.024,1088.376,568.75Z" transform="translate(-1059.609 -475.708)" fill="#f06b95"/><g transform="translate(84.574 80.418)"><path d="M1211.549,563.54c1.089,6.067-4.074,7.128-5.663,6.8a12,12,0,0,0,6.791-.519c2.975-1.056.288-10.479-1.8-16.554a66.07,66.07,0,0,1-7.191,4.135S1210.421,557.258,1211.549,563.54Z" transform="translate(-1203.689 -553.267)" fill="#f06b95"/><path d="M1207.558,585.553h0Z" transform="translate(-1205.517 -568.52)" fill="#f06b95"/></g></g><path d="M1029.133,476.432c.1-1.572.848-4.4,1.005-7.074.119-2.015-6.2-.454-9.313.435-.147,1.934-.18,5.061-.143,8.274C1023.995,477.907,1029.069,477.49,1029.133,476.432Z" transform="translate(-1020.668 -428.185)" fill="#f6abb5"/><circle cx="5.554" cy="5.554" r="5.554" transform="translate(23.14 28.408)" fill="#f38ba4"/><path d="M1079.74,460.255l-2.971-2.519-1.494,1.448,2.3,2.941A5.567,5.567,0,0,0,1079.74,460.255Z" transform="translate(-1046.465 -423.16)" fill="#f5a3b1"/><ellipse cx="3.905" cy="4.088" rx="3.905" ry="4.088" transform="translate(24.533 29.592)" fill="#404041"/><path d="M1072.342,452.067c0,.55-.282,1-.629,1s-.629-.446-.629-1,.282-1,.629-1S1072.342,451.516,1072.342,452.067Z" transform="translate(-1044.485 -420.011)" fill="#fff"/><g transform="translate(28.014)"><path d="M1080.283,412.682s-4.561-13.848-6.149-16.5,2.28-4.48,6.149-3.869,14.459,7.128,15.274,11.608S1083.948,415.533,1080.283,412.682Z" transform="translate(-1073.767 -392.199)" fill="#f8bbbe"/><path d="M1081.092,405.431c1.411,3.977,2.651,7.74,2.651,7.74,3.666,2.851,16.088-4.277,15.274-8.757-.722-3.971-9.122-9.539-13.716-11.18h0s9.711,5.606,10.39,10.022S1085.365,413.639,1081.092,405.431Z" transform="translate(-1077.228 -392.689)" fill="#f5a3b1"/></g><g transform="translate(53.767 8.606)"><path d="M1151.7,413.43a58.081,58.081,0,0,0-28.229-.011l-.891-3.015a60.372,60.372,0,0,1,29.935-.011Z" transform="translate(-1122.58 -408.511)" fill="#d36b8a"/></g><g transform="translate(53.767 8.381)"><path d="M1122.58,410.2s.447-.157,1.247-.371c.4-.113.889-.227,1.449-.367.564-.121,1.2-.28,1.9-.4.7-.136,1.458-.261,2.264-.38s1.66-.221,2.544-.32c.887-.062,1.8-.167,2.734-.2.933-.046,1.881-.091,2.83-.085.474,0,.949,0,1.421.01l1.409.062c.934.024,1.849.119,2.735.2.888.056,1.738.2,2.544.317l1.174.173,1.088.216c.7.14,1.337.262,1.9.4l1.444.387,1.254.346-1.276-.256-1.459-.3c-.566-.1-1.21-.189-1.907-.31l-1.088-.178-1.173-.132c-.806-.089-1.652-.2-2.535-.251s-1.79-.15-2.718-.164l-1.4-.045c-.469-.008-.94,0-1.411,0-.942-.017-1.884.017-2.811.052s-1.837.115-2.719.165c-.878.1-1.732.149-2.536.253s-1.565.189-2.264.3c-1.4.213-2.563.416-3.37.592S1122.58,410.2,1122.58,410.2Z" transform="translate(-1122.58 -408.086)" fill="#fbdddd"/></g></g></g><g transform="translate(1073.179 310.642)"><circle cx="15.163" cy="15.163" r="15.163" transform="translate(1.114 1.114)" fill="#fff585"/><ellipse cx="15.154" cy="14.829" rx="15.154" ry="14.829" transform="translate(1.122 1.782)" fill="#ffd442"/><path d="M1136.331,338.488l6.246,14.6,2.747-.743-2.609-15.9A15.056,15.056,0,0,0,1136.331,338.488Z" transform="translate(-1127.767 -334.598)" fill="#ffe742"/><path d="M1160.83,376.57l-1.579,1.56,2.295,5.316a15.147,15.147,0,0,0,3.017-1.959Z" transform="translate(-1138.595 -353.555)" fill="#fcb642"/><path d="M1143.791,386.58a15.209,15.209,0,0,0,7.655-.029l-.964-5.619h-5.643Z" transform="translate(-1131.291 -355.616)" fill="#fcb642"/><circle cx="11.509" cy="11.509" r="11.509" transform="translate(0 16.276) rotate(-45)" fill="#f89c40"/><path d="M1151.576,336.354l-.627,14.813h1.1l3.285-14.184A15.136,15.136,0,0,0,1151.576,336.354Z" transform="translate(-1134.673 -334.557)" fill="#ffe742"/><path d="M1152.1,352.935c0-.286-.014-.568-.035-.849a11.508,11.508,0,0,0-22.929,1.406c0,.286.014.568.034.849a11.508,11.508,0,0,0,22.93-1.407Z" transform="translate(-1124.368 -337.216)" fill="#fcb942"/><path d="M1150.644,357.509a2.556,2.556,0,0,0-.677-.916,3.779,3.779,0,0,0-1.07-.631,13.117,13.117,0,0,0-1.416-.47c-.379-.1-.713-.195-1-.277a3.94,3.94,0,0,1-.716-.269,1.294,1.294,0,0,1-.431-.331.721.721,0,0,1-.146-.462q0-.908,1.355-.908a3.609,3.609,0,0,1,.985.139,6.738,6.738,0,0,1,.908.323,6.151,6.151,0,0,1,.693.354,1.561,1.561,0,0,1,.323.231l1.108-2.093q-.37-.215-.808-.431a7.606,7.606,0,0,0-.947-.385,8.526,8.526,0,0,0-1.062-.277c-.042-.008-.084-.011-.125-.018v-2.475h-2.228v2.53c-.107.026-.213.053-.318.086a3.824,3.824,0,0,0-1.285.685,3.29,3.29,0,0,0-.877,1.116,3.429,3.429,0,0,0-.323,1.524,3,3,0,0,0,.177,1.077,2.259,2.259,0,0,0,.539.816,3.442,3.442,0,0,0,.916.624,8.993,8.993,0,0,0,1.308.5q.569.17,1.054.308a6.033,6.033,0,0,1,.839.3,1.876,1.876,0,0,1,.554.362.686.686,0,0,1,.2.508q0,.817-1.339.816a4.675,4.675,0,0,1-1.247-.169,8.489,8.489,0,0,1-1.116-.385,5.958,5.958,0,0,1-.839-.431,2.111,2.111,0,0,1-.4-.292l-1.108,2.2a6.464,6.464,0,0,0,1.039.57,9.74,9.74,0,0,0,1.162.423,8.909,8.909,0,0,0,1.064.239v2.171h2.228v-2.1a6.279,6.279,0,0,0,.695-.125,3.868,3.868,0,0,0,1.308-.569,2.927,2.927,0,0,0,.916-1.031,3.245,3.245,0,0,0,.346-1.562A3.183,3.183,0,0,0,1150.644,357.509Z" transform="translate(-1130.504 -340.348)" fill="#231f20" opacity="0.25" style="mix-blend-mode:multiply;isolation:isolate"/><path d="M1150.644,355.609a2.556,2.556,0,0,0-.677-.916,3.779,3.779,0,0,0-1.07-.631,13.008,13.008,0,0,0-1.416-.47c-.379-.1-.713-.2-1-.278a3.94,3.94,0,0,1-.716-.269,1.3,1.3,0,0,1-.431-.331.722.722,0,0,1-.146-.462q0-.908,1.355-.908a3.607,3.607,0,0,1,.985.139,6.734,6.734,0,0,1,.908.323,6.161,6.161,0,0,1,.693.354,1.561,1.561,0,0,1,.323.231l1.108-2.093q-.37-.215-.808-.431a7.606,7.606,0,0,0-.947-.385,8.52,8.52,0,0,0-1.062-.277c-.042-.008-.084-.011-.125-.018v-2.475h-2.228v2.53c-.107.026-.213.053-.318.087a3.823,3.823,0,0,0-1.285.685,3.287,3.287,0,0,0-.877,1.116,3.425,3.425,0,0,0-.323,1.524,3,3,0,0,0,.177,1.077,2.259,2.259,0,0,0,.539.816,3.443,3.443,0,0,0,.916.624,8.983,8.983,0,0,0,1.308.5q.569.17,1.054.308a6.037,6.037,0,0,1,.839.3,1.875,1.875,0,0,1,.554.362.686.686,0,0,1,.2.508q0,.817-1.339.816a4.674,4.674,0,0,1-1.247-.169,8.485,8.485,0,0,1-1.116-.385,5.961,5.961,0,0,1-.839-.431,2.108,2.108,0,0,1-.4-.292l-1.108,2.2a6.468,6.468,0,0,0,1.039.57,9.74,9.74,0,0,0,1.162.423,8.915,8.915,0,0,0,1.064.239v2.171h2.228v-2.1a6.251,6.251,0,0,0,.695-.125,3.867,3.867,0,0,0,1.308-.569,2.927,2.927,0,0,0,.916-1.031,3.244,3.244,0,0,0,.346-1.562A3.182,3.182,0,0,0,1150.644,355.609Z" transform="translate(-1130.504 -339.45)" fill="#fff585"/><path d="M1157.222,353.509v.557h-.995Z" transform="translate(-1137.166 -342.661)" fill="#fff585"/><path d="M1142.124,369.789v.557l1.039.013Z" transform="translate(-1130.504 -350.352)" fill="#fff585"/><path d="M1150.644,356.664a2.56,2.56,0,0,0-.677-.916,3.8,3.8,0,0,0-1.07-.631,13.135,13.135,0,0,0-1.416-.47c-.379-.1-.713-.195-1-.277a3.969,3.969,0,0,1-.716-.27,1.279,1.279,0,0,1-.431-.331.719.719,0,0,1-.146-.462q0-.909,1.355-.908a3.628,3.628,0,0,1,.985.138,6.667,6.667,0,0,1,.908.323,6.065,6.065,0,0,1,.693.354,1.564,1.564,0,0,1,.323.231l1.108-2.093q-.37-.215-.808-.431a7.62,7.62,0,0,0-.947-.385,8.451,8.451,0,0,0-1.062-.277c-.042-.008-.084-.011-.125-.018v-2.475h-2.228V350.3c-.107.026-.213.054-.318.087a3.814,3.814,0,0,0-1.285.685,3.29,3.29,0,0,0-.877,1.116,3.425,3.425,0,0,0-.323,1.524,3,3,0,0,0,.177,1.078,2.263,2.263,0,0,0,.539.816,3.444,3.444,0,0,0,.916.624,9.118,9.118,0,0,0,1.308.5q.569.169,1.054.308a6.1,6.1,0,0,1,.839.3,1.887,1.887,0,0,1,.554.362.688.688,0,0,1,.2.508q0,.816-1.339.816a4.655,4.655,0,0,1-1.247-.169,8.572,8.572,0,0,1-1.116-.385,5.955,5.955,0,0,1-.839-.431,2.134,2.134,0,0,1-.4-.292l-1.108,2.2a6.5,6.5,0,0,0,1.039.569,9.732,9.732,0,0,0,1.162.424,9,9,0,0,0,1.064.239v2.171h2.228v-2.1a6.515,6.515,0,0,0,.695-.125,3.88,3.88,0,0,0,1.308-.57,2.923,2.923,0,0,0,.916-1.031,3.244,3.244,0,0,0,.346-1.562A3.182,3.182,0,0,0,1150.644,356.664Z" transform="translate(-1130.504 -339.949)" fill="#ffd442"/></g><g transform="translate(1089.455 295.901)"><circle cx="15.163" cy="15.163" r="15.163" transform="translate(0 13.81) rotate(-27.09)" fill="#fff585"/><ellipse cx="14.829" cy="15.154" rx="14.829" ry="15.154" transform="translate(1.513 30.537) rotate(-73.191)" fill="#ffd442"/><path d="M1185.819,286.522l1.76,15.778,2.845.083,2.1-15.975A15.064,15.064,0,0,0,1185.819,286.522Z" transform="translate(-1169.217 -280.205)" fill="#ffe742"/><path d="M1198.387,329.107l-1.962,1.036.66,5.752a15.146,15.146,0,0,0,3.454-1Z" transform="translate(-1174.227 -300.529)" fill="#fcb642"/><path d="M1178.123,333.625a15.206,15.206,0,0,0,7.337,2.186l.7-5.657-5.4-1.632Z" transform="translate(-1165.581 -300.253)" fill="#fcb642"/><circle cx="11.509" cy="11.509" r="11.509" transform="matrix(0.253, -0.968, 0.968, 0.253, 6.361, 28.633)" fill="#f89c40"/><path d="M1197.725,287.686l-4.883,14,1.048.317,7.246-12.629A15.136,15.136,0,0,0,1197.725,287.686Z" transform="translate(-1172.534 -280.961)" fill="#ffe742"/><path d="M1193.945,306.085c.083-.274.151-.548.213-.823a11.508,11.508,0,0,0-22.357-5.284c-.082.274-.151.548-.212.823a11.508,11.508,0,0,0,22.356,5.284Z" transform="translate(-1162.414 -282.902)" fill="#fcb942"/><path d="M1191.4,308.351a2.558,2.558,0,0,0-.384-1.073,3.8,3.8,0,0,0-.841-.913,13.054,13.054,0,0,0-1.22-.859q-.5-.312-.878-.555a3.979,3.979,0,0,1-.607-.465,1.289,1.289,0,0,1-.317-.441.722.722,0,0,1-.006-.484q.263-.87,1.559-.478a3.617,3.617,0,0,1,.9.418,6.616,6.616,0,0,1,.776.572,6.108,6.108,0,0,1,.561.539,1.557,1.557,0,0,1,.243.314l1.666-1.683q-.291-.313-.649-.646a7.59,7.59,0,0,0-.8-.642,8.433,8.433,0,0,0-.937-.572c-.037-.02-.077-.035-.114-.054l.715-2.369-2.132-.644-.732,2.422c-.11-.006-.219-.011-.329-.009a3.824,3.824,0,0,0-1.428.284,3.3,3.3,0,0,0-1.163.815,3.434,3.434,0,0,0-.75,1.365,3.006,3.006,0,0,0-.142,1.083,2.258,2.258,0,0,0,.28.936,3.43,3.43,0,0,0,.7.862,9.056,9.056,0,0,0,1.108.857q.5.327.92.6a6.064,6.064,0,0,1,.716.53,1.88,1.88,0,0,1,.426.507.688.688,0,0,1,.045.544q-.236.781-1.518.394a4.661,4.661,0,0,1-1.145-.522,8.521,8.521,0,0,1-.957-.691,5.985,5.985,0,0,1-.679-.655,2.134,2.134,0,0,1-.3-.4l-1.7,1.787a6.491,6.491,0,0,0,.83.846,9.828,9.828,0,0,0,.99.741,8.948,8.948,0,0,0,.95.536l-.628,2.079,2.132.644.608-2.011a6.439,6.439,0,0,0,.7.082,3.866,3.866,0,0,0,1.417-.167,2.914,2.914,0,0,0,1.175-.722,3.244,3.244,0,0,0,.783-1.4A3.182,3.182,0,0,0,1191.4,308.351Z" transform="translate(-1167.552 -285.982)" fill="#231f20" opacity="0.25" style="mix-blend-mode:multiply;isolation:isolate"/><path d="M1191.948,306.532a2.57,2.57,0,0,0-.383-1.073,3.812,3.812,0,0,0-.842-.913,13.111,13.111,0,0,0-1.22-.859q-.5-.312-.877-.554a3.987,3.987,0,0,1-.608-.465,1.29,1.29,0,0,1-.317-.442.717.717,0,0,1-.006-.484q.262-.869,1.559-.477a3.627,3.627,0,0,1,.9.417,6.687,6.687,0,0,1,.775.572,6.006,6.006,0,0,1,.561.539,1.526,1.526,0,0,1,.243.314l1.667-1.684q-.292-.313-.649-.646a7.583,7.583,0,0,0-.8-.642,8.476,8.476,0,0,0-.937-.572c-.037-.019-.076-.035-.114-.053l.715-2.369-2.133-.644-.731,2.422c-.11-.006-.22-.011-.329-.009a3.828,3.828,0,0,0-1.429.284,3.292,3.292,0,0,0-1.162.815,3.427,3.427,0,0,0-.75,1.365,3,3,0,0,0-.142,1.083,2.263,2.263,0,0,0,.28.936,3.448,3.448,0,0,0,.7.862,9.088,9.088,0,0,0,1.108.857q.5.327.921.6a6.034,6.034,0,0,1,.716.53,1.9,1.9,0,0,1,.426.506.691.691,0,0,1,.044.544q-.236.781-1.518.394a4.673,4.673,0,0,1-1.144-.523,8.5,8.5,0,0,1-.957-.691,5.923,5.923,0,0,1-.678-.655,2.133,2.133,0,0,1-.3-.4l-1.7,1.787a6.5,6.5,0,0,0,.83.846,9.806,9.806,0,0,0,.99.741,8.9,8.9,0,0,0,.95.537l-.627,2.078,2.132.644.607-2.011a6.322,6.322,0,0,0,.7.082,3.875,3.875,0,0,0,1.417-.167,2.924,2.924,0,0,0,1.175-.723,3.239,3.239,0,0,0,.783-1.4A3.189,3.189,0,0,0,1191.948,306.532Z" transform="translate(-1167.811 -285.123)" fill="#fff585"/><path d="M1201.861,305.836l-.161.533-.952-.288Z" transform="translate(-1176.269 -289.535)" fill="#fff585"/><path d="M1182.7,316.8l-.161.533.991.313Z" transform="translate(-1167.667 -294.714)" fill="#fff585"/><path d="M1191.643,307.543a2.56,2.56,0,0,0-.384-1.073,3.8,3.8,0,0,0-.841-.914,13.168,13.168,0,0,0-1.22-.859q-.5-.312-.878-.555a3.984,3.984,0,0,1-.607-.465,1.289,1.289,0,0,1-.317-.442.718.718,0,0,1-.007-.484q.263-.869,1.559-.477a3.626,3.626,0,0,1,.9.417,6.753,6.753,0,0,1,.776.572,6.184,6.184,0,0,1,.561.539,1.555,1.555,0,0,1,.243.315l1.666-1.684q-.291-.313-.649-.646a7.581,7.581,0,0,0-.8-.641,8.385,8.385,0,0,0-.936-.572c-.037-.02-.077-.035-.115-.054l.715-2.369-2.133-.644-.732,2.421c-.11-.006-.219-.01-.329-.009a3.828,3.828,0,0,0-1.428.284,3.292,3.292,0,0,0-1.162.815,3.426,3.426,0,0,0-.75,1.365,3,3,0,0,0-.142,1.083,2.256,2.256,0,0,0,.28.937,3.444,3.444,0,0,0,.7.862,9.094,9.094,0,0,0,1.108.857q.5.328.921.6a6.064,6.064,0,0,1,.716.53,1.9,1.9,0,0,1,.426.506.691.691,0,0,1,.045.544q-.236.781-1.518.394a4.666,4.666,0,0,1-1.144-.522,8.589,8.589,0,0,1-.958-.691,5.954,5.954,0,0,1-.678-.655,2.087,2.087,0,0,1-.3-.4l-1.7,1.787a6.491,6.491,0,0,0,.83.845,9.718,9.718,0,0,0,.99.741,8.869,8.869,0,0,0,.95.537l-.628,2.078,2.133.644.607-2.011a6.43,6.43,0,0,0,.7.081,3.866,3.866,0,0,0,1.417-.167,2.922,2.922,0,0,0,1.175-.722,3.244,3.244,0,0,0,.783-1.4A3.182,3.182,0,0,0,1191.643,307.543Z" transform="translate(-1167.667 -285.601)" fill="#ffd442"/></g></g></g></svg>