<svg xmlns="http://www.w3.org/2000/svg" width="611" height="519.973" viewBox="0 0 611 519.973"><g transform="translate(-522.139 -3207.323)"><g transform="translate(553.749 3260.423)"><path d="M74.778,53l-2.473,1.8Q66.7,48.241,60.545,42.062A220.569,220.569,0,0,0,2.219.158a1.537,1.537,0,0,0-2.058.7L.155.876a1.521,1.521,0,0,0,.7,2.034A218.591,218.591,0,0,1,69.822,56.6l-2.6,1.892a.486.486,0,0,0,.151.86l7.307,2.106a.488.488,0,0,0,.62-.453l.249-7.6A.487.487,0,0,0,74.778,53Z" transform="matrix(0.998, 0.07, -0.07, 0.998, 367.58, 12.053)" fill="#afafaf"/><path d="M74.778,53l-2.473,1.8Q66.7,48.241,60.545,42.062A220.565,220.565,0,0,0,2.219.158a1.538,1.538,0,0,0-2.058.7L.155.876a1.521,1.521,0,0,0,.7,2.034A218.593,218.593,0,0,1,69.822,56.6l-2.6,1.892a.486.486,0,0,0,.151.86l7.307,2.106a.488.488,0,0,0,.621-.453l.249-7.6A.486.486,0,0,0,74.778,53Z" transform="translate(478.519 208.203) rotate(65)" fill="#afafaf"/><path d="M74.778,53l-2.473,1.8Q66.7,48.241,60.545,42.062A220.565,220.565,0,0,0,2.219.158a1.538,1.538,0,0,0-2.058.7L.155.876a1.521,1.521,0,0,0,.7,2.034A218.593,218.593,0,0,1,69.822,56.6l-2.6,1.892a.486.486,0,0,0,.151.86l7.307,2.106a.488.488,0,0,0,.621-.453l.249-7.6A.486.486,0,0,0,74.778,53Z" transform="translate(59.535 302.865) rotate(-142)" fill="#afafaf"/><path d="M74.778,53l-2.473,1.8Q66.7,48.241,60.545,42.062A220.565,220.565,0,0,0,2.219.158a1.538,1.538,0,0,0-2.058.7L.155.876a1.521,1.521,0,0,0,.7,2.034A218.593,218.593,0,0,1,69.822,56.6l-2.6,1.892a.486.486,0,0,0,.151.86l7.307,2.106a.488.488,0,0,0,.621-.453l.249-7.6A.486.486,0,0,0,74.778,53Z" transform="translate(305.051 419.327) rotate(141)" fill="#afafaf"/><path d="M74.778,53l-2.473,1.8Q66.7,48.241,60.545,42.062A220.56,220.56,0,0,0,2.219.158a1.537,1.537,0,0,0-2.058.7L.155.876a1.521,1.521,0,0,0,.7,2.034A218.6,218.6,0,0,1,69.822,56.6l-2.6,1.892a.486.486,0,0,0,.151.86l7.307,2.106a.488.488,0,0,0,.621-.453l.249-7.6A.486.486,0,0,0,74.778,53Z" transform="matrix(0.174, -0.985, 0.985, 0.174, 76.977, 74.403)" fill="#afafaf"/></g><g transform="translate(803.812 3553.052)"><line y1="102.953" transform="translate(5.678 7.742)" fill="none" stroke="#db6e5f" stroke-linecap="round" stroke-width="2"/><path d="M4.824,1.4a1,1,0,0,1,1.707,0l3.895,6.373a1,1,0,0,1-.853,1.521H1.783A1,1,0,0,1,.93,7.769Z" fill="#db6e5f"/></g><g transform="translate(803.812 3297.799)"><line y1="53.679" transform="translate(5.678 7.742)" fill="none" stroke="#db6e5f" stroke-linecap="round" stroke-width="2"/><path d="M4.824,1.4a1,1,0,0,1,1.707,0l3.895,6.373a1,1,0,0,1-.853,1.521H1.783A1,1,0,0,1,.93,7.769Z" fill="#db6e5f"/></g><g transform="translate(700.998 3371.941)"><g transform="translate(0 51.516)"><rect width="215.95" height="116.875" rx="8.518" transform="translate(0 0)" fill="#0d66bf"/></g><path d="M23.176,25V7.938h5.977a7.848,7.848,0,0,1,4.711,1.189,4.067,4.067,0,0,1,1.605,3.486,3.855,3.855,0,0,1-.645,2.209,3.723,3.723,0,0,1-1.793,1.4A3.6,3.6,0,0,1,35.1,17.547a3.915,3.915,0,0,1,.756,2.438,4.5,4.5,0,0,1-1.57,3.727A7.069,7.069,0,0,1,29.809,25Zm3.516-7.43v4.605H29.7a2.906,2.906,0,0,0,1.939-.592,2.029,2.029,0,0,0,.7-1.635,2.143,2.143,0,0,0-2.426-2.379Zm0-2.484h2.6q2.66-.047,2.66-2.121a1.96,1.96,0,0,0-.674-1.67,3.544,3.544,0,0,0-2.127-.51H26.692ZM45.617,25a3.761,3.761,0,0,1-.34-1.137,4.1,4.1,0,0,1-3.2,1.371,4.5,4.5,0,0,1-3.088-1.078,3.467,3.467,0,0,1-1.225-2.719,3.583,3.583,0,0,1,1.494-3.094,7.373,7.373,0,0,1,4.318-1.09h1.559v-.727a2.089,2.089,0,0,0-.451-1.406,1.775,1.775,0,0,0-1.424-.527A2.018,2.018,0,0,0,41.92,15a1.393,1.393,0,0,0-.486,1.125H38.047a3.4,3.4,0,0,1,.68-2.039,4.493,4.493,0,0,1,1.922-1.471,7,7,0,0,1,2.789-.533,5.534,5.534,0,0,1,3.721,1.178,4.12,4.12,0,0,1,1.377,3.311v5.5a6.062,6.062,0,0,0,.5,2.73V25Zm-2.8-2.355a2.917,2.917,0,0,0,1.383-.334,2.194,2.194,0,0,0,.938-.9v-2.18H43.871q-2.543,0-2.707,1.758l-.012.2a1.356,1.356,0,0,0,.445,1.043A1.73,1.73,0,0,0,42.817,22.645ZM54.254,12.32l.105,1.465A4.427,4.427,0,0,1,58,12.086a3.679,3.679,0,0,1,3,1.184,5.522,5.522,0,0,1,1.008,3.539V25H58.625V16.891a2.2,2.2,0,0,0-.469-1.564A2.1,2.1,0,0,0,56.6,14.84a2.33,2.33,0,0,0-2.145,1.219V25H51.067V12.32ZM69.852,22.5a2.221,2.221,0,0,0,1.523-.516,1.807,1.807,0,0,0,.609-1.371H75.16a4.344,4.344,0,0,1-.7,2.361,4.64,4.64,0,0,1-1.893,1.664,5.923,5.923,0,0,1-2.654.592,5.5,5.5,0,0,1-4.289-1.729,6.84,6.84,0,0,1-1.57-4.775v-.223a6.762,6.762,0,0,1,1.559-4.676,5.441,5.441,0,0,1,4.277-1.746A5.333,5.333,0,0,1,73.7,13.439a4.792,4.792,0,0,1,1.459,3.6H71.985a2.308,2.308,0,0,0-.609-1.6,2.27,2.27,0,0,0-3.334.246,4.986,4.986,0,0,0-.6,2.795v.352a5.049,5.049,0,0,0,.6,2.813A2.066,2.066,0,0,0,69.852,22.5Zm6.715-3.961a7.52,7.52,0,0,1,.727-3.363,5.319,5.319,0,0,1,2.092-2.285,6.1,6.1,0,0,1,3.17-.809,5.774,5.774,0,0,1,4.189,1.57,6.3,6.3,0,0,1,1.811,4.266l.023.867a6.627,6.627,0,0,1-1.629,4.682,6.313,6.313,0,0,1-8.748.006A6.744,6.744,0,0,1,76.567,18.7Zm3.387.246a4.727,4.727,0,0,0,.68,2.76,2.444,2.444,0,0,0,3.867.012,5.172,5.172,0,0,0,.691-3.018A4.68,4.68,0,0,0,84.5,15.8a2.249,2.249,0,0,0-1.945-.973,2.212,2.212,0,0,0-1.922.967A5.259,5.259,0,0,0,79.953,18.789Zm16.16-.223a7.641,7.641,0,0,1,1.33-4.723,4.316,4.316,0,0,1,3.639-1.758,3.884,3.884,0,0,1,3.059,1.383V7h3.4V25h-3.059l-.164-1.348a3.985,3.985,0,0,1-3.258,1.582,4.3,4.3,0,0,1-3.592-1.764A7.887,7.887,0,0,1,96.114,18.566Zm3.387.246a4.992,4.992,0,0,0,.621,2.73,2.024,2.024,0,0,0,1.8.949,2.267,2.267,0,0,0,2.215-1.324v-5a2.234,2.234,0,0,0-2.191-1.324Q99.5,14.84,99.5,18.813ZM116,25.234a6.225,6.225,0,0,1-4.541-1.711,6.082,6.082,0,0,1-1.752-4.559v-.328a7.66,7.66,0,0,1,.738-3.416,5.418,5.418,0,0,1,2.092-2.32,5.871,5.871,0,0,1,3.088-.814,5.262,5.262,0,0,1,4.1,1.641,6.667,6.667,0,0,1,1.494,4.652v1.383h-8.074a3.146,3.146,0,0,0,.99,1.992,2.993,2.993,0,0,0,2.092.75,3.656,3.656,0,0,0,3.059-1.418l1.664,1.863a5.084,5.084,0,0,1-2.062,1.682A6.767,6.767,0,0,1,116,25.234Zm-.387-10.406a2.121,2.121,0,0,0-1.635.68,3.511,3.511,0,0,0-.8,1.945h4.711v-.27a2.5,2.5,0,0,0-.609-1.74A2.189,2.189,0,0,0,115.614,14.828Zm-85.2,25.949a7.6,7.6,0,0,1-1.33,4.693A4.264,4.264,0,0,1,25.5,47.234,3.95,3.95,0,0,1,22.391,45.9v5.977H19V34.32h3.141l.117,1.242a3.98,3.98,0,0,1,3.211-1.477,4.294,4.294,0,0,1,3.645,1.734,7.811,7.811,0,0,1,1.3,4.781Zm-3.387-.246A4.99,4.99,0,0,0,26.4,37.8a2.042,2.042,0,0,0-1.822-.961,2.218,2.218,0,0,0-2.191,1.219V43.25A2.255,2.255,0,0,0,24.606,44.5Q27.032,44.5,27.032,40.531ZM39.641,37.5a9.2,9.2,0,0,0-1.219-.094,2.481,2.481,0,0,0-2.52,1.3V47H32.516V34.32h3.2l.094,1.512a3.138,3.138,0,0,1,2.824-1.746,3.549,3.549,0,0,1,1.055.152Zm.68,3.047a7.52,7.52,0,0,1,.727-3.363,5.319,5.319,0,0,1,2.092-2.285,6.1,6.1,0,0,1,3.17-.809,5.774,5.774,0,0,1,4.189,1.57,6.3,6.3,0,0,1,1.811,4.266l.023.867A6.627,6.627,0,0,1,50.7,45.471a5.662,5.662,0,0,1-4.371,1.764,5.69,5.69,0,0,1-4.377-1.758A6.744,6.744,0,0,1,40.321,40.7Zm3.387.246a4.727,4.727,0,0,0,.68,2.76,2.444,2.444,0,0,0,3.867.012,5.172,5.172,0,0,0,.691-3.018,4.68,4.68,0,0,0-.691-2.742,2.249,2.249,0,0,0-1.945-.973,2.212,2.212,0,0,0-1.922.967A5.259,5.259,0,0,0,43.707,40.789ZM61.285,43.5a1.091,1.091,0,0,0-.615-.979,6.989,6.989,0,0,0-1.975-.639q-4.523-.949-4.523-3.844a3.484,3.484,0,0,1,1.4-2.818,5.649,5.649,0,0,1,3.662-1.131A6.08,6.08,0,0,1,63.1,35.223a3.582,3.582,0,0,1,1.447,2.953H61.157a1.639,1.639,0,0,0-.469-1.2,1.984,1.984,0,0,0-1.465-.475,2.027,2.027,0,0,0-1.324.387,1.221,1.221,0,0,0-.469.984,1.044,1.044,0,0,0,.533.908,5.485,5.485,0,0,0,1.8.6,14.692,14.692,0,0,1,2.133.568q2.684.984,2.684,3.41a3.307,3.307,0,0,1-1.488,2.807,6.42,6.42,0,0,1-3.844,1.072,6.706,6.706,0,0,1-2.83-.568,4.748,4.748,0,0,1-1.939-1.559,3.621,3.621,0,0,1-.7-2.139h3.211a1.768,1.768,0,0,0,.668,1.383,2.649,2.649,0,0,0,1.664.48,2.452,2.452,0,0,0,1.471-.369A1.149,1.149,0,0,0,61.285,43.5Zm16.887-2.719a7.6,7.6,0,0,1-1.33,4.693,4.264,4.264,0,0,1-3.592,1.764A3.95,3.95,0,0,1,70.145,45.9v5.977H66.758V34.32H69.9l.117,1.242a3.98,3.98,0,0,1,3.211-1.477,4.294,4.294,0,0,1,3.645,1.734,7.811,7.811,0,0,1,1.3,4.781Zm-3.387-.246a4.99,4.99,0,0,0-.627-2.73,2.042,2.042,0,0,0-1.822-.961,2.218,2.218,0,0,0-2.191,1.219V43.25A2.255,2.255,0,0,0,72.36,44.5Q74.785,44.5,74.785,40.531Zm11.32,6.7a6.225,6.225,0,0,1-4.541-1.711,6.082,6.082,0,0,1-1.752-4.559v-.328a7.66,7.66,0,0,1,.738-3.416,5.418,5.418,0,0,1,2.092-2.32,5.871,5.871,0,0,1,3.088-.814,5.262,5.262,0,0,1,4.1,1.641,6.667,6.667,0,0,1,1.494,4.652v1.383H83.246a3.146,3.146,0,0,0,.99,1.992,2.993,2.993,0,0,0,2.092.75,3.656,3.656,0,0,0,3.059-1.418l1.664,1.863a5.084,5.084,0,0,1-2.062,1.682A6.767,6.767,0,0,1,86.106,47.234Zm-.387-10.406a2.121,2.121,0,0,0-1.635.68,3.511,3.511,0,0,0-.8,1.945h4.711v-.27a2.5,2.5,0,0,0-.609-1.74A2.189,2.189,0,0,0,85.719,36.828Zm12.8,7.676a2.221,2.221,0,0,0,1.523-.516,1.807,1.807,0,0,0,.609-1.371h3.176a4.344,4.344,0,0,1-.7,2.361,4.64,4.64,0,0,1-1.893,1.664,5.923,5.923,0,0,1-2.654.592,5.5,5.5,0,0,1-4.289-1.729,6.84,6.84,0,0,1-1.57-4.775v-.223a6.762,6.762,0,0,1,1.559-4.676,5.441,5.441,0,0,1,4.277-1.746,5.333,5.333,0,0,1,3.814,1.354,4.792,4.792,0,0,1,1.459,3.6h-3.176a2.308,2.308,0,0,0-.609-1.6,2.27,2.27,0,0,0-3.334.246,4.986,4.986,0,0,0-.6,2.795v.352a5.049,5.049,0,0,0,.6,2.813A2.066,2.066,0,0,0,98.516,44.5Zm11.3-13.3V34.32h2.168V36.8h-2.168v6.328a1.511,1.511,0,0,0,.27,1.008,1.354,1.354,0,0,0,1.031.3,5.4,5.4,0,0,0,1-.082V46.93a6.972,6.972,0,0,1-2.051.3q-3.562,0-3.633-3.6V36.8h-1.852V34.32h1.852V31.2Zm3.176,9.34a7.52,7.52,0,0,1,.727-3.363,5.319,5.319,0,0,1,2.092-2.285,6.1,6.1,0,0,1,3.17-.809,5.774,5.774,0,0,1,4.189,1.57,6.3,6.3,0,0,1,1.811,4.266l.023.867a6.627,6.627,0,0,1-1.629,4.682,6.313,6.313,0,0,1-8.748.006,6.744,6.744,0,0,1-1.635-4.781Zm3.387.246a4.727,4.727,0,0,0,.68,2.76,2.444,2.444,0,0,0,3.867.012,5.172,5.172,0,0,0,.691-3.018,4.68,4.68,0,0,0-.691-2.742,2.249,2.249,0,0,0-1.945-.973,2.212,2.212,0,0,0-1.922.967A5.259,5.259,0,0,0,116.375,40.789Z" transform="translate(36.231 106.326)" fill="#fff"/><g transform="translate(54.812)"><rect width="106.326" height="106.326" fill="none"/><g transform="translate(26.323 45.032)"><circle cx="26.84" cy="26.84" r="26.84" fill="#53bced"/><circle cx="21.162" cy="21.162" r="21.162" transform="translate(5.161 5.161)" fill="#ef314c"/><circle cx="7.742" cy="7.742" r="7.742" transform="translate(18.581 19.614)" fill="#fff"/></g><g transform="translate(9.325 6.194)"><g transform="translate(0 0)"><path d="M65.967,33.611V52.431H48.745a26.336,26.336,0,0,0-3.131-12.525,27.12,27.12,0,0,0-7.233-8.548,4.608,4.608,0,0,1,2.255-2.067L45.9,27.036a4.685,4.685,0,0,0,1.675-1.221,4.622,4.622,0,0,0,1.1-2.255h6.419a4.716,4.716,0,0,0,2.771,3.476l5.261,2.255A4.708,4.708,0,0,1,65.967,33.611Z" transform="translate(21.709 13.327)" fill="#283593"/><path d="M60.055,35.051V51.616H48.125a26.336,26.336,0,0,0-3.131-12.525,27.12,27.12,0,0,0-7.233-8.548,4.608,4.608,0,0,1,2.255-2.067l5.261-2.255A4.685,4.685,0,0,0,46.95,25h2.223a4.716,4.716,0,0,0,2.771,3.476l5.261,2.255A4.708,4.708,0,0,1,60.055,35.051Z" transform="translate(21.359 14.141)" fill="#3f51b5"/><path d="M56.656,19.828V22.96a7.828,7.828,0,0,1-7.828,7.828,8.354,8.354,0,0,1-2.348-.344A7.849,7.849,0,0,1,41,22.96V19.828a7.849,7.849,0,0,1,5.48-7.484A8.354,8.354,0,0,1,48.828,12a7.8,7.8,0,0,1,7.828,7.828Z" transform="translate(23.191 6.788)" fill="#dfc49c"/><path d="M47.182,22.611V36.076a24.774,24.774,0,0,0-4.7-2.333,26.489,26.489,0,0,0-18.788,0,22.813,22.813,0,0,0-4.259,2.082,2.435,2.435,0,0,0-.438.251V22.611a4.7,4.7,0,0,1,1.675-3.6l.016-.016a5.092,5.092,0,0,1,1.159-.7l1.675-.72,3.585-1.534a4.565,4.565,0,0,0,1.707-1.253,4.825,4.825,0,0,0,1.065-2.223H36.3a4.716,4.716,0,0,0,2.771,3.476l5.261,2.255A4.708,4.708,0,0,1,47.182,22.611Z" transform="translate(10.747 7.105)" fill="#bb193b"/><path d="M42.485,24.031V32.94a26.489,26.489,0,0,0-18.788,0,22.813,22.813,0,0,0-4.259,2.082,2.055,2.055,0,0,0-.438.141V21.808a4.7,4.7,0,0,1,1.675-3.6l.016-.016,1.722-.736a4.263,4.263,0,0,0,1.112-.689l5.292-2.787H31.6a4.716,4.716,0,0,0,2.771,3.476l5.261,2.255A4.708,4.708,0,0,1,42.485,24.031Z" transform="translate(10.747 7.908)" fill="#ef314c"/><path d="M38.656,8.828V11.96a7.828,7.828,0,0,1-7.828,7.828,8.354,8.354,0,0,1-2.348-.344A7.849,7.849,0,0,1,23,11.96V8.828a7.849,7.849,0,0,1,5.48-7.484A8.353,8.353,0,0,1,30.828,1a7.8,7.8,0,0,1,7.828,7.828Z" transform="translate(13.01 0.566)" fill="#dfc49c"/><path d="M27.587,31.357a27.12,27.12,0,0,0-7.233,8.548,26.336,26.336,0,0,0-3.131,12.525H0V33.611A4.708,4.708,0,0,1,2.849,29.29L8.11,27.036a4.716,4.716,0,0,0,2.771-3.476H17.3a4.716,4.716,0,0,0,2.771,3.476l5.261,2.255A4.608,4.608,0,0,1,27.587,31.357Z" transform="translate(0 13.327)" fill="#fec108"/><path d="M22.89,31.357a27.12,27.12,0,0,0-7.233,8.548,26.337,26.337,0,0,0-3.131,12.525H0V33.611A4.708,4.708,0,0,1,2.849,29.29L8.11,27.036a4.716,4.716,0,0,0,2.771-3.476H12.6a4.716,4.716,0,0,0,2.771,3.476l5.261,2.255A4.608,4.608,0,0,1,22.89,31.357Z" transform="translate(0 13.327)" fill="#ffdc00"/><path d="M20.656,19.828V22.96a7.828,7.828,0,0,1-7.828,7.828,8.353,8.353,0,0,1-2.348-.344A7.849,7.849,0,0,1,5,22.96V19.828a7.849,7.849,0,0,1,5.48-7.484A8.353,8.353,0,0,1,12.828,12a7.8,7.8,0,0,1,7.828,7.828Z" transform="translate(2.828 6.788)" fill="#dfc49c"/><path d="M51.96,19.7v3.131a7.849,7.849,0,0,1-5.48,7.484A7.849,7.849,0,0,1,41,22.835V19.7a7.849,7.849,0,0,1,5.48-7.484,8.063,8.063,0,0,1,3.194,1.941A7.863,7.863,0,0,1,51.96,19.7Z" transform="translate(23.191 6.912)" fill="#ffe0b2"/><path d="M33.96,8.7v3.131a7.849,7.849,0,0,1-5.48,7.484A7.849,7.849,0,0,1,23,11.835V8.7A7.849,7.849,0,0,1,28.48,1.22a8.064,8.064,0,0,1,3.194,1.941A7.862,7.862,0,0,1,33.96,8.7Z" transform="translate(13.01 0.69)" fill="#ffe0b2"/><path d="M15.96,19.7v3.131a7.849,7.849,0,0,1-5.48,7.484A7.849,7.849,0,0,1,5,22.835V19.7a7.849,7.849,0,0,1,5.48-7.484,8.062,8.062,0,0,1,3.194,1.941A7.863,7.863,0,0,1,15.96,19.7Z" transform="translate(2.828 6.912)" fill="#ffe0b2"/><path d="M17.222,54.562H1.566A1.566,1.566,0,0,1,0,53V34.177a6.263,6.263,0,0,1,3.8-5.762l5.259-2.253a3.142,3.142,0,0,0,1.849-2.322,1.566,1.566,0,1,1,3.08.568,6.263,6.263,0,0,1-3.693,4.633L5.032,31.3a3.131,3.131,0,0,0-1.9,2.881V51.431H17.222a1.566,1.566,0,1,1,0,3.131Z" transform="translate(0 12.761)"/><path d="M22.387,32.721a1.556,1.556,0,0,1-1.206-.567,3.132,3.132,0,0,0-1.155-.861l-5.254-2.251a6.263,6.263,0,0,1-3.7-4.631,1.566,1.566,0,1,1,3.08-.568,3.141,3.141,0,0,0,1.852,2.322l5.256,2.255a6.274,6.274,0,0,1,2.328,1.738,1.566,1.566,0,0,1-1.2,2.566Z" transform="translate(6.25 12.761)"/><path d="M5.566,49.788A1.566,1.566,0,0,1,4,48.222V32.566a1.566,1.566,0,1,1,3.131,0V48.222A1.566,1.566,0,0,1,5.566,49.788Z" transform="translate(2.263 17.535)"/><path d="M13.394,32.919A9.4,9.4,0,0,1,4,23.525V20.394a9.394,9.394,0,0,1,18.788,0v3.131A9.4,9.4,0,0,1,13.394,32.919Zm0-18.788a6.263,6.263,0,0,0-6.263,6.263v3.131a6.263,6.263,0,0,0,12.525,0V20.394A6.263,6.263,0,0,0,13.394,14.131Z" transform="translate(2.263 6.222)"/><path d="M19.566,38.208A1.566,1.566,0,0,1,18,36.642V23.177a6.263,6.263,0,0,1,3.8-5.762l5.259-2.253a3.142,3.142,0,0,0,1.849-2.322,1.566,1.566,0,0,1,3.08.568,6.263,6.263,0,0,1-3.693,4.633L23.032,20.3a3.131,3.131,0,0,0-1.9,2.881V36.642A1.566,1.566,0,0,1,19.566,38.208Z" transform="translate(10.182 6.539)"/><path d="M41.5,38.207a1.566,1.566,0,0,1-1.566-1.566V23.177a3.131,3.131,0,0,0-1.9-2.881l-5.259-2.255a6.263,6.263,0,0,1-3.7-4.631,1.566,1.566,0,1,1,3.08-.568,3.141,3.141,0,0,0,1.852,2.322l5.256,2.255a6.262,6.262,0,0,1,3.8,5.758V36.641A1.566,1.566,0,0,1,41.5,38.207Z" transform="translate(16.432 6.539)"/><path d="M23.566,30.552A1.566,1.566,0,0,1,22,28.987V21.566a1.566,1.566,0,0,1,3.131,0v7.421A1.566,1.566,0,0,1,23.566,30.552Z" transform="translate(12.444 11.313)"/><path d="M33.566,30.552A1.566,1.566,0,0,1,32,28.987V21.566a1.566,1.566,0,1,1,3.131,0v7.421A1.566,1.566,0,0,1,33.566,30.552Z" transform="translate(18.101 11.313)"/><path d="M31.394,21.919A9.4,9.4,0,0,1,22,12.525V9.394a9.394,9.394,0,1,1,18.788,0v3.131A9.4,9.4,0,0,1,31.394,21.919Zm0-18.788a6.263,6.263,0,0,0-6.263,6.263v3.131a6.263,6.263,0,1,0,12.525,0V9.394A6.263,6.263,0,0,0,31.394,3.131Z" transform="translate(12.444 0)"/><path d="M38.275,32.723a1.566,1.566,0,0,1-1.2-2.566,6.275,6.275,0,0,1,2.323-1.739l5.264-2.256a3.142,3.142,0,0,0,1.849-2.322,1.566,1.566,0,1,1,3.08.568,6.263,6.263,0,0,1-3.693,4.636L40.631,31.3a3.132,3.132,0,0,0-1.151.86A1.556,1.556,0,0,1,38.275,32.723Z" transform="translate(20.764 12.759)"/><path d="M61.222,54.562H45.566a1.566,1.566,0,1,1,0-3.131H59.656V34.177a3.131,3.131,0,0,0-1.9-2.881L52.5,29.042a6.263,6.263,0,0,1-3.7-4.631,1.566,1.566,0,1,1,3.08-.568,3.141,3.141,0,0,0,1.852,2.322l5.256,2.255a6.262,6.262,0,0,1,3.8,5.758V53A1.566,1.566,0,0,1,61.222,54.562Z" transform="translate(24.888 12.761)"/><path d="M51.566,49.788A1.566,1.566,0,0,1,50,48.222V32.566a1.566,1.566,0,1,1,3.131,0V48.222A1.566,1.566,0,0,1,51.566,49.788Z" transform="translate(28.282 17.535)"/><path d="M49.394,32.919A9.4,9.4,0,0,1,40,23.525V20.394a9.394,9.394,0,0,1,18.788,0v3.131A9.4,9.4,0,0,1,49.394,32.919Zm0-18.788a6.263,6.263,0,0,0-6.263,6.263v3.131a6.263,6.263,0,0,0,12.525,0V20.394A6.263,6.263,0,0,0,49.394,14.131Z" transform="translate(22.626 6.222)"/><path d="M38.182,80.363A28.182,28.182,0,1,1,66.363,52.182,28.182,28.182,0,0,1,38.182,80.363Zm0-53.232a25.05,25.05,0,1,0,25.05,25.05A25.05,25.05,0,0,0,38.182,27.131Z" transform="translate(5.656 13.575)"/><path d="M35.919,71.838A21.919,21.919,0,1,1,57.838,49.919,21.919,21.919,0,0,1,35.919,71.838Zm0-40.707A18.788,18.788,0,1,0,54.707,49.919,18.788,18.788,0,0,0,35.919,31.131Z" transform="translate(7.919 15.838)"/><path d="M31.394,54.788a9.394,9.394,0,1,1,9.394-9.394A9.394,9.394,0,0,1,31.394,54.788Zm0-15.656a6.263,6.263,0,1,0,6.263,6.263A6.263,6.263,0,0,0,31.394,39.131Z" transform="translate(12.444 20.363)"/><path d="M28.566,38.091A1.566,1.566,0,0,1,27,36.525V25.566a1.566,1.566,0,0,1,3.131,0v10.96A1.566,1.566,0,0,1,28.566,38.091Z" transform="translate(15.272 13.575)"/><path d="M28.566,65.091A1.566,1.566,0,0,1,27,63.525V52.566a1.566,1.566,0,1,1,3.131,0v10.96A1.566,1.566,0,0,1,28.566,65.091Z" transform="translate(15.272 28.848)"/><path d="M22.525,44.131H11.566a1.566,1.566,0,1,1,0-3.131h10.96a1.566,1.566,0,1,1,0,3.131Z" transform="translate(5.656 23.191)"/><path d="M49.525,44.131H38.566a1.566,1.566,0,0,1,0-3.131h10.96a1.566,1.566,0,0,1,0,3.131Z" transform="translate(20.929 23.191)"/><path d="M28.566,41.263A1.566,1.566,0,0,1,27,39.7V36.566a1.566,1.566,0,0,1,3.131,0V39.7A1.566,1.566,0,0,1,28.566,41.263Z" transform="translate(15.272 19.798)"/><path d="M28.566,51.263A1.566,1.566,0,0,1,27,49.7V46.566a1.566,1.566,0,0,1,3.131,0V49.7A1.566,1.566,0,0,1,28.566,51.263Z" transform="translate(15.272 25.454)"/><path d="M25.7,44.131H22.566a1.566,1.566,0,0,1,0-3.131H25.7a1.566,1.566,0,1,1,0,3.131Z" transform="translate(11.879 23.191)"/><path d="M35.7,44.131H32.566a1.566,1.566,0,1,1,0-3.131H35.7a1.566,1.566,0,1,1,0,3.131Z" transform="translate(17.535 23.191)"/><path d="M28.566,44.129a1.552,1.552,0,0,1-1.112-.454,1.833,1.833,0,0,1-.329-.517A1.31,1.31,0,0,1,27,42.563a1.636,1.636,0,0,1,.454-1.112,1.592,1.592,0,0,1,1.707-.329,1.832,1.832,0,0,1,.517.329,1.644,1.644,0,0,1,.454,1.112,1.567,1.567,0,0,1-.125.595,1.833,1.833,0,0,1-.329.517A1.556,1.556,0,0,1,28.566,44.129Z" transform="translate(15.272 23.194)"/></g></g></g></g><g transform="translate(911.859 3359.788)"><g transform="translate(0)"><rect width="195.906" height="69.529" rx="5" transform="translate(24.374 0)" fill="#d5f2ff" stroke="#53bced" stroke-width="2"/><path d="M10.9,14.939a4.708,4.708,0,0,1-1.5,3.133,4.911,4.911,0,0,1-3.353,1.1A4.509,4.509,0,0,1,2.413,17.55,6.542,6.542,0,0,1,1.046,13.2v-1.23a7.291,7.291,0,0,1,.637-3.138A4.76,4.76,0,0,1,3.489,6.752,5.029,5.029,0,0,1,6.2,6.027a4.624,4.624,0,0,1,3.27,1.138A4.765,4.765,0,0,1,10.9,10.316H9.2A3.66,3.66,0,0,0,8.249,8.1,2.891,2.891,0,0,0,6.2,7.416a3.02,3.02,0,0,0-2.536,1.2,5.484,5.484,0,0,0-.918,3.4v1.239a5.637,5.637,0,0,0,.87,3.313A2.812,2.812,0,0,0,6.047,17.8,3.247,3.247,0,0,0,8.2,17.159a3.536,3.536,0,0,0,1-2.219Zm1.617-.782a5.617,5.617,0,0,1,.549-2.514,4.1,4.1,0,0,1,1.529-1.723,4.163,4.163,0,0,1,2.237-.606,4.01,4.01,0,0,1,3.142,1.345,5.174,5.174,0,0,1,1.2,3.577v.114a5.666,5.666,0,0,1-.532,2.492,4.038,4.038,0,0,1-1.521,1.718,4.211,4.211,0,0,1-2.272.615,4,4,0,0,1-3.133-1.345,5.147,5.147,0,0,1-1.2-3.56Zm1.635.193a4.068,4.068,0,0,0,.734,2.54,2.487,2.487,0,0,0,3.933-.013,4.449,4.449,0,0,0,.729-2.72,4.061,4.061,0,0,0-.743-2.536,2.361,2.361,0,0,0-1.973-.971,2.335,2.335,0,0,0-1.942.958A4.416,4.416,0,0,0,14.15,14.351Zm10.6-4.86.053,1.2A3.465,3.465,0,0,1,27.65,9.314q3.015,0,3.041,3.4V19H29.065V12.707a2.189,2.189,0,0,0-.47-1.521,1.884,1.884,0,0,0-1.437-.492,2.347,2.347,0,0,0-1.389.422,2.865,2.865,0,0,0-.932,1.107V19H23.212V9.49Zm10.6-2.3v2.3h1.775v1.257H35.35v5.9a1.317,1.317,0,0,0,.237.857,1,1,0,0,0,.809.286,3.937,3.937,0,0,0,.773-.105V19a4.714,4.714,0,0,1-1.248.176,2.025,2.025,0,0,1-1.644-.659,2.832,2.832,0,0,1-.554-1.872v-5.9H31.992V9.49h1.731v-2.3ZM44.895,19a3.416,3.416,0,0,1-.229-1,3.628,3.628,0,0,1-2.707,1.178,3.357,3.357,0,0,1-2.307-.8,2.573,2.573,0,0,1-.9-2.017,2.688,2.688,0,0,1,1.129-2.307,5.325,5.325,0,0,1,3.177-.822H44.64v-.747a1.826,1.826,0,0,0-.51-1.358,2.049,2.049,0,0,0-1.5-.505,2.371,2.371,0,0,0-1.459.439,1.3,1.3,0,0,0-.589,1.063H38.944a2.244,2.244,0,0,1,.505-1.375A3.449,3.449,0,0,1,40.821,9.7a4.613,4.613,0,0,1,1.9-.387,3.759,3.759,0,0,1,2.575.822,2.964,2.964,0,0,1,.967,2.263v4.377a5.351,5.351,0,0,0,.334,2.083V19Zm-2.7-1.239a2.858,2.858,0,0,0,1.45-.4,2.392,2.392,0,0,0,.993-1.028V14.386H43.365q-2.988,0-2.988,1.749a1.48,1.48,0,0,0,.51,1.2A1.959,1.959,0,0,0,42.2,17.761Zm10.433.088a2.342,2.342,0,0,0,1.521-.527A1.855,1.855,0,0,0,54.87,16h1.538a2.949,2.949,0,0,1-.562,1.556,3.7,3.7,0,0,1-1.384,1.178,3.994,3.994,0,0,1-1.833.439,3.918,3.918,0,0,1-3.089-1.3,5.163,5.163,0,0,1-1.147-3.546v-.272a5.725,5.725,0,0,1,.51-2.47,3.883,3.883,0,0,1,1.463-1.679,4.157,4.157,0,0,1,2.254-.6,3.814,3.814,0,0,1,2.659.958,3.424,3.424,0,0,1,1.129,2.487H54.87a2.241,2.241,0,0,0-.7-1.516,2.174,2.174,0,0,0-1.551-.593,2.276,2.276,0,0,0-1.92.892,4.19,4.19,0,0,0-.681,2.58v.308a4.106,4.106,0,0,0,.677,2.531A2.287,2.287,0,0,0,52.629,17.849ZM60.442,7.188v2.3h1.775v1.257H60.442v5.9a1.317,1.317,0,0,0,.237.857,1,1,0,0,0,.809.286,3.937,3.937,0,0,0,.773-.105V19a4.714,4.714,0,0,1-1.248.176,2.025,2.025,0,0,1-1.644-.659,2.832,2.832,0,0,1-.554-1.872v-5.9H57.085V9.49h1.731v-2.3Zm3.067,6.97a5.617,5.617,0,0,1,.549-2.514,4.1,4.1,0,0,1,1.529-1.723,4.163,4.163,0,0,1,2.237-.606,4.01,4.01,0,0,1,3.142,1.345,5.174,5.174,0,0,1,1.2,3.577v.114a5.666,5.666,0,0,1-.532,2.492,4.038,4.038,0,0,1-1.521,1.718,4.211,4.211,0,0,1-2.272.615,4,4,0,0,1-3.133-1.345,5.147,5.147,0,0,1-1.2-3.56Zm1.635.193a4.068,4.068,0,0,0,.734,2.54,2.487,2.487,0,0,0,3.933-.013,4.449,4.449,0,0,0,.729-2.72,4.061,4.061,0,0,0-.743-2.536,2.361,2.361,0,0,0-1.973-.971,2.335,2.335,0,0,0-1.942.958A4.416,4.416,0,0,0,65.145,14.351ZM84.533,19a3.416,3.416,0,0,1-.229-1A3.628,3.628,0,0,1,81.6,19.176a3.357,3.357,0,0,1-2.307-.8,2.573,2.573,0,0,1-.9-2.017,2.688,2.688,0,0,1,1.129-2.307,5.325,5.325,0,0,1,3.177-.822h1.582v-.747a1.826,1.826,0,0,0-.51-1.358,2.049,2.049,0,0,0-1.5-.505,2.371,2.371,0,0,0-1.459.439,1.3,1.3,0,0,0-.589,1.063H78.583a2.244,2.244,0,0,1,.505-1.375A3.449,3.449,0,0,1,80.459,9.7a4.613,4.613,0,0,1,1.9-.387,3.759,3.759,0,0,1,2.575.822A2.964,2.964,0,0,1,85.9,12.4v4.377a5.351,5.351,0,0,0,.334,2.083V19Zm-2.7-1.239a2.858,2.858,0,0,0,1.45-.4,2.392,2.392,0,0,0,.993-1.028V14.386H83q-2.988,0-2.988,1.749a1.48,1.48,0,0,0,.51,1.2A1.959,1.959,0,0,0,81.835,17.761ZM89.991,9.49l.053,1.2a3.465,3.465,0,0,1,2.848-1.371q3.015,0,3.041,3.4V19H94.307V12.707a2.189,2.189,0,0,0-.47-1.521,1.884,1.884,0,0,0-1.437-.492,2.347,2.347,0,0,0-1.389.422,2.865,2.865,0,0,0-.932,1.107V19H88.453V9.49Zm10.6-2.3v2.3h1.775v1.257h-1.775v5.9a1.317,1.317,0,0,0,.237.857,1,1,0,0,0,.809.286,3.937,3.937,0,0,0,.773-.105V19a4.714,4.714,0,0,1-1.248.176,2.025,2.025,0,0,1-1.644-.659,2.832,2.832,0,0,1-.554-1.872v-5.9H97.233V9.49h1.731v-2.3Zm7.62,11.988a4.155,4.155,0,0,1-3.146-1.27,4.714,4.714,0,0,1-1.213-3.4v-.3a5.707,5.707,0,0,1,.541-2.527,4.217,4.217,0,0,1,1.512-1.74,3.8,3.8,0,0,1,2.1-.628,3.562,3.562,0,0,1,2.883,1.222,5.289,5.289,0,0,1,1.028,3.5v.677h-6.442a3.38,3.38,0,0,0,.822,2.272,2.583,2.583,0,0,0,2,.866,2.832,2.832,0,0,0,1.459-.352,3.666,3.666,0,0,0,1.046-.932l.993.773A3.993,3.993,0,0,1,108.211,19.176Zm-.2-8.525a2.169,2.169,0,0,0-1.652.716,3.482,3.482,0,0,0-.826,2.008h4.764v-.123a3.1,3.1,0,0,0-.668-1.92A2.042,2.042,0,0,0,108.009,10.65Zm11.329,5.827a1.2,1.2,0,0,0-.5-1.024,4.78,4.78,0,0,0-1.731-.628,8.186,8.186,0,0,1-1.96-.633,2.788,2.788,0,0,1-1.072-.879,2.1,2.1,0,0,1-.347-1.213,2.467,2.467,0,0,1,.989-1.978,3.861,3.861,0,0,1,2.527-.809,3.974,3.974,0,0,1,2.624.835,2.652,2.652,0,0,1,1.006,2.136h-1.635a1.468,1.468,0,0,0-.567-1.151,2.124,2.124,0,0,0-1.428-.483,2.223,2.223,0,0,0-1.389.387,1.217,1.217,0,0,0-.5,1.011.986.986,0,0,0,.466.888,5.731,5.731,0,0,0,1.683.571,8.77,8.77,0,0,1,1.973.65,2.878,2.878,0,0,1,1.121.91,2.237,2.237,0,0,1,.365,1.3,2.434,2.434,0,0,1-1.02,2.043,4.277,4.277,0,0,1-2.646.769,4.789,4.789,0,0,1-2.021-.4,3.288,3.288,0,0,1-1.375-1.129,2.722,2.722,0,0,1-.5-1.569h1.626a1.683,1.683,0,0,0,.655,1.3,2.54,2.54,0,0,0,1.613.479,2.622,2.622,0,0,0,1.481-.374A1.148,1.148,0,0,0,119.338,16.478ZM.835,32.166a5.571,5.571,0,0,1,1.037-3.52,3.28,3.28,0,0,1,2.716-1.332,3.3,3.3,0,0,1,2.646,1.143V23.5H8.859V37H7.365l-.079-1.02a3.311,3.311,0,0,1-2.716,1.2,3.248,3.248,0,0,1-2.694-1.354A5.634,5.634,0,0,1,.835,32.289Zm1.626.185a4.218,4.218,0,0,0,.668,2.531,2.159,2.159,0,0,0,1.846.914,2.372,2.372,0,0,0,2.259-1.389V30.039a2.39,2.39,0,0,0-2.241-1.345,2.17,2.17,0,0,0-1.863.923A4.644,4.644,0,0,0,2.461,32.351Zm12.867,4.825a4.155,4.155,0,0,1-3.146-1.27,4.714,4.714,0,0,1-1.213-3.4v-.3a5.707,5.707,0,0,1,.541-2.527,4.217,4.217,0,0,1,1.512-1.74,3.8,3.8,0,0,1,2.1-.628,3.562,3.562,0,0,1,2.883,1.222,5.289,5.289,0,0,1,1.028,3.5v.677H12.595a3.38,3.38,0,0,0,.822,2.272,2.583,2.583,0,0,0,2,.866,2.832,2.832,0,0,0,1.459-.352,3.666,3.666,0,0,0,1.046-.932l.993.773A3.993,3.993,0,0,1,15.328,37.176Zm-.2-8.525a2.169,2.169,0,0,0-1.652.716,3.482,3.482,0,0,0-.826,2.008h4.764v-.123a3.1,3.1,0,0,0-.668-1.92A2.042,2.042,0,0,0,15.126,28.65ZM27.141,37H25.515V23.5h1.626Zm8.473,0a3.416,3.416,0,0,1-.229-1,3.628,3.628,0,0,1-2.707,1.178,3.357,3.357,0,0,1-2.307-.8,2.573,2.573,0,0,1-.9-2.017A2.688,2.688,0,0,1,30.6,32.056a5.325,5.325,0,0,1,3.177-.822h1.582v-.747a1.826,1.826,0,0,0-.51-1.358,2.049,2.049,0,0,0-1.5-.505,2.371,2.371,0,0,0-1.459.439,1.3,1.3,0,0,0-.589,1.063H29.663a2.244,2.244,0,0,1,.505-1.375A3.449,3.449,0,0,1,31.54,27.7a4.613,4.613,0,0,1,1.9-.387,3.759,3.759,0,0,1,2.575.822,2.964,2.964,0,0,1,.967,2.263v4.377a5.351,5.351,0,0,0,.334,2.083V37Zm-2.7-1.239a2.858,2.858,0,0,0,1.45-.4,2.392,2.392,0,0,0,.993-1.028V32.386H34.084q-2.988,0-2.988,1.749a1.48,1.48,0,0,0,.51,1.2A1.959,1.959,0,0,0,32.915,35.761Zm14.889.088a2.342,2.342,0,0,0,1.521-.527A1.855,1.855,0,0,0,50.045,34h1.538a2.949,2.949,0,0,1-.562,1.556,3.7,3.7,0,0,1-1.384,1.178,3.994,3.994,0,0,1-1.833.439,3.918,3.918,0,0,1-3.089-1.3,5.163,5.163,0,0,1-1.147-3.546v-.272a5.725,5.725,0,0,1,.51-2.47,3.883,3.883,0,0,1,1.463-1.679,4.157,4.157,0,0,1,2.254-.6,3.814,3.814,0,0,1,2.659.958,3.424,3.424,0,0,1,1.129,2.487H50.045a2.241,2.241,0,0,0-.7-1.516,2.174,2.174,0,0,0-1.551-.593,2.276,2.276,0,0,0-1.92.892,4.19,4.19,0,0,0-.681,2.58v.308a4.106,4.106,0,0,0,.677,2.531A2.287,2.287,0,0,0,47.8,35.849ZM55.178,37H53.552V27.49h1.626ZM53.42,24.968a.971.971,0,0,1,.242-.668.907.907,0,0,1,.716-.272.922.922,0,0,1,.721.272.96.96,0,0,1,.246.668.929.929,0,0,1-.246.659.938.938,0,0,1-.721.264.924.924,0,0,1-.716-.264A.938.938,0,0,1,53.42,24.968Zm6.565.22v2.3h1.775v1.257H59.985v5.9a1.317,1.317,0,0,0,.237.857,1,1,0,0,0,.809.286,3.937,3.937,0,0,0,.773-.105V37a4.714,4.714,0,0,1-1.248.176,2.025,2.025,0,0,1-1.644-.659,2.832,2.832,0,0,1-.554-1.872v-5.9H56.628V27.49h1.731v-2.3ZM69.53,37a3.416,3.416,0,0,1-.229-1,3.628,3.628,0,0,1-2.707,1.178,3.357,3.357,0,0,1-2.307-.8,2.573,2.573,0,0,1-.9-2.017,2.688,2.688,0,0,1,1.129-2.307,5.325,5.325,0,0,1,3.177-.822h1.582v-.747a1.826,1.826,0,0,0-.51-1.358,2.049,2.049,0,0,0-1.5-.505,2.371,2.371,0,0,0-1.459.439,1.3,1.3,0,0,0-.589,1.063H63.58a2.244,2.244,0,0,1,.505-1.375,3.449,3.449,0,0,1,1.371-1.05,4.613,4.613,0,0,1,1.9-.387,3.759,3.759,0,0,1,2.575.822A2.964,2.964,0,0,1,70.9,30.4v4.377a5.351,5.351,0,0,0,.334,2.083V37Zm-2.7-1.239a2.858,2.858,0,0,0,1.45-.4,2.392,2.392,0,0,0,.993-1.028V32.386H68q-2.988,0-2.988,1.749a1.48,1.48,0,0,0,.51,1.2A1.959,1.959,0,0,0,66.832,35.761Z" transform="translate(68.131 14.118)" fill="#12263f"/><circle cx="24.775" cy="24.775" r="24.775" transform="translate(0 9.989)" fill="#53bced"/></g><path d="M24.681,8.21c-.076-.063-.692-.559-1.526-1.231V4.79a2.4,2.4,0,0,0-2.4-2.4h-3.3C16.33,1.44,14.659,0,12.775,0S9.237,1.429,8.091,2.4H4.79a2.4,2.4,0,0,0-2.4,2.4V6.979C1.556,7.653.941,8.149.874,8.2A2.4,2.4,0,0,0,0,10.054v13.1a2.4,2.4,0,0,0,2.4,2.4H23.154a2.4,2.4,0,0,0,2.4-2.4v-13.1A2.394,2.394,0,0,0,24.681,8.21ZM4.79,4.79H20.759v7.817c-1.809,1.463-3.927,3.177-4.321,3.491-.906.724-2.486,2.265-3.663,2.265S9.987,16.8,9.111,16.1c-.394-.313-2.512-2.028-4.321-3.492ZM23.154,22.855a.3.3,0,0,1-.3.3H2.695a.3.3,0,0,1-.3-.3v-9.1c1.944,1.571,4.788,3.875,5.223,4.221,1.1.879,2.989,2.787,5.157,2.787s4.024-1.882,5.157-2.787c.449-.357,3.285-2.654,5.223-4.22ZM8.783,9.581h7.984a.8.8,0,0,0,.8-.8v-.8a.8.8,0,0,0-.8-.8H8.783a.8.8,0,0,0-.8.8v.8A.8.8,0,0,0,8.783,9.581Zm8.783,3.194v-.8a.8.8,0,0,0-.8-.8H8.783a.8.8,0,0,0-.8.8v.8a.8.8,0,0,0,.8.8h7.984A.8.8,0,0,0,17.565,12.775Z" transform="translate(11.24 20.857)" fill="#fff"/></g><g transform="translate(862.136 3594.865)"><rect width="116.907" height="69.529" rx="5" transform="translate(24.374)" fill="#d5f2ff" stroke="#53bced" stroke-width="2"/><path d="M10.9,14.939a4.708,4.708,0,0,1-1.5,3.133,4.911,4.911,0,0,1-3.353,1.1A4.509,4.509,0,0,1,2.413,17.55,6.542,6.542,0,0,1,1.046,13.2v-1.23a7.291,7.291,0,0,1,.637-3.138A4.76,4.76,0,0,1,3.489,6.752,5.029,5.029,0,0,1,6.2,6.027a4.624,4.624,0,0,1,3.27,1.138A4.765,4.765,0,0,1,10.9,10.316H9.2A3.66,3.66,0,0,0,8.249,8.1,2.891,2.891,0,0,0,6.2,7.416a3.02,3.02,0,0,0-2.536,1.2,5.484,5.484,0,0,0-.918,3.4v1.239a5.637,5.637,0,0,0,.87,3.313A2.812,2.812,0,0,0,6.047,17.8,3.247,3.247,0,0,0,8.2,17.159a3.536,3.536,0,0,0,1-2.219ZM14.713,19H13.087V9.49h1.626ZM12.955,6.968A.971.971,0,0,1,13.2,6.3a.907.907,0,0,1,.716-.272.922.922,0,0,1,.721.272.96.96,0,0,1,.246.668.929.929,0,0,1-.246.659.938.938,0,0,1-.721.264.924.924,0,0,1-.716-.264A.938.938,0,0,1,12.955,6.968Zm6.565.22v2.3H21.3v1.257H19.521v5.9a1.317,1.317,0,0,0,.237.857,1,1,0,0,0,.809.286,3.937,3.937,0,0,0,.773-.105V19a4.714,4.714,0,0,1-1.248.176,2.025,2.025,0,0,1-1.644-.659,2.832,2.832,0,0,1-.554-1.872v-5.9H16.163V9.49h1.731v-2.3ZM29.065,19a3.416,3.416,0,0,1-.229-1,3.628,3.628,0,0,1-2.707,1.178,3.357,3.357,0,0,1-2.307-.8,2.573,2.573,0,0,1-.9-2.017,2.688,2.688,0,0,1,1.129-2.307,5.325,5.325,0,0,1,3.177-.822h1.582v-.747a1.826,1.826,0,0,0-.51-1.358,2.049,2.049,0,0,0-1.5-.505,2.371,2.371,0,0,0-1.459.439,1.3,1.3,0,0,0-.589,1.063H23.115a2.244,2.244,0,0,1,.505-1.375A3.449,3.449,0,0,1,24.992,9.7a4.613,4.613,0,0,1,1.9-.387,3.759,3.759,0,0,1,2.575.822,2.964,2.964,0,0,1,.967,2.263v4.377a5.351,5.351,0,0,0,.334,2.083V19Zm-2.7-1.239a2.858,2.858,0,0,0,1.45-.4,2.392,2.392,0,0,0,.993-1.028V14.386H27.536q-2.988,0-2.988,1.749a1.48,1.48,0,0,0,.51,1.2A1.959,1.959,0,0,0,26.367,17.761Z" transform="translate(71.085 23.409)" fill="#12263f"/><circle cx="24.775" cy="24.775" r="24.775" transform="translate(0 9.989)" fill="#53bced"/><path d="M21.646,42.1a4.329,4.329,0,1,0-4.329-4.329A4.33,4.33,0,0,0,21.646,42.1Zm0-6.494a2.165,2.165,0,1,1-2.165,2.165A2.165,2.165,0,0,1,21.646,35.608ZM12.271,43a5.4,5.4,0,0,0-1.6.239,6.876,6.876,0,0,1-4.032,0A5.553,5.553,0,0,0,5.037,43,4.97,4.97,0,0,0,.875,45.119,5.232,5.232,0,0,0,0,48.018v2.02A2.165,2.165,0,0,0,2.165,52.2H15.152a2.165,2.165,0,0,0,2.165-2.165v-2.02a5.168,5.168,0,0,0-.884-2.9A4.97,4.97,0,0,0,12.271,43Zm2.882,7.035H2.165v-2.02a3.04,3.04,0,0,1,1.989-2.846,2.1,2.1,0,0,1,1.439,0,9.043,9.043,0,0,0,6.138,0,2.1,2.1,0,0,1,1.439,0,3.036,3.036,0,0,1,1.989,2.846v2.02ZM8.659,42.1a5.051,5.051,0,1,0-5.051-5.051A5.048,5.048,0,0,0,8.659,42.1Zm0-7.937a2.886,2.886,0,1,1-2.886,2.886A2.889,2.889,0,0,1,8.659,34.165ZM28.127,44.857a4.145,4.145,0,0,0-3.468-1.763c-1.254,0-1.569.451-3.012.451s-1.759-.451-3.012-.451a4.4,4.4,0,0,0-1.723.365,6.217,6.217,0,0,1,.722.852,6.62,6.62,0,0,1,.541.992,2.211,2.211,0,0,1,.46-.05,22.072,22.072,0,0,0,3.012.451,21.951,21.951,0,0,0,3.012-.451,1.986,1.986,0,0,1,1.673.807,2.15,2.15,0,0,1,.365,1.2V48.6H18.76v1.443a3.8,3.8,0,0,1-.072.722h8.37a1.8,1.8,0,0,0,1.8-1.8V47.274A4.308,4.308,0,0,0,28.127,44.857Z" transform="translate(10.365 -8.369)" fill="#fff"/></g><g transform="translate(711.737 3208.323)"><rect width="170.099" height="69.529" rx="5" transform="translate(24.374)" fill="#d5f2ff" stroke="#53bced" stroke-width="2"/><path d="M16.963,13.99V19H15.275V6.2h4.72a4.742,4.742,0,0,1,3.292,1.072,3.635,3.635,0,0,1,1.191,2.839,3.587,3.587,0,0,1-1.165,2.87,4.954,4.954,0,0,1-3.335,1.006Zm0-1.38h3.032a3.035,3.035,0,0,0,2.074-.637,2.328,2.328,0,0,0,.721-1.841A2.4,2.4,0,0,0,22.069,8.3a2.843,2.843,0,0,0-1.978-.712H16.963Zm14.01-1.661a4.873,4.873,0,0,0-.8-.062A2.143,2.143,0,0,0,28,12.25V19H26.376V9.49h1.582l.026,1.1a2.532,2.532,0,0,1,2.268-1.274,1.661,1.661,0,0,1,.721.123Zm.888,3.208a5.617,5.617,0,0,1,.549-2.514,4.1,4.1,0,0,1,1.529-1.723,4.163,4.163,0,0,1,2.237-.606,4.01,4.01,0,0,1,3.142,1.345,5.174,5.174,0,0,1,1.2,3.577v.114a5.666,5.666,0,0,1-.532,2.492,4.038,4.038,0,0,1-1.521,1.718,4.211,4.211,0,0,1-2.272.615,4,4,0,0,1-3.133-1.345,5.147,5.147,0,0,1-1.2-3.56Zm1.635.193a4.068,4.068,0,0,0,.734,2.54,2.487,2.487,0,0,0,3.933-.013,4.449,4.449,0,0,0,.729-2.72,4.061,4.061,0,0,0-.743-2.536,2.361,2.361,0,0,0-1.973-.971,2.335,2.335,0,0,0-1.942.958A4.416,4.416,0,0,0,33.495,14.351Zm14.6,2.127a1.2,1.2,0,0,0-.5-1.024,4.78,4.78,0,0,0-1.731-.628,8.186,8.186,0,0,1-1.96-.633,2.788,2.788,0,0,1-1.072-.879,2.1,2.1,0,0,1-.347-1.213,2.467,2.467,0,0,1,.989-1.978A3.861,3.861,0,0,1,46,9.314a3.974,3.974,0,0,1,2.624.835,2.652,2.652,0,0,1,1.006,2.136H48a1.468,1.468,0,0,0-.567-1.151A2.124,2.124,0,0,0,46,10.65a2.223,2.223,0,0,0-1.389.387,1.217,1.217,0,0,0-.5,1.011.986.986,0,0,0,.466.888,5.731,5.731,0,0,0,1.683.571,8.77,8.77,0,0,1,1.973.65,2.878,2.878,0,0,1,1.121.91,2.237,2.237,0,0,1,.365,1.3,2.434,2.434,0,0,1-1.02,2.043,4.277,4.277,0,0,1-2.646.769,4.789,4.789,0,0,1-2.021-.4,3.288,3.288,0,0,1-1.375-1.129,2.722,2.722,0,0,1-.5-1.569h1.626a1.683,1.683,0,0,0,.655,1.3,2.54,2.54,0,0,0,1.613.479,2.622,2.622,0,0,0,1.481-.374A1.148,1.148,0,0,0,48.093,16.478Zm11.777-2.127a5.694,5.694,0,0,1-.993,3.5,3.183,3.183,0,0,1-2.689,1.327,3.488,3.488,0,0,1-2.725-1.1v4.579H51.838V9.49h1.485l.079,1.055a3.35,3.35,0,0,1,2.76-1.23,3.243,3.243,0,0,1,2.711,1.292,5.756,5.756,0,0,1,1,3.595Zm-1.626-.185a4.2,4.2,0,0,0-.686-2.54,2.208,2.208,0,0,0-1.881-.932A2.39,2.39,0,0,0,53.464,12v4.544a2.4,2.4,0,0,0,2.232,1.3,2.2,2.2,0,0,0,1.859-.927A4.587,4.587,0,0,0,58.245,14.166Zm7.638,5.01a4.155,4.155,0,0,1-3.146-1.27,4.714,4.714,0,0,1-1.213-3.4v-.3a5.707,5.707,0,0,1,.541-2.527,4.217,4.217,0,0,1,1.512-1.74,3.8,3.8,0,0,1,2.1-.628,3.562,3.562,0,0,1,2.883,1.222,5.289,5.289,0,0,1,1.028,3.5v.677H63.149a3.38,3.38,0,0,0,.822,2.272,2.583,2.583,0,0,0,2,.866,2.832,2.832,0,0,0,1.459-.352,3.666,3.666,0,0,0,1.046-.932l.993.773A3.993,3.993,0,0,1,65.882,19.176Zm-.2-8.525a2.169,2.169,0,0,0-1.652.716,3.482,3.482,0,0,0-.826,2.008h4.764v-.123a3.1,3.1,0,0,0-.668-1.92A2.042,2.042,0,0,0,65.68,10.65Zm9.606,7.2a2.342,2.342,0,0,0,1.521-.527A1.855,1.855,0,0,0,77.528,16h1.538a2.949,2.949,0,0,1-.562,1.556,3.7,3.7,0,0,1-1.384,1.178,3.994,3.994,0,0,1-1.833.439,3.918,3.918,0,0,1-3.089-1.3,5.163,5.163,0,0,1-1.147-3.546v-.272a5.725,5.725,0,0,1,.51-2.47,3.883,3.883,0,0,1,1.463-1.679,4.157,4.157,0,0,1,2.254-.6,3.814,3.814,0,0,1,2.659.958,3.424,3.424,0,0,1,1.129,2.487H77.528a2.241,2.241,0,0,0-.7-1.516,2.174,2.174,0,0,0-1.551-.593,2.276,2.276,0,0,0-1.92.892,4.19,4.19,0,0,0-.681,2.58v.308a4.106,4.106,0,0,0,.677,2.531A2.287,2.287,0,0,0,75.287,17.849ZM83.1,7.188v2.3h1.775v1.257H83.1v5.9a1.317,1.317,0,0,0,.237.857,1,1,0,0,0,.809.286,3.937,3.937,0,0,0,.773-.105V19a4.714,4.714,0,0,1-1.248.176,2.025,2.025,0,0,1-1.644-.659,2.832,2.832,0,0,1-.554-1.872v-5.9H79.743V9.49h1.731v-2.3Zm3.067,6.97a5.617,5.617,0,0,1,.549-2.514,4.1,4.1,0,0,1,1.529-1.723,4.163,4.163,0,0,1,2.237-.606,4.01,4.01,0,0,1,3.142,1.345,5.174,5.174,0,0,1,1.2,3.577v.114a5.666,5.666,0,0,1-.532,2.492,4.038,4.038,0,0,1-1.521,1.718,4.211,4.211,0,0,1-2.272.615,4,4,0,0,1-3.133-1.345,5.147,5.147,0,0,1-1.2-3.56Zm1.635.193a4.068,4.068,0,0,0,.734,2.54,2.487,2.487,0,0,0,3.933-.013,4.449,4.449,0,0,0,.729-2.72,4.061,4.061,0,0,0-.743-2.536,2.361,2.361,0,0,0-1.973-.971,2.335,2.335,0,0,0-1.942.958A4.416,4.416,0,0,0,87.8,14.351Z" transform="translate(60.905 23.409)" fill="#12263f"/><circle cx="24.775" cy="24.775" r="24.775" transform="translate(0 9.989)" fill="#53bced"/><path d="M24.53,10.989H23.04a10.6,10.6,0,0,0-8.911-8.911V.589A.589.589,0,0,0,13.541,0H11.578a.589.589,0,0,0-.589.589v1.49a10.6,10.6,0,0,0-8.911,8.911H.589A.589.589,0,0,0,0,11.578v1.962a.589.589,0,0,0,.589.589h1.49a10.6,10.6,0,0,0,8.911,8.911v1.49a.589.589,0,0,0,.589.589h1.962a.589.589,0,0,0,.589-.589V23.04a10.6,10.6,0,0,0,8.911-8.911h1.49a.589.589,0,0,0,.589-.589V11.578A.589.589,0,0,0,24.53,10.989Zm-10.4,8.862V17.858a.589.589,0,0,0-.589-.589H11.578a.589.589,0,0,0-.589.589v1.994a7.465,7.465,0,0,1-5.722-5.722H7.261a.589.589,0,0,0,.589-.589V11.578a.589.589,0,0,0-.589-.589H5.267a7.465,7.465,0,0,1,5.722-5.722V7.261a.589.589,0,0,0,.589.589h1.962a.589.589,0,0,0,.589-.589V5.267a7.465,7.465,0,0,1,5.722,5.722H17.858a.589.589,0,0,0-.589.589v1.962a.589.589,0,0,0,.589.589h1.994A7.465,7.465,0,0,1,14.129,19.851Zm0-7.292a1.57,1.57,0,1,1-1.57-1.57A1.57,1.57,0,0,1,14.129,12.559Z" transform="translate(11.355 22.205)" fill="#fff"/></g><g transform="translate(536.448 3594.865)"><rect width="196.021" height="69.529" rx="5" transform="translate(24.374)" fill="#d5f2ff" stroke="#53bced" stroke-width="2"/><path d="M8.719,13.085H3.173V17.62H9.615V19H1.485V6.2H9.527V7.592H3.173v4.113H8.719ZM13,9.49l.053,1.2A3.465,3.465,0,0,1,15.9,9.314q3.015,0,3.041,3.4V19H17.314V12.707a2.189,2.189,0,0,0-.47-1.521,1.884,1.884,0,0,0-1.437-.492,2.347,2.347,0,0,0-1.389.422,2.865,2.865,0,0,0-.932,1.107V19H11.461V9.49Zm10.6-2.3v2.3h1.775v1.257H23.6v5.9a1.317,1.317,0,0,0,.237.857,1,1,0,0,0,.809.286,3.937,3.937,0,0,0,.773-.105V19a4.714,4.714,0,0,1-1.248.176,2.025,2.025,0,0,1-1.644-.659,2.832,2.832,0,0,1-.554-1.872v-5.9H20.241V9.49h1.731v-2.3Zm8.271,3.762a4.873,4.873,0,0,0-.8-.062A2.143,2.143,0,0,0,28.9,12.25V19H27.272V9.49h1.582l.026,1.1a2.532,2.532,0,0,1,2.268-1.274,1.661,1.661,0,0,1,.721.123Zm5.44,8.227a4.155,4.155,0,0,1-3.146-1.27,4.714,4.714,0,0,1-1.213-3.4v-.3a5.707,5.707,0,0,1,.541-2.527A4.217,4.217,0,0,1,35,9.943a3.8,3.8,0,0,1,2.1-.628,3.562,3.562,0,0,1,2.883,1.222,5.289,5.289,0,0,1,1.028,3.5v.677H34.576a3.38,3.38,0,0,0,.822,2.272,2.583,2.583,0,0,0,2,.866,2.832,2.832,0,0,0,1.459-.352,3.666,3.666,0,0,0,1.046-.932l.993.773A3.993,3.993,0,0,1,37.31,19.176Zm-.2-8.525a2.169,2.169,0,0,0-1.652.716,3.482,3.482,0,0,0-.826,2.008h4.764v-.123a3.1,3.1,0,0,0-.668-1.92A2.042,2.042,0,0,0,37.107,10.65Zm5.405,3.516a5.589,5.589,0,0,1,1.028-3.538,3.545,3.545,0,0,1,5.44-.083l.079-1.055h1.485v9.281a3.869,3.869,0,0,1-1.094,2.909,4.038,4.038,0,0,1-2.94,1.063A4.891,4.891,0,0,1,44.5,22.3,3.465,3.465,0,0,1,43,21.1l.844-.976A3.18,3.18,0,0,0,46.4,21.417a2.491,2.491,0,0,0,1.85-.668,2.553,2.553,0,0,0,.664-1.881v-.817a3.342,3.342,0,0,1-2.663,1.125,3.248,3.248,0,0,1-2.7-1.345A5.876,5.876,0,0,1,42.513,14.166Zm1.635.185a4.264,4.264,0,0,0,.659,2.527,2.142,2.142,0,0,0,1.846.918,2.382,2.382,0,0,0,2.259-1.4V12.057a2.41,2.41,0,0,0-2.241-1.362,2.161,2.161,0,0,0-1.854.923A4.644,4.644,0,0,0,44.147,14.351ZM58.869,19a3.416,3.416,0,0,1-.229-1,3.628,3.628,0,0,1-2.707,1.178,3.357,3.357,0,0,1-2.307-.8,2.573,2.573,0,0,1-.9-2.017,2.688,2.688,0,0,1,1.129-2.307,5.325,5.325,0,0,1,3.177-.822h1.582v-.747a1.826,1.826,0,0,0-.51-1.358,2.049,2.049,0,0,0-1.5-.505,2.371,2.371,0,0,0-1.459.439,1.3,1.3,0,0,0-.589,1.063H52.919a2.244,2.244,0,0,1,.505-1.375A3.449,3.449,0,0,1,54.8,9.7a4.613,4.613,0,0,1,1.9-.387,3.759,3.759,0,0,1,2.575.822A2.964,2.964,0,0,1,60.24,12.4v4.377a5.351,5.351,0,0,0,.334,2.083V19Zm-2.7-1.239a2.858,2.858,0,0,0,1.45-.4,2.392,2.392,0,0,0,.993-1.028V14.386H57.34q-2.988,0-2.988,1.749a1.48,1.48,0,0,0,.51,1.2A1.959,1.959,0,0,0,56.171,17.761Zm19.107-3.41a5.694,5.694,0,0,1-.993,3.5A3.183,3.183,0,0,1,71.6,19.176a3.488,3.488,0,0,1-2.725-1.1v4.579H67.245V9.49H68.73l.079,1.055a3.35,3.35,0,0,1,2.76-1.23,3.243,3.243,0,0,1,2.711,1.292,5.756,5.756,0,0,1,1,3.595Zm-1.626-.185a4.2,4.2,0,0,0-.686-2.54,2.208,2.208,0,0,0-1.881-.932A2.39,2.39,0,0,0,68.871,12v4.544a2.4,2.4,0,0,0,2.232,1.3,2.2,2.2,0,0,0,1.859-.927A4.587,4.587,0,0,0,73.652,14.166Zm8.288-3.217a4.873,4.873,0,0,0-.8-.062A2.143,2.143,0,0,0,78.97,12.25V19H77.344V9.49h1.582l.026,1.1A2.532,2.532,0,0,1,81.22,9.314a1.661,1.661,0,0,1,.721.123Zm.888,3.208a5.617,5.617,0,0,1,.549-2.514,4.1,4.1,0,0,1,1.529-1.723,4.163,4.163,0,0,1,2.237-.606,4.01,4.01,0,0,1,3.142,1.345,5.174,5.174,0,0,1,1.2,3.577v.114a5.666,5.666,0,0,1-.532,2.492,4.038,4.038,0,0,1-1.521,1.718,4.211,4.211,0,0,1-2.272.615,4,4,0,0,1-3.133-1.345,5.147,5.147,0,0,1-1.2-3.56Zm1.635.193a4.068,4.068,0,0,0,.734,2.54,2.487,2.487,0,0,0,3.933-.013,4.449,4.449,0,0,0,.729-2.72,4.061,4.061,0,0,0-.743-2.536,2.361,2.361,0,0,0-1.973-.971,2.335,2.335,0,0,0-1.942.958A4.416,4.416,0,0,0,84.463,14.351Zm8.666-.185a5.571,5.571,0,0,1,1.037-3.52,3.529,3.529,0,0,1,5.361-.189V5.5h1.626V19H99.659l-.079-1.02a3.311,3.311,0,0,1-2.716,1.2,3.248,3.248,0,0,1-2.694-1.354,5.634,5.634,0,0,1-1.042-3.533Zm1.626.185a4.218,4.218,0,0,0,.668,2.531,2.159,2.159,0,0,0,1.846.914,2.372,2.372,0,0,0,2.259-1.389V12.039a2.39,2.39,0,0,0-2.241-1.345,2.17,2.17,0,0,0-1.863.923A4.644,4.644,0,0,0,94.755,14.351Zm14.792,3.709a3.454,3.454,0,0,1-2.786,1.116,2.956,2.956,0,0,1-2.316-.883,3.823,3.823,0,0,1-.8-2.615V9.49h1.626v6.144q0,2.162,1.758,2.162a2.434,2.434,0,0,0,2.479-1.389V9.49h1.626V19h-1.547Zm7.866-.211a2.342,2.342,0,0,0,1.521-.527A1.855,1.855,0,0,0,119.654,16h1.538a2.949,2.949,0,0,1-.562,1.556,3.7,3.7,0,0,1-1.384,1.178,3.994,3.994,0,0,1-1.833.439,3.918,3.918,0,0,1-3.089-1.3,5.163,5.163,0,0,1-1.147-3.546v-.272a5.725,5.725,0,0,1,.51-2.47,3.883,3.883,0,0,1,1.463-1.679,4.157,4.157,0,0,1,2.254-.6,3.814,3.814,0,0,1,2.659.958,3.424,3.424,0,0,1,1.129,2.487h-1.538a2.241,2.241,0,0,0-.7-1.516,2.174,2.174,0,0,0-1.551-.593,2.276,2.276,0,0,0-1.92.892,4.19,4.19,0,0,0-.681,2.58v.308a4.106,4.106,0,0,0,.677,2.531A2.287,2.287,0,0,0,117.413,17.849Zm7.813-10.661v2.3H127v1.257h-1.775v5.9a1.317,1.317,0,0,0,.237.857,1,1,0,0,0,.809.286,3.937,3.937,0,0,0,.773-.105V19a4.714,4.714,0,0,1-1.248.176,2.025,2.025,0,0,1-1.644-.659,2.832,2.832,0,0,1-.554-1.872v-5.9h-1.731V9.49H123.6v-2.3Zm3.067,6.97a5.617,5.617,0,0,1,.549-2.514,4.1,4.1,0,0,1,1.529-1.723,4.163,4.163,0,0,1,2.237-.606,4.01,4.01,0,0,1,3.142,1.345,5.174,5.174,0,0,1,1.2,3.577v.114a5.666,5.666,0,0,1-.532,2.492,4.038,4.038,0,0,1-1.521,1.718,4.211,4.211,0,0,1-2.272.615,4,4,0,0,1-3.133-1.345,5.147,5.147,0,0,1-1.2-3.56Zm1.635.193a4.068,4.068,0,0,0,.734,2.54,2.487,2.487,0,0,0,3.933-.013,4.449,4.449,0,0,0,.729-2.72,4.061,4.061,0,0,0-.743-2.536,2.361,2.361,0,0,0-1.973-.971,2.335,2.335,0,0,0-1.942.958A4.416,4.416,0,0,0,129.929,14.351Z" transform="translate(62.454 23.409)" fill="#12263f"/><circle cx="24.775" cy="24.775" r="24.775" transform="translate(0 9.989)" fill="#53bced"/><g transform="translate(9.807 20.534)"><path d="M246.579,35.149a.584.584,0,0,0,.584-.584V31.59a.584.584,0,0,0-1.168,0v2.975A.584.584,0,0,0,246.579,35.149Z" transform="translate(-231.628 -31.006)" fill="#fff"/><path d="M154.273,64.129a.584.584,0,1,0,.988-.623l-1.556-2.469a.584.584,0,1,0-.988.623Z" transform="translate(-143.713 -59.027)" fill="#fff"/><path d="M313.02,64.313a.584.584,0,0,0,.805-.183l1.554-2.469a.584.584,0,0,0-.989-.622l-1.554,2.469A.584.584,0,0,0,313.02,64.313Z" transform="translate(-294.482 -59.027)" fill="#fff"/><path d="M29.713,126.01,28.7,124.218a.584.584,0,0,0-1.016.575l1.014,1.792a.288.288,0,0,1,.025.221.275.275,0,0,1-.131.167l-1.564.866a.3.3,0,0,1-.4-.105l-.4-.7-.005-.009-4.107-7.265a.284.284,0,0,1-.026-.218.274.274,0,0,1,.13-.166l1.566-.866a.291.291,0,0,1,.395.106l.915,1.617a.584.584,0,1,0,1.016-.575l-.915-1.617a1.462,1.462,0,0,0-1.977-.553l-1.566.866a1.451,1.451,0,0,0-.59,1.918l-.862.25a3.4,3.4,0,0,1-.714.164h0a1.458,1.458,0,0,1-.443-.133c-.12-.046-.27-.1-.454-.167l-1.528-.534a3.5,3.5,0,0,0-1.779-.229l-2.606.233a3.52,3.52,0,0,0-2.363.838l-1.485-.43a1.45,1.45,0,0,0-.593-1.909l-1.565-.867a1.463,1.463,0,0,0-1.978.553L.189,126.009a1.453,1.453,0,0,0,.554,1.985l1.565.867a1.464,1.464,0,0,0,1.978-.553l.165-.292a2.743,2.743,0,0,1,1.088.829,1.96,1.96,0,0,0,1.267,3.221,1.958,1.958,0,0,0,1.724,2.154,1.957,1.957,0,0,0,1.724,2.154,1.964,1.964,0,0,0,3.179,1.738l1.223-.978a1.969,1.969,0,0,0,.265-.255l.7.558a1.962,1.962,0,0,0,3.152-1.156,1.952,1.952,0,0,0,.64.107,2.019,2.019,0,0,0,.222-.012,1.959,1.959,0,0,0,1.735-2.155,1.956,1.956,0,0,0,1.724-2.153,1.963,1.963,0,0,0,1.268-3.221,2.732,2.732,0,0,1,1.087-.829l.166.293a1.465,1.465,0,0,0,1.978.552l1.564-.866a1.455,1.455,0,0,0,.557-1.984ZM3.27,127.733a.3.3,0,0,1-.4.106l-1.565-.867a.275.275,0,0,1-.13-.167.287.287,0,0,1,.026-.22l4.51-7.975a.285.285,0,0,1,.25-.143.3.3,0,0,1,.145.038l1.564.867h0a.274.274,0,0,1,.13.166.285.285,0,0,1-.026.219Zm4.262,3.005a.795.795,0,0,1-.994-1.241l2.186-1.748a.8.8,0,0,1,1.12.125.8.8,0,0,1-.124,1.115l-.01.009-2.177,1.74Zm.605,2.029a.8.8,0,0,1,.124-1.116h0l3.149-2.516a.8.8,0,0,1,1.12.125.8.8,0,0,1-.125,1.117l-3.149,2.515a.8.8,0,0,1-1.12-.124Zm2.258,2.446a.795.795,0,0,1-.409-1.409h0l2.179-1.741.008-.006a.8.8,0,0,1,1.119.124.8.8,0,0,1-.125,1.117l-2.186,1.748A.793.793,0,0,1,10.394,135.214Zm3.826.474a.788.788,0,0,1-.293.533l-1.223.979a.8.8,0,0,1-1.12-.124.8.8,0,0,1,.124-1.116h0l1.223-.977h0a.8.8,0,0,1,1.12.125A.786.786,0,0,1,14.221,135.688Zm9.267-5.073a.8.8,0,0,1-1.119.124h0l-1.563-1.249a.584.584,0,1,0-.729.912l1.562,1.248a.795.795,0,1,1-.994,1.241l-1.7-1.353a.584.584,0,1,0-.729.913l1.694,1.352a.8.8,0,0,1-1,1.243l-.843-.675,0,0-.713-.57-.133-.107a.584.584,0,0,0-.729.912l.848.678a.8.8,0,0,1-1,1.241l-.962-.769a1.954,1.954,0,0,0-1.123-1.93A1.96,1.96,0,0,0,13.5,130.9a1.963,1.963,0,0,0-2.363-2.952,1.948,1.948,0,0,0-.384-.8A1.968,1.968,0,0,0,8,126.837l-1.564,1.25a3.848,3.848,0,0,0-1.4-1.092l3.217-5.69,1.713.5a1.91,1.91,0,0,0,.047.29c.415,1.7,1.984,2.5,4.1,2.073,1.779-.358,2.512.175,3.971,1.238.151.11.309.225.473.343,1.049.753,2.171,1.638,2.922,2.237l1.9,1.515a.8.8,0,0,1,.123,1.117Zm-.018-2.528L22.2,127.07c-.762-.608-1.9-1.505-2.971-2.274-.162-.116-.317-.229-.466-.338-1.513-1.1-2.606-1.9-4.889-1.439-.7.141-2.363.305-2.731-1.2-.052-.213,0-.286.023-.318.078-.109.392-.374,1.622-.483l2.608-.233a2.392,2.392,0,0,1,1.287.168l1.528.534c.17.059.306.111.426.156a2.238,2.238,0,0,0,1.9,0l1.127-.326L24.871,127A3.837,3.837,0,0,0,23.47,128.087Z" transform="translate(0 -112.261)" fill="#fff"/><path d="M451.154,192.753a.584.584,0,1,0-.584-.585v0A.583.583,0,0,0,451.154,192.753Z" transform="translate(-424.256 -182.206)" fill="#fff"/></g></g><g transform="translate(522.139 3359.788)"><rect width="143.747" height="69.529" rx="5" transform="translate(24.374 0)" fill="#d5f2ff" stroke="#53bced" stroke-width="2"/><path d="M5.256,13.3A7.935,7.935,0,0,1,2.1,11.762a2.93,2.93,0,0,1-.989-2.246,3.1,3.1,0,0,1,1.208-2.5,4.8,4.8,0,0,1,3.142-.989,5.243,5.243,0,0,1,2.351.51,3.866,3.866,0,0,1,1.6,1.406A3.6,3.6,0,0,1,9.976,9.9h-1.7A2.327,2.327,0,0,0,7.541,8.08a3.009,3.009,0,0,0-2.083-.664,3.078,3.078,0,0,0-1.947.549,1.831,1.831,0,0,0-.7,1.525,1.648,1.648,0,0,0,.664,1.323,6.514,6.514,0,0,0,2.259.989,10.46,10.46,0,0,1,2.5.989,3.788,3.788,0,0,1,1.336,1.261,3.219,3.219,0,0,1,.435,1.7A2.99,2.99,0,0,1,8.789,18.24a5.171,5.171,0,0,1-3.243.936,6.015,6.015,0,0,1-2.461-.505,4.142,4.142,0,0,1-1.762-1.384,3.378,3.378,0,0,1-.62-2H2.4a2.2,2.2,0,0,0,.857,1.833,3.608,3.608,0,0,0,2.29.672,3.317,3.317,0,0,0,2.048-.545,1.77,1.77,0,0,0,.712-1.485,1.738,1.738,0,0,0-.659-1.455A7.6,7.6,0,0,0,5.256,13.3Zm10.6,5.88a4.155,4.155,0,0,1-3.146-1.27,4.714,4.714,0,0,1-1.213-3.4v-.3a5.707,5.707,0,0,1,.541-2.527,4.217,4.217,0,0,1,1.512-1.74,3.8,3.8,0,0,1,2.1-.628,3.562,3.562,0,0,1,2.883,1.222,5.289,5.289,0,0,1,1.028,3.5v.677H13.122a3.38,3.38,0,0,0,.822,2.272,2.583,2.583,0,0,0,2,.866A2.832,2.832,0,0,0,17.4,17.5a3.666,3.666,0,0,0,1.046-.932l.993.773A3.993,3.993,0,0,1,15.855,19.176Zm-.2-8.525A2.169,2.169,0,0,0,14,11.367a3.482,3.482,0,0,0-.826,2.008h4.764v-.123a3.1,3.1,0,0,0-.668-1.92A2.042,2.042,0,0,0,15.653,10.65Zm10.389.3a4.873,4.873,0,0,0-.8-.062,2.143,2.143,0,0,0-2.171,1.362V19H21.445V9.49h1.582l.026,1.1a2.532,2.532,0,0,1,2.268-1.274,1.661,1.661,0,0,1,.721.123Zm4.79,5.845,2.355-7.3h1.661L31.438,19H30.2L26.754,9.49h1.661ZM38.18,19H36.554V9.49H38.18ZM36.422,6.968a.971.971,0,0,1,.242-.668.907.907,0,0,1,.716-.272A.922.922,0,0,1,38.1,6.3a.96.96,0,0,1,.246.668.929.929,0,0,1-.246.659.938.938,0,0,1-.721.264.924.924,0,0,1-.716-.264A.938.938,0,0,1,36.422,6.968ZM44.6,17.849a2.342,2.342,0,0,0,1.521-.527A1.855,1.855,0,0,0,46.837,16h1.538a2.949,2.949,0,0,1-.562,1.556,3.7,3.7,0,0,1-1.384,1.178,3.994,3.994,0,0,1-1.833.439,3.918,3.918,0,0,1-3.089-1.3,5.163,5.163,0,0,1-1.147-3.546v-.272a5.725,5.725,0,0,1,.51-2.47,3.883,3.883,0,0,1,1.463-1.679,4.157,4.157,0,0,1,2.254-.6,3.814,3.814,0,0,1,2.659.958,3.424,3.424,0,0,1,1.129,2.487H46.837a2.241,2.241,0,0,0-.7-1.516,2.174,2.174,0,0,0-1.551-.593,2.276,2.276,0,0,0-1.92.892,4.19,4.19,0,0,0-.681,2.58v.308a4.106,4.106,0,0,0,.677,2.531A2.287,2.287,0,0,0,44.6,17.849ZM51.97,19H50.344V9.49H51.97ZM50.212,6.968a.971.971,0,0,1,.242-.668.907.907,0,0,1,.716-.272.922.922,0,0,1,.721.272.96.96,0,0,1,.246.668.929.929,0,0,1-.246.659.938.938,0,0,1-.721.264.924.924,0,0,1-.716-.264A.938.938,0,0,1,50.212,6.968Zm3.929,7.189a5.617,5.617,0,0,1,.549-2.514,4.1,4.1,0,0,1,1.529-1.723,4.163,4.163,0,0,1,2.237-.606A4.01,4.01,0,0,1,61.6,10.659a5.174,5.174,0,0,1,1.2,3.577v.114a5.666,5.666,0,0,1-.532,2.492,4.038,4.038,0,0,1-1.521,1.718,4.211,4.211,0,0,1-2.272.615,4,4,0,0,1-3.133-1.345,5.147,5.147,0,0,1-1.2-3.56Zm1.635.193a4.068,4.068,0,0,0,.734,2.54,2.487,2.487,0,0,0,3.933-.013,4.449,4.449,0,0,0,.729-2.72,4.061,4.061,0,0,0-.743-2.536,2.361,2.361,0,0,0-1.973-.971,2.335,2.335,0,0,0-1.942.958A4.416,4.416,0,0,0,55.775,14.351Z" transform="translate(71.085 23.408)" fill="#12263f"/><circle cx="24.775" cy="24.775" r="24.775" transform="translate(0 9.988)" fill="#53bced"/><g transform="translate(10.839 21.431)"><path d="M13.678,0A13.678,13.678,0,1,0,27.356,13.678,13.694,13.694,0,0,0,13.678,0Zm0,26.216A12.538,12.538,0,1,1,26.216,13.678,12.552,12.552,0,0,1,13.678,26.216Z" fill="#fff"/><g transform="translate(2.28 2.28)"><path d="M54.065,42.667a11.4,11.4,0,1,0,11.4,11.4A11.411,11.411,0,0,0,54.065,42.667Zm0,1.14a10.27,10.27,0,0,1,9.712,6.98,32.969,32.969,0,0,0-9.712-1.281,32.97,32.97,0,0,0-9.712,1.281A10.27,10.27,0,0,1,54.065,43.807Zm-10.084,12.1,1.556-.573a2.1,2.1,0,0,1,2.7,2.7L46.974,61.46A10.237,10.237,0,0,1,43.982,55.908Zm10.084,8.416a10.2,10.2,0,0,1-3.209-.521l1.3-2.817a2.1,2.1,0,0,1,3.817,0l1.3,2.817A10.2,10.2,0,0,1,54.065,64.324Zm7.091-2.863-1.262-3.426a2.1,2.1,0,0,1,2.7-2.7l1.555.573A10.237,10.237,0,0,1,61.156,61.461Zm1.831-7.2a3.242,3.242,0,0,0-4.163,4.163l1.406,3.817a10.254,10.254,0,0,1-1.9,1.136l-1.326-2.873a3.242,3.242,0,0,0-5.887,0L49.8,63.381a10.255,10.255,0,0,1-1.9-1.136l1.406-3.817a3.242,3.242,0,0,0-4.163-4.163l-1.3.48c-.015-.226-.035-.45-.035-.679A10.257,10.257,0,0,1,44,52.129a30.187,30.187,0,0,1,10.069-1.483,30.2,30.2,0,0,1,10.069,1.483,10.25,10.25,0,0,1,.189,1.937c0,.229-.02.454-.034.68Z" transform="translate(-42.667 -42.667)" fill="#fff"/></g><g transform="translate(11.398 11.398)"><path d="M215.613,213.333a2.28,2.28,0,1,0,2.28,2.28A2.282,2.282,0,0,0,215.613,213.333Zm0,3.419a1.14,1.14,0,1,1,1.14-1.14A1.141,1.141,0,0,1,215.613,216.752Z" transform="translate(-213.333 -213.333)" fill="#fff"/></g></g></g></g></svg>