<svg xmlns="http://www.w3.org/2000/svg" width="44" height="43.992" viewBox="0 0 44 43.992"><path d="M43.4,11.9a10.167,10.167,0,0,0-7.425-3.85A10.337,10.337,0,0,0,32.131.636a2.734,2.734,0,0,0-3.506,0A10.177,10.177,0,0,0,24.792,8.01a9.442,9.442,0,0,0,.567,3.627,10.867,10.867,0,0,0-13.484,5.629L.239,41.1a2,2,0,0,0,2.681,2.681L26.777,32.141a11.1,11.1,0,0,0,5.681-13.467,9.493,9.493,0,0,0,3.128.567A10.092,10.092,0,0,0,43.4,15.4,2.716,2.716,0,0,0,43.4,11.9ZM29.433,25.825a8.317,8.317,0,0,1-3.859,3.859L14.849,34.917a1.311,1.311,0,0,0-.095-.138L12,32.03a1.373,1.373,0,1,0-1.942,1.942l2.2,2.2L3.651,40.383l9.617-19.706,2.295,2.295A1.373,1.373,0,1,0,17.5,21.029l-2.75-2.75a1.887,1.887,0,0,0-.215-.146,8.383,8.383,0,0,1,14.893,7.692ZM35.595,16.5a7.345,7.345,0,0,1-5.208-2.277l-.576-.576a7.106,7.106,0,0,1,.567-10.9,7.133,7.133,0,0,1,2.174,8.731,6.985,6.985,0,0,1,3-.688,7.451,7.451,0,0,1,5.732,2.862A7.389,7.389,0,0,1,35.595,16.5Z" transform="translate(-0.036)" fill="#db6e5f"/></svg>