<svg xmlns="http://www.w3.org/2000/svg" width="185" height="185" viewBox="0 0 185 185"><g transform="translate(-1210 -490)"><g transform="translate(1220 500)" fill="#fff" stroke="#ff8ea1" stroke-linejoin="round" stroke-width="10"><circle cx="82.5" cy="82.5" r="82.5" stroke="none"/><circle cx="82.5" cy="82.5" r="87.5" fill="none"/></g><g transform="translate(1225.583 505.583)"><path d="M27,95.773a68.732,68.732,0,0,0,68.773,68.773L100.3,95.773,95.773,27A68.738,68.738,0,0,0,27,95.773Z" transform="translate(-18.856 -18.856)" fill="#e6f2ff"/><path d="M323.773,95.773A68.724,68.724,0,0,0,255,27V164.546A68.738,68.738,0,0,0,323.773,95.773Z" transform="translate(-178.083 -18.856)" fill="#cdf"/><path d="M409,244.525l3.11,4.525h27.355V240H412.11Z" transform="translate(-285.631 -167.608)" fill="#cd0000"/><path d="M240,0V27.355l2.26,2.658,2.265-2.866,2.262-13.574L244.525,0Z" transform="translate(-167.608)" fill="#e63950"/><path d="M259.525,0H255V27.147l2.265,2.866,2.26-2.658Z" transform="translate(-178.083)" fill="#cd0000"/><path d="M27.355,240H0v9.049H27.355l4.317-4.525Z" transform="translate(0 -167.608)" fill="#e63950"/><path d="M240,411.586v27.355h4.525l2.262-13.574-2.262-13.574-2.265-3.544Z" transform="translate(-167.608 -285.107)" fill="#e63950"/><path d="M259.525,411.586l-2.26-3.336L255,411.794v27.147h4.525Z" transform="translate(-178.083 -285.107)" fill="#cd0000"/><path d="M57,116.724a59.791,59.791,0,0,0,59.724,59.724l4.525-59.724L116.724,57A59.791,59.791,0,0,0,57,116.724Z" transform="translate(-39.807 -39.807)" fill="#ff637b"/><path d="M314.724,116.724A59.791,59.791,0,0,0,255,57V176.448A59.791,59.791,0,0,0,314.724,116.724Z" transform="translate(-178.083 -39.807)" fill="#e63950"/><path d="M90,139.77a49.826,49.826,0,0,0,49.77,49.77l4.525-49.77L139.77,90A49.826,49.826,0,0,0,90,139.77Z" transform="translate(-62.853 -62.853)" fill="#e6f2ff"/><path d="M304.77,139.77A49.826,49.826,0,0,0,255,90v99.54A49.826,49.826,0,0,0,304.77,139.77Z" transform="translate(-178.083 -62.853)" fill="#cdf"/><path d="M120,160.721a40.767,40.767,0,0,0,40.721,40.721l4.525-40.721L160.721,120A40.767,40.767,0,0,0,120,160.721Z" transform="translate(-83.804 -83.804)" fill="#ff637b"/><path d="M295.721,160.721A40.767,40.767,0,0,0,255,120v81.442A40.767,40.767,0,0,0,295.721,160.721Z" transform="translate(-178.083 -83.804)" fill="#e63950"/><path d="M155.4,199.366l9.289-4.121,5.263-6.8,11.7-20.345,2.094-8.3-2.094-9.8C156.165,150,141.363,178.6,155.4,199.366Z" transform="translate(-104.74 -104.755)" fill="#575f64"/><path d="M281.207,199.437C295.3,178.717,280.569,150,255,150v18.1l11.714,20.35,5.328,8.532Z" transform="translate(-178.083 -104.755)" fill="#474f54"/><path d="M167.954,288.415a31.664,31.664,0,0,0,26.256,13.977l1.659-8.647-1.659-9.451-11.749-6.784c-7.008,2.8-10.007,6.451-14.507,10.9Z" transform="translate(-117.293 -193.803)" fill="#6cf"/><path d="M281.207,288.482c-2.525-2.362-6.131-7.647-14.461-10.977L255,284.29v18.1A31.661,31.661,0,0,0,281.207,288.482Z" transform="translate(-178.083 -193.8)" fill="#4596e6"/><path d="M210,223.574a13.589,13.589,0,0,0,13.574,13.574l4.525-13.574L223.574,210A13.589,13.589,0,0,0,210,223.574Z" transform="translate(-146.657 -146.657)" fill="#fdc"/><path d="M268.574,223.574A13.589,13.589,0,0,0,255,210v27.147A13.589,13.589,0,0,0,268.574,223.574Z" transform="translate(-178.083 -146.657)" fill="#ffbfb3"/></g></g></svg>