<svg xmlns="http://www.w3.org/2000/svg" xmlns:xlink="http://www.w3.org/1999/xlink" width="295" height="295" viewBox="0 0 295 295"><defs><linearGradient id="a" x1="0.236" y1="-0.028" x2="0.64" y2="0.78" gradientUnits="objectBoundingBox"><stop offset="0" stop-color="#966acd"/><stop offset="1" stop-color="#431aaa"/></linearGradient><linearGradient id="b" x1="0.45" y1="0.003" x2="0.618" y2="1.319" gradientUnits="objectBoundingBox"><stop offset="0.08" stop-color="#ae62ff"/><stop offset="0.33" stop-color="#ac60fc"/><stop offset="0.484" stop-color="#a65af3"/><stop offset="0.613" stop-color="#9c51e5"/><stop offset="0.727" stop-color="#8e44d0"/><stop offset="0.832" stop-color="#7c33b6"/><stop offset="0.929" stop-color="#661f95"/><stop offset="1" stop-color="#530d79"/></linearGradient><linearGradient id="c" x1="0.326" y1="0.047" x2="0.518" y2="1.006" xlink:href="#b"/><linearGradient id="d" x1="0.34" y1="0.018" x2="0.519" y2="0.994" xlink:href="#b"/><linearGradient id="e" x1="0.501" y1="0.023" x2="0.499" y2="1.091" gradientUnits="objectBoundingBox"><stop offset="0.068" stop-color="#e6e7e8"/><stop offset="0.804" stop-color="#6d6e71"/></linearGradient><linearGradient id="f" x1="0.376" y1="-0.083" x2="0.574" y2="1.274" xlink:href="#b"/></defs><g transform="translate(-180 -2798)"><g transform="translate(206.25 2826.987)"><g transform="translate(46.169 0)"><path d="M-359.25-1256.364a42.492,42.492,0,0,0-4.859,7.458,116.045,116.045,0,0,0-12.352,50.975c-.027,4,.187,8.141,1.926,11.748s5.35,6.577,9.351,6.43c5.082-.186,10.443-5.022,14.565-2.042,5.715,4.133,4.007,16.985,3.372,22.808-.59,5.412-1.27,10.913-.277,16.265,2.062,11.108,16.11,22,27.495,21.864,29.372-.375,63.821,3.229,86.495-3.5,27.788-8.242,47-33.693,52.654-61.408,1.3-6.368,1.335-13.8-3.45-18.374-4.877-4.666-12.745-4.489-19.524-3.36s-13.977,2.855-20.331.32c-7.116-2.839-11.135-10.568-11.288-17.974s2.89-14.527,6.5-21.072c11.746-21.306,20.562-35.58,25.152-59.287,1.835-9.479.353-20.957-8.189-26.009-6.893-4.077-15.771-3.036-23.55-.891-13.288,3.664-16.5,4.749-28.88,10.66-4.413,2.107-8.836,5.243-13.678,6.118s-9.978,2.531-13.519-.762c-2.814-2.617-3.256-4.28-6.1-6.873-11.494-10.479-28.738,11-31.6,20.733-1.914,6.51-8.48,13.317-10.58,19.77C-343.678-1271.212-352.525-1264.805-359.25-1256.364Z" transform="translate(376.463 1345.997)" fill="#e0e0e0"/><path d="M-53.724-1367.715c-1.779,1.971-3.313,4.769-2.194,7.177a5.348,5.348,0,0,0,5.021,2.695,15.467,15.467,0,0,0,5.757-1.654,22.938,22.938,0,0,0,6.959-4.1c3.566-3.437,3.914-10.444-2.042-11.6C-44.764-1376.083-50.963-1370.774-53.724-1367.715Z" transform="translate(147.664 1375.297)" fill="#e0e0e0"/><path d="M-334.859-764.154c-.041-3.551-1.069-7.734-4.337-9.228-2.474-1.131-5.412-.2-7.34,1.581s-3.058,4.249-4.132,6.661c-1.446,3.25-2.893,6.594-3.1,10.2-.381,6.592,5.606,14.053,12.474,10.1C-336.058-747.865-334.795-758.643-334.859-764.154Z" transform="translate(360.257 945.504)" fill="#e0e0e0"/><path d="M168.013-1057.535c3.305-4.7,8.547-7.793,14.064-9.409,4.377-1.281,9.51-1.578,13.111,1.221a12.37,12.37,0,0,1,4.041,6.532,19.523,19.523,0,0,1-10.02,22.136C175.436-1030.443,157.6-1042.72,168.013-1057.535Z" transform="translate(-10.404 1155.611)" fill="#e0e0e0"/></g><g transform="translate(0 25.662)"><ellipse cx="94.472" cy="10.909" rx="94.472" ry="10.909" transform="translate(53.555 199.867)" fill="#dbdbdb"/><path d="M-488.835-1176.5h-45c-6.814,0-12.336-8.269-12.336-18.467v-71.946c0-10.2,5.523-18.465,12.336-18.465h124.862c6.814,0,12.337,8.268,12.337,18.465v71.946c0,10.2-5.523,18.467-12.337,18.467h-79.864Z" transform="translate(546.169 1285.374)" fill="url(#a)"/><path d="M-351.125-1196.874c.021-14.471-11.125-24.83-22.509-24.847-9.578-.014-18.147,6.37-20.644,15.172-2.47-8.81-11.02-15.219-20.6-15.233-11.384-.017-22.561,10.308-22.583,24.78-.033,21.929,33.569,47.081,41.864,49.72a3.6,3.6,0,0,0,.487.142,3.127,3.127,0,0,0,.683.1c.021,0,.038-.006.059-.007s.037.008.059.008a3.2,3.2,0,0,0,.684-.1,3.614,3.614,0,0,0,.488-.141C-384.834-1149.892-351.158-1174.945-351.125-1196.874Z" transform="translate(468.482 1239.929)" fill="#ef3573"/><path d="M-217.119-845.808a4.753,4.753,0,0,0-4.462-4.926,4.259,4.259,0,0,0-4.093,3.008,4.258,4.258,0,0,0-4.084-3.02,4.752,4.752,0,0,0-4.477,4.913c-.006,4.347,6.655,9.334,8.3,9.857a.692.692,0,0,0,.1.028.611.611,0,0,0,.136.02h.023a.626.626,0,0,0,.136-.019.731.731,0,0,0,.1-.028C-223.8-836.494-217.126-841.461-217.119-845.808Z" transform="translate(323.252 974.777)" fill="#ef3573"/><path d="M104.324-1035.346a3.491,3.491,0,0,0-3.277-3.618,3.128,3.128,0,0,0-3.006,2.209,3.127,3.127,0,0,0-3-2.218,3.49,3.49,0,0,0-3.288,3.608c0,3.193,4.888,6.856,6.1,7.24a.543.543,0,0,0,.071.021.434.434,0,0,0,.1.014h.017a.446.446,0,0,0,.1-.014.518.518,0,0,0,.071-.021C99.415-1028.5,104.319-1032.153,104.324-1035.346Z" transform="translate(90.293 1109.289)" fill="#ef3573"/><g transform="translate(105.77 28.491)"><path d="M-96.392-559.27l.62,4.464,2.325,2.117,2-2.581v-4Z" transform="translate(118.976 737.989)" fill="#a8d9ef"/><path d="M6.057-558.449l.655,4.464,2.457,2.117,2.116-2.581v-4Z" transform="translate(45.763 737.402)" fill="#a8d9ef"/><g transform="translate(0)"><path d="M-157.3-1067.485l0-26.481a22.223,22.223,0,0,0-6.956,9.6c-.892,3.04-7.275,11.094-9.248,14.928-.9,1.742-2.035,3.426-2.035,5.539a9.891,9.891,0,0,0,2.135,5.65,6.637,6.637,0,0,0,4.291,2.644,8.556,8.556,0,0,0,2.15.283c.08,0,.158-.01.238-.012a11.739,11.739,0,0,0,3.321-.293,16.063,16.063,0,0,0,5.731-3.1l.285-6.779Z" transform="translate(175.531 1120.098)" fill="url(#b)"/><g transform="translate(11.827)"><g transform="translate(0 21.141)"><g transform="translate(6.255)"><path d="M-83.651-1072.42l2.571-15.447c3.256-3.075,3.437-7.959,3.437-10.13v-8.14s-11.377-5.27-17.44-5.317c-4.723.278-10.814,2.471-14.252,3.737a3.86,3.86,0,0,0-2.676,3.623v5.916c-1.086,6.332,3.8,10.492,3.8,10.492l.648,15.753Z" transform="translate(112.169 1111.454)" fill="#fff"/></g><g transform="translate(6.498 39.924)"><path d="M-75.022-945.748l3.8,93.173-8.693-.217L-93.729-945.25l-6.225,91.638h-9.352l-2.01-92.136s.524-23.776,4.331-25.03,23.287-.607,23.287-.607S-76.26-959.678-75.022-945.748Z" transform="translate(111.317 971.552)" fill="#f7f7f7"/></g><rect width="16.949" height="2.148" transform="translate(14.487 39.164)" fill="#8c0e0e"/><g transform="translate(2.188 1.915)"><path d="M-125.941-1052.665l15.5.978-4.732-53.056s-5.93,1.873-8.134,3.947-2.6,29.114-3.116,40.362Z" transform="translate(126.422 1104.742)" fill="url(#c)"/></g><g transform="translate(28.002 1.915)"><path d="M-18.907-1063.385c-.513-11.248-2.074-35.882-4.277-37.956s-8.541-3.4-8.541-3.4l-4.239,52.078,16.388-.928Z" transform="translate(35.965 1104.742)" fill="url(#d)"/></g><path d="M-63.949-1082.969s4.609,2.189,8.141,0l-4.07,7.753Z" transform="translate(83.965 1091.098)" fill="#ffbda1"/><g transform="translate(6.234 16.844)"><path d="M-112.127-1036.424l.449-14.253a1.808,1.808,0,0,1,1.807-1.75h24.337a1.808,1.808,0,0,1,1.808,1.816l-.083,16.945h-28.433Z" transform="translate(112.243 1052.428)" fill="url(#e)"/></g><path d="M4.778-1055.764a19.445,19.445,0,0,1-3.942-2.154L.551-1064.7l-.084-1.97L2.8-1092.821c2.261,1.547,3.6,5.785,4.624,9.269.892,3.039,4.488,10.165,6.462,14,.9,1.743,2.035,3.426,2.035,5.539,0,2.167-.183,4.3-1.341,5.966-.844,1.217-3.06,1.929-5.085,2.327l-1.293.258A5.993,5.993,0,0,1,4.778-1055.764Z" transform="translate(37.931 1098.138)" fill="url(#f)"/><path d="M-134.025-998.006s2.525-5.108,6.346-5.6l-.046,1.667s5.819-.68,6.267-.275c.929.842-4.76,1.654-4.76,1.654s4.924-.423,5.169-.147.374,3.34-.584,3.978-9.548,2.827-10.651,2.27A2.948,2.948,0,0,1-134.025-998.006Z" transform="translate(134.088 1034.384)" fill="#ffbda1"/><path d="M-19.548-1003.284a2.456,2.456,0,0,0-.626-1.342,18.181,18.181,0,0,0-2.082-2.228c-1.626-1.481-3.545-2.993-3.74-3.613-.109-.346-.913.292-.8.638a5.409,5.409,0,0,0,.437,1.249c.206.315,1.321,1.441,1.321,1.441s-6.4-.744-6.816-.309c-1.045,1.083,4.731,1.422,4.731,1.422s-4.924-.423-5.169-.148-.374,3.34.584,3.979,8.058,2.359,10.612,2C-20.041-1000.342-19.473-1001.56-19.548-1003.284Z" transform="translate(61.471 1039.357)" fill="#ffbda1"/></g><g transform="translate(10.179)"><path d="M-90.47-1168.419s-.989-.508-2.306,1.214c-1.3,1.7-.733,2.332-1.645,3.243-.81.81-2.128.608-2.736,2.128s.81,2.533.405,3.344-1.957,1.425-1.621,2.938c.2.912,1.418.9,2.736.9s17.02-.2,17.02-.2Z" transform="translate(98.42 1173.354)" fill="#884c59"/><path d="M-59.879-1117.314h0s-4.07-.239-4.07-2.317v-10.211h8.141v10.211C-55.808-1117.554-59.879-1117.314-59.879-1117.314Z" transform="translate(73.786 1145.736)" fill="#e79b78"/><path d="M-62.037-1165.485a7.985,7.985,0,0,1-8,7.881,7.881,7.881,0,0,1-7.881-7.881,7.881,7.881,0,0,1,7.881-7.881A7.985,7.985,0,0,1-62.037-1165.485Z" transform="translate(83.77 1176.839)" fill="#ffbda1"/><path d="M-79.145-1180.974s.51,3.715-1.6,4.063c-1.777.293-2.787.426-3.452,1.354a31.2,31.2,0,0,1-2.45,3.173,3.073,3.073,0,0,1-4.025.89c-1.691-.744-1.957-4.565-.03-5.533,1.265-.636.807-3.026,1.387-4.07.7-1.253,1.864-.747,2.022-1.142a5.707,5.707,0,0,1,2.8-2.8C-83.447-1185.477-78.066-1187.011-79.145-1180.974Z" transform="translate(93.866 1185.537)" fill="#884c59"/><path d="M-56.211-1184.5a1.377,1.377,0,0,1,.987-.538c3.638-.264,7.739.687,8.511,5.017.269,1.509-.445,2.526,1.2,3.039,2.353.735,2.507,1.715,2.563,2.739.079,1.416-.884,2.456-.276,3.469s1.293.831,1.529,2.2c.346,2.009-1.6,2.489-2.519,2.491-.608,0-7.327-.1-7.58-.051.152-.051,1.034-.943.831-1.551s-3.472-1.632-1.522-5.145c2.034-3.661-1.621-3.951-2.33-3.951s-3.253-1.7-2.8-5.222A7.266,7.266,0,0,1-56.211-1184.5Z" transform="translate(69.302 1185.208)" fill="#884c59"/></g></g></g><g transform="translate(20.683 182.487)"><path d="M-93.292-542.09h-8.936a3.976,3.976,0,0,1,3.976-3.976h.984a3.976,3.976,0,0,1,3.976,3.976Z" transform="translate(102.463 546.066)" fill="#444241"/><path d="M3.976,0H4.5A3.927,3.927,0,0,1,8.431,3.927v.049a0,0,0,0,1,0,0H0a0,0,0,0,1,0,0v0A3.976,3.976,0,0,1,3.976,0Z" transform="translate(30 0.232)" fill="#444241"/><rect width="9.171" height="0.901" transform="translate(0 3.976)" fill="#545453"/><rect width="8.653" height="0.901" transform="translate(29.889 4.208)" fill="#545453"/></g></g></g></g><rect width="295" height="295" transform="translate(180 2798)" fill="none"/></g></svg>