<svg xmlns="http://www.w3.org/2000/svg" xmlns:xlink="http://www.w3.org/1999/xlink" width="226.499" height="231.025" viewBox="0 0 226.499 231.025"><defs><linearGradient id="a" x1="0.236" y1="-0.028" x2="0.64" y2="0.78" gradientUnits="objectBoundingBox"><stop offset="0" stop-color="#966acd"/><stop offset="1" stop-color="#431aaa"/></linearGradient><linearGradient id="b" x1="0.45" y1="0.003" x2="0.618" y2="1.319" gradientUnits="objectBoundingBox"><stop offset="0.08" stop-color="#ae62ff"/><stop offset="0.33" stop-color="#ac60fc"/><stop offset="0.484" stop-color="#a65af3"/><stop offset="0.613" stop-color="#9c51e5"/><stop offset="0.727" stop-color="#8e44d0"/><stop offset="0.832" stop-color="#7c33b6"/><stop offset="0.929" stop-color="#661f95"/><stop offset="1" stop-color="#530d79"/></linearGradient><linearGradient id="c" x1="0.326" y1="0.047" x2="0.518" y2="1.006" xlink:href="#b"/><linearGradient id="d" x1="0.34" y1="0.018" x2="0.519" y2="0.994" xlink:href="#b"/><linearGradient id="e" x1="0.501" y1="0.023" x2="0.499" y2="1.091" gradientUnits="objectBoundingBox"><stop offset="0.068" stop-color="#e6e7e8"/><stop offset="0.804" stop-color="#6d6e71"/></linearGradient><linearGradient id="f" x1="0.376" y1="-0.083" x2="0.574" y2="1.274" xlink:href="#b"/></defs><g transform="translate(43.123 0)"><path d="M-360.386-1261.506a39.69,39.69,0,0,0-4.538,6.966,108.389,108.389,0,0,0-11.537,47.611c-.025,3.74.175,7.6,1.8,10.973s5,6.143,8.734,6.006c4.747-.174,9.754-4.691,13.6-1.908,5.338,3.86,3.743,15.864,3.149,21.3-.551,5.055-1.186,10.193-.259,15.192,1.926,10.375,15.047,20.545,25.681,20.421,27.434-.35,59.609,3.016,80.788-3.266,25.955-7.7,43.9-31.47,49.18-57.356,1.213-5.948,1.247-12.887-3.222-17.162-4.555-4.358-11.9-4.192-18.236-3.138s-13.054,2.667-18.99.3c-6.647-2.651-10.4-9.871-10.543-16.788s2.7-13.569,6.069-19.682c10.971-19.9,19.205-33.232,23.492-55.375,1.714-8.854.329-19.574-7.649-24.293-6.438-3.808-14.73-2.836-22-.832-12.411,3.422-15.41,4.436-26.975,9.957-4.122,1.968-8.253,4.9-12.776,5.714s-9.32,2.364-12.627-.712c-2.628-2.444-3.042-4-5.7-6.42-10.736-9.788-26.842,10.275-29.514,19.365-1.788,6.08-7.92,12.439-9.882,18.465C-345.841-1275.375-354.1-1269.39-360.386-1261.506Z" transform="translate(376.463 1345.225)" fill="#e0e0e0"/><path d="M-53.894-1368.215c-1.662,1.841-3.094,4.454-2.049,6.7a5,5,0,0,0,4.69,2.517,14.447,14.447,0,0,0,5.377-1.545,21.422,21.422,0,0,0,6.5-3.828c3.331-3.21,3.656-9.755-1.907-10.838C-45.525-1376.031-51.315-1371.072-53.894-1368.215Z" transform="translate(141.636 1375.297)" fill="#e0e0e0"/><path d="M-336.107-764.8c-.038-3.316-1-7.224-4.051-8.619a6.451,6.451,0,0,0-6.856,1.477,18.221,18.221,0,0,0-3.859,6.222c-1.351,3.035-2.7,6.159-2.9,9.524-.356,6.157,5.236,13.126,11.651,9.429C-337.227-749.581-336.048-759.648-336.107-764.8Z" transform="translate(359.83 934.179)" fill="#e0e0e0"/><path d="M167.807-1058.218c3.087-4.393,7.983-7.279,13.136-8.788,4.088-1.2,8.882-1.474,12.246,1.14a11.554,11.554,0,0,1,3.774,6.1,18.235,18.235,0,0,1-9.359,20.676C174.74-1032.913,158.081-1044.38,167.807-1058.218Z" transform="translate(-20.597 1149.822)" fill="#e0e0e0"/></g><g transform="translate(0 23.968)"><ellipse cx="88.238" cy="10.189" rx="88.238" ry="10.189" transform="translate(50.022 186.679)" fill="#dbdbdb"/><path d="M-492.618-1183.68h-42.029c-6.364,0-11.522-7.724-11.522-17.249v-67.2c0-9.525,5.158-17.247,11.522-17.247h116.623c6.364,0,11.523,7.722,11.523,17.247v67.2c0,9.525-5.159,17.249-11.523,17.249h-74.595Z" transform="translate(546.169 1285.374)" fill="url(#a)"/><path d="M-356.822-1198.517c.02-13.516-10.391-23.192-21.024-23.208a20.063,20.063,0,0,0-19.282,14.171,20.063,20.063,0,0,0-19.24-14.228c-10.633-.016-21.072,9.628-21.093,23.145-.03,20.482,31.354,43.975,39.1,46.439a3.35,3.35,0,0,0,.455.133,2.927,2.927,0,0,0,.638.093c.019,0,.036-.006.055-.007s.035.007.055.007a3,3,0,0,0,.639-.091,3.38,3.38,0,0,0,.456-.132C-388.306-1154.636-356.853-1178.036-356.822-1198.517Z" transform="translate(466.435 1238.732)" fill="#ef3573"/><path d="M-218.248-846.134a4.439,4.439,0,0,0-4.168-4.6,3.978,3.978,0,0,0-3.823,2.81,3.977,3.977,0,0,0-3.814-2.821,4.439,4.439,0,0,0-4.182,4.589c-.006,4.061,6.216,8.718,7.752,9.207a.648.648,0,0,0,.09.026.573.573,0,0,0,.127.018h.022a.584.584,0,0,0,.127-.018.677.677,0,0,0,.09-.026C-224.49-837.434-218.254-842.073-218.248-846.134Z" transform="translate(317.379 966.593)" fill="#ef3573"/><path d="M103.494-1035.585a3.26,3.26,0,0,0-3.061-3.38,2.922,2.922,0,0,0-2.808,2.064,2.921,2.921,0,0,0-2.8-2.072,3.26,3.26,0,0,0-3.071,3.37c0,2.982,4.566,6.4,5.694,6.763a.5.5,0,0,0,.066.019.405.405,0,0,0,.093.013h.016a.417.417,0,0,0,.093-.013.507.507,0,0,0,.066-.019C98.909-1029.2,103.49-1032.6,103.494-1035.585Z" transform="translate(78.281 1104.649)" fill="#ef3573"/><g transform="translate(98.791 26.611)"><path d="M-96.392-559.27l.579,4.169,2.172,1.977,1.871-2.411v-3.736Z" transform="translate(117.486 726.197)" fill="#a8d9ef"/><path d="M6.057-558.449l.612,4.169L8.963-552.3l1.977-2.411v-3.736Z" transform="translate(42.344 725.594)" fill="#a8d9ef"/><g transform="translate(0)"><path d="M-158.5-1069.232l0-24.734a20.757,20.757,0,0,0-6.5,8.963c-.833,2.839-6.795,10.362-8.638,13.943-.838,1.627-1.9,3.2-1.9,5.174a9.238,9.238,0,0,0,1.994,5.277,6.2,6.2,0,0,0,4.008,2.469,8,8,0,0,0,2.008.264c.075,0,.147-.009.222-.011a10.964,10.964,0,0,0,3.1-.274,15,15,0,0,0,5.353-2.9l.267-6.331Z" transform="translate(175.531 1118.374)" fill="url(#b)"/><g transform="translate(11.046)"><g transform="translate(0 19.746)"><g transform="translate(5.842)"><path d="M-85.532-1075l2.4-14.428c3.041-2.873,3.21-7.434,3.21-9.462v-7.6s-10.626-4.922-16.289-4.966c-4.411.26-10.1,2.308-13.312,3.491a3.605,3.605,0,0,0-2.5,3.384v5.526c-1.014,5.914,3.548,9.8,3.548,9.8l.605,14.713Z" transform="translate(112.169 1111.454)" fill="#fff"/></g><g transform="translate(6.069 37.29)"><path d="M-77.417-947.45l3.55,87.025-8.119-.2-12.9-86.358-5.814,85.591h-8.735l-1.878-86.057s.49-22.207,4.045-23.379,21.751-.567,21.751-.567S-78.573-960.462-77.417-947.45Z" transform="translate(111.317 971.552)" fill="#f7f7f7"/></g><rect width="15.831" height="2.006" transform="translate(13.531 36.58)" fill="#8c0e0e"/><g transform="translate(2.043 1.789)"><path d="M-125.973-1056.1l14.479.913-4.42-49.555s-5.539,1.749-7.6,3.686-2.432,27.193-2.91,37.7Z" transform="translate(126.422 1104.742)" fill="url(#c)"/></g><g transform="translate(26.154 1.789)"><path d="M-20.033-1066.113c-.479-10.506-1.937-33.514-4-35.451s-7.977-3.177-7.977-3.177l-3.96,48.641,15.306-.867Z" transform="translate(35.965 1104.742)" fill="url(#d)"/></g><path d="M-63.949-1082.969s4.3,2.045,7.6,0l-3.8,7.241Z" transform="translate(82.644 1090.561)" fill="#ffbda1"/><g transform="translate(5.823 15.733)"><path d="M-112.134-1037.48l.419-13.313a1.688,1.688,0,0,1,1.687-1.635H-87.3a1.688,1.688,0,0,1,1.688,1.7l-.078,15.827h-26.557Z" transform="translate(112.243 1052.428)" fill="url(#e)"/></g><path d="M4.493-1058.209a18.161,18.161,0,0,1-3.682-2.012l-.266-6.331-.078-1.84,2.175-24.429c2.112,1.445,3.364,5.4,4.319,8.658.833,2.839,4.192,9.494,6.036,13.075.837,1.628,1.9,3.2,1.9,5.174a9.607,9.607,0,0,1-1.253,5.573c-.788,1.136-2.858,1.8-4.75,2.174l-1.208.241A5.6,5.6,0,0,1,4.493-1058.209Z" transform="translate(35.398 1097.788)" fill="url(#f)"/><path d="M-134.029-998.376s2.359-4.771,5.927-5.231l-.043,1.557s5.435-.635,5.853-.256c.868.786-4.446,1.545-4.446,1.545s4.6-.4,4.828-.138.349,3.12-.545,3.716-8.918,2.64-9.948,2.12A2.754,2.754,0,0,1-134.029-998.376Z" transform="translate(134.088 1032.353)" fill="#ffbda1"/><path d="M-20.4-1003.765a2.294,2.294,0,0,0-.585-1.254,16.979,16.979,0,0,0-1.945-2.081c-1.519-1.383-3.311-2.8-3.493-3.375-.1-.323-.853.273-.751.6a5.052,5.052,0,0,0,.408,1.166c.192.294,1.234,1.346,1.234,1.346s-5.975-.7-6.366-.289c-.976,1.012,4.419,1.328,4.419,1.328s-4.6-.4-4.828-.138-.349,3.12.545,3.716,7.526,2.2,9.912,1.87C-20.862-1001.016-20.331-1002.154-20.4-1003.765Z" transform="translate(59.558 1037.458)" fill="#ffbda1"/></g><g transform="translate(9.507)"><path d="M-90.995-1168.424s-.924-.474-2.154,1.134c-1.213,1.586-.685,2.178-1.536,3.029-.757.757-1.987.568-2.555,1.987s.757,2.366.378,3.123-1.828,1.331-1.514,2.744c.189.852,1.325.841,2.555.841s15.9-.189,15.9-.189Z" transform="translate(98.42 1173.033)" fill="#884c59"/><path d="M-60.147-1118.141h0s-3.8-.223-3.8-2.164v-9.537h7.6v9.537C-56.346-1118.364-60.147-1118.141-60.147-1118.141Z" transform="translate(73.137 1144.687)" fill="#e79b78"/><path d="M-63.085-1166a7.458,7.458,0,0,1-7.474,7.361A7.361,7.361,0,0,1-77.92-1166a7.361,7.361,0,0,1,7.361-7.361A7.458,7.458,0,0,1-63.085-1166Z" transform="translate(83.384 1176.61)" fill="#ffbda1"/><path d="M-80-1181.275s.476,3.47-1.5,3.795c-1.66.274-2.6.4-3.224,1.265A29.15,29.15,0,0,1-87-1173.252a2.87,2.87,0,0,1-3.759.831c-1.579-.7-1.828-4.264-.028-5.168,1.182-.594.754-2.826,1.3-3.8.65-1.171,1.741-.7,1.889-1.067a5.33,5.33,0,0,1,2.616-2.613C-84.014-1185.481-78.988-1186.914-80-1181.275Z" transform="translate(93.746 1185.537)" fill="#884c59"/><path d="M-56.308-1184.536a1.287,1.287,0,0,1,.921-.5c3.4-.246,7.228.642,7.95,4.686.252,1.41-.415,2.359,1.12,2.839,2.2.687,2.341,1.6,2.394,2.558.074,1.323-.826,2.294-.258,3.24s1.207.776,1.428,2.055c.323,1.877-1.5,2.324-2.353,2.327-.568,0-6.843-.095-7.08-.047.142-.047.966-.881.776-1.449s-3.243-1.525-1.421-4.805c1.9-3.42-1.514-3.69-2.176-3.69s-3.038-1.587-2.619-4.878A6.786,6.786,0,0,1-56.308-1184.536Z" transform="translate(68.535 1185.2)" fill="#884c59"/></g></g></g><g transform="translate(19.319 170.446)"><path d="M-93.882-542.352h-8.346a3.714,3.714,0,0,1,3.713-3.714h.919a3.714,3.714,0,0,1,3.713,3.714Z" transform="translate(102.448 546.066)" fill="#444241"/><path d="M3.714,0h.493A3.668,3.668,0,0,1,7.875,3.668v.046a0,0,0,0,1,0,0H0a0,0,0,0,1,0,0v0A3.714,3.714,0,0,1,3.714,0Z" transform="translate(28.02 0.217)" fill="#444241"/><rect width="8.566" height="0.842" transform="translate(0 3.714)" fill="#545453"/><rect width="8.082" height="0.842" transform="translate(27.917 3.931)" fill="#545453"/></g></g></g></svg>