<svg xmlns="http://www.w3.org/2000/svg" width="96" height="96" viewBox="0 0 96 96"><g transform="translate(-752 -2550)"><circle cx="48" cy="48" r="48" transform="translate(752 2550)" fill="#ffeb8d"/><g transform="translate(721.061 2569.776)"><path d="M284.356,350.161h-9.7a1.654,1.654,0,1,0,0,3.307h9.7a1.654,1.654,0,1,0,0-3.307Z" transform="translate(-192.186 -311.556)" fill="#dbbe36"/><path d="M284.356,232.95h-9.7a1.654,1.654,0,0,0,0,3.307h9.7a1.654,1.654,0,1,0,0-3.307Z" transform="translate(-192.186 -207.268)" fill="#dbbe36"/><path d="M129.885,209.384a1.654,1.654,0,0,0-2.329.209l-2.792,3.344-.634-1.265a1.654,1.654,0,1,0-2.957,1.482l1.764,3.521a1.654,1.654,0,0,0,2.748.319l4.41-5.281A1.654,1.654,0,0,0,129.885,209.384Z" transform="translate(-56.942 -185.958)" fill="#dbbe36"/><path d="M128.024,321.207a1.654,1.654,0,0,0-2.307.384l-.859,1.2-.859-1.2a1.654,1.654,0,0,0-2.691,1.923l1.518,2.126-1.518,2.126A1.654,1.654,0,1,0,124,329.688l.859-1.2.859,1.2a1.654,1.654,0,0,0,2.691-1.923l-1.518-2.126,1.518-2.126a1.654,1.654,0,0,0-.384-2.307Z" transform="translate(-56.943 -285.52)" fill="#dbbe36"/><path d="M94.705,5.672V4.961A4.967,4.967,0,0,0,89.744,0H68.135a4.967,4.967,0,0,0-4.961,4.961v.711a8.291,8.291,0,0,0-6.174,8V48.179a8.278,8.278,0,0,0,8.269,8.269H92.61a8.278,8.278,0,0,0,8.269-8.269V13.671a8.291,8.291,0,0,0-6.174-8ZM66.481,4.961a1.656,1.656,0,0,1,1.654-1.654H89.744A1.656,1.656,0,0,1,91.4,4.961V9.04a1.656,1.656,0,0,1-1.654,1.654H68.135A1.656,1.656,0,0,1,66.481,9.04Zm31.09,43.217A4.967,4.967,0,0,1,92.61,53.14H65.269a4.967,4.967,0,0,1-4.961-4.961V13.671a4.974,4.974,0,0,1,2.87-4.5A4.966,4.966,0,0,0,68.135,14H89.744A4.966,4.966,0,0,0,94.7,9.173a4.974,4.974,0,0,1,2.87,4.5Z" fill="#dbbe36"/></g></g></svg>