<svg xmlns="http://www.w3.org/2000/svg" width="46.328" height="34.746" viewBox="0 0 46.328 34.746"><path d="M10.93,80.649c-2.349,0-4.054,1.52-4.054,3.615s1.7,3.615,4.054,3.615l.918.009c3.548,0,4.077-1.819,4.077-2.9,0-2.233-2.814-4.336-4.995-4.336Zm.918,5.067c-.318,0-.635-.009-.918-.009-1.129,0-1.882-.577-1.882-1.443s.753-1.443,1.882-1.443,2.823,1.3,2.823,2.165C13.753,85.635,12.8,85.716,11.848,85.716ZM35.4,80.649c-2.181,0-4.994,2.1-4.994,4.337,0,1.084.529,2.9,4.077,2.9l.918-.009c2.349,0,4.054-1.52,4.054-3.615S37.744,80.649,35.4,80.649Zm0,5.058c-.282,0-.6.009-.918.009-.953,0-1.906-.081-1.906-.73,0-.866,1.694-2.165,2.823-2.165s1.882.577,1.882,1.443-.753,1.443-1.882,1.443ZM45.783,72.954A3.6,3.6,0,0,0,42.7,71.238H38.21L37.48,69A7.239,7.239,0,0,0,30.6,64H15.728a7.238,7.238,0,0,0-6.882,5l-.73,2.24H3.622A3.619,3.619,0,0,0,.384,76.474l.523,1.051A4.219,4.219,0,0,0,2.446,79.2a7.1,7.1,0,0,0-1,3.617V94.4a4.348,4.348,0,0,0,4.343,4.343H7.238A4.348,4.348,0,0,0,11.582,94.4V92.955H34.745V94.4a4.348,4.348,0,0,0,4.343,4.343h1.448A4.348,4.348,0,0,0,44.879,94.4V82.82a7.1,7.1,0,0,0-1-3.618,4.212,4.212,0,0,0,1.538-1.68l.523-1.046A3.6,3.6,0,0,0,45.783,72.954ZM11.6,69.894a4.334,4.334,0,0,1,4.13-3H30.6a4.334,4.334,0,0,1,4.13,3L36.58,75.58H9.747ZM3.5,76.23l-.523-1.049a.718.718,0,0,1,.031-.7.7.7,0,0,1,.616-.344H7.172l-.584,1.793a7.3,7.3,0,0,0-2.082,1.022A1.406,1.406,0,0,1,3.5,76.23ZM8.686,94.4a1.45,1.45,0,0,1-1.448,1.448H5.791A1.45,1.45,0,0,1,4.343,94.4V92.955H8.686Zm33.3,0a1.45,1.45,0,0,1-1.448,1.448H39.087A1.45,1.45,0,0,1,37.639,94.4V92.955h4.343Zm0-7.24v2.9H4.343V82.82a4.348,4.348,0,0,1,4.343-4.343H37.639a4.348,4.348,0,0,1,4.343,4.343v4.343Zm1.368-11.981-.523,1.045a1.4,1.4,0,0,1-1.009.721,7.289,7.289,0,0,0-2.082-1.022l-.584-1.793H42.7a.7.7,0,0,1,.616.344.714.714,0,0,1,.031.7Z" transform="translate(0.001 -64)" fill="#db6e5f"/></svg>