<svg xmlns="http://www.w3.org/2000/svg" width="185" height="185" viewBox="0 0 185 185"><g transform="translate(-1210 -490)"><g transform="translate(1220 500)" fill="#fff" stroke="#bae4f8" stroke-linejoin="round" stroke-width="10"><circle cx="82.5" cy="82.5" r="82.5" stroke="none"/><circle cx="82.5" cy="82.5" r="87.5" fill="none"/></g><g transform="translate(1223.502 511.447)"><path d="M139.227,121.582a68,68,0,1,0-120.458,0Z" transform="translate(0 -15.891)" fill="#6cf"/><path d="M221.35,252.405c-4.214-2.83-11.206-6-21.417-6-10.305,0-17.333,3.225-21.536,6.076v.132a2.788,2.788,0,0,1,2.312.1,40.746,40.746,0,0,0,38.44.007,2.784,2.784,0,0,1,2.2-.138Z" transform="translate(-120.938 -178.019)" fill="#ff4155"/><path d="M228.776,308.193a21.246,21.246,0,0,0-3.158-1.205l-18.082-6.9q-1.466-.6-2.961-1.13a30.954,30.954,0,0,1-24.737,11.633,33.913,33.913,0,0,1-7.119-.736c.037.081.071.161.11.243a50.629,50.629,0,0,0-10.759,2.93c-7.515,3.072-11.487,7.568-11.487,13v11.11H221.2V325.147c0-8.166,5.654-13.188,9.729-15.748a19.887,19.887,0,0,0-2.148-1.206Z" transform="translate(-100.843 -215.982)" fill="#ff637b"/><path d="M94.185,337.142V326.032c0-12.839,22.456-15.6,22.456-15.6q-.122-.239-.233-.474a30.7,30.7,0,0,1-18.12-10.995q-1.491.525-2.95,1.125L77.237,307a21.278,21.278,0,0,0-3.132,1.2,19.832,19.832,0,0,0-2.163,1.213c4.075,2.56,9.729,7.583,9.729,15.748v11.989H94.185Z" transform="translate(-44.029 -215.987)" fill="#e63950"/><path d="M150.583,434.517v14.9A68.033,68.033,0,0,0,221.2,442v-7.482H150.583Z" transform="translate(-100.843 -313.917)" fill="#e63950"/><path d="M119.51,434.517H107V442a68.03,68.03,0,0,0,12.514,7.615Z" transform="translate(-69.354 -313.917)" fill="#e63950"/><path d="M215.229,259.723a42.793,42.793,0,0,0,15.665-3.171,28.617,28.617,0,0,1-1.1-7.282,31.1,31.1,0,0,1-4.488,4.29,16.447,16.447,0,0,1-20.14,0,31.128,31.128,0,0,1-4.489-4.29,28.619,28.619,0,0,1-1.1,7.282,42.775,42.775,0,0,0,15.659,3.171Z" transform="translate(-136.234 -180.085)" fill="#ffaa7b"/><path d="M259.552,272.653l-2.593-4.3a2.805,2.805,0,0,0-3.67-1.059,43.83,43.83,0,0,1-19.217,4.815c-.843,0-1.673-.031-2.488-.087a11.886,11.886,0,0,0-5.384,6.084c-.952,2.684-.661,5.674.864,8.9-.154.024-.337.053-.545.088a34.194,34.194,0,0,0,7.554.822,31.35,31.35,0,0,0,25.312-12.11A2.807,2.807,0,0,0,259.552,272.653Z" transform="translate(-155.078 -192.889)" fill="#f9a0b1"/><path d="M165.708,268.33l-2.59,4.3a2.806,2.806,0,0,0,.169,3.149,31.091,31.091,0,0,0,18.933,11.536c-5.483-10.745,4.713-15.263,4.713-15.263h0a44.441,44.441,0,0,1-17.553-4.782A2.805,2.805,0,0,0,165.708,268.33Z" transform="translate(-109.607 -192.871)" fill="#ff7186"/><path d="M48.411,335.94c-4.781,2.964-7.677,7.6-9.415,12.451a68.305,68.305,0,0,0,19.428,22.817V351.866c0-8.357-5.923-13.424-10.014-15.926Z" transform="translate(-20.227 -242.7)" fill="#ff637b"/><path d="M413.017,335.94c-4.091,2.5-10.014,7.569-10.014,15.926v19.342a68.305,68.305,0,0,0,19.428-22.817C420.694,343.537,417.8,338.9,413.017,335.94Z" transform="translate(-283.204 -242.7)" fill="#ff7186"/><g transform="translate(52.575 0)"><path d="M182.352.3C167.731,2.3,166.341,10.586,166.335,13.627a1.674,1.674,0,0,1-.928,1.508c-7.605,3.7-3.5,22.087-3.5,22.087a9.648,9.648,0,0,1,2.714.649,18.612,18.612,0,0,1,.721-3.223,11.171,11.171,0,0,1,.978-1.953,6,6,0,0,0,.918-3.665c-.273-3.72-.7-10.495,4.214-12.7,4.16-1.872,9.263-.788,12.517.294a10.333,10.333,0,0,0,6.516,0c3.254-1.082,8.357-2.166,12.517-.294,4.9,2.2,4.486,8.943,4.216,12.673a6.057,6.057,0,0,0,.915,3.7,11.245,11.245,0,0,1,1,2.017,18.774,18.774,0,0,1,.7,3.16,7.377,7.377,0,0,1,3.3-.631c.112-3.9.472-8.658.472-8.658C217.932,7.361,198.1-1.841,182.352.3Z" transform="translate(-160.798 0)" fill="#945230"/></g><path d="M184.423,16.767a5.833,5.833,0,0,0-.46-.7c-5.767-7.386-.36-13.51,2.624-16.06a33.555,33.555,0,0,0-4.235.3C167.731,2.3,166.341,10.594,166.334,13.636a1.674,1.674,0,0,1-.928,1.508c-7.606,3.7-3.5,22.087-3.5,22.087a9.648,9.648,0,0,1,2.714.649,18.614,18.614,0,0,1,.721-3.223,11.188,11.188,0,0,1,.978-1.953,6,6,0,0,0,.918-3.665c-.273-3.72-.7-10.495,4.213-12.7,4.16-1.872,9.263-.788,12.517.294C184.115,16.678,184.269,16.724,184.423,16.767Z" transform="translate(-108.223 -0.009)" fill="#753616"/><path d="M387.617,77.746c-4.932,3.371-8.665,8.532-7.365,16.292,3.406,20.331-12.281,30.7,12.235,41.6,8.716,3.876,14.206,8.41,17.625,12.286a68.085,68.085,0,0,0-22.495-70.183Z" transform="translate(-265.433 -56.168)" fill="#6cf"/><path d="M35.811,77.746c4.932,3.371,8.665,8.532,7.365,16.292-3.406,20.331,12.281,30.7-12.235,41.6-8.716,3.876-14.206,8.41-17.625,12.286A68.085,68.085,0,0,1,35.811,77.746Z" transform="translate(0 -56.168)" fill="#6cf"/><g transform="translate(50.172 14.752)"><path d="M340.049,132.459c-1.139-1.044-3.685-.515-4.666.124a13.792,13.792,0,0,1,.042,4.059l-1.157,8.43q0,1.019-.061,2c2.822.851,4.5-1.683,4.738-3.421a12.926,12.926,0,0,1,.5-2.206C340.194,139.1,342.9,135.074,340.049,132.459Z" transform="translate(-283.674 -110.02)" fill="#ffaa7b"/><path d="M153.418,132.459c1.139-1.044,3.685-.515,4.666.124a13.783,13.783,0,0,0-.041,4.059l1.157,8.43q0,1.019.061,2c-2.822.851-4.5-1.683-4.738-3.421a12.926,12.926,0,0,0-.5-2.206C153.273,139.1,150.564,135.074,153.418,132.459Z" transform="translate(-152.14 -110.02)" fill="#fc9460"/><path d="M251.349,73.111a11.263,11.263,0,0,0-1-2.017,6.059,6.059,0,0,1-.915-3.7c.27-3.73.125-11.025-4.771-13.228-4.16-1.872-9.262-.788-12.516.294a10.336,10.336,0,0,1-6.517,0c-.168-.056-.343-.112-.521-.168-3.964,2.749-4.063,9.376-3.806,12.87a6.091,6.091,0,0,1-.932,3.721,11.364,11.364,0,0,0-.993,1.983A13.684,13.684,0,0,0,218.6,79.7l1.175,8.56a31.448,31.448,0,0,0,12.157,25.01,16.583,16.583,0,0,0,3.019,1.855,16.347,16.347,0,0,0,4-2.283A30.977,30.977,0,0,0,250.93,88.2l1.157-8.43A13.494,13.494,0,0,0,251.349,73.111Z" transform="translate(-200.059 -53.152)" fill="#ffc7ab"/><g transform="translate(5.494)"><path d="M198.368,112.838A30.977,30.977,0,0,1,186.393,88.2l-1.158-8.432A13.476,13.476,0,0,1,186,73.046a11.171,11.171,0,0,1,.978-1.953,6,6,0,0,0,.918-3.665c-.262-3.562-.149-10.431,4.172-12.948l-.057-.018c-3.254-1.082-8.357-2.166-12.516-.294-4.91,2.209-5.042,9.54-4.769,13.26a6,6,0,0,1-.918,3.665,11.189,11.189,0,0,0-.978,1.953,13.479,13.479,0,0,0-.763,6.725l1.158,8.432A30.977,30.977,0,0,0,185.2,112.838a16.457,16.457,0,0,0,16.655,2.069A16.328,16.328,0,0,1,198.368,112.838Z" transform="translate(-171.935 -53.151)" fill="#ffaa7b"/></g><path d="M220.913,181.242a11.869,11.869,0,0,1-6.305,6.489c-.644-3.838-3.413-7.681-7.11-8.519l-5.651-1.66a1.985,1.985,0,0,0-2.361,1.071.2.2,0,0,1-.363,0,1.985,1.985,0,0,0-2.361-1.071l-5.651,1.66c-3.77.855-6.577,4.834-7.147,8.746a11.755,11.755,0,0,1-6.828-6.717h0a17.473,17.473,0,0,0,.3,3.206c2.4,12.865,9.882,17.867,15.538,20.749a13.3,13.3,0,0,0,12.065,0c5.655-2.879,13.173-7.881,15.578-20.749A17.475,17.475,0,0,0,220.913,181.242ZM205.6,195.786a4.024,4.024,0,0,1-5.386-3.2c0-.033-.008-.066-.011-.1a.93.93,0,0,0-1.851,0c0,.033-.007.066-.011.1a4.024,4.024,0,0,1-5.386,3.2,8.488,8.488,0,0,1-5.393-5.053,12.741,12.741,0,0,1,7.539-4.927l1.009-.223a4.481,4.481,0,0,0,3.026-3.291.179.179,0,0,1,.346,0,4.48,4.48,0,0,0,3.026,3.291l1.009.223a12.743,12.743,0,0,1,7.241,4.532A7.426,7.426,0,0,1,205.6,195.786Z" transform="translate(-170.199 -142.966)" fill="#945230"/><path d="M195.462,201.135a4.144,4.144,0,0,1-2.511-.08A8.488,8.488,0,0,1,187.557,196a12.777,12.777,0,0,1,3.815-3.459c-4.2-2.753-1.661-7.06-1.193-7.779-3.3,1.245-5.693,4.881-6.216,8.464a11.755,11.755,0,0,1-6.828-6.717h0a17.473,17.473,0,0,0,.3,3.206c2.4,12.865,9.882,17.867,15.538,20.749a13.3,13.3,0,0,0,8.993,1.113C194.051,209.44,195.149,202.543,195.462,201.135Z" transform="translate(-170.198 -148.235)" fill="#753616"/></g></g></g></svg>