<svg xmlns="http://www.w3.org/2000/svg" width="96" height="96" viewBox="0 0 96 96"><g transform="translate(-332 -2550)"><circle cx="48" cy="48" r="48" transform="translate(332 2550)" fill="#ffeb8d"/><g transform="translate(351 2570)"><path d="M159.034,221.245H155.34v1.732h3.695a2.832,2.832,0,0,1,2.829,2.829v8.371h-3.81v-3.752h-1.732v3.752H143.274v-3.752h-1.732v3.752h-3.81v-8.371a2.832,2.832,0,0,1,2.829-2.829h5.6v.058a3.637,3.637,0,1,0,7.274,0v-3.8a7.354,7.354,0,0,0,3.532-4.826,2.713,2.713,0,1,0,.163-4.988v-2.089a7.332,7.332,0,0,0-14.663,0v2.089a2.713,2.713,0,1,0,.163,4.988,7.354,7.354,0,0,0,3.532,4.826v2.009h-5.6A4.566,4.566,0,0,0,136,225.805v10.1h27.595v-10.1A4.566,4.566,0,0,0,159.034,221.245Zm-.924-10.276a.981.981,0,1,1-.981.981A.983.983,0,0,1,158.111,210.969Zm-8.313-9.237a5.606,5.606,0,0,1,5.593,5.35l-1.54-1.54h-8.107l-1.54,1.54A5.606,5.606,0,0,1,149.8,201.732Zm-8.313,11.2a.981.981,0,1,1,.981-.981A.983.983,0,0,1,141.484,212.932Zm2.713-.058v-3.336l2.264-2.264h6.672l2.264,2.264v3.336a5.6,5.6,0,0,1-11.2,0Zm5.6,7.332a7.31,7.31,0,0,0,1.905-.253v3.081a1.905,1.905,0,1,1-3.81,0v-3.081A7.31,7.31,0,0,0,149.8,220.205Z" transform="translate(-120.297 -176.908)" fill="#dbbe36"/><path d="M215.5,64h1.847v1.732H215.5Z" transform="translate(-190.618 -56.611)" fill="#dbbe36"/><path d="M247.5,64h1.847v1.732H247.5Z" transform="translate(-218.924 -56.611)" fill="#dbbe36"/><path d="M279.5,64h1.847v1.732H279.5Z" transform="translate(-247.229 -56.611)" fill="#dbbe36"/><path d="M57.21,3.695H40.526V1.79A1.792,1.792,0,0,0,38.737,0H20.263a1.792,1.792,0,0,0-1.79,1.79V14.721a1.792,1.792,0,0,0,1.79,1.79h.058v1.905a.058.058,0,0,1-.058.058H1.79a.058.058,0,0,1-.058-.058V5.484a.058.058,0,0,1,.058-.058H16.568V3.695H1.79A1.792,1.792,0,0,0,0,5.484V18.416a1.792,1.792,0,0,0,1.79,1.79H8.854a3.637,3.637,0,1,0,6.193,0h5.217a1.792,1.792,0,0,0,1.79-1.79V16.511H35.042V14.779H20.263a.058.058,0,0,1-.058-.058V1.79a.058.058,0,0,1,.058-.058H38.737a.058.058,0,0,1,.058.058V3.695h-.058a1.792,1.792,0,0,0-1.79,1.79V18.416a1.792,1.792,0,0,0,1.79,1.79h5.217a3.637,3.637,0,1,0,6.193,0H57.21A1.792,1.792,0,0,0,59,18.416V5.484A1.792,1.792,0,0,0,57.21,3.695ZM13.855,22.111a1.905,1.905,0,1,1-1.905-1.905A1.907,1.907,0,0,1,13.855,22.111Zm35.1,0a1.905,1.905,0,1,1-1.905-1.905A1.907,1.907,0,0,1,48.955,22.111Zm8.313-3.695a.058.058,0,0,1-.058.058H38.737a.058.058,0,0,1-.058-.058V5.484a.058.058,0,0,1,.058-.058H57.21a.058.058,0,0,1,.058.058Z" fill="#dbbe36"/><path d="M48.664,64.221V59.6h2.148l-2.148-2.148V54.119H46.932v1.6L44.1,52.894,37.394,59.6h2.148v4.618Zm-1.732-1.732H41.274V59.6h5.658ZM44.1,55.343l2.528,2.528H41.575Z" transform="translate(-33.076 -46.787)" fill="#dbbe36"/><path d="M352,73.121h14.663V64H352Zm7.332-6.466a1.905,1.905,0,1,1-1.905,1.905A1.907,1.907,0,0,1,359.332,66.656Zm5.6,4.734h-3.317a3.631,3.631,0,0,0,0-5.658h3.317Zm-11.2-5.658h3.317a3.631,3.631,0,0,0,0,5.658h-3.317Z" transform="translate(-311.358 -56.611)" fill="#dbbe36"/><path d="M133.427,218.713a2.713,2.713,0,1,0-2.713,2.713A2.716,2.716,0,0,0,133.427,218.713Zm-3.695,0a.981.981,0,1,1,.981.981A.983.983,0,0,1,129.732,218.713Z" transform="translate(-113.221 -191.061)" fill="#dbbe36"/><path d="M338.713,216a2.713,2.713,0,1,0,2.713,2.713A2.716,2.716,0,0,0,338.713,216Zm0,3.695a.981.981,0,1,1,.981-.981A.983.983,0,0,1,338.713,219.695Z" transform="translate(-297.205 -191.061)" fill="#dbbe36"/></g></g></svg>