<svg xmlns="http://www.w3.org/2000/svg" width="820" height="662.951" viewBox="0 0 820 662.951"><g transform="translate(-390 -2419.352)"><g transform="translate(214.388 2241.732)"><g transform="translate(882.518 552.691)" opacity="0.4"><path d="M2056.131,1149.051a49.635,49.635,0,1,1-49.636,49.635,49.641,49.641,0,0,1,49.636-49.635Z" transform="translate(-2006.495 -1149.051)" fill="#fbfbfb" fill-rule="evenodd"/><path d="M2058.075,1151.089a48.658,48.658,0,1,1-48.658,48.658,48.664,48.664,0,0,1,48.658-48.658Z" transform="translate(-2008.289 -1150.302)" fill="#f9f9f9" fill-rule="evenodd"/><path d="M2060.02,1153.128a47.68,47.68,0,1,1-47.679,47.68,47.685,47.685,0,0,1,47.679-47.68Z" transform="translate(-2010.084 -1151.554)" fill="#f6f6f7" fill-rule="evenodd"/><path d="M2061.964,1155.167a46.7,46.7,0,1,1-46.7,46.7,46.708,46.708,0,0,1,46.7-46.7Z" transform="translate(-2011.877 -1152.806)" fill="#f4f4f4" fill-rule="evenodd"/><path d="M2063.908,1157.2a45.724,45.724,0,1,1-45.724,45.724,45.729,45.729,0,0,1,45.724-45.724Z" transform="translate(-2013.671 -1154.057)" fill="#f1f1f2" fill-rule="evenodd"/><path d="M2065.852,1159.244a44.746,44.746,0,1,1-44.746,44.746,44.751,44.751,0,0,1,44.746-44.746Z" transform="translate(-2015.465 -1155.308)" fill="#eeefef" fill-rule="evenodd"/><path d="M2067.8,1161.283a43.768,43.768,0,1,1-43.767,43.768,43.772,43.772,0,0,1,43.767-43.768Z" transform="translate(-2017.259 -1156.56)" fill="#ececed" fill-rule="evenodd"/><path d="M2069.74,1163.322a42.79,42.79,0,1,1-42.79,42.79,42.794,42.794,0,0,1,42.79-42.79Z" transform="translate(-2019.053 -1157.812)" fill="#e9eaea" fill-rule="evenodd"/><path d="M2071.685,1165.36a41.812,41.812,0,1,1-41.812,41.812,41.817,41.817,0,0,1,41.812-41.812Z" transform="translate(-2020.847 -1159.063)" fill="#e7e7e8" fill-rule="evenodd"/><path d="M2073.628,1167.4a40.834,40.834,0,1,1-40.833,40.833,40.839,40.839,0,0,1,40.833-40.833Z" transform="translate(-2022.641 -1160.315)" fill="#e4e5e5" fill-rule="evenodd"/><path d="M2075.573,1169.438a39.856,39.856,0,1,1-39.856,39.856,39.86,39.86,0,0,1,39.856-39.856Z" transform="translate(-2024.434 -1161.567)" fill="#e2e2e3" fill-rule="evenodd"/><path d="M2077.517,1171.476a38.878,38.878,0,1,1-38.877,38.878,38.882,38.882,0,0,1,38.877-38.878Z" transform="translate(-2026.229 -1162.818)" fill="#dfe0e1" fill-rule="evenodd"/><path d="M2079.462,1173.515a37.9,37.9,0,1,1-37.9,37.9,37.9,37.9,0,0,1,37.9-37.9Z" transform="translate(-2028.022 -1164.069)" fill="#ddddde" fill-rule="evenodd"/><path d="M2081.406,1175.554a36.922,36.922,0,1,1-36.922,36.922,36.926,36.926,0,0,1,36.922-36.922Z" transform="translate(-2029.816 -1165.321)" fill="#dadbdc" fill-rule="evenodd"/><path d="M2083.35,1177.593a35.944,35.944,0,1,1-35.944,35.944,35.948,35.948,0,0,1,35.944-35.944Z" transform="translate(-2031.61 -1166.573)" fill="#d7d8d9" fill-rule="evenodd"/><path d="M2085.295,1179.631a34.966,34.966,0,1,1-34.966,34.966,34.97,34.97,0,0,1,34.966-34.966Z" transform="translate(-2033.405 -1167.824)" fill="#d5d6d7" fill-rule="evenodd"/><path d="M2087.239,1181.67a33.988,33.988,0,1,1-33.988,33.988,33.992,33.992,0,0,1,33.988-33.988Z" transform="translate(-2035.198 -1169.076)" fill="#d2d3d4" fill-rule="evenodd"/><path d="M2089.182,1183.709a33.01,33.01,0,1,1-33.009,33.01,33.014,33.014,0,0,1,33.009-33.01Z" transform="translate(-2036.992 -1170.327)" fill="#d0d1d2" fill-rule="evenodd"/><path d="M2091.126,1185.748a32.032,32.032,0,1,1-32.032,32.032,32.035,32.035,0,0,1,32.032-32.032Z" transform="translate(-2038.786 -1171.58)" fill="#cdced0" fill-rule="evenodd"/><path d="M2093.072,1187.786a31.054,31.054,0,1,1-31.054,31.054,31.058,31.058,0,0,1,31.054-31.054Z" transform="translate(-2040.58 -1172.83)" fill="#cbcccd" fill-rule="evenodd"/><path d="M2095.016,1189.825a30.076,30.076,0,1,1-30.076,30.076,30.079,30.079,0,0,1,30.076-30.076Z" transform="translate(-2042.374 -1174.082)" fill="#c8c9cb" fill-rule="evenodd"/><path d="M2096.96,1191.864a29.1,29.1,0,1,1-29.1,29.1,29.1,29.1,0,0,1,29.1-29.1Z" transform="translate(-2044.168 -1175.334)" fill="#c6c7c8" fill-rule="evenodd"/></g><g transform="translate(630.04 552.691)" opacity="0.4"><path d="M2056.131,1149.051a49.635,49.635,0,1,1-49.636,49.635,49.641,49.641,0,0,1,49.636-49.635Z" transform="translate(-2006.495 -1149.051)" fill="#fbfbfb" fill-rule="evenodd"/><path d="M2058.075,1151.089a48.658,48.658,0,1,1-48.658,48.658,48.664,48.664,0,0,1,48.658-48.658Z" transform="translate(-2008.289 -1150.302)" fill="#f9f9f9" fill-rule="evenodd"/><path d="M2060.02,1153.128a47.68,47.68,0,1,1-47.679,47.68,47.685,47.685,0,0,1,47.679-47.68Z" transform="translate(-2010.084 -1151.554)" fill="#f6f6f7" fill-rule="evenodd"/><path d="M2061.964,1155.167a46.7,46.7,0,1,1-46.7,46.7,46.708,46.708,0,0,1,46.7-46.7Z" transform="translate(-2011.877 -1152.806)" fill="#f4f4f4" fill-rule="evenodd"/><path d="M2063.908,1157.2a45.724,45.724,0,1,1-45.724,45.724,45.729,45.729,0,0,1,45.724-45.724Z" transform="translate(-2013.671 -1154.057)" fill="#f1f1f2" fill-rule="evenodd"/><path d="M2065.852,1159.244a44.746,44.746,0,1,1-44.746,44.746,44.751,44.751,0,0,1,44.746-44.746Z" transform="translate(-2015.465 -1155.308)" fill="#eeefef" fill-rule="evenodd"/><path d="M2067.8,1161.283a43.768,43.768,0,1,1-43.767,43.768,43.772,43.772,0,0,1,43.767-43.768Z" transform="translate(-2017.259 -1156.56)" fill="#ececed" fill-rule="evenodd"/><path d="M2069.74,1163.322a42.79,42.79,0,1,1-42.79,42.79,42.794,42.794,0,0,1,42.79-42.79Z" transform="translate(-2019.053 -1157.812)" fill="#e9eaea" fill-rule="evenodd"/><path d="M2071.685,1165.36a41.812,41.812,0,1,1-41.812,41.812,41.817,41.817,0,0,1,41.812-41.812Z" transform="translate(-2020.847 -1159.063)" fill="#e7e7e8" fill-rule="evenodd"/><path d="M2073.628,1167.4a40.834,40.834,0,1,1-40.833,40.833,40.839,40.839,0,0,1,40.833-40.833Z" transform="translate(-2022.641 -1160.315)" fill="#e4e5e5" fill-rule="evenodd"/><path d="M2075.573,1169.438a39.856,39.856,0,1,1-39.856,39.856,39.86,39.86,0,0,1,39.856-39.856Z" transform="translate(-2024.434 -1161.567)" fill="#e2e2e3" fill-rule="evenodd"/><path d="M2077.517,1171.476a38.878,38.878,0,1,1-38.877,38.878,38.882,38.882,0,0,1,38.877-38.878Z" transform="translate(-2026.229 -1162.818)" fill="#dfe0e1" fill-rule="evenodd"/><path d="M2079.462,1173.515a37.9,37.9,0,1,1-37.9,37.9,37.9,37.9,0,0,1,37.9-37.9Z" transform="translate(-2028.022 -1164.069)" fill="#ddddde" fill-rule="evenodd"/><path d="M2081.406,1175.554a36.922,36.922,0,1,1-36.922,36.922,36.926,36.926,0,0,1,36.922-36.922Z" transform="translate(-2029.816 -1165.321)" fill="#dadbdc" fill-rule="evenodd"/><path d="M2083.35,1177.593a35.944,35.944,0,1,1-35.944,35.944,35.948,35.948,0,0,1,35.944-35.944Z" transform="translate(-2031.61 -1166.573)" fill="#d7d8d9" fill-rule="evenodd"/><path d="M2085.295,1179.631a34.966,34.966,0,1,1-34.966,34.966,34.97,34.97,0,0,1,34.966-34.966Z" transform="translate(-2033.405 -1167.824)" fill="#d5d6d7" fill-rule="evenodd"/><path d="M2087.239,1181.67a33.988,33.988,0,1,1-33.988,33.988,33.992,33.992,0,0,1,33.988-33.988Z" transform="translate(-2035.198 -1169.076)" fill="#d2d3d4" fill-rule="evenodd"/><path d="M2089.182,1183.709a33.01,33.01,0,1,1-33.009,33.01,33.014,33.014,0,0,1,33.009-33.01Z" transform="translate(-2036.992 -1170.327)" fill="#d0d1d2" fill-rule="evenodd"/><path d="M2091.126,1185.748a32.032,32.032,0,1,1-32.032,32.032,32.035,32.035,0,0,1,32.032-32.032Z" transform="translate(-2038.786 -1171.58)" fill="#cdced0" fill-rule="evenodd"/><path d="M2093.072,1187.786a31.054,31.054,0,1,1-31.054,31.054,31.058,31.058,0,0,1,31.054-31.054Z" transform="translate(-2040.58 -1172.83)" fill="#cbcccd" fill-rule="evenodd"/><path d="M2095.016,1189.825a30.076,30.076,0,1,1-30.076,30.076,30.079,30.079,0,0,1,30.076-30.076Z" transform="translate(-2042.374 -1174.082)" fill="#c8c9cb" fill-rule="evenodd"/><path d="M2096.96,1191.864a29.1,29.1,0,1,1-29.1,29.1,29.1,29.1,0,0,1,29.1-29.1Z" transform="translate(-2044.168 -1175.334)" fill="#c6c7c8" fill-rule="evenodd"/></g><g transform="translate(397.778 552.691)" opacity="0.4"><path d="M2056.131,1149.051a49.635,49.635,0,1,1-49.636,49.635,49.641,49.641,0,0,1,49.636-49.635Z" transform="translate(-2006.495 -1149.051)" fill="#fbfbfb" fill-rule="evenodd"/><path d="M2058.075,1151.089a48.658,48.658,0,1,1-48.658,48.658,48.664,48.664,0,0,1,48.658-48.658Z" transform="translate(-2008.289 -1150.302)" fill="#f9f9f9" fill-rule="evenodd"/><path d="M2060.02,1153.128a47.68,47.68,0,1,1-47.679,47.68,47.685,47.685,0,0,1,47.679-47.68Z" transform="translate(-2010.084 -1151.554)" fill="#f6f6f7" fill-rule="evenodd"/><path d="M2061.964,1155.167a46.7,46.7,0,1,1-46.7,46.7,46.708,46.708,0,0,1,46.7-46.7Z" transform="translate(-2011.877 -1152.806)" fill="#f4f4f4" fill-rule="evenodd"/><path d="M2063.908,1157.2a45.724,45.724,0,1,1-45.724,45.724,45.729,45.729,0,0,1,45.724-45.724Z" transform="translate(-2013.671 -1154.057)" fill="#f1f1f2" fill-rule="evenodd"/><path d="M2065.852,1159.244a44.746,44.746,0,1,1-44.746,44.746,44.751,44.751,0,0,1,44.746-44.746Z" transform="translate(-2015.465 -1155.308)" fill="#eeefef" fill-rule="evenodd"/><path d="M2067.8,1161.283a43.768,43.768,0,1,1-43.767,43.768,43.772,43.772,0,0,1,43.767-43.768Z" transform="translate(-2017.259 -1156.56)" fill="#ececed" fill-rule="evenodd"/><path d="M2069.74,1163.322a42.79,42.79,0,1,1-42.79,42.79,42.794,42.794,0,0,1,42.79-42.79Z" transform="translate(-2019.053 -1157.812)" fill="#e9eaea" fill-rule="evenodd"/><path d="M2071.685,1165.36a41.812,41.812,0,1,1-41.812,41.812,41.817,41.817,0,0,1,41.812-41.812Z" transform="translate(-2020.847 -1159.063)" fill="#e7e7e8" fill-rule="evenodd"/><path d="M2073.628,1167.4a40.834,40.834,0,1,1-40.833,40.833,40.839,40.839,0,0,1,40.833-40.833Z" transform="translate(-2022.641 -1160.315)" fill="#e4e5e5" fill-rule="evenodd"/><path d="M2075.573,1169.438a39.856,39.856,0,1,1-39.856,39.856,39.86,39.86,0,0,1,39.856-39.856Z" transform="translate(-2024.434 -1161.567)" fill="#e2e2e3" fill-rule="evenodd"/><path d="M2077.517,1171.476a38.878,38.878,0,1,1-38.877,38.878,38.882,38.882,0,0,1,38.877-38.878Z" transform="translate(-2026.229 -1162.818)" fill="#dfe0e1" fill-rule="evenodd"/><path d="M2079.462,1173.515a37.9,37.9,0,1,1-37.9,37.9,37.9,37.9,0,0,1,37.9-37.9Z" transform="translate(-2028.022 -1164.069)" fill="#ddddde" fill-rule="evenodd"/><path d="M2081.406,1175.554a36.922,36.922,0,1,1-36.922,36.922,36.926,36.926,0,0,1,36.922-36.922Z" transform="translate(-2029.816 -1165.321)" fill="#dadbdc" fill-rule="evenodd"/><path d="M2083.35,1177.593a35.944,35.944,0,1,1-35.944,35.944,35.948,35.948,0,0,1,35.944-35.944Z" transform="translate(-2031.61 -1166.573)" fill="#d7d8d9" fill-rule="evenodd"/><path d="M2085.295,1179.631a34.966,34.966,0,1,1-34.966,34.966,34.97,34.97,0,0,1,34.966-34.966Z" transform="translate(-2033.405 -1167.824)" fill="#d5d6d7" fill-rule="evenodd"/><path d="M2087.239,1181.67a33.988,33.988,0,1,1-33.988,33.988,33.992,33.992,0,0,1,33.988-33.988Z" transform="translate(-2035.198 -1169.076)" fill="#d2d3d4" fill-rule="evenodd"/><path d="M2089.182,1183.709a33.01,33.01,0,1,1-33.009,33.01,33.014,33.014,0,0,1,33.009-33.01Z" transform="translate(-2036.992 -1170.327)" fill="#d0d1d2" fill-rule="evenodd"/><path d="M2091.126,1185.748a32.032,32.032,0,1,1-32.032,32.032,32.035,32.035,0,0,1,32.032-32.032Z" transform="translate(-2038.786 -1171.58)" fill="#cdced0" fill-rule="evenodd"/><path d="M2093.072,1187.786a31.054,31.054,0,1,1-31.054,31.054,31.058,31.058,0,0,1,31.054-31.054Z" transform="translate(-2040.58 -1172.83)" fill="#cbcccd" fill-rule="evenodd"/><path d="M2095.016,1189.825a30.076,30.076,0,1,1-30.076,30.076,30.079,30.079,0,0,1,30.076-30.076Z" transform="translate(-2042.374 -1174.082)" fill="#c8c9cb" fill-rule="evenodd"/><path d="M2096.96,1191.864a29.1,29.1,0,1,1-29.1,29.1,29.1,29.1,0,0,1,29.1-29.1Z" transform="translate(-2044.168 -1175.334)" fill="#c6c7c8" fill-rule="evenodd"/></g><g transform="translate(637.778 290.691)" opacity="0.4"><path d="M2056.131,1149.051a49.635,49.635,0,1,1-49.636,49.635,49.641,49.641,0,0,1,49.636-49.635Z" transform="translate(-2006.495 -1149.051)" fill="#fbfbfb" fill-rule="evenodd"/><path d="M2058.075,1151.089a48.658,48.658,0,1,1-48.658,48.658,48.664,48.664,0,0,1,48.658-48.658Z" transform="translate(-2008.289 -1150.302)" fill="#f9f9f9" fill-rule="evenodd"/><path d="M2060.02,1153.128a47.68,47.68,0,1,1-47.679,47.68,47.685,47.685,0,0,1,47.679-47.68Z" transform="translate(-2010.084 -1151.554)" fill="#f6f6f7" fill-rule="evenodd"/><path d="M2061.964,1155.167a46.7,46.7,0,1,1-46.7,46.7,46.708,46.708,0,0,1,46.7-46.7Z" transform="translate(-2011.877 -1152.806)" fill="#f4f4f4" fill-rule="evenodd"/><path d="M2063.908,1157.2a45.724,45.724,0,1,1-45.724,45.724,45.729,45.729,0,0,1,45.724-45.724Z" transform="translate(-2013.671 -1154.057)" fill="#f1f1f2" fill-rule="evenodd"/><path d="M2065.852,1159.244a44.746,44.746,0,1,1-44.746,44.746,44.751,44.751,0,0,1,44.746-44.746Z" transform="translate(-2015.465 -1155.308)" fill="#eeefef" fill-rule="evenodd"/><path d="M2067.8,1161.283a43.768,43.768,0,1,1-43.767,43.768,43.772,43.772,0,0,1,43.767-43.768Z" transform="translate(-2017.259 -1156.56)" fill="#ececed" fill-rule="evenodd"/><path d="M2069.74,1163.322a42.79,42.79,0,1,1-42.79,42.79,42.794,42.794,0,0,1,42.79-42.79Z" transform="translate(-2019.053 -1157.812)" fill="#e9eaea" fill-rule="evenodd"/><path d="M2071.685,1165.36a41.812,41.812,0,1,1-41.812,41.812,41.817,41.817,0,0,1,41.812-41.812Z" transform="translate(-2020.847 -1159.063)" fill="#e7e7e8" fill-rule="evenodd"/><path d="M2073.628,1167.4a40.834,40.834,0,1,1-40.833,40.833,40.839,40.839,0,0,1,40.833-40.833Z" transform="translate(-2022.641 -1160.315)" fill="#e4e5e5" fill-rule="evenodd"/><path d="M2075.573,1169.438a39.856,39.856,0,1,1-39.856,39.856,39.86,39.86,0,0,1,39.856-39.856Z" transform="translate(-2024.434 -1161.567)" fill="#e2e2e3" fill-rule="evenodd"/><path d="M2077.517,1171.476a38.878,38.878,0,1,1-38.877,38.878,38.882,38.882,0,0,1,38.877-38.878Z" transform="translate(-2026.229 -1162.818)" fill="#dfe0e1" fill-rule="evenodd"/><path d="M2079.462,1173.515a37.9,37.9,0,1,1-37.9,37.9,37.9,37.9,0,0,1,37.9-37.9Z" transform="translate(-2028.022 -1164.069)" fill="#ddddde" fill-rule="evenodd"/><path d="M2081.406,1175.554a36.922,36.922,0,1,1-36.922,36.922,36.926,36.926,0,0,1,36.922-36.922Z" transform="translate(-2029.816 -1165.321)" fill="#dadbdc" fill-rule="evenodd"/><path d="M2083.35,1177.593a35.944,35.944,0,1,1-35.944,35.944,35.948,35.948,0,0,1,35.944-35.944Z" transform="translate(-2031.61 -1166.573)" fill="#d7d8d9" fill-rule="evenodd"/><path d="M2085.295,1179.631a34.966,34.966,0,1,1-34.966,34.966,34.97,34.97,0,0,1,34.966-34.966Z" transform="translate(-2033.405 -1167.824)" fill="#d5d6d7" fill-rule="evenodd"/><path d="M2087.239,1181.67a33.988,33.988,0,1,1-33.988,33.988,33.992,33.992,0,0,1,33.988-33.988Z" transform="translate(-2035.198 -1169.076)" fill="#d2d3d4" fill-rule="evenodd"/><path d="M2089.182,1183.709a33.01,33.01,0,1,1-33.009,33.01,33.014,33.014,0,0,1,33.009-33.01Z" transform="translate(-2036.992 -1170.327)" fill="#d0d1d2" fill-rule="evenodd"/><path d="M2091.126,1185.748a32.032,32.032,0,1,1-32.032,32.032,32.035,32.035,0,0,1,32.032-32.032Z" transform="translate(-2038.786 -1171.58)" fill="#cdced0" fill-rule="evenodd"/><path d="M2093.072,1187.786a31.054,31.054,0,1,1-31.054,31.054,31.058,31.058,0,0,1,31.054-31.054Z" transform="translate(-2040.58 -1172.83)" fill="#cbcccd" fill-rule="evenodd"/><path d="M2095.016,1189.825a30.076,30.076,0,1,1-30.076,30.076,30.079,30.079,0,0,1,30.076-30.076Z" transform="translate(-2042.374 -1174.082)" fill="#c8c9cb" fill-rule="evenodd"/><path d="M2096.96,1191.864a29.1,29.1,0,1,1-29.1,29.1,29.1,29.1,0,0,1,29.1-29.1Z" transform="translate(-2044.168 -1175.334)" fill="#c6c7c8" fill-rule="evenodd"/></g><g transform="translate(388.778 290.691)" opacity="0.4"><path d="M2056.131,1149.051a49.635,49.635,0,1,1-49.636,49.635,49.641,49.641,0,0,1,49.636-49.635Z" transform="translate(-2006.495 -1149.051)" fill="#fbfbfb" fill-rule="evenodd"/><path d="M2058.075,1151.089a48.658,48.658,0,1,1-48.658,48.658,48.664,48.664,0,0,1,48.658-48.658Z" transform="translate(-2008.289 -1150.302)" fill="#f9f9f9" fill-rule="evenodd"/><path d="M2060.02,1153.128a47.68,47.68,0,1,1-47.679,47.68,47.685,47.685,0,0,1,47.679-47.68Z" transform="translate(-2010.084 -1151.554)" fill="#f6f6f7" fill-rule="evenodd"/><path d="M2061.964,1155.167a46.7,46.7,0,1,1-46.7,46.7,46.708,46.708,0,0,1,46.7-46.7Z" transform="translate(-2011.877 -1152.806)" fill="#f4f4f4" fill-rule="evenodd"/><path d="M2063.908,1157.2a45.724,45.724,0,1,1-45.724,45.724,45.729,45.729,0,0,1,45.724-45.724Z" transform="translate(-2013.671 -1154.057)" fill="#f1f1f2" fill-rule="evenodd"/><path d="M2065.852,1159.244a44.746,44.746,0,1,1-44.746,44.746,44.751,44.751,0,0,1,44.746-44.746Z" transform="translate(-2015.465 -1155.308)" fill="#eeefef" fill-rule="evenodd"/><path d="M2067.8,1161.283a43.768,43.768,0,1,1-43.767,43.768,43.772,43.772,0,0,1,43.767-43.768Z" transform="translate(-2017.259 -1156.56)" fill="#ececed" fill-rule="evenodd"/><path d="M2069.74,1163.322a42.79,42.79,0,1,1-42.79,42.79,42.794,42.794,0,0,1,42.79-42.79Z" transform="translate(-2019.053 -1157.812)" fill="#e9eaea" fill-rule="evenodd"/><path d="M2071.685,1165.36a41.812,41.812,0,1,1-41.812,41.812,41.817,41.817,0,0,1,41.812-41.812Z" transform="translate(-2020.847 -1159.063)" fill="#e7e7e8" fill-rule="evenodd"/><path d="M2073.628,1167.4a40.834,40.834,0,1,1-40.833,40.833,40.839,40.839,0,0,1,40.833-40.833Z" transform="translate(-2022.641 -1160.315)" fill="#e4e5e5" fill-rule="evenodd"/><path d="M2075.573,1169.438a39.856,39.856,0,1,1-39.856,39.856,39.86,39.86,0,0,1,39.856-39.856Z" transform="translate(-2024.434 -1161.567)" fill="#e2e2e3" fill-rule="evenodd"/><path d="M2077.517,1171.476a38.878,38.878,0,1,1-38.877,38.878,38.882,38.882,0,0,1,38.877-38.878Z" transform="translate(-2026.229 -1162.818)" fill="#dfe0e1" fill-rule="evenodd"/><path d="M2079.462,1173.515a37.9,37.9,0,1,1-37.9,37.9,37.9,37.9,0,0,1,37.9-37.9Z" transform="translate(-2028.022 -1164.069)" fill="#ddddde" fill-rule="evenodd"/><path d="M2081.406,1175.554a36.922,36.922,0,1,1-36.922,36.922,36.926,36.926,0,0,1,36.922-36.922Z" transform="translate(-2029.816 -1165.321)" fill="#dadbdc" fill-rule="evenodd"/><path d="M2083.35,1177.593a35.944,35.944,0,1,1-35.944,35.944,35.948,35.948,0,0,1,35.944-35.944Z" transform="translate(-2031.61 -1166.573)" fill="#d7d8d9" fill-rule="evenodd"/><path d="M2085.295,1179.631a34.966,34.966,0,1,1-34.966,34.966,34.97,34.97,0,0,1,34.966-34.966Z" transform="translate(-2033.405 -1167.824)" fill="#d5d6d7" fill-rule="evenodd"/><path d="M2087.239,1181.67a33.988,33.988,0,1,1-33.988,33.988,33.992,33.992,0,0,1,33.988-33.988Z" transform="translate(-2035.198 -1169.076)" fill="#d2d3d4" fill-rule="evenodd"/><path d="M2089.182,1183.709a33.01,33.01,0,1,1-33.009,33.01,33.014,33.014,0,0,1,33.009-33.01Z" transform="translate(-2036.992 -1170.327)" fill="#d0d1d2" fill-rule="evenodd"/><path d="M2091.126,1185.748a32.032,32.032,0,1,1-32.032,32.032,32.035,32.035,0,0,1,32.032-32.032Z" transform="translate(-2038.786 -1171.58)" fill="#cdced0" fill-rule="evenodd"/><path d="M2093.072,1187.786a31.054,31.054,0,1,1-31.054,31.054,31.058,31.058,0,0,1,31.054-31.054Z" transform="translate(-2040.58 -1172.83)" fill="#cbcccd" fill-rule="evenodd"/><path d="M2095.016,1189.825a30.076,30.076,0,1,1-30.076,30.076,30.079,30.079,0,0,1,30.076-30.076Z" transform="translate(-2042.374 -1174.082)" fill="#c8c9cb" fill-rule="evenodd"/><path d="M2096.96,1191.864a29.1,29.1,0,1,1-29.1,29.1,29.1,29.1,0,0,1,29.1-29.1Z" transform="translate(-2044.168 -1175.334)" fill="#c6c7c8" fill-rule="evenodd"/></g><path d="M1771.3,1217.477c0,83.48-68.731,152.209-152.21,152.209-53.242,0-97.072,43.83-97.072,97.072v12.18h-55.138v-12.18c0-83.48,68.73-152.209,152.21-152.209,53.242,0,97.072-43.829,97.072-97.071Z" transform="translate(-792.709 -638.367)" fill="#3e4a54"/><path d="M876.384,1217.477c0,53.242,43.83,97.072,97.072,97.072s97.072-43.83,97.072-97.072h55.137c0,83.479-68.729,152.209-152.209,152.209s-152.21-68.73-152.21-152.209Z" transform="translate(-396.354 -638.367)" fill="#db6e5f"/><path d="M1466.884,975.465c0-83.48,68.729-152.21,152.209-152.21s152.21,68.73,152.21,152.21h-55.138c0-53.243-43.83-97.073-97.072-97.073s-97.072,43.83-97.072,97.073Z" transform="translate(-792.71 -396.354)" fill="#0d66bf"/><path d="M821.248,329.829c0-83.479,68.73-152.209,152.209-152.209s152.209,68.73,152.209,152.209h-55.137c0-53.242-43.83-97.072-97.072-97.072s-97.072,43.83-97.072,97.072Z" transform="translate(-396.355 0)" fill="#53bced"/><path d="M821.247,821.122h55.137c0-53.243,43.83-97.072,97.072-97.072,83.479,0,152.209-68.729,152.209-152.209h-55.137c0,53.243-43.83,97.072-97.072,97.072-83.479,0-152.21,68.73-152.21,152.209Z" transform="translate(-396.354 -242.012)" fill="#e3d400"/><path d="M230.749,571.841c0,53.243,43.83,97.072,97.072,97.072s97.072-43.83,97.072-97.072h55.138c0,83.479-68.73,152.21-152.209,152.21s-152.209-68.73-152.209-152.21Z" transform="translate(0 -242.012)" fill="#9e9e9e"/><path d="M821.755,1101.993a44.588,44.588,0,1,1-44.588,44.588,44.593,44.593,0,0,1,44.588-44.588Z" transform="translate(-369.294 -567.471)" fill="#fff34e" fill-rule="evenodd"/><path d="M821.757,456.358a44.588,44.588,0,1,1-44.589,44.588,44.593,44.593,0,0,1,44.589-44.588Z" transform="translate(-369.294 -171.117)" fill="#0d66bf" fill-rule="evenodd"/><path d="M1467.392,1101.993a44.588,44.588,0,1,1-44.588,44.588,44.593,44.593,0,0,1,44.588-44.588Z" transform="translate(-765.649 -567.471)" fill="#ffaa9e" fill-rule="evenodd"/><path d="M2113.028,1101.993a44.588,44.588,0,1,1-44.588,44.588,44.594,44.594,0,0,1,44.588-44.588Z" transform="translate(-1162.004 -567.471)" fill="#0080ff" fill-rule="evenodd"/><path d="M1467.393,456.358a44.588,44.588,0,1,1-44.588,44.588,44.593,44.593,0,0,1,44.588-44.588Z" transform="translate(-765.65 -171.117)" fill="#92dcff" fill-rule="evenodd"/></g><path d="M.958,12.742,1.74,6.2H9.22v2.3H4.148l-.29,2.54a3.5,3.5,0,0,1,.831-.325A3.805,3.805,0,0,1,5.7,10.58a3.754,3.754,0,0,1,2.931,1.129A4.549,4.549,0,0,1,9.65,14.878,4.541,4.541,0,0,1,9.1,17.106,3.776,3.776,0,0,1,7.559,18.64a4.87,4.87,0,0,1-2.347.536,5.236,5.236,0,0,1-2.259-.5A4.053,4.053,0,0,1,1.3,17.317a3.312,3.312,0,0,1-.589-1.956H3.683a1.685,1.685,0,0,0,.448,1.116,1.421,1.421,0,0,0,1.063.413q1.494,0,1.494-2.215,0-2.048-1.828-2.048a1.823,1.823,0,0,0-1.547.668Zm12.129,3.384a1.686,1.686,0,0,1,1.169.417,1.457,1.457,0,0,1,0,2.136,1.844,1.844,0,0,1-2.342,0,1.456,1.456,0,0,1,0-2.127A1.672,1.672,0,0,1,13.087,16.126ZM3.173,31.99V37H1.485V24.2h4.72A4.742,4.742,0,0,1,9.5,25.275a3.635,3.635,0,0,1,1.191,2.839,3.587,3.587,0,0,1-1.165,2.87A4.954,4.954,0,0,1,6.188,31.99Zm0-1.38H6.205a3.035,3.035,0,0,0,2.074-.637A2.328,2.328,0,0,0,9,28.132,2.4,2.4,0,0,0,8.279,26.3,2.843,2.843,0,0,0,6.3,25.592H3.173Zm14.01-1.661a4.873,4.873,0,0,0-.8-.062,2.143,2.143,0,0,0-2.171,1.362V37H12.586V27.49h1.582l.026,1.1a2.532,2.532,0,0,1,2.268-1.274,1.661,1.661,0,0,1,.721.123Zm5.44,8.227a4.155,4.155,0,0,1-3.146-1.27,4.714,4.714,0,0,1-1.213-3.4v-.3a5.707,5.707,0,0,1,.541-2.527,4.217,4.217,0,0,1,1.512-1.74,3.8,3.8,0,0,1,2.1-.628A3.562,3.562,0,0,1,25.3,28.536a5.289,5.289,0,0,1,1.028,3.5v.677H19.89a3.38,3.38,0,0,0,.822,2.272,2.583,2.583,0,0,0,2,.866A2.832,2.832,0,0,0,24.17,35.5a3.666,3.666,0,0,0,1.046-.932l.993.773A3.993,3.993,0,0,1,22.623,37.176Zm-.2-8.525a2.169,2.169,0,0,0-1.652.716,3.482,3.482,0,0,0-.826,2.008h4.764v-.123a3.1,3.1,0,0,0-.668-1.92A2.042,2.042,0,0,0,22.421,28.65Zm13.825,3.7a5.694,5.694,0,0,1-.993,3.5,3.183,3.183,0,0,1-2.689,1.327,3.488,3.488,0,0,1-2.725-1.1v4.579H28.213V27.49H29.7l.079,1.055a3.35,3.35,0,0,1,2.76-1.23,3.243,3.243,0,0,1,2.711,1.292,5.756,5.756,0,0,1,1,3.595Zm-1.626-.185a4.2,4.2,0,0,0-.686-2.54,2.208,2.208,0,0,0-1.881-.932A2.39,2.39,0,0,0,29.839,30v4.544a2.4,2.4,0,0,0,2.232,1.3,2.2,2.2,0,0,0,1.859-.927A4.587,4.587,0,0,0,34.62,32.166ZM44.183,37a3.416,3.416,0,0,1-.229-1,3.628,3.628,0,0,1-2.707,1.178,3.357,3.357,0,0,1-2.307-.8,2.573,2.573,0,0,1-.9-2.017,2.688,2.688,0,0,1,1.129-2.307,5.325,5.325,0,0,1,3.177-.822h1.582v-.747a1.826,1.826,0,0,0-.51-1.358,2.049,2.049,0,0,0-1.5-.505,2.371,2.371,0,0,0-1.459.439,1.3,1.3,0,0,0-.589,1.063H38.232a2.244,2.244,0,0,1,.505-1.375,3.449,3.449,0,0,1,1.371-1.05,4.613,4.613,0,0,1,1.9-.387,3.759,3.759,0,0,1,2.575.822,2.964,2.964,0,0,1,.967,2.263v4.377a5.351,5.351,0,0,0,.334,2.083V37Zm-2.7-1.239a2.858,2.858,0,0,0,1.45-.4,2.392,2.392,0,0,0,.993-1.028V32.386H42.653q-2.988,0-2.988,1.749a1.48,1.48,0,0,0,.51,1.2A1.959,1.959,0,0,0,41.484,35.761ZM52.7,28.949a4.873,4.873,0,0,0-.8-.062,2.143,2.143,0,0,0-2.171,1.362V37H48.1V27.49h1.582l.026,1.1a2.532,2.532,0,0,1,2.268-1.274,1.661,1.661,0,0,1,.721.123ZM59.713,37a3.416,3.416,0,0,1-.229-1,3.628,3.628,0,0,1-2.707,1.178,3.357,3.357,0,0,1-2.307-.8,2.573,2.573,0,0,1-.9-2.017A2.688,2.688,0,0,1,54.7,32.056a5.325,5.325,0,0,1,3.177-.822h1.582v-.747a1.826,1.826,0,0,0-.51-1.358,2.049,2.049,0,0,0-1.5-.505,2.371,2.371,0,0,0-1.459.439,1.3,1.3,0,0,0-.589,1.063H53.763a2.244,2.244,0,0,1,.505-1.375,3.449,3.449,0,0,1,1.371-1.05,4.613,4.613,0,0,1,1.9-.387,3.759,3.759,0,0,1,2.575.822,2.964,2.964,0,0,1,.967,2.263v4.377a5.351,5.351,0,0,0,.334,2.083V37Zm-2.7-1.239a2.858,2.858,0,0,0,1.45-.4,2.392,2.392,0,0,0,.993-1.028V32.386H58.184q-2.988,0-2.988,1.749a1.48,1.48,0,0,0,.51,1.2A1.959,1.959,0,0,0,57.015,35.761Zm10.433.088a2.342,2.342,0,0,0,1.521-.527A1.855,1.855,0,0,0,69.688,34h1.538a2.949,2.949,0,0,1-.562,1.556,3.7,3.7,0,0,1-1.384,1.178,3.994,3.994,0,0,1-1.833.439,3.918,3.918,0,0,1-3.089-1.3,5.163,5.163,0,0,1-1.147-3.546v-.272a5.725,5.725,0,0,1,.51-2.47,3.883,3.883,0,0,1,1.463-1.679,4.157,4.157,0,0,1,2.254-.6,3.814,3.814,0,0,1,2.659.958,3.424,3.424,0,0,1,1.129,2.487H69.688a2.241,2.241,0,0,0-.7-1.516,2.174,2.174,0,0,0-1.551-.593,2.276,2.276,0,0,0-1.92.892,4.19,4.19,0,0,0-.681,2.58v.308a4.106,4.106,0,0,0,.677,2.531A2.287,2.287,0,0,0,67.447,35.849ZM74.821,37H73.2V27.49h1.626ZM73.063,24.968a.971.971,0,0,1,.242-.668.907.907,0,0,1,.716-.272.922.922,0,0,1,.721.272.96.96,0,0,1,.246.668.929.929,0,0,1-.246.659.938.938,0,0,1-.721.264.924.924,0,0,1-.716-.264A.938.938,0,0,1,73.063,24.968Zm3.929,7.189a5.617,5.617,0,0,1,.549-2.514,4.1,4.1,0,0,1,1.529-1.723,4.163,4.163,0,0,1,2.237-.606,4.01,4.01,0,0,1,3.142,1.345,5.174,5.174,0,0,1,1.2,3.577v.114a5.666,5.666,0,0,1-.532,2.492A4.038,4.038,0,0,1,83.6,36.561a4.211,4.211,0,0,1-2.272.615,4,4,0,0,1-3.133-1.345,5.147,5.147,0,0,1-1.2-3.56Zm1.635.193a4.068,4.068,0,0,0,.734,2.54,2.487,2.487,0,0,0,3.933-.013,4.449,4.449,0,0,0,.729-2.72,4.061,4.061,0,0,0-.743-2.536,2.361,2.361,0,0,0-1.973-.971,2.335,2.335,0,0,0-1.942.958A4.416,4.416,0,0,0,78.627,32.351ZM82.046,23.5h1.969l-2.355,2.584H80.35Zm7.181,3.99.053,1.2a3.465,3.465,0,0,1,2.848-1.371q3.015,0,3.041,3.4V37H93.542V30.707a2.189,2.189,0,0,0-.47-1.521,1.884,1.884,0,0,0-1.437-.492,2.347,2.347,0,0,0-1.389.422,2.865,2.865,0,0,0-.932,1.107V37H87.688V27.49Zm12.454,4.676a5.571,5.571,0,0,1,1.037-3.52,3.529,3.529,0,0,1,5.361-.189V23.5h1.626V37h-1.494l-.079-1.02a3.311,3.311,0,0,1-2.716,1.2,3.248,3.248,0,0,1-2.694-1.354,5.634,5.634,0,0,1-1.042-3.533Zm1.626.185a4.218,4.218,0,0,0,.668,2.531,2.159,2.159,0,0,0,1.846.914,2.372,2.372,0,0,0,2.259-1.389V30.039a2.39,2.39,0,0,0-2.241-1.345,2.17,2.17,0,0,0-1.863.923A4.644,4.644,0,0,0,103.307,32.351Zm12.867,4.825a4.155,4.155,0,0,1-3.146-1.27,4.714,4.714,0,0,1-1.213-3.4v-.3a5.707,5.707,0,0,1,.541-2.527,4.217,4.217,0,0,1,1.512-1.74,3.8,3.8,0,0,1,2.1-.628,3.562,3.562,0,0,1,2.883,1.222,5.289,5.289,0,0,1,1.028,3.5v.677H113.44a3.38,3.38,0,0,0,.822,2.272,2.583,2.583,0,0,0,2,.866,2.832,2.832,0,0,0,1.459-.352,3.666,3.666,0,0,0,1.046-.932l.993.773A3.993,3.993,0,0,1,116.174,37.176Zm-.2-8.525a2.169,2.169,0,0,0-1.652.716,3.482,3.482,0,0,0-.826,2.008h4.764v-.123a3.1,3.1,0,0,0-.668-1.92A2.042,2.042,0,0,0,115.972,28.65ZM3,55H1.371V41.5H3Zm8.473,0a3.416,3.416,0,0,1-.229-1,3.628,3.628,0,0,1-2.707,1.178,3.357,3.357,0,0,1-2.307-.8,2.573,2.573,0,0,1-.9-2.017,2.688,2.688,0,0,1,1.129-2.307,5.325,5.325,0,0,1,3.177-.822h1.582v-.747a1.826,1.826,0,0,0-.51-1.358,2.049,2.049,0,0,0-1.5-.505,2.371,2.371,0,0,0-1.459.439,1.3,1.3,0,0,0-.589,1.063H5.52a2.244,2.244,0,0,1,.505-1.375A3.449,3.449,0,0,1,7.4,45.7a4.613,4.613,0,0,1,1.9-.387,3.759,3.759,0,0,1,2.575.822,2.964,2.964,0,0,1,.967,2.263v4.377a5.351,5.351,0,0,0,.334,2.083V55Zm-2.7-1.239a2.858,2.858,0,0,0,1.45-.4,2.392,2.392,0,0,0,.993-1.028V50.386H9.94q-2.988,0-2.988,1.749a1.48,1.48,0,0,0,.51,1.2A1.959,1.959,0,0,0,8.771,53.761Zm15.021,1.415a4.155,4.155,0,0,1-3.146-1.27,4.714,4.714,0,0,1-1.213-3.4v-.3a5.707,5.707,0,0,1,.541-2.527,4.217,4.217,0,0,1,1.512-1.74,3.8,3.8,0,0,1,2.1-.628,3.562,3.562,0,0,1,2.883,1.222,5.289,5.289,0,0,1,1.028,3.5v.677H21.059a3.38,3.38,0,0,0,.822,2.272,2.583,2.583,0,0,0,2,.866,2.832,2.832,0,0,0,1.459-.352,3.666,3.666,0,0,0,1.046-.932l.993.773A3.993,3.993,0,0,1,23.792,55.176Zm-.2-8.525a2.169,2.169,0,0,0-1.652.716,3.482,3.482,0,0,0-.826,2.008h4.764v-.123a3.1,3.1,0,0,0-.668-1.92A2.042,2.042,0,0,0,23.59,46.65Zm7.33-1.16.053,1.2a3.465,3.465,0,0,1,2.848-1.371q3.015,0,3.041,3.4V55H35.235V48.707a2.189,2.189,0,0,0-.47-1.521,1.884,1.884,0,0,0-1.437-.492,2.347,2.347,0,0,0-1.389.422,2.865,2.865,0,0,0-.932,1.107V55H29.382V45.49Zm10.6-2.3v2.3h1.775v1.257H41.52v5.9a1.317,1.317,0,0,0,.237.857,1,1,0,0,0,.809.286,3.937,3.937,0,0,0,.773-.105V55a4.714,4.714,0,0,1-1.248.176,2.025,2.025,0,0,1-1.644-.659,2.832,2.832,0,0,1-.554-1.872v-5.9H38.162V45.49h1.731v-2.3Zm8.271,3.762a4.873,4.873,0,0,0-.8-.062,2.143,2.143,0,0,0-2.171,1.362V55H45.193V45.49h1.582l.026,1.1a2.532,2.532,0,0,1,2.268-1.274,1.661,1.661,0,0,1,.721.123Zm5.44,8.227a4.155,4.155,0,0,1-3.146-1.27,4.714,4.714,0,0,1-1.213-3.4v-.3a5.707,5.707,0,0,1,.541-2.527,4.217,4.217,0,0,1,1.512-1.74,3.8,3.8,0,0,1,2.1-.628,3.562,3.562,0,0,1,2.883,1.222,5.289,5.289,0,0,1,1.028,3.5v.677H52.5a3.38,3.38,0,0,0,.822,2.272,2.583,2.583,0,0,0,2,.866,2.832,2.832,0,0,0,1.459-.352,3.666,3.666,0,0,0,1.046-.932l.993.773A3.993,3.993,0,0,1,55.23,55.176Zm-.2-8.525a2.169,2.169,0,0,0-1.652.716,3.482,3.482,0,0,0-.826,2.008h4.764v-.123a3.1,3.1,0,0,0-.668-1.92A2.042,2.042,0,0,0,55.028,46.65Zm8.815,6.144,2.355-7.3H67.86L64.45,55H63.211l-3.445-9.51h1.661ZM71.191,55H69.565V45.49h1.626ZM69.434,42.968a.971.971,0,0,1,.242-.668.907.907,0,0,1,.716-.272.922.922,0,0,1,.721.272.96.96,0,0,1,.246.668.929.929,0,0,1-.246.659.938.938,0,0,1-.721.264.924.924,0,0,1-.716-.264A.938.938,0,0,1,69.434,42.968Zm9.9,9.51a1.2,1.2,0,0,0-.5-1.024,4.78,4.78,0,0,0-1.731-.628,8.186,8.186,0,0,1-1.96-.633,2.788,2.788,0,0,1-1.072-.879,2.1,2.1,0,0,1-.347-1.213,2.467,2.467,0,0,1,.989-1.978,3.861,3.861,0,0,1,2.527-.809,3.974,3.974,0,0,1,2.624.835,2.652,2.652,0,0,1,1.006,2.136H79.233a1.468,1.468,0,0,0-.567-1.151,2.124,2.124,0,0,0-1.428-.483,2.223,2.223,0,0,0-1.389.387,1.217,1.217,0,0,0-.5,1.011.986.986,0,0,0,.466.888,5.731,5.731,0,0,0,1.683.571,8.77,8.77,0,0,1,1.973.65,2.878,2.878,0,0,1,1.121.91,2.237,2.237,0,0,1,.365,1.3,2.434,2.434,0,0,1-1.02,2.043,4.277,4.277,0,0,1-2.646.769,4.789,4.789,0,0,1-2.021-.4,3.288,3.288,0,0,1-1.375-1.129,2.722,2.722,0,0,1-.5-1.569h1.626a1.683,1.683,0,0,0,.655,1.3,2.54,2.54,0,0,0,1.613.479,2.622,2.622,0,0,0,1.481-.374A1.148,1.148,0,0,0,79.33,52.478Zm5.95-9.29v2.3h1.775v1.257H85.28v5.9a1.317,1.317,0,0,0,.237.857,1,1,0,0,0,.809.286,3.937,3.937,0,0,0,.773-.105V55a4.714,4.714,0,0,1-1.248.176,2.025,2.025,0,0,1-1.644-.659,2.832,2.832,0,0,1-.554-1.872v-5.9H81.923V45.49h1.731v-2.3ZM94.825,55a3.416,3.416,0,0,1-.229-1,3.628,3.628,0,0,1-2.707,1.178,3.357,3.357,0,0,1-2.307-.8,2.573,2.573,0,0,1-.9-2.017,2.688,2.688,0,0,1,1.129-2.307,5.325,5.325,0,0,1,3.177-.822H94.57v-.747a1.826,1.826,0,0,0-.51-1.358,2.049,2.049,0,0,0-1.5-.505,2.371,2.371,0,0,0-1.459.439,1.3,1.3,0,0,0-.589,1.063H88.875a2.244,2.244,0,0,1,.505-1.375,3.449,3.449,0,0,1,1.371-1.05,4.613,4.613,0,0,1,1.9-.387,3.759,3.759,0,0,1,2.575.822A2.964,2.964,0,0,1,96.2,48.4v4.377a5.351,5.351,0,0,0,.334,2.083V55Zm-2.7-1.239a2.858,2.858,0,0,0,1.45-.4,2.392,2.392,0,0,0,.993-1.028V50.386H93.3q-2.988,0-2.988,1.749a1.48,1.48,0,0,0,.51,1.2A1.959,1.959,0,0,0,92.127,53.761Z" transform="translate(978.041 2795.394)" fill="#12263f"/><path d="M8.6,14h1.3v2.285H8.6V19H5.643V16.284H.694L.519,14.474,5.643,6.229V6.2H8.6ZM3.34,14h2.3V10.062l-.185.3Zm9.747,2.127a1.686,1.686,0,0,1,1.169.417,1.457,1.457,0,0,1,0,2.136,1.844,1.844,0,0,1-2.342,0,1.456,1.456,0,0,1,0-2.127A1.672,1.672,0,0,1,13.087,16.126ZM10.9,32.939a4.708,4.708,0,0,1-1.5,3.133,4.911,4.911,0,0,1-3.353,1.1A4.509,4.509,0,0,1,2.413,35.55,6.542,6.542,0,0,1,1.046,31.2v-1.23a7.291,7.291,0,0,1,.637-3.138,4.76,4.76,0,0,1,1.806-2.079A5.029,5.029,0,0,1,6.2,24.027a4.624,4.624,0,0,1,3.27,1.138A4.765,4.765,0,0,1,10.9,28.316H9.2A3.66,3.66,0,0,0,8.249,26.1,2.891,2.891,0,0,0,6.2,25.416a3.02,3.02,0,0,0-2.536,1.2,5.484,5.484,0,0,0-.918,3.4v1.239a5.637,5.637,0,0,0,.87,3.313A2.812,2.812,0,0,0,6.047,35.8,3.247,3.247,0,0,0,8.2,35.159a3.536,3.536,0,0,0,1-2.219Zm1.617-.782a5.617,5.617,0,0,1,.549-2.514,4.1,4.1,0,0,1,1.529-1.723,4.163,4.163,0,0,1,2.237-.606,4.01,4.01,0,0,1,3.142,1.345,5.174,5.174,0,0,1,1.2,3.577v.114a5.666,5.666,0,0,1-.532,2.492,4.038,4.038,0,0,1-1.521,1.718,4.211,4.211,0,0,1-2.272.615,4,4,0,0,1-3.133-1.345,5.147,5.147,0,0,1-1.2-3.56Zm1.635.193a4.068,4.068,0,0,0,.734,2.54,2.487,2.487,0,0,0,3.933-.013,4.449,4.449,0,0,0,.729-2.72,4.061,4.061,0,0,0-.743-2.536,2.361,2.361,0,0,0-1.973-.971,2.335,2.335,0,0,0-1.942.958A4.416,4.416,0,0,0,14.15,32.351Zm10.6-4.86.053,1.2a3.465,3.465,0,0,1,2.848-1.371q3.015,0,3.041,3.4V37H29.065V30.707a2.189,2.189,0,0,0-.47-1.521,1.884,1.884,0,0,0-1.437-.492,2.347,2.347,0,0,0-1.389.422,2.865,2.865,0,0,0-.932,1.107V37H23.212V27.49Zm10.6-2.3v2.3h1.775v1.257H35.35v5.9a1.317,1.317,0,0,0,.237.857,1,1,0,0,0,.809.286,3.937,3.937,0,0,0,.773-.105V37a4.714,4.714,0,0,1-1.248.176,2.025,2.025,0,0,1-1.644-.659,2.832,2.832,0,0,1-.554-1.872v-5.9H31.992V27.49h1.731v-2.3ZM44.895,37a3.416,3.416,0,0,1-.229-1,3.628,3.628,0,0,1-2.707,1.178,3.357,3.357,0,0,1-2.307-.8,2.573,2.573,0,0,1-.9-2.017,2.688,2.688,0,0,1,1.129-2.307,5.325,5.325,0,0,1,3.177-.822H44.64v-.747a1.826,1.826,0,0,0-.51-1.358,2.049,2.049,0,0,0-1.5-.505,2.371,2.371,0,0,0-1.459.439,1.3,1.3,0,0,0-.589,1.063H38.944a2.244,2.244,0,0,1,.505-1.375,3.449,3.449,0,0,1,1.371-1.05,4.613,4.613,0,0,1,1.9-.387,3.759,3.759,0,0,1,2.575.822,2.964,2.964,0,0,1,.967,2.263v4.377a5.351,5.351,0,0,0,.334,2.083V37Zm-2.7-1.239a2.858,2.858,0,0,0,1.45-.4,2.392,2.392,0,0,0,.993-1.028V32.386H43.365q-2.988,0-2.988,1.749a1.48,1.48,0,0,0,.51,1.2A1.959,1.959,0,0,0,42.2,35.761Zm10.433.088a2.342,2.342,0,0,0,1.521-.527A1.855,1.855,0,0,0,54.87,34h1.538a2.949,2.949,0,0,1-.562,1.556,3.7,3.7,0,0,1-1.384,1.178,3.994,3.994,0,0,1-1.833.439,3.918,3.918,0,0,1-3.089-1.3,5.163,5.163,0,0,1-1.147-3.546v-.272a5.725,5.725,0,0,1,.51-2.47,3.883,3.883,0,0,1,1.463-1.679,4.157,4.157,0,0,1,2.254-.6,3.814,3.814,0,0,1,2.659.958,3.424,3.424,0,0,1,1.129,2.487H54.87a2.241,2.241,0,0,0-.7-1.516,2.174,2.174,0,0,0-1.551-.593,2.276,2.276,0,0,0-1.92.892,4.19,4.19,0,0,0-.681,2.58v.308a4.106,4.106,0,0,0,.677,2.531A2.287,2.287,0,0,0,52.629,35.849Zm7.813-10.661v2.3h1.775v1.257H60.442v5.9a1.317,1.317,0,0,0,.237.857,1,1,0,0,0,.809.286,3.937,3.937,0,0,0,.773-.105V37a4.714,4.714,0,0,1-1.248.176,2.025,2.025,0,0,1-1.644-.659,2.832,2.832,0,0,1-.554-1.872v-5.9H57.085V27.49h1.731v-2.3Zm3.067,6.97a5.617,5.617,0,0,1,.549-2.514,4.1,4.1,0,0,1,1.529-1.723,4.163,4.163,0,0,1,2.237-.606,4.01,4.01,0,0,1,3.142,1.345,5.174,5.174,0,0,1,1.2,3.577v.114a5.666,5.666,0,0,1-.532,2.492,4.038,4.038,0,0,1-1.521,1.718,4.211,4.211,0,0,1-2.272.615,4,4,0,0,1-3.133-1.345,5.147,5.147,0,0,1-1.2-3.56Zm1.635.193a4.068,4.068,0,0,0,.734,2.54,2.487,2.487,0,0,0,3.933-.013,4.449,4.449,0,0,0,.729-2.72,4.061,4.061,0,0,0-.743-2.536,2.361,2.361,0,0,0-1.973-.971,2.335,2.335,0,0,0-1.942.958A4.416,4.416,0,0,0,65.145,32.351ZM80.429,37H78.8V27.49h1.626ZM78.671,24.968a.971.971,0,0,1,.242-.668.907.907,0,0,1,.716-.272.922.922,0,0,1,.721.272.96.96,0,0,1,.246.668.929.929,0,0,1-.246.659.938.938,0,0,1-.721.264.924.924,0,0,1-.716-.264A.938.938,0,0,1,78.671,24.968Zm5.9,2.522.053,1.2a3.465,3.465,0,0,1,2.848-1.371q3.015,0,3.041,3.4V37H88.884V30.707a2.189,2.189,0,0,0-.47-1.521,1.884,1.884,0,0,0-1.437-.492,2.347,2.347,0,0,0-1.389.422,2.865,2.865,0,0,0-.932,1.107V37H83.03V27.49ZM94.729,37H93.1V27.49h1.626ZM92.971,24.968a.971.971,0,0,1,.242-.668.907.907,0,0,1,.716-.272.922.922,0,0,1,.721.272.96.96,0,0,1,.246.668.929.929,0,0,1-.246.659.938.938,0,0,1-.721.264.924.924,0,0,1-.716-.264A.938.938,0,0,1,92.971,24.968Zm8.174,10.881a2.342,2.342,0,0,0,1.521-.527A1.855,1.855,0,0,0,103.386,34h1.538a2.949,2.949,0,0,1-.562,1.556,3.7,3.7,0,0,1-1.384,1.178,3.994,3.994,0,0,1-1.833.439,3.918,3.918,0,0,1-3.089-1.3,5.163,5.163,0,0,1-1.147-3.546v-.272a5.725,5.725,0,0,1,.51-2.47,3.883,3.883,0,0,1,1.463-1.679,4.157,4.157,0,0,1,2.254-.6,3.814,3.814,0,0,1,2.659.958,3.424,3.424,0,0,1,1.129,2.487h-1.538a2.241,2.241,0,0,0-.7-1.516,2.174,2.174,0,0,0-1.551-.593,2.276,2.276,0,0,0-1.92.892,4.19,4.19,0,0,0-.681,2.58v.308a4.106,4.106,0,0,0,.677,2.531A2.287,2.287,0,0,0,101.145,35.849ZM108.519,37h-1.626V27.49h1.626Zm-1.758-12.032A.971.971,0,0,1,107,24.3a.907.907,0,0,1,.716-.272.922.922,0,0,1,.721.272.96.96,0,0,1,.246.668.929.929,0,0,1-.246.659.938.938,0,0,1-.721.264.924.924,0,0,1-.716-.264A.938.938,0,0,1,106.761,24.968ZM116.991,37a3.416,3.416,0,0,1-.229-1,3.628,3.628,0,0,1-2.707,1.178,3.357,3.357,0,0,1-2.307-.8,2.573,2.573,0,0,1-.9-2.017,2.688,2.688,0,0,1,1.129-2.307,5.325,5.325,0,0,1,3.177-.822h1.582v-.747a1.826,1.826,0,0,0-.51-1.358,2.049,2.049,0,0,0-1.5-.505,2.371,2.371,0,0,0-1.459.439,1.3,1.3,0,0,0-.589,1.063h-1.635a2.244,2.244,0,0,1,.505-1.375,3.449,3.449,0,0,1,1.371-1.05,4.613,4.613,0,0,1,1.9-.387,3.759,3.759,0,0,1,2.575.822,2.964,2.964,0,0,1,.967,2.263v4.377a5.351,5.351,0,0,0,.334,2.083V37Zm-2.7-1.239a2.858,2.858,0,0,0,1.45-.4,2.392,2.392,0,0,0,.993-1.028V32.386h-1.274q-2.988,0-2.988,1.749a1.48,1.48,0,0,0,.51,1.2A1.959,1.959,0,0,0,114.293,35.761ZM122.678,37h-1.626V23.5h1.626Z" transform="translate(734.5 2802.394)" fill="#12263f"/><path d="M3.489,11.362h1.4A1.453,1.453,0,0,0,6.548,9.736a1.406,1.406,0,0,0-.4-1.033,1.5,1.5,0,0,0-1.116-.4,1.606,1.606,0,0,0-1.024.343,1.046,1.046,0,0,0-.435.853H.615a3.032,3.032,0,0,1,.563-1.8,3.715,3.715,0,0,1,1.56-1.235,5.334,5.334,0,0,1,2.193-.444,5.241,5.241,0,0,1,3.357.976A3.243,3.243,0,0,1,9.51,9.675,2.7,2.7,0,0,1,9,11.235a3.6,3.6,0,0,1-1.472,1.191,3.441,3.441,0,0,1,1.6,1.121,2.951,2.951,0,0,1,.58,1.859,3.3,3.3,0,0,1-1.318,2.742,5.472,5.472,0,0,1-3.463,1.028A5.675,5.675,0,0,1,2.6,18.7,3.656,3.656,0,0,1,.967,17.37,3.45,3.45,0,0,1,.413,15.44H3.393a1.334,1.334,0,0,0,.475,1.02,1.676,1.676,0,0,0,1.169.431,1.755,1.755,0,0,0,1.248-.435,1.454,1.454,0,0,0,.466-1.112,1.7,1.7,0,0,0-.483-1.371,2.021,2.021,0,0,0-1.336-.4H3.489Zm9.6,4.764a1.686,1.686,0,0,1,1.169.417,1.457,1.457,0,0,1,0,2.136,1.844,1.844,0,0,1-2.342,0,1.456,1.456,0,0,1,0-2.127A1.672,1.672,0,0,1,13.087,16.126ZM1.485,37V24.2H5.1a5.815,5.815,0,0,1,2.953.738,4.993,4.993,0,0,1,1.982,2.1,6.837,6.837,0,0,1,.708,3.129v.817a6.861,6.861,0,0,1-.7,3.173,4.915,4.915,0,0,1-2,2.092A6.185,6.185,0,0,1,5.027,37ZM3.173,25.592V35.62H4.948a3.864,3.864,0,0,0,3.037-1.213A5.008,5.008,0,0,0,9.07,30.953v-.747a5.088,5.088,0,0,0-1.024-3.388,3.645,3.645,0,0,0-2.9-1.226ZM16.98,37.176a4.155,4.155,0,0,1-3.146-1.27,4.714,4.714,0,0,1-1.213-3.4v-.3a5.707,5.707,0,0,1,.541-2.527,4.217,4.217,0,0,1,1.512-1.74,3.8,3.8,0,0,1,2.1-.628,3.562,3.562,0,0,1,2.883,1.222,5.289,5.289,0,0,1,1.028,3.5v.677H14.247a3.38,3.38,0,0,0,.822,2.272,2.583,2.583,0,0,0,2,.866,2.832,2.832,0,0,0,1.459-.352,3.666,3.666,0,0,0,1.046-.932l.993.773A3.993,3.993,0,0,1,16.98,37.176Zm-.2-8.525a2.169,2.169,0,0,0-1.652.716,3.482,3.482,0,0,0-.826,2.008h4.764v-.123a3.1,3.1,0,0,0-.668-1.92A2.042,2.042,0,0,0,16.778,28.65ZM23.115,37V28.747h-1.5V27.49h1.5v-.809a3.3,3.3,0,0,1,.91-2.479,3.528,3.528,0,0,1,2.571-.888,7.741,7.741,0,0,1,2.487.536l-.272,1.371a5.633,5.633,0,0,0-2.092-.439,2.047,2.047,0,0,0-1.507.47,1.938,1.938,0,0,0-.461,1.411v.826h1.942v1.257H24.75V37Zm6.776,0H28.257V27.49h1.635Zm4.184-9.51.053,1.2a3.465,3.465,0,0,1,2.848-1.371q3.015,0,3.041,3.4V37H38.391V30.707a2.189,2.189,0,0,0-.47-1.521,1.884,1.884,0,0,0-1.437-.492,2.347,2.347,0,0,0-1.389.422,2.865,2.865,0,0,0-.932,1.107V37H32.537V27.49ZM44.235,37H42.609V27.49h1.626ZM42.478,24.968a.971.971,0,0,1,.242-.668.907.907,0,0,1,.716-.272.922.922,0,0,1,.721.272.96.96,0,0,1,.246.668.929.929,0,0,1-.246.659.938.938,0,0,1-.721.264.924.924,0,0,1-.716-.264A.938.938,0,0,1,42.478,24.968Zm8.174,10.881a2.342,2.342,0,0,0,1.521-.527A1.855,1.855,0,0,0,52.893,34h1.538a2.949,2.949,0,0,1-.562,1.556,3.7,3.7,0,0,1-1.384,1.178,3.994,3.994,0,0,1-1.833.439,3.918,3.918,0,0,1-3.089-1.3,5.163,5.163,0,0,1-1.147-3.546v-.272a5.725,5.725,0,0,1,.51-2.47,3.883,3.883,0,0,1,1.463-1.679,4.157,4.157,0,0,1,2.254-.6,3.814,3.814,0,0,1,2.659.958,3.424,3.424,0,0,1,1.129,2.487H52.893a2.241,2.241,0,0,0-.7-1.516,2.174,2.174,0,0,0-1.551-.593,2.276,2.276,0,0,0-1.92.892,4.19,4.19,0,0,0-.681,2.58v.308a4.106,4.106,0,0,0,.677,2.531A2.287,2.287,0,0,0,50.651,35.849ZM58.025,37H56.4V27.49h1.626ZM56.268,24.968a.971.971,0,0,1,.242-.668.907.907,0,0,1,.716-.272.922.922,0,0,1,.721.272.96.96,0,0,1,.246.668.929.929,0,0,1-.246.659.938.938,0,0,1-.721.264.924.924,0,0,1-.716-.264A.938.938,0,0,1,56.268,24.968ZM60.2,32.157a5.617,5.617,0,0,1,.549-2.514,4.1,4.1,0,0,1,1.529-1.723,4.163,4.163,0,0,1,2.237-.606,4.01,4.01,0,0,1,3.142,1.345,5.174,5.174,0,0,1,1.2,3.577v.114a5.666,5.666,0,0,1-.532,2.492A4.038,4.038,0,0,1,66.8,36.561a4.211,4.211,0,0,1-2.272.615A4,4,0,0,1,61.4,35.831a5.147,5.147,0,0,1-1.2-3.56Zm1.635.193a4.068,4.068,0,0,0,.734,2.54,2.487,2.487,0,0,0,3.933-.013,4.449,4.449,0,0,0,.729-2.72,4.061,4.061,0,0,0-.743-2.536,2.361,2.361,0,0,0-1.973-.971,2.335,2.335,0,0,0-1.942.958A4.416,4.416,0,0,0,61.831,32.351ZM65.25,23.5h1.969l-2.355,2.584h-1.31Zm7.181,3.99.053,1.2a3.465,3.465,0,0,1,2.848-1.371q3.015,0,3.041,3.4V37H76.746V30.707a2.189,2.189,0,0,0-.47-1.521,1.884,1.884,0,0,0-1.437-.492,2.347,2.347,0,0,0-1.389.422,2.865,2.865,0,0,0-.932,1.107V37H70.893V27.49Zm12.454,4.676a5.571,5.571,0,0,1,1.037-3.52,3.529,3.529,0,0,1,5.361-.189V23.5h1.626V37H91.415l-.079-1.02a3.311,3.311,0,0,1-2.716,1.2,3.248,3.248,0,0,1-2.694-1.354,5.634,5.634,0,0,1-1.042-3.533Zm1.626.185a4.218,4.218,0,0,0,.668,2.531,2.159,2.159,0,0,0,1.846.914,2.372,2.372,0,0,0,2.259-1.389V30.039a2.39,2.39,0,0,0-2.241-1.345,2.17,2.17,0,0,0-1.863.923A4.644,4.644,0,0,0,86.511,32.351Zm12.867,4.825a4.155,4.155,0,0,1-3.146-1.27,4.714,4.714,0,0,1-1.213-3.4v-.3a5.707,5.707,0,0,1,.541-2.527,4.217,4.217,0,0,1,1.512-1.74,3.8,3.8,0,0,1,2.1-.628,3.562,3.562,0,0,1,2.883,1.222,5.289,5.289,0,0,1,1.028,3.5v.677H96.645a3.38,3.38,0,0,0,.822,2.272,2.583,2.583,0,0,0,2,.866,2.832,2.832,0,0,0,1.459-.352,3.666,3.666,0,0,0,1.046-.932l.993.773A3.993,3.993,0,0,1,99.378,37.176Zm-.2-8.525a2.169,2.169,0,0,0-1.652.716,3.482,3.482,0,0,0-.826,2.008h4.764v-.123a3.1,3.1,0,0,0-.668-1.92A2.042,2.042,0,0,0,99.176,28.65ZM5.045,53.849a2.342,2.342,0,0,0,1.521-.527A1.855,1.855,0,0,0,7.286,52H8.824a2.949,2.949,0,0,1-.562,1.556,3.7,3.7,0,0,1-1.384,1.178,3.994,3.994,0,0,1-1.833.439,3.918,3.918,0,0,1-3.089-1.3A5.163,5.163,0,0,1,.809,50.333v-.272a5.725,5.725,0,0,1,.51-2.47,3.883,3.883,0,0,1,1.463-1.679,4.157,4.157,0,0,1,2.254-.6,3.814,3.814,0,0,1,2.659.958A3.424,3.424,0,0,1,8.824,48.76H7.286a2.241,2.241,0,0,0-.7-1.516,2.174,2.174,0,0,0-1.551-.593,2.276,2.276,0,0,0-1.92.892,4.19,4.19,0,0,0-.681,2.58v.308a4.106,4.106,0,0,0,.677,2.531A2.287,2.287,0,0,0,5.045,53.849ZM16.523,55a3.416,3.416,0,0,1-.229-1,3.628,3.628,0,0,1-2.707,1.178,3.357,3.357,0,0,1-2.307-.8,2.573,2.573,0,0,1-.9-2.017,2.688,2.688,0,0,1,1.129-2.307,5.325,5.325,0,0,1,3.177-.822h1.582v-.747a1.826,1.826,0,0,0-.51-1.358,2.049,2.049,0,0,0-1.5-.505,2.371,2.371,0,0,0-1.459.439,1.3,1.3,0,0,0-.589,1.063H10.573a2.244,2.244,0,0,1,.505-1.375A3.449,3.449,0,0,1,12.45,45.7a4.613,4.613,0,0,1,1.9-.387,3.759,3.759,0,0,1,2.575.822,2.964,2.964,0,0,1,.967,2.263v4.377a5.351,5.351,0,0,0,.334,2.083V55Zm-2.7-1.239a2.858,2.858,0,0,0,1.45-.4,2.392,2.392,0,0,0,.993-1.028V50.386H14.994q-2.988,0-2.988,1.749a1.48,1.48,0,0,0,.51,1.2A1.959,1.959,0,0,0,13.825,53.761Zm8.156-8.271.053,1.2a3.465,3.465,0,0,1,2.848-1.371q3.015,0,3.041,3.4V55H26.3V48.707a2.189,2.189,0,0,0-.47-1.521,1.884,1.884,0,0,0-1.437-.492A2.347,2.347,0,0,0,23,47.116a2.865,2.865,0,0,0-.932,1.107V55H20.443V45.49Zm8,4.676a5.571,5.571,0,0,1,1.037-3.52,3.529,3.529,0,0,1,5.361-.189V41.5H38V55H36.51l-.079-1.02a3.311,3.311,0,0,1-2.716,1.2,3.248,3.248,0,0,1-2.694-1.354,5.634,5.634,0,0,1-1.042-3.533Zm1.626.185a4.218,4.218,0,0,0,.668,2.531,2.159,2.159,0,0,0,1.846.914,2.372,2.372,0,0,0,2.259-1.389V48.039a2.39,2.39,0,0,0-2.241-1.345,2.17,2.17,0,0,0-1.863.923A4.644,4.644,0,0,0,31.605,50.351ZM42.293,55H40.667V45.49h1.626ZM40.535,42.968a.971.971,0,0,1,.242-.668.907.907,0,0,1,.716-.272.922.922,0,0,1,.721.272.96.96,0,0,1,.246.668.929.929,0,0,1-.246.659.938.938,0,0,1-.721.264.924.924,0,0,1-.716-.264A.938.938,0,0,1,40.535,42.968Zm3.964,7.2a5.571,5.571,0,0,1,1.037-3.52,3.529,3.529,0,0,1,5.361-.189V41.5h1.626V55H51.029l-.079-1.02a3.311,3.311,0,0,1-2.716,1.2,3.248,3.248,0,0,1-2.694-1.354A5.634,5.634,0,0,1,44.5,50.289Zm1.626.185a4.218,4.218,0,0,0,.668,2.531,2.159,2.159,0,0,0,1.846.914A2.372,2.372,0,0,0,50.9,52.407V48.039a2.39,2.39,0,0,0-2.241-1.345,2.17,2.17,0,0,0-1.863.923A4.644,4.644,0,0,0,46.125,50.351ZM60.917,55a3.416,3.416,0,0,1-.229-1,3.628,3.628,0,0,1-2.707,1.178,3.357,3.357,0,0,1-2.307-.8,2.573,2.573,0,0,1-.9-2.017A2.688,2.688,0,0,1,55.9,50.056a5.325,5.325,0,0,1,3.177-.822h1.582v-.747a1.826,1.826,0,0,0-.51-1.358,2.049,2.049,0,0,0-1.5-.505,2.371,2.371,0,0,0-1.459.439,1.3,1.3,0,0,0-.589,1.063H54.967a2.244,2.244,0,0,1,.505-1.375,3.449,3.449,0,0,1,1.371-1.05,4.613,4.613,0,0,1,1.9-.387,3.759,3.759,0,0,1,2.575.822,2.964,2.964,0,0,1,.967,2.263v4.377a5.351,5.351,0,0,0,.334,2.083V55Zm-2.7-1.239a2.858,2.858,0,0,0,1.45-.4,2.392,2.392,0,0,0,.993-1.028V50.386H59.388q-2.988,0-2.988,1.749a1.48,1.48,0,0,0,.51,1.2A1.959,1.959,0,0,0,58.219,53.761Zm8.824-10.573v2.3h1.775v1.257H67.043v5.9a1.317,1.317,0,0,0,.237.857,1,1,0,0,0,.809.286,3.937,3.937,0,0,0,.773-.105V55a4.714,4.714,0,0,1-1.248.176,2.025,2.025,0,0,1-1.644-.659,2.832,2.832,0,0,1-.554-1.872v-5.9H63.686V45.49h1.731v-2.3Zm3.067,6.97a5.617,5.617,0,0,1,.549-2.514,4.1,4.1,0,0,1,1.529-1.723,4.163,4.163,0,0,1,2.237-.606,4.01,4.01,0,0,1,3.142,1.345,5.174,5.174,0,0,1,1.2,3.577v.114a5.666,5.666,0,0,1-.532,2.492,4.038,4.038,0,0,1-1.521,1.718,4.211,4.211,0,0,1-2.272.615,4,4,0,0,1-3.133-1.345,5.147,5.147,0,0,1-1.2-3.56Zm1.635.193a4.068,4.068,0,0,0,.734,2.54,2.487,2.487,0,0,0,3.933-.013,4.449,4.449,0,0,0,.729-2.72,4.061,4.061,0,0,0-.743-2.536,2.361,2.361,0,0,0-1.973-.971,2.335,2.335,0,0,0-1.942.958A4.416,4.416,0,0,0,71.745,50.351Zm14.6,2.127a1.2,1.2,0,0,0-.5-1.024,4.78,4.78,0,0,0-1.731-.628,8.186,8.186,0,0,1-1.96-.633,2.788,2.788,0,0,1-1.072-.879,2.1,2.1,0,0,1-.347-1.213,2.467,2.467,0,0,1,.989-1.978,3.861,3.861,0,0,1,2.527-.809,3.974,3.974,0,0,1,2.624.835,2.652,2.652,0,0,1,1.006,2.136H86.247a1.468,1.468,0,0,0-.567-1.151,2.124,2.124,0,0,0-1.428-.483,2.223,2.223,0,0,0-1.389.387,1.217,1.217,0,0,0-.5,1.011.986.986,0,0,0,.466.888,5.731,5.731,0,0,0,1.683.571,8.77,8.77,0,0,1,1.973.65,2.878,2.878,0,0,1,1.121.91,2.237,2.237,0,0,1,.365,1.3,2.434,2.434,0,0,1-1.02,2.043,4.277,4.277,0,0,1-2.646.769,4.789,4.789,0,0,1-2.021-.4,3.288,3.288,0,0,1-1.375-1.129,2.722,2.722,0,0,1-.5-1.569h1.626a1.683,1.683,0,0,0,.655,1.3,2.54,2.54,0,0,0,1.613.479,2.622,2.622,0,0,0,1.481-.374A1.148,1.148,0,0,0,86.344,52.478Z" transform="translate(488.959 2795.394)" fill="#12263f"/><path d="M9.712,19H.782V17.066L4.9,12.742A4.909,4.909,0,0,0,6.416,9.991a1.913,1.913,0,0,0-.36-1.257A1.287,1.287,0,0,0,5.01,8.3a1.3,1.3,0,0,0-1.1.576,2.366,2.366,0,0,0-.422,1.437H.519a4.2,4.2,0,0,1,.589-2.175,4.129,4.129,0,0,1,1.635-1.56A4.856,4.856,0,0,1,5.08,6.019a4.777,4.777,0,0,1,3.195.958A3.42,3.42,0,0,1,9.4,9.728,4,4,0,0,1,9.114,11.2a6.456,6.456,0,0,1-.875,1.5,22.029,22.029,0,0,1-1.912,2.1L4.676,16.715H9.712Zm3.375-2.874a1.686,1.686,0,0,1,1.169.417,1.457,1.457,0,0,1,0,2.136,1.844,1.844,0,0,1-2.342,0,1.456,1.456,0,0,1,0-2.127A1.672,1.672,0,0,1,13.087,16.126ZM3.3,37H1.608V24.2H3.3ZM5.73,32.166a5.571,5.571,0,0,1,1.037-3.52,3.28,3.28,0,0,1,2.716-1.332,3.3,3.3,0,0,1,2.646,1.143V23.5h1.626V37H12.261l-.079-1.02a3.311,3.311,0,0,1-2.716,1.2,3.248,3.248,0,0,1-2.694-1.354A5.634,5.634,0,0,1,5.73,32.289Zm1.626.185a4.218,4.218,0,0,0,.668,2.531A2.159,2.159,0,0,0,9.87,35.8a2.372,2.372,0,0,0,2.259-1.389V30.039a2.39,2.39,0,0,0-2.241-1.345,2.17,2.17,0,0,0-1.863.923A4.644,4.644,0,0,0,7.356,32.351Zm12.867,4.825a4.155,4.155,0,0,1-3.146-1.27,4.714,4.714,0,0,1-1.213-3.4v-.3a5.707,5.707,0,0,1,.541-2.527,4.217,4.217,0,0,1,1.512-1.74,3.8,3.8,0,0,1,2.1-.628A3.562,3.562,0,0,1,22.9,28.536a5.289,5.289,0,0,1,1.028,3.5v.677H17.49a3.38,3.38,0,0,0,.822,2.272,2.583,2.583,0,0,0,2,.866,2.832,2.832,0,0,0,1.459-.352,3.666,3.666,0,0,0,1.046-.932l.993.773A3.993,3.993,0,0,1,20.224,37.176Zm-.2-8.525a2.169,2.169,0,0,0-1.652.716,3.482,3.482,0,0,0-.826,2.008h4.764v-.123a3.1,3.1,0,0,0-.668-1.92A2.042,2.042,0,0,0,20.021,28.65Zm7.33-1.16.053,1.2a3.465,3.465,0,0,1,2.848-1.371q3.015,0,3.041,3.4V37H31.667V30.707a2.189,2.189,0,0,0-.47-1.521,1.884,1.884,0,0,0-1.437-.492,2.347,2.347,0,0,0-1.389.422,2.865,2.865,0,0,0-.932,1.107V37H25.813V27.49Zm10.6-2.3v2.3h1.775v1.257H37.951v5.9a1.317,1.317,0,0,0,.237.857,1,1,0,0,0,.809.286,3.937,3.937,0,0,0,.773-.105V37a4.714,4.714,0,0,1-1.248.176,2.025,2.025,0,0,1-1.644-.659,2.832,2.832,0,0,1-.554-1.872v-5.9H34.594V27.49h1.731v-2.3ZM43.392,37H41.766V27.49h1.626ZM41.634,24.968a.971.971,0,0,1,.242-.668.907.907,0,0,1,.716-.272.922.922,0,0,1,.721.272.96.96,0,0,1,.246.668.929.929,0,0,1-.246.659.938.938,0,0,1-.721.264.924.924,0,0,1-.716-.264A.938.938,0,0,1,41.634,24.968ZM46.538,37V28.747h-1.5V27.49h1.5v-.809a3.3,3.3,0,0,1,.91-2.479,3.528,3.528,0,0,1,2.571-.888,7.741,7.741,0,0,1,2.487.536l-.272,1.371a5.633,5.633,0,0,0-2.092-.439,2.047,2.047,0,0,0-1.507.47,1.938,1.938,0,0,0-.461,1.411v.826h1.942v1.257H48.173V37Zm6.776,0H51.68V27.49h1.635Zm6.46-1.151a2.342,2.342,0,0,0,1.521-.527A1.855,1.855,0,0,0,62.016,34h1.538a2.949,2.949,0,0,1-.562,1.556,3.7,3.7,0,0,1-1.384,1.178,3.994,3.994,0,0,1-1.833.439,3.918,3.918,0,0,1-3.089-1.3,5.163,5.163,0,0,1-1.147-3.546v-.272a5.725,5.725,0,0,1,.51-2.47,3.883,3.883,0,0,1,1.463-1.679,4.157,4.157,0,0,1,2.254-.6,3.814,3.814,0,0,1,2.659.958,3.424,3.424,0,0,1,1.129,2.487H62.016a2.241,2.241,0,0,0-.7-1.516,2.174,2.174,0,0,0-1.551-.593,2.276,2.276,0,0,0-1.92.892,4.19,4.19,0,0,0-.681,2.58v.308a4.106,4.106,0,0,0,.677,2.531A2.287,2.287,0,0,0,59.774,35.849ZM71.253,37a3.416,3.416,0,0,1-.229-1,3.628,3.628,0,0,1-2.707,1.178,3.357,3.357,0,0,1-2.307-.8,2.573,2.573,0,0,1-.9-2.017,2.688,2.688,0,0,1,1.129-2.307,5.325,5.325,0,0,1,3.177-.822H71v-.747a1.826,1.826,0,0,0-.51-1.358,2.049,2.049,0,0,0-1.5-.505,2.371,2.371,0,0,0-1.459.439,1.3,1.3,0,0,0-.589,1.063H65.3a2.244,2.244,0,0,1,.505-1.375,3.449,3.449,0,0,1,1.371-1.05,4.613,4.613,0,0,1,1.9-.387,3.759,3.759,0,0,1,2.575.822,2.964,2.964,0,0,1,.967,2.263v4.377a5.351,5.351,0,0,0,.334,2.083V37Zm-2.7-1.239a2.858,2.858,0,0,0,1.45-.4A2.392,2.392,0,0,0,71,34.337V32.386H69.724q-2.988,0-2.988,1.749a1.48,1.48,0,0,0,.51,1.2A1.959,1.959,0,0,0,68.555,35.761Zm10.433.088a2.342,2.342,0,0,0,1.521-.527A1.855,1.855,0,0,0,81.229,34h1.538a2.949,2.949,0,0,1-.562,1.556,3.7,3.7,0,0,1-1.384,1.178,3.994,3.994,0,0,1-1.833.439,3.918,3.918,0,0,1-3.089-1.3,5.163,5.163,0,0,1-1.147-3.546v-.272a5.725,5.725,0,0,1,.51-2.47,3.883,3.883,0,0,1,1.463-1.679,4.157,4.157,0,0,1,2.254-.6,3.814,3.814,0,0,1,2.659.958,3.424,3.424,0,0,1,1.129,2.487H81.229a2.241,2.241,0,0,0-.7-1.516,2.174,2.174,0,0,0-1.551-.593,2.276,2.276,0,0,0-1.92.892,4.19,4.19,0,0,0-.681,2.58v.308a4.106,4.106,0,0,0,.677,2.531A2.287,2.287,0,0,0,78.987,35.849ZM86.361,37H84.735V27.49h1.626ZM84.6,24.968a.971.971,0,0,1,.242-.668.907.907,0,0,1,.716-.272.922.922,0,0,1,.721.272.96.96,0,0,1,.246.668.929.929,0,0,1-.246.659.938.938,0,0,1-.721.264.924.924,0,0,1-.716-.264A.938.938,0,0,1,84.6,24.968Zm3.929,7.189a5.617,5.617,0,0,1,.549-2.514,4.1,4.1,0,0,1,1.529-1.723,4.163,4.163,0,0,1,2.237-.606,4.01,4.01,0,0,1,3.142,1.345,5.174,5.174,0,0,1,1.2,3.577v.114a5.666,5.666,0,0,1-.532,2.492,4.038,4.038,0,0,1-1.521,1.718,4.211,4.211,0,0,1-2.272.615,4,4,0,0,1-3.133-1.345,5.147,5.147,0,0,1-1.2-3.56Zm1.635.193a4.068,4.068,0,0,0,.734,2.54,2.487,2.487,0,0,0,3.933-.013,4.449,4.449,0,0,0,.729-2.72,4.061,4.061,0,0,0-.743-2.536,2.361,2.361,0,0,0-1.973-.971,2.335,2.335,0,0,0-1.942.958A4.416,4.416,0,0,0,90.167,32.351ZM93.586,23.5h1.969L93.2,26.084H91.89Zm7.181,3.99.053,1.2a3.465,3.465,0,0,1,2.848-1.371q3.015,0,3.041,3.4V37h-1.626V30.707a2.189,2.189,0,0,0-.47-1.521,1.884,1.884,0,0,0-1.437-.492,2.347,2.347,0,0,0-1.389.422,2.865,2.865,0,0,0-.932,1.107V37H99.229V27.49ZM.835,50.166a5.571,5.571,0,0,1,1.037-3.52,3.28,3.28,0,0,1,2.716-1.332,3.3,3.3,0,0,1,2.646,1.143V41.5H8.859V55H7.365l-.079-1.02a3.311,3.311,0,0,1-2.716,1.2,3.248,3.248,0,0,1-2.694-1.354A5.634,5.634,0,0,1,.835,50.289Zm1.626.185a4.218,4.218,0,0,0,.668,2.531,2.159,2.159,0,0,0,1.846.914,2.372,2.372,0,0,0,2.259-1.389V48.039a2.39,2.39,0,0,0-2.241-1.345,2.17,2.17,0,0,0-1.863.923A4.644,4.644,0,0,0,2.461,50.351Zm12.867,4.825a4.155,4.155,0,0,1-3.146-1.27,4.714,4.714,0,0,1-1.213-3.4v-.3a5.707,5.707,0,0,1,.541-2.527,4.217,4.217,0,0,1,1.512-1.74,3.8,3.8,0,0,1,2.1-.628,3.562,3.562,0,0,1,2.883,1.222,5.289,5.289,0,0,1,1.028,3.5v.677H12.595a3.38,3.38,0,0,0,.822,2.272,2.583,2.583,0,0,0,2,.866,2.832,2.832,0,0,0,1.459-.352,3.666,3.666,0,0,0,1.046-.932l.993.773A3.993,3.993,0,0,1,15.328,55.176Zm-.2-8.525a2.169,2.169,0,0,0-1.652.716,3.482,3.482,0,0,0-.826,2.008h4.764v-.123a3.1,3.1,0,0,0-.668-1.92A2.042,2.042,0,0,0,15.126,46.65Zm18.281,3.7a5.694,5.694,0,0,1-.993,3.5,3.183,3.183,0,0,1-2.689,1.327A3.488,3.488,0,0,1,27,54.077v4.579H25.374V45.49h1.485l.079,1.055a3.35,3.35,0,0,1,2.76-1.23,3.243,3.243,0,0,1,2.711,1.292,5.756,5.756,0,0,1,1,3.595Zm-1.626-.185a4.2,4.2,0,0,0-.686-2.54,2.208,2.208,0,0,0-1.881-.932A2.39,2.39,0,0,0,27,48v4.544a2.4,2.4,0,0,0,2.232,1.3,2.2,2.2,0,0,0,1.859-.927A4.587,4.587,0,0,0,31.781,50.166Zm8.288-3.217a4.873,4.873,0,0,0-.8-.062A2.143,2.143,0,0,0,37.1,48.25V55H35.473V45.49h1.582l.026,1.1a2.532,2.532,0,0,1,2.268-1.274,1.661,1.661,0,0,1,.721.123Zm.888,3.208a5.617,5.617,0,0,1,.549-2.514,4.1,4.1,0,0,1,1.529-1.723,4.163,4.163,0,0,1,2.237-.606,4.01,4.01,0,0,1,3.142,1.345,5.174,5.174,0,0,1,1.2,3.577v.114a5.666,5.666,0,0,1-.532,2.492,4.038,4.038,0,0,1-1.521,1.718,4.211,4.211,0,0,1-2.272.615,4,4,0,0,1-3.133-1.345,5.147,5.147,0,0,1-1.2-3.56Zm1.635.193a4.068,4.068,0,0,0,.734,2.54,2.487,2.487,0,0,0,3.933-.013,4.449,4.449,0,0,0,.729-2.72,4.061,4.061,0,0,0-.743-2.536,2.361,2.361,0,0,0-1.973-.971,2.335,2.335,0,0,0-1.942.958A4.416,4.416,0,0,0,42.592,50.351Zm14.6,2.127a1.2,1.2,0,0,0-.5-1.024,4.78,4.78,0,0,0-1.731-.628A8.186,8.186,0,0,1,53,50.192a2.788,2.788,0,0,1-1.072-.879,2.1,2.1,0,0,1-.347-1.213,2.467,2.467,0,0,1,.989-1.978,3.861,3.861,0,0,1,2.527-.809,3.974,3.974,0,0,1,2.624.835,2.652,2.652,0,0,1,1.006,2.136H57.094a1.468,1.468,0,0,0-.567-1.151A2.124,2.124,0,0,0,55.1,46.65a2.223,2.223,0,0,0-1.389.387,1.217,1.217,0,0,0-.5,1.011.986.986,0,0,0,.466.888,5.731,5.731,0,0,0,1.683.571,8.77,8.77,0,0,1,1.973.65,2.878,2.878,0,0,1,1.121.91,2.237,2.237,0,0,1,.365,1.3,2.434,2.434,0,0,1-1.02,2.043,4.277,4.277,0,0,1-2.646.769,4.789,4.789,0,0,1-2.021-.4,3.288,3.288,0,0,1-1.375-1.129,2.722,2.722,0,0,1-.5-1.569h1.626a1.683,1.683,0,0,0,.655,1.3,2.54,2.54,0,0,0,1.613.479,2.622,2.622,0,0,0,1.481-.374A1.148,1.148,0,0,0,57.19,52.478Zm11.777-2.127a5.694,5.694,0,0,1-.993,3.5,3.183,3.183,0,0,1-2.689,1.327,3.488,3.488,0,0,1-2.725-1.1v4.579H60.935V45.49H62.42l.079,1.055a3.35,3.35,0,0,1,2.76-1.23,3.243,3.243,0,0,1,2.711,1.292,5.756,5.756,0,0,1,1,3.595Zm-1.626-.185a4.2,4.2,0,0,0-.686-2.54,2.208,2.208,0,0,0-1.881-.932A2.39,2.39,0,0,0,62.561,48v4.544a2.4,2.4,0,0,0,2.232,1.3,2.2,2.2,0,0,0,1.859-.927A4.587,4.587,0,0,0,67.342,50.166Zm7.638,5.01a4.155,4.155,0,0,1-3.146-1.27,4.714,4.714,0,0,1-1.213-3.4v-.3a5.707,5.707,0,0,1,.541-2.527,4.217,4.217,0,0,1,1.512-1.74,3.8,3.8,0,0,1,2.1-.628,3.562,3.562,0,0,1,2.883,1.222,5.289,5.289,0,0,1,1.028,3.5v.677H72.246a3.38,3.38,0,0,0,.822,2.272,2.583,2.583,0,0,0,2,.866,2.832,2.832,0,0,0,1.459-.352,3.666,3.666,0,0,0,1.046-.932l.993.773A3.993,3.993,0,0,1,74.979,55.176Zm-.2-8.525a2.169,2.169,0,0,0-1.652.716,3.482,3.482,0,0,0-.826,2.008h4.764v-.123a3.1,3.1,0,0,0-.668-1.92A2.042,2.042,0,0,0,74.777,46.65Zm9.606,7.2a2.342,2.342,0,0,0,1.521-.527A1.855,1.855,0,0,0,86.625,52h1.538a2.949,2.949,0,0,1-.562,1.556,3.7,3.7,0,0,1-1.384,1.178,3.994,3.994,0,0,1-1.833.439,3.918,3.918,0,0,1-3.089-1.3,5.163,5.163,0,0,1-1.147-3.546v-.272a5.725,5.725,0,0,1,.51-2.47,3.883,3.883,0,0,1,1.463-1.679,4.157,4.157,0,0,1,2.254-.6,3.814,3.814,0,0,1,2.659.958,3.424,3.424,0,0,1,1.129,2.487H86.625a2.241,2.241,0,0,0-.7-1.516,2.174,2.174,0,0,0-1.551-.593,2.276,2.276,0,0,0-1.92.892,4.19,4.19,0,0,0-.681,2.58v.308a4.106,4.106,0,0,0,.677,2.531A2.287,2.287,0,0,0,84.384,53.849ZM92.2,43.188v2.3h1.775v1.257H92.2v5.9a1.317,1.317,0,0,0,.237.857,1,1,0,0,0,.809.286,3.937,3.937,0,0,0,.773-.105V55a4.714,4.714,0,0,1-1.248.176,2.025,2.025,0,0,1-1.644-.659,2.832,2.832,0,0,1-.554-1.872v-5.9H88.84V45.49h1.731v-2.3Zm3.067,6.97a5.617,5.617,0,0,1,.549-2.514,4.1,4.1,0,0,1,1.529-1.723,4.163,4.163,0,0,1,2.237-.606,4.01,4.01,0,0,1,3.142,1.345,5.174,5.174,0,0,1,1.2,3.577v.114a5.666,5.666,0,0,1-.532,2.492,4.038,4.038,0,0,1-1.521,1.718,4.211,4.211,0,0,1-2.272.615,4,4,0,0,1-3.133-1.345,5.147,5.147,0,0,1-1.2-3.56Zm1.635.193a4.068,4.068,0,0,0,.734,2.54,2.487,2.487,0,0,0,3.933-.013,4.449,4.449,0,0,0,.729-2.72,4.061,4.061,0,0,0-.743-2.536,2.361,2.361,0,0,0-1.973-.971,2.335,2.335,0,0,0-1.942.958A4.416,4.416,0,0,0,96.9,50.351Zm14.6,2.127a1.2,1.2,0,0,0-.5-1.024,4.78,4.78,0,0,0-1.731-.628,8.186,8.186,0,0,1-1.96-.633,2.788,2.788,0,0,1-1.072-.879,2.1,2.1,0,0,1-.347-1.213,2.467,2.467,0,0,1,.989-1.978,3.861,3.861,0,0,1,2.527-.809,3.974,3.974,0,0,1,2.624.835,2.652,2.652,0,0,1,1.006,2.136H111.4a1.468,1.468,0,0,0-.567-1.151,2.124,2.124,0,0,0-1.428-.483,2.223,2.223,0,0,0-1.389.387,1.217,1.217,0,0,0-.5,1.011.986.986,0,0,0,.466.888,5.731,5.731,0,0,0,1.683.571,8.77,8.77,0,0,1,1.973.65,2.878,2.878,0,0,1,1.121.91,2.237,2.237,0,0,1,.365,1.3,2.434,2.434,0,0,1-1.02,2.043,4.277,4.277,0,0,1-2.646.769,4.789,4.789,0,0,1-2.021-.4,3.288,3.288,0,0,1-1.375-1.129,2.722,2.722,0,0,1-.5-1.569h1.626a1.683,1.683,0,0,0,.655,1.3,2.54,2.54,0,0,0,1.613.479,2.622,2.622,0,0,0,1.481-.374A1.148,1.148,0,0,0,111.5,52.478Z" transform="translate(737 2537.266)" fill="#12263f"/><path d="M7.348,19H4.377V9.543L1.459,10.4V8.146L7.075,6.2h.272Zm5.739-2.874a1.686,1.686,0,0,1,1.169.417,1.457,1.457,0,0,1,0,2.136,1.844,1.844,0,0,1-2.342,0,1.456,1.456,0,0,1,0-2.127A1.672,1.672,0,0,1,13.087,16.126ZM5.256,31.3A7.935,7.935,0,0,1,2.1,29.762a2.93,2.93,0,0,1-.989-2.246,3.1,3.1,0,0,1,1.208-2.5,4.8,4.8,0,0,1,3.142-.989,5.243,5.243,0,0,1,2.351.51,3.866,3.866,0,0,1,1.6,1.406,3.6,3.6,0,0,1,.567,1.96h-1.7a2.327,2.327,0,0,0-.738-1.824,3.009,3.009,0,0,0-2.083-.664,3.078,3.078,0,0,0-1.947.549,1.831,1.831,0,0,0-.7,1.525,1.648,1.648,0,0,0,.664,1.323,6.514,6.514,0,0,0,2.259.989,10.46,10.46,0,0,1,2.5.989,3.788,3.788,0,0,1,1.336,1.261,3.219,3.219,0,0,1,.435,1.7A2.99,2.99,0,0,1,8.789,36.24a5.171,5.171,0,0,1-3.243.936,6.015,6.015,0,0,1-2.461-.505,4.142,4.142,0,0,1-1.762-1.384,3.378,3.378,0,0,1-.62-2H2.4a2.2,2.2,0,0,0,.857,1.833,3.608,3.608,0,0,0,2.29.672,3.317,3.317,0,0,0,2.048-.545,1.77,1.77,0,0,0,.712-1.485,1.738,1.738,0,0,0-.659-1.455A7.6,7.6,0,0,0,5.256,31.3Zm10.6,5.88a4.155,4.155,0,0,1-3.146-1.27,4.714,4.714,0,0,1-1.213-3.4v-.3a5.707,5.707,0,0,1,.541-2.527,4.217,4.217,0,0,1,1.512-1.74,3.8,3.8,0,0,1,2.1-.628,3.562,3.562,0,0,1,2.883,1.222,5.289,5.289,0,0,1,1.028,3.5v.677H13.122a3.38,3.38,0,0,0,.822,2.272,2.583,2.583,0,0,0,2,.866A2.832,2.832,0,0,0,17.4,35.5a3.666,3.666,0,0,0,1.046-.932l.993.773A3.993,3.993,0,0,1,15.855,37.176Zm-.2-8.525A2.169,2.169,0,0,0,14,29.367a3.482,3.482,0,0,0-.826,2.008h4.764v-.123a3.1,3.1,0,0,0-.668-1.92A2.042,2.042,0,0,0,15.653,28.65Zm5.405,3.516a5.589,5.589,0,0,1,1.028-3.538,3.289,3.289,0,0,1,2.725-1.314,3.271,3.271,0,0,1,2.716,1.23l.079-1.055h1.485v9.281A3.869,3.869,0,0,1,28,39.681a4.038,4.038,0,0,1-2.94,1.063,4.891,4.891,0,0,1-2.013-.439,3.465,3.465,0,0,1-1.5-1.2l.844-.976a3.18,3.18,0,0,0,2.558,1.292,2.491,2.491,0,0,0,1.85-.668,2.553,2.553,0,0,0,.664-1.881v-.817a3.342,3.342,0,0,1-2.663,1.125,3.248,3.248,0,0,1-2.7-1.345A5.876,5.876,0,0,1,21.059,32.166Zm1.635.185a4.264,4.264,0,0,0,.659,2.527A2.142,2.142,0,0,0,25.2,35.8a2.382,2.382,0,0,0,2.259-1.4V30.057a2.41,2.41,0,0,0-2.241-1.362,2.161,2.161,0,0,0-1.854.923A4.644,4.644,0,0,0,22.693,32.351Zm10.38-4.86.044,1.055a3.512,3.512,0,0,1,2.821-1.23,2.719,2.719,0,0,1,2.716,1.529,3.6,3.6,0,0,1,1.235-1.107,3.647,3.647,0,0,1,1.8-.422q3.129,0,3.182,3.313V37H43.242V30.725a2.184,2.184,0,0,0-.466-1.525,2.051,2.051,0,0,0-1.564-.505,2.156,2.156,0,0,0-1.5.541,2.193,2.193,0,0,0-.694,1.455V37H37.38V30.769a1.814,1.814,0,0,0-2.03-2.074,2.175,2.175,0,0,0-2.188,1.362V37H31.535V27.49Zm18.193,9.686a4.155,4.155,0,0,1-3.146-1.27,4.714,4.714,0,0,1-1.213-3.4v-.3a5.707,5.707,0,0,1,.541-2.527,4.217,4.217,0,0,1,1.512-1.74,3.8,3.8,0,0,1,2.1-.628,3.562,3.562,0,0,1,2.883,1.222,5.289,5.289,0,0,1,1.028,3.5v.677H48.533a3.38,3.38,0,0,0,.822,2.272,2.583,2.583,0,0,0,2,.866,2.832,2.832,0,0,0,1.459-.352,3.666,3.666,0,0,0,1.046-.932l.993.773A3.993,3.993,0,0,1,51.267,37.176Zm-.2-8.525a2.169,2.169,0,0,0-1.652.716,3.482,3.482,0,0,0-.826,2.008H53.35v-.123a3.1,3.1,0,0,0-.668-1.92A2.042,2.042,0,0,0,51.064,28.65Zm7.33-1.16.053,1.2a3.465,3.465,0,0,1,2.848-1.371q3.015,0,3.041,3.4V37H62.71V30.707a2.189,2.189,0,0,0-.47-1.521,1.884,1.884,0,0,0-1.437-.492,2.347,2.347,0,0,0-1.389.422,2.865,2.865,0,0,0-.932,1.107V37H56.856V27.49Zm10.6-2.3v2.3H70.77v1.257H68.994v5.9a1.317,1.317,0,0,0,.237.857,1,1,0,0,0,.809.286,3.937,3.937,0,0,0,.773-.105V37a4.714,4.714,0,0,1-1.248.176,2.025,2.025,0,0,1-1.644-.659,2.832,2.832,0,0,1-.554-1.872v-5.9H65.637V27.49h1.731v-2.3ZM78.539,37a3.416,3.416,0,0,1-.229-1A3.628,3.628,0,0,1,75.6,37.176a3.357,3.357,0,0,1-2.307-.8,2.573,2.573,0,0,1-.9-2.017,2.688,2.688,0,0,1,1.129-2.307,5.325,5.325,0,0,1,3.177-.822h1.582v-.747a1.826,1.826,0,0,0-.51-1.358,2.049,2.049,0,0,0-1.5-.505,2.371,2.371,0,0,0-1.459.439,1.3,1.3,0,0,0-.589,1.063H72.589a2.244,2.244,0,0,1,.505-1.375,3.449,3.449,0,0,1,1.371-1.05,4.613,4.613,0,0,1,1.9-.387,3.759,3.759,0,0,1,2.575.822A2.964,2.964,0,0,1,79.91,30.4v4.377a5.351,5.351,0,0,0,.334,2.083V37Zm-2.7-1.239a2.858,2.858,0,0,0,1.45-.4,2.392,2.392,0,0,0,.993-1.028V32.386H77.01q-2.988,0-2.988,1.749a1.48,1.48,0,0,0,.51,1.2A1.959,1.959,0,0,0,75.841,35.761Zm10.433.088a2.342,2.342,0,0,0,1.521-.527A1.855,1.855,0,0,0,88.515,34h1.538a2.949,2.949,0,0,1-.562,1.556,3.7,3.7,0,0,1-1.384,1.178,3.994,3.994,0,0,1-1.833.439,3.918,3.918,0,0,1-3.089-1.3,5.163,5.163,0,0,1-1.147-3.546v-.272a5.725,5.725,0,0,1,.51-2.47,3.883,3.883,0,0,1,1.463-1.679,4.157,4.157,0,0,1,2.254-.6,3.814,3.814,0,0,1,2.659.958,3.424,3.424,0,0,1,1.129,2.487H88.515a2.241,2.241,0,0,0-.7-1.516,2.174,2.174,0,0,0-1.551-.593,2.276,2.276,0,0,0-1.92.892,4.19,4.19,0,0,0-.681,2.58v.308a4.106,4.106,0,0,0,.677,2.531A2.287,2.287,0,0,0,86.273,35.849ZM93.647,37H92.021V27.49h1.626ZM91.89,24.968a.971.971,0,0,1,.242-.668.907.907,0,0,1,.716-.272.922.922,0,0,1,.721.272.96.96,0,0,1,.246.668.929.929,0,0,1-.246.659.938.938,0,0,1-.721.264.924.924,0,0,1-.716-.264A.938.938,0,0,1,91.89,24.968Zm3.929,7.189a5.617,5.617,0,0,1,.549-2.514A4.1,4.1,0,0,1,97.9,27.921a4.163,4.163,0,0,1,2.237-.606,4.01,4.01,0,0,1,3.142,1.345,5.174,5.174,0,0,1,1.2,3.577v.114a5.666,5.666,0,0,1-.532,2.492,4.038,4.038,0,0,1-1.521,1.718,4.211,4.211,0,0,1-2.272.615,4,4,0,0,1-3.133-1.345,5.147,5.147,0,0,1-1.2-3.56Zm1.635.193a4.068,4.068,0,0,0,.734,2.54,2.487,2.487,0,0,0,3.933-.013,4.449,4.449,0,0,0,.729-2.72,4.061,4.061,0,0,0-.743-2.536,2.361,2.361,0,0,0-1.973-.971,2.335,2.335,0,0,0-1.942.958A4.416,4.416,0,0,0,97.453,32.351Zm3.419-8.851h1.969l-2.355,2.584h-1.31Zm7.181,3.99.053,1.2a3.465,3.465,0,0,1,2.848-1.371q3.015,0,3.041,3.4V37h-1.626V30.707a2.189,2.189,0,0,0-.47-1.521,1.884,1.884,0,0,0-1.437-.492,2.347,2.347,0,0,0-1.389.422,2.865,2.865,0,0,0-.932,1.107V37h-1.626V27.49ZM.835,50.166a5.571,5.571,0,0,1,1.037-3.52,3.28,3.28,0,0,1,2.716-1.332,3.3,3.3,0,0,1,2.646,1.143V41.5H8.859V55H7.365l-.079-1.02a3.311,3.311,0,0,1-2.716,1.2,3.248,3.248,0,0,1-2.694-1.354A5.634,5.634,0,0,1,.835,50.289Zm1.626.185a4.218,4.218,0,0,0,.668,2.531,2.159,2.159,0,0,0,1.846.914,2.372,2.372,0,0,0,2.259-1.389V48.039a2.39,2.39,0,0,0-2.241-1.345,2.17,2.17,0,0,0-1.863.923A4.644,4.644,0,0,0,2.461,50.351Zm12.867,4.825a4.155,4.155,0,0,1-3.146-1.27,4.714,4.714,0,0,1-1.213-3.4v-.3a5.707,5.707,0,0,1,.541-2.527,4.217,4.217,0,0,1,1.512-1.74,3.8,3.8,0,0,1,2.1-.628,3.562,3.562,0,0,1,2.883,1.222,5.289,5.289,0,0,1,1.028,3.5v.677H12.595a3.38,3.38,0,0,0,.822,2.272,2.583,2.583,0,0,0,2,.866,2.832,2.832,0,0,0,1.459-.352,3.666,3.666,0,0,0,1.046-.932l.993.773A3.993,3.993,0,0,1,15.328,55.176Zm-.2-8.525a2.169,2.169,0,0,0-1.652.716,3.482,3.482,0,0,0-.826,2.008h4.764v-.123a3.1,3.1,0,0,0-.668-1.92A2.042,2.042,0,0,0,15.126,46.65ZM22.685,55H21.059V41.5h1.626Zm8.587-9.51.044,1.055a3.512,3.512,0,0,1,2.821-1.23,2.719,2.719,0,0,1,2.716,1.529,3.6,3.6,0,0,1,1.235-1.107,3.647,3.647,0,0,1,1.8-.422q3.129,0,3.182,3.313V55H41.44V48.725a2.184,2.184,0,0,0-.466-1.525,2.051,2.051,0,0,0-1.564-.505,2.156,2.156,0,0,0-1.5.541,2.193,2.193,0,0,0-.694,1.455V55H35.578V48.769a1.814,1.814,0,0,0-2.03-2.074,2.175,2.175,0,0,0-2.188,1.362V55H29.733V45.49Zm18.193,9.686a4.155,4.155,0,0,1-3.146-1.27,4.714,4.714,0,0,1-1.213-3.4v-.3a5.707,5.707,0,0,1,.541-2.527,4.217,4.217,0,0,1,1.512-1.74,3.8,3.8,0,0,1,2.1-.628,3.562,3.562,0,0,1,2.883,1.222,5.289,5.289,0,0,1,1.028,3.5v.677H46.731a3.38,3.38,0,0,0,.822,2.272,2.583,2.583,0,0,0,2,.866,2.832,2.832,0,0,0,1.459-.352,3.666,3.666,0,0,0,1.046-.932l.993.773A3.993,3.993,0,0,1,49.465,55.176Zm-.2-8.525a2.169,2.169,0,0,0-1.652.716,3.482,3.482,0,0,0-.826,2.008h4.764v-.123a3.1,3.1,0,0,0-.668-1.92A2.042,2.042,0,0,0,49.263,46.65Zm10.389.3a4.873,4.873,0,0,0-.8-.062,2.143,2.143,0,0,0-2.171,1.362V55H55.055V45.49h1.582l.026,1.1a2.532,2.532,0,0,1,2.268-1.274,1.661,1.661,0,0,1,.721.123Zm5.142,6.9a2.342,2.342,0,0,0,1.521-.527A1.855,1.855,0,0,0,67.034,52h1.538a2.949,2.949,0,0,1-.562,1.556,3.7,3.7,0,0,1-1.384,1.178,3.994,3.994,0,0,1-1.833.439,3.918,3.918,0,0,1-3.089-1.3,5.163,5.163,0,0,1-1.147-3.546v-.272a5.725,5.725,0,0,1,.51-2.47,3.883,3.883,0,0,1,1.463-1.679,4.157,4.157,0,0,1,2.254-.6,3.814,3.814,0,0,1,2.659.958,3.424,3.424,0,0,1,1.129,2.487H67.034a2.241,2.241,0,0,0-.7-1.516,2.174,2.174,0,0,0-1.551-.593,2.276,2.276,0,0,0-1.92.892,4.19,4.19,0,0,0-.681,2.58v.308a4.106,4.106,0,0,0,.677,2.531A2.287,2.287,0,0,0,64.793,53.849ZM76.271,55a3.416,3.416,0,0,1-.229-1,3.628,3.628,0,0,1-2.707,1.178,3.357,3.357,0,0,1-2.307-.8,2.573,2.573,0,0,1-.9-2.017,2.688,2.688,0,0,1,1.129-2.307,5.325,5.325,0,0,1,3.177-.822h1.582v-.747a1.826,1.826,0,0,0-.51-1.358,2.049,2.049,0,0,0-1.5-.505,2.371,2.371,0,0,0-1.459.439,1.3,1.3,0,0,0-.589,1.063H70.321a2.244,2.244,0,0,1,.505-1.375A3.449,3.449,0,0,1,72.2,45.7a4.613,4.613,0,0,1,1.9-.387,3.759,3.759,0,0,1,2.575.822,2.964,2.964,0,0,1,.967,2.263v4.377a5.351,5.351,0,0,0,.334,2.083V55Zm-2.7-1.239a2.858,2.858,0,0,0,1.45-.4,2.392,2.392,0,0,0,.993-1.028V50.386H74.742q-2.988,0-2.988,1.749a1.48,1.48,0,0,0,.51,1.2A1.959,1.959,0,0,0,73.573,53.761ZM79.8,50.166a5.571,5.571,0,0,1,1.037-3.52,3.529,3.529,0,0,1,5.361-.189V41.5H87.82V55H86.326l-.079-1.02a3.311,3.311,0,0,1-2.716,1.2,3.248,3.248,0,0,1-2.694-1.354A5.634,5.634,0,0,1,79.8,50.289Zm1.626.185a4.218,4.218,0,0,0,.668,2.531,2.159,2.159,0,0,0,1.846.914,2.372,2.372,0,0,0,2.259-1.389V48.039a2.39,2.39,0,0,0-2.241-1.345,2.17,2.17,0,0,0-1.863.923A4.644,4.644,0,0,0,81.422,50.351Zm8.49-.193a5.617,5.617,0,0,1,.549-2.514,4.1,4.1,0,0,1,1.529-1.723,4.163,4.163,0,0,1,2.237-.606,4.01,4.01,0,0,1,3.142,1.345,5.174,5.174,0,0,1,1.2,3.577v.114a5.666,5.666,0,0,1-.532,2.492,4.038,4.038,0,0,1-1.521,1.718,4.211,4.211,0,0,1-2.272.615,4,4,0,0,1-3.133-1.345,5.147,5.147,0,0,1-1.2-3.56Zm1.635.193a4.068,4.068,0,0,0,.734,2.54,2.487,2.487,0,0,0,3.933-.013,4.449,4.449,0,0,0,.729-2.72,4.061,4.061,0,0,0-.743-2.536,2.361,2.361,0,0,0-1.973-.971,2.335,2.335,0,0,0-1.942.958A4.416,4.416,0,0,0,91.547,50.351Z" transform="translate(495 2537.266)" fill="#12263f"/><path d="M45.758,40.113l-9.034-9.034a2.173,2.173,0,0,0-1.54-.634H33.707a18.838,18.838,0,1,0-3.262,3.262v1.477a2.173,2.173,0,0,0,.634,1.54l9.034,9.034a2.166,2.166,0,0,0,3.072,0l2.564-2.564A2.185,2.185,0,0,0,45.758,40.113ZM18.847,30.445a11.6,11.6,0,1,1,11.6-11.6A11.591,11.591,0,0,1,18.847,30.445Z" transform="translate(644.611 2548.869)" fill="#0080ff"/><path d="M17.333,7.879a9.465,9.465,0,0,0-9.455,9.455,1.576,1.576,0,1,0,3.152,0,6.31,6.31,0,0,1,6.3-6.3,1.576,1.576,0,1,0,0-3.152ZM9.46,45.221a1.566,1.566,0,0,0,.264.871l2.414,3.628a1.577,1.577,0,0,0,1.312.7h7.766a1.574,1.574,0,0,0,1.312-.7l2.414-3.628a1.584,1.584,0,0,0,.264-.871l0-4.253H9.457ZM17.333,0A17.324,17.324,0,0,0,4.29,28.736a28.184,28.184,0,0,1,5.163,9.076v.006H14.18v-.012a4.66,4.66,0,0,0-.212-1.386,31.054,31.054,0,0,0-6.123-10.8,12.606,12.606,0,1,1,18.977,0A31.124,31.124,0,0,0,20.706,36.4a4.679,4.679,0,0,0-.219,1.408v.01h4.727v0a28.162,28.162,0,0,1,5.163-9.076A17.325,17.325,0,0,0,17.333,0Z" transform="translate(898.333 2546.869)" fill="#d9f3ff"/><path d="M45.022,14.976c-.138-.115-1.262-1.02-2.785-2.245V8.739a4.369,4.369,0,0,0-4.369-4.369h-6.02C29.788,2.626,26.741,0,23.3,0S16.849,2.606,14.76,4.369H8.739A4.369,4.369,0,0,0,4.369,8.739V12.73c-1.53,1.231-2.653,2.136-2.775,2.236A4.37,4.37,0,0,0,0,18.34v23.9a4.369,4.369,0,0,0,4.369,4.369H42.237a4.369,4.369,0,0,0,4.369-4.369V18.343a4.367,4.367,0,0,0-1.585-3.367ZM8.739,8.739H37.868V23c-3.3,2.669-7.163,5.8-7.882,6.367C28.333,30.688,25.452,33.5,23.3,33.5s-5.085-2.856-6.682-4.132C15.9,28.8,12.039,25.667,8.739,23Zm33.5,32.952a.547.547,0,0,1-.546.546H4.916a.547.547,0,0,1-.546-.546V25.084c3.546,2.866,8.734,7.068,9.527,7.7,2.007,1.6,5.452,5.085,9.407,5.085,3.933,0,7.341-3.434,9.407-5.085.819-.651,5.993-4.842,9.527-7.7ZM16.021,17.477H30.586a1.456,1.456,0,0,0,1.456-1.456V14.565a1.456,1.456,0,0,0-1.456-1.456H16.021a1.456,1.456,0,0,0-1.456,1.456v1.456A1.456,1.456,0,0,0,16.021,17.477ZM32.042,23.3V21.847a1.456,1.456,0,0,0-1.456-1.456H16.021a1.456,1.456,0,0,0-1.456,1.456V23.3a1.456,1.456,0,0,0,1.456,1.456H30.586A1.456,1.456,0,0,0,32.042,23.3Z" transform="translate(894 2797.394)" fill="#ffe3df"/><path d="M38.594,50.011a7.719,7.719,0,1,0-7.719-7.719A7.721,7.721,0,0,0,38.594,50.011Zm0-11.578a3.859,3.859,0,1,1-3.859,3.859A3.86,3.86,0,0,1,38.594,38.432ZM21.878,51.619a9.633,9.633,0,0,0-2.854.426,12.259,12.259,0,0,1-7.188,0,9.9,9.9,0,0,0-2.854-.426A8.862,8.862,0,0,0,1.56,55.39,9.328,9.328,0,0,0,0,60.56v3.6a3.86,3.86,0,0,0,3.859,3.859H27.016a3.86,3.86,0,0,0,3.859-3.859v-3.6A9.214,9.214,0,0,0,29.3,55.39a8.862,8.862,0,0,0-7.421-3.771Zm5.138,12.543H3.859v-3.6a5.421,5.421,0,0,1,3.546-5.074,3.75,3.75,0,0,1,2.565,0,16.123,16.123,0,0,0,10.943,0,3.75,3.75,0,0,1,2.565,0,5.413,5.413,0,0,1,3.546,5.074v3.6ZM15.438,50.011a9.005,9.005,0,1,0-9.005-9.005A9,9,0,0,0,15.438,50.011Zm0-14.151a5.146,5.146,0,1,1-5.146,5.146A5.151,5.151,0,0,1,15.438,35.859ZM50.148,54.923a7.39,7.39,0,0,0-6.183-3.144c-2.235,0-2.8.8-5.371.8s-3.136-.8-5.371-.8a7.851,7.851,0,0,0-3.071.651,11.084,11.084,0,0,1,1.286,1.52,11.8,11.8,0,0,1,.965,1.769,3.943,3.943,0,0,1,.82-.088c1.383,0,2.38.8,5.371.8,3.007,0,3.98-.8,5.371-.8a3.542,3.542,0,0,1,2.983,1.439,3.833,3.833,0,0,1,.651,2.147v2.372H33.448v2.573a6.776,6.776,0,0,1-.129,1.286H48.243a3.215,3.215,0,0,0,3.216-3.216v-3A7.682,7.682,0,0,0,50.148,54.923Z" transform="translate(1141.541 2769.395)" fill="#92dcff"/><path d="M51.758,23.188H48.615a22.373,22.373,0,0,0-18.8-18.8V1.242A1.242,1.242,0,0,0,28.57,0H24.43a1.242,1.242,0,0,0-1.242,1.242V4.385a22.373,22.373,0,0,0-18.8,18.8H1.242A1.242,1.242,0,0,0,0,24.43V28.57a1.242,1.242,0,0,0,1.242,1.242H4.385a22.373,22.373,0,0,0,18.8,18.8v3.143A1.242,1.242,0,0,0,24.43,53H28.57a1.242,1.242,0,0,0,1.242-1.242V48.615a22.373,22.373,0,0,0,18.8-18.8h3.143A1.242,1.242,0,0,0,53,28.57V24.43A1.242,1.242,0,0,0,51.758,23.188Zm-21.945,18.7V37.68a1.242,1.242,0,0,0-1.242-1.242H24.43a1.242,1.242,0,0,0-1.242,1.242v4.206A15.751,15.751,0,0,1,11.114,29.813H15.32a1.242,1.242,0,0,0,1.242-1.242V24.43a1.242,1.242,0,0,0-1.242-1.242H11.114A15.751,15.751,0,0,1,23.188,11.114V15.32a1.242,1.242,0,0,0,1.242,1.242H28.57a1.242,1.242,0,0,0,1.242-1.242V11.114A15.751,15.751,0,0,1,41.886,23.188H37.68a1.242,1.242,0,0,0-1.242,1.242V28.57a1.242,1.242,0,0,0,1.242,1.242h4.206A15.751,15.751,0,0,1,29.813,41.886Zm0-15.386A3.313,3.313,0,1,1,26.5,23.188,3.313,3.313,0,0,1,29.813,26.5Z" transform="translate(640 2794)" fill="#dbbe36"/></g></svg>