<svg xmlns="http://www.w3.org/2000/svg" width="96" height="96" viewBox="0 0 96 96"><g transform="translate(-962 -2550)"><circle cx="48" cy="48" r="48" transform="translate(962 2550)" fill="#ffeb8d"/><g transform="translate(982 2570)"><path d="M349.994,77.693l-1.75-1.75a1,1,0,0,0-1.417,0l-1.93,1.93-1.93-1.93a1,1,0,0,0-1.417,0l-1.75,1.75a1,1,0,0,0,0,1.417l1.93,1.93-1.93,1.93a1,1,0,0,0,0,1.417l1.75,1.75a1,1,0,0,0,1.417,0l1.93-1.93,1.93,1.93a1,1,0,0,0,1.417,0l1.75-1.75a1,1,0,0,0,0-1.417l-1.93-1.93,1.93-1.93A1,1,0,0,0,349.994,77.693Z" transform="translate(-301.71 -67.228)" fill="#dbbe36"/><path d="M79.447,95.2a2.28,2.28,0,0,0,1.617-.67l5.2-5.2a1,1,0,0,0,0-1.417L84.444,86.1a1,1,0,0,0-1.417,0l-3.58,3.58L78.21,88.445a1,1,0,0,0-1.417,0l-1.817,1.817a1,1,0,0,0,0,1.417l2.854,2.854A2.279,2.279,0,0,0,79.447,95.2Z" transform="translate(-66.368 -76.256)" fill="#dbbe36"/><path d="M279.693,0a13.693,13.693,0,1,0,13.693,13.693A13.709,13.709,0,0,0,279.693,0Zm0,25.16A11.467,11.467,0,1,1,291.16,13.693,11.48,11.48,0,0,1,279.693,25.16Z" transform="translate(-236.387)" fill="#dbbe36"/><path d="M27.8,33.3a3.551,3.551,0,0,0-1.717.441,3.569,3.569,0,0,0-4.958-1.53A3.57,3.57,0,0,0,16.6,30.554V27.076a13.692,13.692,0,1,0-7.169-.366L9.367,37.195l-.785-1.359A4.031,4.031,0,0,0,1.208,38.93L3.1,45.751A15.351,15.351,0,0,0,17.893,57,13.5,13.5,0,0,0,31.373,43.519v-6.65A3.578,3.578,0,0,0,27.8,33.3ZM2.227,13.693A11.466,11.466,0,1,1,16.6,24.786v-.755a3.576,3.576,0,0,0-7.152-.007l0,.323A11.5,11.5,0,0,1,2.227,13.693Zm26.92,29.826A11.267,11.267,0,0,1,17.893,54.773,13.163,13.163,0,0,1,5.245,45.156L3.354,38.335A1.8,1.8,0,0,1,4.8,36.073a1.812,1.812,0,0,1,1.856.877L9.49,41.859a1.113,1.113,0,0,0,2.077-.55l.11-17.278a1.349,1.349,0,0,1,2.7,0l.009,15.158a1.113,1.113,0,0,0,2.227,0V33.86a1.347,1.347,0,1,1,2.694,0v5.33a1.113,1.113,0,0,0,2.227,0V35.317a1.347,1.347,0,0,1,2.694,0V39.19a1.113,1.113,0,0,0,2.227,0V36.869a1.347,1.347,0,0,1,2.694,0v6.65Z" transform="translate(0 0)" fill="#dbbe36"/></g></g></svg>