<svg xmlns="http://www.w3.org/2000/svg" width="96" height="96" viewBox="0 0 96 96"><g transform="translate(-542 -2550)"><circle cx="48" cy="48" r="48" transform="translate(542 2550)" fill="#ffeb8d"/><g transform="translate(556.987 2493.857)"><g transform="translate(0 79.005)"><path d="M64.482,102.975c-.452-.915-10.116-16.846-10.361-17.244a9.817,9.817,0,0,0-9.807-4.569l0,0a4.524,4.524,0,0,0-8.378,2.371v7.907H30.091V83.53a4.524,4.524,0,0,0-8.38-2.368A9.818,9.818,0,0,0,11.9,85.731c-.025.04-.1.163-1.919,3.212a1.1,1.1,0,1,0,1.9,1.132c1.5-2.508,1.861-3.117,1.9-3.185a7.611,7.611,0,0,1,14.1,3.987h0v10.889A15.034,15.034,0,0,0,8.235,96.195l1.638-2.747a1.1,1.1,0,0,0-1.9-1.132c-2.348,3.938-6.043,9.846-6.51,10.821a15.045,15.045,0,1,0,28.627,6.472v-2.936h5.842v2.936a15.046,15.046,0,1,0,28.548-6.633Zm-36.6-18.3A9.87,9.87,0,0,0,24.026,81.8a2.314,2.314,0,0,1,3.855,1.726v1.148ZM15.046,122.444a12.836,12.836,0,1,1,12.836-12.836A12.85,12.85,0,0,1,15.046,122.444ZM30.091,100.22V93.646h5.842v6.573Zm5.843,4.243H30.091V102.43h5.842Zm2.21-20.933A2.315,2.315,0,0,1,42,81.8a9.871,9.871,0,0,0-3.857,2.875Zm0,7.348h0a7.611,7.611,0,0,1,14.1-3.987c.133.215,2.894,4.847,5.551,9.3a15.034,15.034,0,0,0-19.647,5.572V90.878ZM50.98,122.444a12.836,12.836,0,1,1,12.836-12.836A12.85,12.85,0,0,1,50.98,122.444Z" transform="translate(0 -79.005)" fill="#dbbe36"/></g><g transform="translate(40.688 99.316)"><path d="M335.5,243.322a1.1,1.1,0,0,0-2.08.748,8.091,8.091,0,1,1-1.69-2.77,1.105,1.105,0,1,0,1.618-1.506,10.26,10.26,0,1,0,2.152,3.528Z" transform="translate(-315.518 -236.512)" fill="#dbbe36"/></g><g transform="translate(4.754 99.317)"><path d="M47.158,236.514a10.292,10.292,0,1,0,10.292,10.292A10.3,10.3,0,0,0,47.158,236.514Zm0,18.373a8.082,8.082,0,1,1,8.082-8.082A8.091,8.091,0,0,1,47.158,254.887Z" transform="translate(-36.866 -236.514)" fill="#dbbe36"/></g></g></g></svg>